<?xml version="1.0" standalone="no"?>
<svg version="1.0" xmlns="http://www.w3.org/2000/svg"
 width="106.000000pt" height="108.000000pt" viewBox="0 0 106.000000 108.000000"
 preserveAspectRatio="xMidYMid meet">

    <g transform="translate(0.000000,108.000000) scale(0.100000,-0.100000)"
    fill="#000000" stroke="none">
        <path d="M384 861 c-51 -23 -64 -48 -134 -260 -53 -159 -54 -161 -37 -195 11
        -25 32 -43 66 -61 28 -14 55 -25 61 -25 5 0 10 18 10 40 0 142 166 210 272
        111 34 -31 41 -44 45 -86 7 -77 6 -77 67 -44 62 34 86 61 86 99 0 32 -105 334
        -131 376 -35 57 -128 84 -149 44 -6 -11 -19 -20 -30 -20 -10 0 -22 9 -25 20
        -8 26 -46 26 -101 1z m310 -226 c38 -39 29 -73 -25 -95 -28 -12 -32 -10 -79
        29 -65 55 -95 55 -161 -1 l-50 -42 -36 19 c-44 24 -49 35 -28 74 l16 31 174 0
        c141 0 176 -3 189 -15z"/>
        <path d="M426 446 c-38 -35 -42 -54 -36 -151 4 -73 77 -117 158 -96 76 21 92
        54 82 164 -5 53 -10 63 -40 89 -27 22 -44 28 -81 28 -40 0 -53 -5 -83 -34z"/>
    </g>
</svg>
