
<svg xmlns="http://www.w3.org/2000/svg"
     width="150" height="150" viewBox="0, 0, 400,400">

    <path d="M172.235 12.235 C 166.819 17.651,172.979 26.803,187.516 34.938 C 196.367 39.892,189.198 49.845,177.990 48.164 C 172.441 47.332,163.592 47.811,158.326 49.229 C 149.337 51.649,147.048 51.078,120.907 39.885 C 105.593 33.327,91.225 28.443,88.978 29.030 C 83.999 30.332,71.478 26.168,63.594 20.588 C 48.050 9.586,28.235 29.058,28.235 55.335 C 28.235 66.379,33.048 78.859,37.935 80.488 C 40.002 81.177,40.014 82.636,37.984 86.428 C 29.988 101.369,36.337 113.101,52.049 112.417 C 60.962 112.030,64.472 112.858,66.079 115.728 C 67.379 118.053,72.929 120.204,80.208 121.205 L 92.194 122.854 90.660 131.033 C 89.642 136.460,90.262 140.948,92.504 144.369 C 94.362 147.205,96.625 154.919,97.531 161.511 C 99.312 174.458,105.928 181.679,119.018 184.965 C 122.620 185.869,129.227 189.092,133.700 192.128 C 140.115 196.481,144.981 197.647,156.733 197.647 L 171.633 197.647 175.525 211.034 C 181.813 232.665,178.866 252.412,165.951 275.172 C 151.222 301.132,149.545 309.461,152.856 340.215 C 155.150 361.528,155.060 365.826,152.285 367.379 C 128.160 380.880,142.368 392.452,170.588 382.285 C 175.765 380.420,182.218 378.878,184.929 378.859 C 193.574 378.797,196.928 371.853,198.462 350.842 C 200.051 329.083,205.298 315.410,215.988 305.168 L 222.576 298.856 234.550 319.428 C 241.136 330.743,249.841 346.882,253.894 355.294 C 268.498 385.597,273.173 390.588,286.955 390.588 C 302.948 390.588,304.500 386.297,300.077 354.313 C 295.876 323.936,290.776 305.572,278.715 277.394 C 269.488 255.837,268.971 250.253,274.591 232.853 L 278.593 220.460 287.469 230.461 C 298.225 242.583,301.109 254.319,295.615 263.620 C 291.244 271.019,290.796 275.897,293.946 281.797 C 295.146 284.044,296.750 287.865,297.512 290.288 C 299.475 296.534,322.821 294.695,329.768 287.748 C 341.527 275.989,333.356 221.430,315.521 192.627 L 308.770 181.724 317.638 180.535 C 339.109 177.655,346.829 167.829,335.019 158.412 C 325.676 150.962,330.079 147.190,347.193 147.983 C 358.611 148.512,360.508 147.977,361.568 143.926 C 362.239 141.359,364.881 138.711,367.439 138.042 C 371.098 137.086,371.929 135.177,371.339 129.091 C 370.597 121.441,370.193 121.199,334.727 107.148 L 298.867 92.941 298.845 82.772 C 298.793 58.081,265.116 23.219,254.118 36.471 C 252.507 38.412,250.130 40.000,248.836 40.000 C 247.514 40.000,247.756 38.466,249.387 36.501 C 254.831 29.941,250.369 25.468,239.076 26.162 C 232.218 26.584,225.275 25.107,218.483 21.781 C 192.112 8.870,178.426 6.045,172.235 12.235 M197.227 19.835 C 199.799 22.335,199.652 23.542,196.374 26.820 C 192.180 31.013,179.476 24.310,176.885 16.538 C 175.573 12.602,192.628 15.367,197.227 19.835 M234.000 38.000 C 239.558 42.973,217.412 34.947,202.706 26.660 C 202.252 26.404,202.599 25.035,203.475 23.617 C 204.902 21.308,226.960 31.701,234.000 38.000 M62.220 28.759 C 70.690 40.852,63.710 69.406,51.187 73.887 C 42.556 76.975,38.261 74.359,35.202 64.149 C 28.247 40.935,50.412 11.901,62.220 28.759 M55.214 36.921 C 57.406 47.408,53.129 55.014,46.911 51.686 C 40.640 48.330,37.647 50.654,37.647 58.880 C 37.647 71.763,52.373 73.229,58.919 60.998 C 62.987 53.397,62.293 37.734,57.691 33.306 C 53.889 29.647,53.740 29.865,55.214 36.921 M83.636 38.717 C 93.325 48.406,92.079 65.371,81.765 64.198 L 74.118 63.328 80.588 67.033 C 92.464 73.834,85.226 78.646,72.109 72.670 C 66.597 70.158,66.491 69.706,69.645 62.157 C 71.458 57.819,72.941 49.470,72.941 43.605 C 72.941 31.518,75.341 30.421,83.636 38.717 M203.853 41.231 C 201.734 42.780,200.000 45.193,200.000 46.591 C 200.000 47.990,198.886 49.823,197.524 50.664 C 195.961 51.630,195.311 49.729,195.760 45.509 C 196.160 41.744,198.527 37.740,201.176 36.344 C 207.088 33.228,209.292 37.253,203.853 41.231 M130.518 50.820 L 166.418 66.346 176.014 60.288 C 194.586 48.564,209.105 64.078,197.468 83.213 C 195.053 87.185,192.434 94.705,191.649 99.923 L 190.222 109.412 176.876 109.897 C 167.950 110.221,151.974 107.493,128.641 101.661 L 93.753 92.941 89.348 98.350 C 81.183 108.374,86.036 113.704,106.131 116.784 C 117.169 118.476,120.487 119.551,115.207 119.725 C 106.319 120.019,105.620 121.289,104.991 138.295 C 104.787 143.796,103.696 145.800,101.176 145.299 C 97.678 144.603,96.608 134.121,98.963 123.605 C 99.843 119.675,98.224 118.652,88.235 116.829 C 73.253 114.096,73.662 114.984,81.880 103.040 C 94.202 85.131,99.919 56.436,94.176 41.330 C 91.187 33.469,89.195 32.948,130.518 50.820 M273.368 47.735 C 290.484 62.670,296.863 80.705,290.425 95.958 L 286.733 104.706 283.328 96.698 C 280.297 89.567,280.338 88.233,283.703 84.514 C 290.887 76.576,282.055 65.789,271.176 69.215 C 268.290 70.124,265.816 68.336,262.904 63.236 C 259.165 56.688,257.941 56.112,250.658 57.479 C 245.821 58.386,240.752 57.863,238.055 56.179 C 234.331 53.854,232.043 54.289,224.947 58.674 C 220.219 61.596,214.894 63.428,213.113 62.745 C 211.175 62.001,209.247 63.562,208.309 66.633 C 207.377 69.684,206.258 70.597,205.548 68.884 C 204.891 67.300,206.022 63.623,208.059 60.714 C 210.097 57.804,211.765 52.483,211.765 48.888 L 211.765 42.353 216.589 47.177 L 221.414 52.002 229.703 46.879 C 236.622 42.603,238.964 42.198,243.861 44.429 C 248.524 46.553,250.772 46.373,254.800 43.551 C 261.749 38.685,263.430 39.063,273.368 47.735 M102.573 49.750 C 100.443 56.546,99.112 84.606,100.868 85.692 C 104.209 87.756,165.573 103.447,166.537 102.483 C 169.300 99.720,171.586 81.710,169.636 78.067 C 164.823 69.072,104.500 43.602,102.573 49.750 M132.941 61.110 C 156.633 71.698,167.059 79.277,167.059 85.912 C 167.059 93.320,166.562 93.293,134.741 84.143 L 108.235 76.521 108.235 64.363 C 108.235 50.246,108.542 50.205,132.941 61.110 M168.824 56.659 C 166.027 58.288,163.385 58.288,160.588 56.659 C 157.229 54.702,157.987 54.261,164.706 54.261 C 171.424 54.261,172.183 54.702,168.824 56.659 M49.772 61.757 C 47.337 64.193,42.353 62.277,42.353 58.905 C 42.353 57.808,44.541 57.483,47.214 58.182 C 50.386 59.012,51.275 60.255,49.772 61.757 M248.567 62.059 C 252.413 61.094,255.508 62.434,259.581 66.829 C 263.277 70.817,267.721 72.941,272.371 72.941 C 281.251 72.941,283.931 78.628,277.253 83.305 C 273.498 85.935,272.717 88.199,273.917 92.978 C 275.015 97.353,274.681 98.722,272.801 97.560 C 270.894 96.382,270.935 97.428,272.941 101.176 C 274.494 104.077,274.710 105.799,273.422 105.003 C 270.770 103.364,267.552 109.932,269.479 113.051 C 270.172 114.172,272.060 114.582,273.675 113.962 C 275.506 113.259,276.808 115.199,277.132 119.115 C 277.695 125.920,274.127 131.765,269.409 131.765 C 267.783 131.765,260.298 135.471,252.776 140.000 C 244.213 145.157,240.808 148.263,243.668 148.310 C 248.189 148.384,248.189 148.420,243.668 151.840 C 238.665 155.624,228.235 156.541,228.235 153.196 C 228.235 152.042,225.608 150.439,222.398 149.633 C 204.592 145.164,192.295 118.782,197.637 96.514 C 200.826 83.220,212.283 65.882,217.879 65.882 C 219.931 65.882,224.276 63.786,227.534 61.223 C 232.828 57.059,233.974 56.927,238.337 59.983 C 241.052 61.885,245.592 62.806,248.567 62.059 M176.777 68.626 C 173.000 78.788,179.505 84.155,186.046 76.273 C 188.233 73.638,188.440 71.440,186.754 68.766 C 182.957 62.746,178.983 62.690,176.777 68.626 M190.588 68.235 C 190.588 70.850,192.157 72.941,194.118 72.941 C 196.078 72.941,197.647 70.850,197.647 68.235 C 197.647 65.621,196.078 63.529,194.118 63.529 C 192.157 63.529,190.588 65.621,190.588 68.235 M185.882 70.196 C 185.882 73.260,183.085 75.297,180.810 73.891 C 178.376 72.387,180.475 68.235,183.668 68.235 C 184.886 68.235,185.882 69.118,185.882 70.196 M236.206 74.191 C 230.727 82.553,233.017 83.089,239.591 74.984 C 242.601 71.272,243.949 68.235,242.586 68.235 C 241.223 68.235,238.352 70.915,236.206 74.191 M70.392 79.334 C 70.931 79.700,67.890 80.000,63.633 80.000 C 56.993 80.000,56.314 79.495,58.848 76.442 C 61.228 73.574,62.539 73.444,65.606 75.776 C 67.699 77.367,69.853 78.968,70.392 79.334 M212.882 75.198 C 213.649 76.440,212.958 79.568,211.345 82.150 C 207.392 88.481,210.650 91.150,216.201 86.126 C 221.186 81.615,220.317 72.941,214.881 72.941 C 213.014 72.941,212.115 73.957,212.882 75.198 M52.261 91.922 C 47.937 96.971,42.353 97.982,42.353 93.715 C 42.353 88.365,49.898 82.180,53.141 84.871 C 55.561 86.880,55.388 88.270,52.261 91.922 M79.397 89.226 C 83.613 91.434,76.383 101.176,70.529 101.176 C 67.330 101.176,66.457 102.289,67.508 105.027 C 68.524 107.675,67.949 108.532,65.669 107.772 C 63.845 107.164,62.459 105.431,62.588 103.922 C 62.718 102.412,62.982 97.450,63.176 92.896 C 63.537 84.436,68.225 83.376,79.397 89.226 M223.813 91.533 C 217.603 96.601,216.243 99.105,217.516 103.117 C 219.619 109.743,223.529 109.727,223.529 103.093 C 223.529 100.264,225.828 95.504,228.637 92.514 C 236.057 84.615,233.041 84.002,223.813 91.533 M247.171 86.940 C 245.292 88.129,242.925 88.589,241.912 87.963 C 240.291 86.961,241.958 101.059,243.711 103.177 C 245.630 105.495,249.412 100.173,249.412 95.155 C 249.412 91.522,250.759 89.412,253.080 89.412 C 255.098 89.412,256.094 88.353,255.294 87.059 C 253.507 84.167,251.598 84.139,247.171 86.940 M55.168 101.834 C 52.599 108.528,42.353 109.542,42.353 103.102 C 42.353 101.482,43.550 101.593,45.751 103.420 C 48.478 105.683,49.737 105.297,52.132 101.462 C 55.508 96.057,57.300 96.277,55.168 101.834 M99.825 106.665 C 98.997 108.823,96.643 110.588,94.593 110.588 C 91.494 110.588,91.597 110.053,95.204 107.416 C 97.992 105.377,98.870 103.065,97.661 100.945 C 96.266 98.499,96.497 98.305,98.555 100.195 C 100.082 101.596,100.653 104.508,99.825 106.665 M333.884 113.763 C 363.000 125.449,373.032 135.396,346.282 126.055 C 324.856 118.573,310.588 118.969,310.588 127.047 C 310.588 131.088,319.155 139.718,325.150 141.717 C 326.893 142.298,326.667 144.496,324.444 148.593 L 321.176 154.615 295.294 145.728 C 281.059 140.840,270.694 136.757,272.261 136.656 C 276.579 136.375,284.903 126.524,284.279 122.431 C 283.356 116.372,294.845 98.766,298.894 100.036 C 300.874 100.657,316.620 106.834,333.884 113.763 M125.732 105.736 C 134.874 108.244,146.853 111.462,152.353 112.886 C 171.166 117.758,162.368 119.042,133.529 115.633 C 99.862 111.654,103.391 112.803,105.074 106.368 C 106.711 100.106,105.359 100.147,125.732 105.736 M200.000 112.053 C 200.000 116.991,200.640 117.692,203.202 115.566 C 205.609 113.568,208.513 113.789,214.891 116.454 C 219.559 118.404,227.181 120.000,231.828 120.000 C 236.862 120.000,239.690 120.951,238.824 122.353 C 236.397 126.280,222.845 124.994,212.906 119.894 L 203.529 115.082 211.735 122.713 C 216.249 126.910,218.102 129.638,215.853 128.775 C 213.604 127.912,211.765 128.170,211.765 129.347 C 211.765 132.934,216.504 134.665,219.515 132.178 C 224.688 127.903,240.321 126.124,242.449 129.567 C 243.835 131.810,244.848 130.842,246.026 126.149 C 247.185 121.531,246.539 118.472,243.834 115.767 C 241.364 113.296,240.000 112.949,240.000 114.790 C 240.000 120.562,209.540 114.502,207.479 108.320 C 205.754 103.143,200.000 106.015,200.000 112.053 M182.911 117.674 C 184.201 125.051,179.692 128.319,173.094 124.788 C 166.127 121.059,165.206 116.134,171.176 114.539 C 177.855 112.753,182.257 113.930,182.911 117.674 M188.128 128.365 C 183.084 134.443,181.678 131.957,185.592 123.880 C 188.621 117.626,189.571 116.922,190.181 120.480 C 190.603 122.947,189.680 126.495,188.128 128.365 M138.235 121.622 C 135.971 122.214,132.265 122.214,130.000 121.622 C 127.735 121.030,129.588 120.546,134.118 120.546 C 138.647 120.546,140.500 121.030,138.235 121.622 M157.059 123.975 C 154.794 124.567,151.088 124.567,148.824 123.975 C 146.559 123.383,148.412 122.899,152.941 122.899 C 157.471 122.899,159.324 123.383,157.059 123.975 M337.059 129.535 C 346.051 132.033,348.915 137.807,342.401 140.307 C 338.456 141.821,317.647 132.486,317.647 129.202 C 317.647 126.361,326.153 126.507,337.059 129.535 M168.672 138.262 C 175.467 146.560,175.407 147.130,167.403 150.446 C 157.035 154.740,137.466 152.844,138.342 147.630 C 138.725 145.355,138.030 141.694,136.798 139.493 C 130.210 127.719,159.124 126.603,168.672 138.262 M185.272 137.813 C 193.242 140.658,193.490 140.980,187.778 141.073 C 184.072 141.134,178.696 138.611,174.837 135.001 C 171.206 131.604,170.078 130.137,172.331 131.741 C 174.583 133.345,180.407 136.077,185.272 137.813 M197.059 135.491 C 194.816 137.733,190.321 134.101,191.992 131.397 C 192.985 129.790,194.301 129.831,195.991 131.520 C 197.376 132.906,197.857 134.692,197.059 135.491 M117.627 136.409 C 120.315 138.108,120.490 139.275,118.374 141.391 C 114.878 144.887,108.235 142.482,108.235 137.721 C 108.235 133.665,112.373 133.087,117.627 136.409 M355.891 140.059 C 356.026 141.321,354.362 142.695,352.194 143.112 C 349.400 143.650,348.677 142.764,349.710 140.071 C 351.233 136.101,355.469 136.093,355.891 140.059 M131.765 144.706 C 131.765 146.494,130.588 148.685,129.149 149.574 C 125.434 151.870,122.093 145.501,125.107 141.870 C 127.996 138.389,131.765 139.994,131.765 144.706 M299.235 151.902 C 328.926 161.797,343.624 169.412,333.033 169.412 C 317.894 169.412,259.436 148.518,258.971 142.941 C 258.674 139.388,267.739 141.405,299.235 151.902 M195.294 149.125 C 195.294 150.908,197.527 153.850,200.256 155.662 L 205.217 158.956 200.545 174.184 C 197.975 182.559,194.509 197.118,192.842 206.537 C 191.080 216.491,188.759 223.312,187.300 222.826 C 184.434 221.870,176.867 195.118,176.629 185.098 C 176.527 180.822,175.416 178.806,173.529 179.475 C 171.912 180.049,170.820 182.669,171.103 185.298 C 172.064 194.204,152.610 195.701,138.556 187.802 C 128.469 182.133,127.777 180.757,132.879 176.522 C 134.786 174.940,136.972 170.308,137.737 166.229 C 139.074 159.104,139.526 158.846,149.289 159.622 C 156.791 160.219,163.677 158.545,175.607 153.227 C 194.151 144.960,195.294 144.722,195.294 149.125 M215.363 154.400 C 223.113 162.151,241.411 161.563,250.228 153.279 C 255.756 148.086,261.176 146.629,261.176 150.336 C 261.176 151.492,259.853 153.058,258.235 153.816 C 235.416 164.510,231.865 170.569,227.918 205.539 C 224.784 233.314,224.298 232.625,247.565 233.436 L 267.115 234.118 265.168 246.309 L 263.222 258.499 251.495 261.014 C 236.258 264.282,213.609 264.215,196.863 260.852 L 183.529 258.174 183.562 248.499 C 183.605 235.404,185.772 228.235,189.686 228.235 C 191.476 228.235,192.941 227.822,192.941 227.318 C 192.941 223.139,203.237 177.547,206.238 168.436 C 209.757 157.754,209.754 156.658,206.200 154.059 C 201.437 150.576,201.266 148.235,205.775 148.235 C 207.658 148.235,211.972 151.009,215.363 154.400 M117.059 155.882 C 116.520 157.500,113.078 158.824,109.412 158.824 C 105.745 158.824,102.304 157.500,101.765 155.882 C 101.099 153.886,103.556 152.941,109.412 152.941 C 115.268 152.941,117.724 153.886,117.059 155.882 M134.118 161.241 C 134.118 170.706,128.145 178.824,121.182 178.824 C 113.897 178.824,111.506 174.890,117.613 172.952 C 121.959 171.573,123.501 167.074,122.858 157.647 C 122.705 155.407,124.717 154.118,128.367 154.118 C 133.200 154.118,134.118 155.255,134.118 161.241 M278.880 160.039 C 309.293 180.964,338.068 242.725,321.528 251.577 C 312.269 256.532,305.777 254.000,302.395 244.113 C 297.021 228.405,268.235 200.940,268.235 211.521 C 268.235 212.733,269.461 214.134,270.960 214.634 C 272.643 215.195,273.101 217.864,272.159 221.618 C 270.379 228.714,255.992 232.114,239.522 229.331 L 230.025 227.726 231.659 208.991 C 234.378 177.829,237.972 169.473,252.372 160.843 C 267.850 151.567,266.621 151.604,278.880 160.039 M117.647 166.900 C 117.647 169.760,108.968 172.495,105.903 170.601 C 101.246 167.723,103.644 164.706,110.588 164.706 C 114.471 164.706,117.647 165.693,117.647 166.900 M310.903 169.784 C 321.197 172.868,323.482 177.403,313.529 174.994 C 304.122 172.718,296.471 169.712,296.471 168.294 C 296.471 166.357,301.038 166.828,310.903 169.784 M329.210 270.588 C 329.346 279.240,326.073 286.857,323.377 284.162 C 322.506 283.290,320.255 284.115,318.375 285.994 C 314.513 289.857,309.541 290.657,311.765 287.059 C 313.653 284.004,311.458 284.075,305.505 287.261 C 300.599 289.887,300.570 288.417,305.281 275.882 C 305.888 274.265,305.302 272.941,303.977 272.941 C 302.652 272.941,301.035 274.265,300.382 275.882 C 299.729 277.500,299.111 276.482,299.009 273.621 C 298.784 267.300,307.321 258.837,313.973 258.787 C 316.641 258.768,320.412 257.748,322.352 256.521 C 326.667 253.793,329.022 258.624,329.210 270.588 M231.765 267.252 C 243.412 266.449,255.969 265.548,259.670 265.249 C 268.695 264.520,284.963 302.497,291.146 338.727 C 295.806 366.038,295.286 367.237,278.523 367.830 L 267.059 368.235 257.021 348.235 C 239.271 312.868,214.816 274.343,218.109 286.934 C 218.908 289.989,216.178 295.295,209.936 302.820 C 197.137 318.249,195.850 321.289,193.246 342.268 C 190.562 363.881,190.148 364.422,174.887 366.230 C 160.387 367.947,160.590 368.345,158.518 334.232 C 156.784 305.670,158.322 299.435,173.126 275.017 L 181.140 261.798 195.864 265.254 C 206.251 267.693,216.826 268.281,231.765 267.252 M190.588 369.412 C 190.588 370.706,188.070 371.765,184.993 371.765 C 181.916 371.765,175.828 373.219,171.464 374.996 C 167.100 376.773,159.294 378.915,154.118 379.755 L 144.706 381.284 150.261 376.524 C 153.743 373.540,159.449 371.677,165.555 371.530 C 170.911 371.401,177.941 370.448,181.176 369.412 C 189.480 366.753,190.588 366.753,190.588 369.412 M296.103 377.733 C 294.731 384.716,288.491 387.047,280.278 383.645 C 270.102 379.430,271.114 375.200,282.941 372.519 C 293.873 370.040,297.345 371.416,296.103 377.733 "
           fill-rule="evenodd">
    </path>
</svg>