<?xml version="1.0" encoding="UTF-8"?>
<svg version="1.1" xmlns="http://www.w3.org/2000/svg" width="996" height="996">
    <defs>
        <mask id="cHole">
            <rect width="100%" height="100%" fill="white"/>
            <path d="M0 0 C0.87585251 -0.00570007 1.75170502 -0.01140015 2.65409851 -0.01727295 C4.50384332 -0.02667372 6.3536045 -0.03323721 8.20336914 -0.03710938 C10.96597573 -0.04671594 13.72780493 -0.07774507 16.49023438 -0.109375 C42.86129503 -0.26679347 71.00282797 4.12436628 90.6953125 23.1484375 C92.04027928 24.48971944 93.37026208 25.84597834 94.69921875 27.203125 C95.364375 27.82445312 96.02953125 28.44578125 96.71484375 29.0859375 C115.24434375 47.69890371 116.47238836 81.03538419 116.94921875 105.578125 C116.481871 129.85099889 110.386076 153.22949766 94.69921875 172.203125 C94.01214844 173.05261719 93.32507813 173.90210938 92.6171875 174.77734375 C81.0849836 188.34586473 64.57765295 198.75008891 46.69921875 201.203125 C27.25561272 202.59335262 9.60398375 196.92547306 -5.25390625 184.13671875 C-11.89296873 177.8650853 -17.66437942 170.58099729 -18.4777832 161.15112305 C-18.80648319 149.42399793 -18.22324194 139.36988029 -14.30078125 128.203125 C-13.88828125 127.01847656 -13.47578125 125.83382812 -13.05078125 124.61328125 C-10.30595167 117.30673205 -6.94351101 110.50595669 -3.23828125 103.640625 C5.31567206 88.26542436 5.31567206 88.26542436 6.69921875 71.203125 C3.23785054 66.06690121 -1.52719943 64.63917951 -7.30078125 63.203125 C-27.3125414 60.51745427 -44.74064045 66.31854799 -61.30078125 77.203125 C-61.86716309 77.57421387 -62.43354492 77.94530273 -63.01708984 78.32763672 C-72.78291765 84.82443003 -81.62484997 92.33107498 -90.30078125 100.203125 C-90.98043945 100.81961914 -91.66009766 101.43611328 -92.36035156 102.07128906 C-111.86185581 119.87150199 -129.22635719 139.29467028 -145.30078125 160.203125 C-145.85749512 160.92322754 -146.41420898 161.64333008 -146.98779297 162.38525391 C-167.59886924 189.12134652 -184.97429467 217.70515656 -201.30078125 247.203125 C-201.74663574 248.00540527 -202.19249023 248.80768555 -202.65185547 249.63427734 C-234.29083607 306.91530759 -257.39948029 377.33691165 -239.10302734 442.5625 C-233.91765991 459.63034362 -226.21690126 475.80603405 -214.30078125 489.203125 C-213.63691406 489.96109375 -212.97304688 490.7190625 -212.2890625 491.5 C-203.29407977 501.14341957 -191.74734128 507.98815447 -179.30078125 512.203125 C-178.40230469 512.52152344 -177.50382813 512.83992187 -176.578125 513.16796875 C-147.24497461 521.73498575 -118.55193225 510.67190062 -92.90136719 496.99902344 C-68.83404291 483.6835024 -46.36836716 466.82172004 -25.30078125 449.203125 C-24.5106665 448.54256104 -24.5106665 448.54256104 -23.70458984 447.86865234 C-14.96533707 440.53706445 -6.56418796 432.89302437 1.72558594 425.05908203 C3.79252723 423.11537994 5.87310826 421.18719549 7.95703125 419.26171875 C8.66553223 418.60469971 9.3740332 417.94768066 10.10400391 417.27075195 C11.45261535 416.02035562 12.80366437 414.77258055 14.15771484 413.52807617 C18.0948962 409.86367285 21.70978338 406.03486135 25.20581055 401.94677734 C26.94481995 399.91636943 28.69966481 397.98050628 30.69921875 396.203125 C31.35921875 396.203125 32.01921875 396.203125 32.69921875 396.203125 C34.72688851 399.96700365 36.73846229 403.73890973 38.7355957 407.51904297 C39.41711 408.8035912 40.10295748 410.08585025 40.79321289 411.36572266 C41.7851135 413.20670161 42.76109882 415.05537208 43.734375 416.90625 C44.32613525 418.01645508 44.91789551 419.12666016 45.52758789 420.27050781 C46.69921875 423.203125 46.69921875 423.203125 46.50976562 425.41650391 C45.16892909 428.37199842 43.14909293 430.80941629 41.13671875 433.328125 C40.68417725 433.90433594 40.23163574 434.48054688 39.76538086 435.07421875 C38.41604743 436.7887442 37.05805675 438.49612956 35.69921875 440.203125 C35.02117187 441.06679688 34.343125 441.93046875 33.64453125 442.8203125 C26.08456004 452.38791092 18.18146885 461.68223267 9.96484375 470.69140625 C8.09301098 472.76655879 6.25392725 474.86262854 4.421875 476.97265625 C0.67217207 481.26612124 -3.19967662 485.43414103 -7.11328125 489.578125 C-8.16322266 490.6906665 -8.16322266 490.6906665 -9.234375 491.82568359 C-16.2545639 499.24253907 -23.28039409 506.59194726 -31.05078125 513.234375 C-33.38966239 515.280896 -35.66148032 517.38707543 -37.93212891 519.50854492 C-44.18515528 525.34657956 -50.59610041 530.88340559 -57.30078125 536.203125 C-58.36737818 537.06226333 -59.4337761 537.92164877 -60.5 538.78125 C-74.06332244 549.64954811 -88.16580996 559.641851 -103.30078125 568.203125 C-104.2738623 568.7614502 -104.2738623 568.7614502 -105.26660156 569.33105469 C-129.45681847 583.11207675 -157.26254317 592.6913065 -185.30078125 592.453125 C-186.48067627 592.44563232 -187.66057129 592.43813965 -188.8762207 592.43041992 C-234.65813439 591.87471622 -279.23444823 577.51011954 -313.30078125 546.203125 C-314.04714844 545.53925781 -314.79351562 544.87539063 -315.5625 544.19140625 C-340.48088374 520.89044296 -349.48486298 486.5845353 -355.30078125 454.203125 C-355.48012207 453.22456543 -355.65946289 452.24600586 -355.84423828 451.23779297 C-371.33097746 362.42357375 -336.70253412 273.21716752 -286.34936523 201.50292969 C-271.1831025 180.1868867 -254.44184322 159.81903449 -236.640625 140.65625 C-235.35899834 139.26626423 -234.0950542 137.86003664 -232.83203125 136.453125 C-226.94429651 129.91119752 -220.82690533 123.62401099 -214.61328125 117.390625 C-213.41928711 116.18974243 -213.41928711 116.18974243 -212.20117188 114.96459961 C-207.95521743 110.72967477 -203.63111252 106.653685 -199.08520508 102.74243164 C-196.66925196 100.65834567 -194.33178892 98.49304499 -191.98828125 96.328125 C-186.58580605 91.40735198 -180.99840544 86.7761201 -175.30078125 82.203125 C-174.16879339 81.27923051 -173.03730638 80.3547221 -171.90625 79.4296875 C-138.39584484 52.14976904 -100.80576367 27.66769917 -60.30078125 12.203125 C-59.58712402 11.92774902 -58.8734668 11.65237305 -58.13818359 11.36865234 C-39.80448523 4.42286436 -19.6308138 0.1020153 0 0 Z "
                  transform="translate(606.30078125,199.796875)"/>
        </mask>
    </defs>
    <path d="M445.1875 46.875 C443.28000977 46.96394531 443.28000977 46.96394531 441.33398438 47.0546875 C434.45436797 47.47624205 434.45436797 47.47624205 428.93847656 51.14013672 C427.42189791 53.70135172 426.1992808 56.27822426 425 59 C410.42868074 81.67584556 386.51161627 100.1368541 360 106 C336.33814314 110.5837366 306.68417413 112.39995932 284.90234375 99.78515625 C281.55857367 98.40507866 278.5927645 99.76268646 275.3527832 101.05981445 C272.33304892 102.46456843 269.31937045 103.88039226 266.3125 105.3125 C265.25482422 105.79912109 264.19714844 106.28574219 263.10742188 106.78710938 C261.59438477 107.50543945 261.59438477 107.50543945 260.05078125 108.23828125 C259.12950439 108.67180908 258.20822754 109.10533691 257.2590332 109.55200195 C254.04898805 111.60958088 253.32926713 113.55631508 252.50097656 117.18798828 C252.38206055 117.97415527 252.26314453 118.76032227 252.140625 119.5703125 C251.99802246 120.4574292 251.85541992 121.3445459 251.70849609 122.25854492 C251.55719238 123.2044751 251.40588867 124.15040527 251.25 125.125 C246.78549197 150.83491713 236.56164763 177.20215819 214.625 192.875 C212.43819323 194.28398448 210.22909449 195.65891876 208 197 C207.41395996 197.35288086 206.82791992 197.70576172 206.22412109 198.06933594 C202.19864841 200.47438991 198.11725546 202.75602163 194 205 C192.77603516 205.69222656 192.77603516 205.69222656 191.52734375 206.3984375 C179.7153831 212.76028252 164.90447906 217.97768279 151.421875 218.05078125 C142.69634984 217.8258041 142.69634984 217.8258041 134.5703125 220.34765625 C132.71206841 222.44151502 131.41260567 224.58042353 130 227 C129.15205809 228.16562156 128.29016892 229.32116733 127.41796875 230.46875 C121.52353147 237.52322266 121.52353147 237.52322266 119 246 C119.67709754 248.74267357 120.42533274 251.32891692 121.3125 254 C129.58370078 280.68009967 126.82404921 306.3633716 114.5 331.25 C113.88898438 332.40628906 113.88898438 332.40628906 113.265625 333.5859375 C112.35712303 335.31882088 111.49795988 337.07790966 110.671875 338.8515625 C106.99399061 346.67211888 102.410556 353.27750388 97 360 C96.17048828 361.07894531 96.17048828 361.07894531 95.32421875 362.1796875 C86.86258802 372.63599545 75.86382615 379.04640223 63.75 384.40625 C63.10200439 384.69443604 62.45400879 384.98262207 61.78637695 385.27954102 C60 386 60 386 57.16796875 386.68359375 C54.06873599 388.56547022 53.77562202 390.7197069 52.88085938 394.13476562 C52.59952148 395.33649414 52.59952148 395.33649414 52.3125 396.5625 C52.11333984 397.33658203 51.91417969 398.11066406 51.70898438 398.90820312 C51.11021012 401.26599945 50.55480083 403.63152073 50 406 C49.6913501 407.19858643 49.6913501 407.19858643 49.37646484 408.42138672 C47.87124591 414.22743768 47.87124591 414.22743768 49 420 C50.71808787 422.0143008 50.71808787 422.0143008 52.9375 423.875 C69.1907002 439.42941611 79.59688601 462.88973505 80.29101562 485.28486633 C80.35273365 488.42483356 80.37124043 491.56356298 80.37060547 494.70410156 C80.37495525 497.10034604 80.41132112 499.49470723 80.44921875 501.890625 C80.65403812 529.78064342 69.18934006 553.36349973 51 574 C50.39929687 574.44988281 49.79859375 574.89976562 49.1796875 575.36328125 C47.68856527 577.06713034 47.68856527 577.06713034 48.1875 579.97265625 C48.45275545 581.31621743 48.72439156 582.65852429 49 584 C49.12632813 584.85577637 49.25265625 585.71155273 49.3828125 586.59326172 C50.87475953 598.58284676 50.87475953 598.58284676 56.72265625 608.68261719 C60.78362919 611.26008361 65.2771534 612.65877511 69.81787109 614.16455078 C90.9362565 622.24992948 104.98643978 644.94501688 114.140625 664.21826172 C115.28595331 666.59286569 116.5219009 668.91736055 117.75 671.25 C126.40540374 688.70652135 128.06734084 708.5078894 124.8125 727.5625 C124.69430908 728.25883545 124.57611816 728.9551709 124.4543457 729.67260742 C123.73721958 733.41962393 122.74572157 736.77677902 121.23046875 740.28125 C118.58538743 746.42816025 118.58538743 746.42816025 118 753 C120.49986027 758.62908234 124.96750319 762.96467697 129.33398438 767.20092773 C131.00364094 769.00393173 132.02539172 770.74733262 133.2109375 772.88671875 C134.84217509 775.25410799 135.64401698 775.90255965 138.45458984 776.671875 C141.56379189 777.00218525 144.62404278 777.12522253 147.75 777.1875 C150.01092035 777.30162203 152.27137569 777.42535411 154.53125 777.55859375 C155.63597656 777.62288574 156.74070312 777.68717773 157.87890625 777.75341797 C169.70473284 778.68771747 180.55521472 782.45000339 191 788 C192.14082031 788.598125 193.28164062 789.19625 194.45703125 789.8125 C202.96955222 794.40556994 210.53826487 799.86522292 218 806 C218.8971875 806.71929688 219.794375 807.43859375 220.71875 808.1796875 C236.40560066 821.39731166 247.31807414 842.91701494 249.8203125 863.15625 C250.95509149 875.72520701 250.95509149 875.72520701 257.78125 885.65234375 C261.34556164 887.93401307 265.09246876 889.6270594 269.02539062 891.17138672 C271.57731264 892.24226003 273.73144219 893.73979414 276 895.3125 C278.31421889 896.56677131 279.45515209 897.06144901 282.078125 896.765625 C284.46816249 895.99187186 286.70348856 895.01785444 289 894 C316.11119434 884.24148887 349.29346989 883.30860418 376 895 C395.95597919 904.55853899 416.96072263 920.2325022 427.18481445 940.32885742 C429.21715303 944.07812643 430.62794183 946.49973607 434.73999023 947.99902344 C438.02590953 948.56026469 441.23543441 948.86138205 444.5625 949.0625 C445.68591797 949.16498047 446.80933594 949.26746094 447.96679688 949.37304688 C450.97868978 949.63611773 453.98022603 949.85533857 457 950 C457.88042969 950.06292236 458.76085937 950.12584473 459.66796875 950.19067383 C462.50054231 949.95907417 463.18356281 949.36958067 465.05859375 947.2890625 C465.87360352 946.41822021 465.87360352 946.41822021 466.70507812 945.52978516 C467.27677734 944.90120605 467.84847656 944.27262695 468.4375 943.625 C475.04884404 936.70407715 481.9474488 931.14462228 490 926 C491.09699219 925.29230469 492.19398438 924.58460938 493.32421875 923.85546875 C517.51500226 909.16118329 545.10422739 904.91652431 572.73388672 911.42236328 C587.86607892 915.27958874 601.34396059 921.25947445 614.95141602 928.87426758 C615.96546509 929.43150513 615.96546509 929.43150513 617 930 C617.93199219 930.61186157 617.93199219 930.61186157 618.8828125 931.23608398 C623.76632597 932.99813583 629.72243215 929.78467933 634.4375 928.25 C635.66533203 927.89550781 636.89316406 927.54101562 638.15820312 927.17578125 C644.75438623 925.13234886 644.75438623 925.13234886 649.83178711 920.70751953 C651.10274055 918.17719969 652.08042724 915.67587623 653 913 C653.60894224 911.685876 654.23642385 910.38009711 654.88671875 909.0859375 C655.18022217 908.47790283 655.47372559 907.86986816 655.77612305 907.2434082 C658.94783399 900.74110339 662.37935965 894.46515381 666.1875 888.3125 C666.59121826 887.65362793 666.99493652 886.99475586 667.41088867 886.31591797 C669.90267252 882.37326712 672.66375269 879.2888406 676 876 C676 875.34 676 874.68 676 874 C676.66 874 677.32 874 678 874 C679.17206211 872.86241031 680.33817582 871.71816303 681.4765625 870.546875 C693.7075676 858.12770059 707.63101053 852.04302201 724 847 C724.6997998 846.78327637 725.39959961 846.56655273 726.12060547 846.34326172 C743.07009373 841.20335987 761.84025497 838.45691246 779.25 842.6875 C783.59787628 843.42895918 786.05151675 843.27129284 789.6953125 840.89453125 C792.73286786 838.62351753 795.53721212 836.14365574 798.25439453 833.5 C800 832 800 832 802.17919922 830.8125 C804.67697564 829.40064139 806.24952247 828.28837621 808 826 C808.95646097 820.99196107 808.66494692 816.06273576 808.375 811 C808.26053548 808.31299386 808.16836492 805.62566785 808.0859375 802.9375 C808.05293045 801.94339867 808.05293045 801.94339867 808.01925659 800.92921448 C807.37427912 773.57159424 819.58008797 750.38997162 837.76953125 730.91796875 C853.9566428 714.01477088 874.4442245 699.11063766 898.5 696.640625 C904.23817687 693.95085459 905.81782251 688.69899954 908.375 683.125 C908.90738281 682.02285156 909.43976562 680.92070313 909.98828125 679.78515625 C913.15427556 673.61734085 913.15427556 673.61734085 915 667 C913.55468338 664.12721425 913.55468338 664.12721425 911.4375 661.125 C896.44936569 637.96958041 893.74906144 613.02121608 899.26831055 586.41796875 C899.57201136 585.00722949 899.87836989 583.59705952 900.1875 582.1875 C900.33321442 581.5162207 900.47892883 580.84494141 900.62905884 580.15332031 C902.57965633 571.34502471 905.22760212 563.19173959 909 555 C909.53882813 553.8140625 910.07765625 552.628125 910.6328125 551.40625 C914.96040473 542.97764105 920.29611537 536.57239146 927 530 C927.92425781 529.08863281 928.84851563 528.17726563 929.80078125 527.23828125 C936.98464082 520.44054143 936.98464082 520.44054143 940.49780273 518.91625977 C943.50313819 517.53749977 945.63333814 516.32428105 948 514 C949.73416962 508.92788847 949.91213266 503.98782761 949.9375 498.6875 C949.95382477 497.98002625 949.97014954 497.27255249 949.98696899 496.54364014 C950.39034476 487.27001417 950.39034476 487.27001417 946.484375 479.27734375 C943.08894676 477.06066015 939.73776542 475.55569645 936 474 C933.15234375 471.765625 933.15234375 471.765625 930.625 469.375 C929.82320312 468.62089844 929.02140625 467.86679687 928.1953125 467.08984375 C927.47085938 466.40019531 926.74640625 465.71054687 926 465 C925.39929688 464.48566406 924.79859375 463.97132813 924.1796875 463.44140625 C919.9344024 459.64039517 916.9278974 455.14205194 913.875 450.375 C913.46701172 449.74843506 913.05902344 449.12187012 912.63867188 448.47631836 C906.07469411 437.87347948 902.83159417 425.89615666 900.1875 413.8125 C900.03591431 413.12290192 899.88432861 412.43330383 899.72814941 411.72280884 C894.03512402 385.27696717 895.41552611 359.39265973 910 336 C911.38882789 334.26112693 912.77507985 332.53585535 914.2421875 330.86230469 C915.46369546 327.86048035 914.19971055 325.90834117 913 323 C912.17565741 321.12532528 911.31917788 319.26450246 910.43359375 317.41796875 C909.7055957 315.89719727 909.7055957 315.89719727 908.96289062 314.34570312 C908.45951172 313.30349609 907.95613281 312.26128906 907.4375 311.1875 C906.93025391 310.12595703 906.42300781 309.06441406 905.90039062 307.97070312 C903.91212301 303.18094192 903.91212301 303.18094192 901 299 C898.83688124 298.60504854 896.66920685 298.23501542 894.5 297.875 C881.25792297 295.41419675 868.88520158 289.91807849 858 282 C856.79537109 281.12794922 856.79537109 281.12794922 855.56640625 280.23828125 C844.7320759 271.96952033 835.10837288 261.93102153 827 251 C826.40832031 250.236875 825.81664062 249.47375 825.20703125 248.6875 C813.56062048 233.05611424 807.16386701 213.48041758 808.359375 193.98046875 C809.88667854 179.62402891 809.88667854 179.62402891 805.390625 166.6171875 C802.29379665 163.49349465 798.73058215 161.30038207 795 159 C793.59826149 157.58856088 792.21840711 156.15456802 790.875 154.6875 C788.7140491 152.84718106 787.58692615 152.01347742 784.71411133 151.94750977 C783.8661499 152.06924561 783.01818848 152.19098145 782.14453125 152.31640625 C765.54648312 154.28116857 747.15891395 154.70912473 731 150 C729.79537109 149.65340332 729.79537109 149.65340332 728.56640625 149.29980469 C711.60695058 144.29134731 696.12585731 138.14295379 683 126 C682.18402344 125.28714844 681.36804688 124.57429688 680.52734375 123.83984375 C669.2288901 113.40086042 661.31128377 99.61193179 654.71875 85.84375 C654.28079102 84.93846558 654.28079102 84.93846558 653.83398438 84.01489258 C653 82 653 82 652.36914062 79.4909668 C651.14379099 75.15118685 650.18877389 72.70721618 646.21679688 70.34423828 C642.6808585 68.95555837 639.15486361 67.84721895 635.5 66.8125 C634.26378906 66.41998047 633.02757812 66.02746094 631.75390625 65.62304688 C623.89833869 62.91984602 623.89833869 62.91984602 616.25512695 64.92041016 C615.67206787 65.28956543 615.08900879 65.6587207 614.48828125 66.0390625 C613.48897583 66.65744995 613.48897583 66.65744995 612.46948242 67.28833008 C611.75767822 67.72943115 611.04587402 68.17053223 610.3125 68.625 C585.69137435 83.40084447 553.33097285 92.54818805 524.73193359 85.61621094 C506.15205993 80.33874063 489.75381246 71.40104502 475 59 C474.26523437 58.38898437 473.53046875 57.77796875 472.7734375 57.1484375 C469.61349928 54.46189827 466.75579936 51.82638044 464.1875 48.5625 C463.465625 47.716875 462.74375 46.87125 462 46 C456.37712441 46 450.79152515 46.44716885 445.1875 46.875 Z "
          mask="url(#cHole)"/>
</svg>
