<?xml version="1.0" standalone="no"?>
<!DOCTYPE svg PUBLIC "-//W3C//DTD SVG 20010904//EN"
 "http://www.w3.org/TR/2001/REC-SVG-20010904/DTD/svg10.dtd">
<svg version="1.0" xmlns="http://www.w3.org/2000/svg"
 width="226.000000pt" height="222.000000pt" viewBox="0 0 226.000000 222.000000"
 preserveAspectRatio="xMidYMid meet">

<g transform="translate(0.000000,222.000000) scale(0.100000,-0.100000)"
fill="#000000" stroke="none">
<path d="M954 2114 c-407 -68 -739 -393 -817 -801 -26 -129 -29 -186 -17 -293
15 -134 41 -232 89 -335 55 -117 129 -221 219 -307 152 -144 309 -226 517
-269 88 -18 294 -15 390 5 309 67 572 281 715 581 109 229 119 529 26 776
-107 286 -360 523 -656 615 -131 41 -321 53 -466 28z m106 -24 c0 -5 -4 -10
-10 -10 -5 0 -10 5 -10 10 0 6 5 10 10 10 6 0 10 -4 10 -10z m40 0 c0 -5 -4
-10 -10 -10 -5 0 -10 5 -10 10 0 6 5 10 10 10 6 0 10 -4 10 -10z m40 0 c0 -5
-4 -10 -10 -10 -5 0 -10 5 -10 10 0 6 5 10 10 10 6 0 10 -4 10 -10z m40 0 c0
-5 -4 -10 -10 -10 -5 0 -10 5 -10 10 0 6 5 10 10 10 6 0 10 -4 10 -10z m35 0
c3 -5 1 -10 -4 -10 -6 0 -11 5 -11 10 0 6 2 10 4 10 3 0 8 -4 11 -10z m-230
-10 c3 -5 -1 -10 -9 -10 -9 0 -16 5 -16 10 0 6 4 10 9 10 6 0 13 -4 16 -10z
m35 0 c0 -5 -2 -10 -4 -10 -3 0 -8 5 -11 10 -3 6 -1 10 4 10 6 0 11 -4 11 -10z
m240 0 c0 -5 -4 -10 -10 -10 -5 0 -10 5 -10 10 0 6 5 10 10 10 6 0 10 -4 10
-10z m35 0 c3 -5 1 -10 -4 -10 -6 0 -11 5 -11 10 0 6 2 10 4 10 3 0 8 -4 11
-10z m-345 -10 c0 -5 -4 -10 -9 -10 -6 0 -13 5 -16 10 -3 6 1 10 9 10 9 0 16
-4 16 -10z m385 0 c3 -5 1 -10 -4 -10 -6 0 -11 5 -11 10 0 6 2 10 4 10 3 0 8
-4 11 -10z m-425 -10 c0 -5 -2 -10 -4 -10 -3 0 -8 5 -11 10 -3 6 -1 10 4 10 6
0 11 -4 11 -10z m465 0 c3 -5 2 -10 -4 -10 -5 0 -13 5 -16 10 -3 6 -2 10 4 10
5 0 13 -4 16 -10z m-505 -10 c0 -5 -2 -10 -4 -10 -3 0 -8 5 -11 10 -3 6 -1 10
4 10 6 0 11 -4 11 -10z m540 0 c0 -5 -4 -10 -10 -10 -5 0 -10 5 -10 10 0 6 5
10 10 10 6 0 10 -4 10 -10z m-575 -10 c3 -5 2 -10 -4 -10 -5 0 -13 5 -16 10
-3 6 -2 10 4 10 5 0 13 -4 16 -10z m610 0 c3 -5 1 -10 -4 -10 -6 0 -11 5 -11
10 0 6 2 10 4 10 3 0 8 -4 11 -10z m-650 -10 c3 -5 -1 -10 -10 -10 -9 0 -13 5
-10 10 3 6 8 10 10 10 2 0 7 -4 10 -10z m248 -14 c-62 -9 -63 -9 -63 -41 0
-17 2 -34 5 -37 3 -2 28 -2 55 2 28 4 53 3 55 -1 3 -4 -20 -10 -51 -14 l-55
-7 3 -36 3 -36 65 1 c50 1 58 0 35 -7 -16 -4 -49 -8 -72 -9 -49 -1 -49 -1 -58
111 l-7 76 48 7 c27 3 56 7 64 9 8 1 20 0 25 -3 6 -3 -18 -10 -52 -15z m242 0
c19 -8 35 -20 35 -27 0 -7 -8 -6 -25 5 -30 20 -69 21 -85 1 -19 -23 -5 -42 45
-66 49 -23 67 -57 45 -84 -18 -22 -90 -19 -120 5 -14 11 -20 20 -15 19 6 0 19
-6 29 -14 40 -30 107 -8 92 30 -3 8 -26 25 -51 37 -56 27 -70 62 -35 90 27 22
40 22 85 4z m205 4 c0 -5 -7 -7 -15 -4 -8 4 -15 8 -15 10 0 2 7 4 15 4 8 0 15
-4 15 -10z m-725 -10 c3 -5 2 -10 -4 -10 -5 0 -13 5 -16 10 -3 6 -2 10 4 10 5
0 13 -4 16 -10z m760 0 c3 -5 -1 -10 -9 -10 -9 0 -16 5 -16 10 0 6 4 10 9 10
6 0 13 -4 16 -10z m-800 -10 c3 -5 -1 -10 -9 -10 -9 0 -16 5 -16 10 0 6 4 10
9 10 6 0 13 -4 16 -10z m835 -10 c0 -5 -2 -10 -4 -10 -3 0 -8 5 -11 10 -3 6
-1 10 4 10 6 0 11 -4 11 -10z m-870 -10 c0 -5 -4 -10 -10 -10 -5 0 -10 5 -10
10 0 6 5 10 10 10 6 0 10 -4 10 -10z m907 -6 c-3 -3 -12 -4 -19 -1 -8 3 -5 6
6 6 11 1 17 -2 13 -5z m-942 -14 c3 -5 2 -10 -4 -10 -5 0 -13 5 -16 10 -3 6
-2 10 4 10 5 0 13 -4 16 -10z m240 -94 c28 -25 45 -45 39 -46 -6 0 -17 7 -24
15 -16 20 -29 19 -85 -5 -45 -19 -47 -22 -43 -54 3 -24 0 -32 -9 -29 -9 4 -13
33 -13 107 0 57 3 106 6 109 7 7 46 -22 129 -97z m605 -17 c0 -71 -4 -108 -10
-104 -5 3 -10 19 -10 34 0 23 -7 30 -48 47 l-48 21 -27 -21 c-15 -11 -29 -17
-32 -14 -6 6 155 148 168 148 4 0 7 -50 7 -111z m130 101 c0 -5 -2 -10 -4 -10
-3 0 -8 5 -11 10 -3 6 -1 10 4 10 6 0 11 -4 11 -10z m-1010 -10 c0 -5 -4 -10
-10 -10 -5 0 -10 5 -10 10 0 6 5 10 10 10 6 0 10 -4 10 -10z m1040 -10 c0 -5
-2 -10 -4 -10 -3 0 -8 5 -11 10 -3 6 -1 10 4 10 6 0 11 -4 11 -10z m-1075 -10
c3 -5 1 -10 -4 -10 -6 0 -11 5 -11 10 0 6 2 10 4 10 3 0 8 -4 11 -10z m1115
-10 c0 -5 -4 -10 -9 -10 -6 0 -13 5 -16 10 -3 6 1 10 9 10 9 0 16 -4 16 -10z
m-1145 -10 c3 -5 -1 -10 -10 -10 -9 0 -13 5 -10 10 3 6 8 10 10 10 2 0 7 -4
10 -10z m1170 -10 c3 -5 1 -10 -4 -10 -6 0 -11 5 -11 10 0 6 2 10 4 10 3 0 8
-4 11 -10z m-1200 -20 c3 -5 2 -10 -4 -10 -5 0 -13 5 -16 10 -3 6 -2 10 4 10
5 0 13 -4 16 -10z m1235 -10 c0 -5 -4 -10 -10 -10 -5 0 -10 5 -10 10 0 6 5 10
10 10 6 0 10 -4 10 -10z m-1265 -10 c3 -5 -1 -10 -10 -10 -9 0 -13 5 -10 10 3
6 8 10 10 10 2 0 7 -4 10 -10z m146 -7 c13 -15 12 -15 -6 -6 -64 34 -129 -83
-75 -137 46 -46 111 -34 136 25 16 39 34 38 34 0 0 -19 -10 -30 -40 -45 -76
-39 -146 -17 -170 54 -13 42 -2 76 37 104 34 26 66 28 84 5z m1120 -91 c15
-44 3 -55 -57 -55 l-46 0 4 -49 c1 -26 0 -48 -3 -48 -13 0 -21 36 -20 80 2 34
-3 50 -17 63 -19 17 -20 17 -46 -13 -14 -17 -30 -28 -36 -25 -6 4 18 38 56 80
l66 74 44 -36 c24 -21 49 -52 55 -71z m29 77 c0 -6 -4 -7 -10 -4 -5 3 -10 11
-10 16 0 6 5 7 10 4 6 -3 10 -11 10 -16z m-1325 -9 c3 -5 2 -10 -4 -10 -5 0
-13 5 -16 10 -3 6 -2 10 4 10 5 0 13 -4 16 -10z m1355 -10 c0 -5 -4 -10 -10
-10 -5 0 -10 5 -10 10 0 6 5 10 10 10 6 0 10 -4 10 -10z m-1385 -20 c3 -5 2
-10 -4 -10 -5 0 -13 5 -16 10 -3 6 -2 10 4 10 5 0 13 -4 16 -10z m1410 -10 c3
-5 2 -10 -4 -10 -5 0 -13 5 -16 10 -3 6 -2 10 4 10 5 0 13 -4 16 -10z m-1430
-20 c3 -5 2 -10 -4 -10 -5 0 -13 5 -16 10 -3 6 -2 10 4 10 5 0 13 -4 16 -10z
m1460 -10 c3 -5 2 -10 -4 -10 -5 0 -13 5 -16 10 -3 6 -2 10 4 10 5 0 13 -4 16
-10z m-1490 -20 c3 -5 2 -10 -4 -10 -5 0 -13 5 -16 10 -3 6 -2 10 4 10 5 0 13
-4 16 -10z m1515 -10 c0 -5 -4 -10 -9 -10 -6 0 -13 5 -16 10 -3 6 1 10 9 10 9
0 16 -4 16 -10z m-1535 -20 c3 -5 -1 -10 -9 -10 -9 0 -16 5 -16 10 0 6 4 10 9
10 6 0 13 -4 16 -10z m728 -16 c15 -3 27 -9 27 -13 0 -5 18 -11 40 -14 22 -3
58 -15 80 -26 23 -12 46 -21 53 -21 17 1 -39 30 -98 51 -35 13 -42 18 -25 18
14 0 41 -6 60 -13 19 -8 55 -21 80 -30 l45 -16 -24 20 c-13 11 -22 20 -20 20
23 -1 93 -30 92 -38 -1 -6 19 -13 46 -17 41 -6 48 -9 44 -25 -7 -26 -29 -44
-38 -30 -3 5 -11 10 -17 10 -6 0 -3 -9 8 -21 12 -14 25 -18 41 -14 13 3 23 1
23 -5 0 -19 -51 -10 -84 15 -35 27 -70 31 -125 15 -24 -6 -39 -6 -47 1 -7 6
-19 7 -25 3 -21 -13 32 -27 89 -25 50 3 82 -9 82 -30 0 -5 -9 -9 -19 -9 -34 0
-32 -17 3 -34 19 -9 41 -16 49 -16 16 0 27 -20 27 -49 0 -14 -6 -17 -29 -13
-16 2 -37 -1 -48 -7 -15 -9 -11 -10 24 -11 23 0 44 -4 47 -9 3 -5 -15 -6 -39
-3 -28 3 -45 1 -45 -6 0 -15 63 -34 85 -26 13 5 16 4 11 -4 -4 -7 -18 -12 -30
-12 -13 0 -35 -9 -50 -21 -25 -19 -25 -22 -11 -50 9 -16 22 -29 30 -29 18 0
45 38 39 55 -3 7 -1 16 5 20 15 9 71 -49 71 -73 0 -11 12 -30 28 -41 21 -16
24 -22 13 -30 -13 -8 -30 7 -68 59 -4 5 -39 -33 -69 -76 l-21 -30 33 4 c38 5
47 -15 18 -39 -15 -12 -14 -14 7 -20 20 -5 17 -7 -21 -16 l-45 -10 30 -13 c17
-8 31 -15 33 -16 2 -1 0 -14 -4 -28 -5 -22 -10 -25 -28 -20 -20 6 -21 6 -3
-14 26 -29 7 -34 -41 -11 -26 13 -42 28 -42 39 0 10 -7 23 -15 30 -8 7 -19 29
-25 49 -10 36 -55 70 -72 53 -10 -10 10 -82 28 -103 22 -24 17 -39 -13 -39
-30 0 -118 86 -135 132 -8 23 -78 68 -106 68 -13 0 -68 62 -86 97 -9 18 -16
42 -17 55 -1 16 -3 13 -9 -12 -6 -23 -3 -59 7 -108 17 -76 14 -93 -12 -72 -13
10 -13 15 -3 21 9 6 2 12 -22 22 -27 12 -30 16 -14 19 16 4 14 6 -9 13 -19 5
-26 12 -23 22 3 7 -1 16 -9 19 -19 7 -29 58 -16 82 8 14 4 27 -15 58 -23 36
-25 37 -21 12 6 -38 1 -35 -23 14 -23 49 -26 72 -5 44 18 -23 20 -14 4 16 -10
19 -9 20 15 14 24 -6 26 -4 26 24 0 26 4 30 28 31 l27 1 -30 7 c-25 5 -31 3
-37 -14 -5 -17 -6 -16 -7 8 -1 15 8 36 19 47 11 11 20 16 20 10 0 -5 10 -15
22 -21 l21 -12 -22 29 -22 28 28 12 c23 10 30 9 41 -4 10 -13 12 -13 12 -1 0
13 26 33 89 68 14 8 39 14 55 14 27 0 27 1 10 14 -17 13 -17 14 11 9 17 -3 42
-8 58 -12z m832 6 c3 -5 -1 -10 -9 -10 -9 0 -16 5 -16 10 0 6 4 10 9 10 6 0
13 -4 16 -10z m-1586 -24 c10 -12 8 -13 -8 -9 -12 3 -18 9 -15 14 7 12 10 11
23 -5z m1482 -29 c-9 -12 -8 -16 3 -20 7 -3 18 -1 24 5 7 7 10 5 8 -8 -2 -11
1 -24 6 -31 5 -7 6 -18 2 -25 -4 -7 -3 -10 1 -5 12 10 45 -23 45 -45 0 -12 4
-16 12 -12 7 4 8 3 4 -4 -4 -7 -2 -12 5 -12 6 0 1 -9 -12 -21 -17 -15 -19 -19
-6 -15 19 6 24 -18 7 -29 -14 -9 7 -35 26 -35 13 0 17 -10 12 -27 -1 -5 -8 -7
-15 -5 -7 2 -13 -4 -13 -13 0 -8 -5 -15 -11 -15 -5 0 -7 5 -4 10 3 6 1 10 -5
10 -7 0 -10 6 -7 13 2 6 10 11 16 9 7 -1 10 2 6 8 -4 7 -13 7 -26 -1 -12 -6
-23 -8 -27 -5 -3 3 0 6 6 6 6 0 10 9 9 19 -1 18 -3 18 -24 -5 -22 -24 -40 -33
-28 -14 3 5 2 17 -3 25 -7 13 -10 12 -20 -10 -6 -14 -16 -25 -22 -25 -8 0 -7
6 0 20 8 14 8 20 0 20 -7 0 -7 7 1 23 9 17 9 20 -1 10 -7 -6 -18 -9 -25 -7 -7
3 -16 1 -20 -5 -3 -6 -13 -11 -21 -11 -8 0 -13 4 -9 9 3 6 -4 15 -16 22 -17 9
-19 13 -8 20 10 6 11 9 2 9 -7 0 -13 4 -13 9 0 4 12 7 28 5 26 -4 26 -4 -4 8
-27 11 -30 15 -18 26 8 7 18 11 22 8 4 -2 9 7 10 20 1 14 9 32 17 40 8 9 13
20 9 25 -3 5 -2 8 3 7 4 -1 21 10 37 25 19 18 33 24 39 18 7 -7 6 -15 -2 -24z
m126 17 c-3 -3 -12 -4 -19 -1 -8 3 -5 6 6 6 11 1 17 -2 13 -5z m-1622 -24 c8
-13 -5 -13 -25 0 -13 8 -13 10 2 10 9 0 20 -4 23 -10z m1645 -10 c0 -5 -4 -10
-9 -10 -6 0 -13 5 -16 10 -3 6 1 10 9 10 9 0 16 -4 16 -10z m-1675 -20 c3 -5
-1 -10 -9 -10 -9 0 -16 5 -16 10 0 6 4 10 9 10 6 0 13 -4 16 -10z m1690 -10
c3 -5 -1 -10 -10 -10 -9 0 -13 5 -10 10 3 6 8 10 10 10 2 0 7 -4 10 -10z
m-1700 -30 c8 -13 -5 -13 -25 0 -13 8 -13 10 2 10 9 0 20 -4 23 -10z m1720
-10 c3 -5 2 -10 -4 -10 -5 0 -13 5 -16 10 -3 6 -2 10 4 10 5 0 13 -4 16 -10z
m-1745 -20 c13 -8 13 -10 -2 -10 -9 0 -20 5 -23 10 -8 13 5 13 25 0z m1760
-20 c0 -5 -2 -10 -4 -10 -3 0 -8 5 -11 10 -3 6 -1 10 4 10 6 0 11 -4 11 -10z
m-1770 -20 c0 -5 -7 -10 -15 -10 -8 0 -15 5 -15 10 0 6 7 10 15 10 8 0 15 -4
15 -10z m1785 -10 c3 -5 1 -10 -4 -10 -6 0 -11 5 -11 10 0 6 2 10 4 10 3 0 8
-4 11 -10z m-1802 -27 c-7 -2 -19 -2 -25 0 -7 3 -2 5 12 5 14 0 19 -2 13 -5z
m1822 -13 c3 -5 -1 -10 -9 -10 -9 0 -16 5 -16 10 0 6 4 10 9 10 6 0 13 -4 16
-10z m-1835 -20 c12 -8 11 -10 -7 -10 -13 0 -23 5 -23 10 0 13 11 13 30 0z
m1548 -35 c-3 -3 -9 2 -12 12 -6 14 -5 15 5 6 7 -7 10 -15 7 -18z m179 19 c-3
-3 -12 -4 -19 -1 -8 3 -5 6 6 6 11 1 17 -2 13 -5z m118 -4 c3 -5 2 -10 -4 -10
-5 0 -13 5 -16 10 -3 6 -2 10 4 10 5 0 13 -4 16 -10z m-1855 -20 c12 -8 11
-10 -7 -10 -13 0 -23 5 -23 10 0 13 11 13 30 0z m510 -14 c0 -7 9 -25 21 -40
11 -14 16 -26 12 -26 -9 0 -53 71 -53 84 0 4 5 4 10 1 6 -3 10 -12 10 -19z
m1355 -6 c3 -5 2 -10 -4 -10 -5 0 -13 5 -16 10 -3 6 -2 10 4 10 5 0 13 -4 16
-10z m-1875 -20 c12 -8 11 -10 -7 -10 -13 0 -23 5 -23 10 0 13 11 13 30 0z
m1604 -5 c-4 -8 -10 -12 -15 -9 -11 6 -2 24 11 24 5 0 7 -7 4 -15z m67 -5 c6
0 7 5 4 10 -3 6 -1 10 5 10 6 0 15 -11 21 -24 9 -20 16 -23 33 -16 17 6 25 4
34 -11 15 -23 15 -29 1 -29 -5 0 -7 6 -3 13 6 8 3 8 -9 -1 -14 -12 -20 -11
-43 7 -15 12 -23 21 -19 21 5 0 5 3 2 7 -4 3 -17 -2 -29 -13 -18 -15 -20 -16
-9 -1 12 15 11 17 -2 17 -11 0 -14 5 -10 17 4 11 8 12 11 5 2 -7 8 -12 13 -12z
m214 -10 c3 -5 2 -10 -4 -10 -5 0 -13 5 -16 10 -3 6 -2 10 4 10 5 0 13 -4 16
-10z m-1885 -20 c12 -8 9 -10 -12 -10 -16 0 -28 5 -28 10 0 13 20 13 40 0z
m1895 -20 c3 -5 2 -10 -4 -10 -5 0 -13 5 -16 10 -3 6 -2 10 4 10 5 0 13 -4 16
-10z m-1905 -20 c12 -8 9 -10 -12 -10 -16 0 -28 5 -28 10 0 13 20 13 40 0z
m1214 -15 c11 -8 17 -17 14 -20 -3 -3 -16 3 -29 14 -27 23 -14 28 15 6z m-634
-16 c0 -5 -4 -9 -10 -9 -5 0 -10 7 -10 16 0 8 5 12 10 9 6 -3 10 -10 10 -16z
m1330 11 c0 -5 -2 -10 -4 -10 -3 0 -8 5 -11 10 -3 6 -1 10 4 10 6 0 11 -4 11
-10z m-1910 -20 c0 -5 -9 -10 -20 -10 -11 0 -20 5 -20 10 0 6 9 10 20 10 11 0
20 -4 20 -10z m136 -6 c-9 -8 -14 -20 -11 -25 8 -11 -33 -11 -60 1 -17 7 -15
8 9 7 18 -1 33 5 40 16 6 9 17 17 24 17 10 0 9 -4 -2 -16z m1654 6 c0 -5 -5
-10 -11 -10 -5 0 -7 5 -4 10 3 6 8 10 11 10 2 0 4 -4 4 -10z m125 -20 c3 -5 2
-10 -4 -10 -5 0 -13 5 -16 10 -3 6 -2 10 4 10 5 0 13 -4 16 -10z m-1920 -20
c4 -6 -5 -10 -20 -10 -15 0 -24 4 -20 10 3 6 12 10 20 10 8 0 17 -4 20 -10z
m157 -7 c-6 -2 -9 -10 -5 -16 4 -7 0 -8 -11 -4 -10 4 -21 7 -24 8 -10 1 31 18
43 18 6 -1 4 -3 -3 -6z m53 -3 c-3 -5 -13 -10 -21 -10 -8 0 -12 -4 -9 -10 3
-5 0 -10 -7 -11 -7 0 -4 -4 7 -9 19 -8 19 -9 -2 -9 -43 -2 -15 46 35 58 2 1 0
-3 -3 -9z m1710 -10 c3 -5 2 -10 -4 -10 -5 0 -13 5 -16 10 -3 6 -2 10 4 10 5
0 13 -4 16 -10z m-1925 -20 c12 -8 9 -10 -12 -10 -16 0 -28 5 -28 10 0 13 20
13 40 0z m150 -11 c0 -14 -17 -10 -23 5 -4 10 -1 13 9 9 7 -3 14 -9 14 -14z
m1180 -9 c0 -13 -7 -13 -31 1 -11 5 -17 14 -14 20 7 11 45 -7 45 -21z m-1058
8 c-12 -12 -54 -14 -59 -3 -2 6 12 10 31 10 19 0 32 -3 28 -7z m-102 -39 c0
-5 6 -9 14 -9 8 0 33 -21 55 -47 23 -27 41 -42 41 -35 0 7 5 10 10 7 15 -9 1
-27 -16 -21 -8 3 -14 1 -14 -5 0 -6 -5 -7 -11 -3 -8 5 -8 9 1 14 9 6 9 9 0 15
-14 8 -15 7 -24 -22 -4 -12 -2 -24 3 -28 7 -4 8 1 4 12 -6 16 -5 16 10 4 9 -7
17 -10 18 -5 0 5 5 -2 10 -15 6 -15 15 -21 24 -17 8 3 15 1 15 -4 0 -5 8 -6
17 -3 15 6 16 5 3 -9 -8 -9 -16 -12 -18 -7 -5 12 -49 11 -57 -1 -3 -5 2 -10
11 -10 10 0 14 -3 11 -7 -4 -3 0 -18 10 -32 16 -25 16 -25 -1 -12 -11 10 -20
11 -24 4 -4 -5 -17 -9 -29 -8 -12 1 -20 -2 -17 -7 3 -4 14 -8 24 -8 19 0 19
-1 3 -20 -10 -11 -24 -20 -32 -20 -11 0 -10 4 5 16 17 14 17 15 1 10 -11 -3
-16 -2 -12 4 3 6 -2 10 -12 10 -11 0 -28 7 -39 16 -19 15 -18 15 4 11 12 -3
20 -1 16 4 -3 5 -15 9 -27 9 -21 1 -20 2 6 21 25 19 26 22 11 34 -22 16 -9 38
19 30 19 -5 20 -5 4 5 -9 6 -21 9 -26 6 -4 -3 -18 6 -31 19 -13 13 -27 22 -33
18 -6 -3 -7 -1 -3 6 4 6 12 9 17 6 5 -4 9 -2 9 4 0 5 -6 12 -12 14 -8 4 -7 6
4 6 9 1 18 -2 21 -6 2 -5 2 -2 1 5 -3 11 11 16 43 15 7 -1 10 3 7 8 -3 5 -14
9 -24 9 -24 0 -37 20 -13 21 10 0 13 3 6 5 -7 3 -21 0 -33 -6 -16 -9 -25 -8
-36 1 -13 11 -13 14 7 24 17 10 28 9 50 -2 16 -8 29 -19 29 -24z m1755 31 c3
-5 1 -10 -4 -10 -6 0 -11 5 -11 10 0 6 2 10 4 10 3 0 8 -4 11 -10z m-1925 -20
c12 -8 9 -10 -12 -10 -16 0 -28 5 -28 10 0 13 20 13 40 0z m224 -6 c9 -3 13
-11 10 -18 -3 -6 2 -2 10 8 9 11 16 18 17 15 0 -2 2 -12 4 -21 4 -22 -30 -25
-42 -4 -4 8 -17 16 -28 19 -15 3 -16 5 -3 6 9 0 23 -2 32 -5z m102 -21 c-7 -7
-26 7 -26 19 0 6 6 6 15 -2 9 -7 13 -15 11 -17z m1599 7 c3 -5 -1 -10 -10 -10
-9 0 -13 5 -10 10 3 6 8 10 10 10 2 0 7 -4 10 -10z m-1797 -12 c-2 -6 -10 -14
-16 -16 -7 -2 -10 2 -6 12 7 18 28 22 22 4z m-133 -4 c12 -5 14 -9 4 -14 -15
-10 -41 -1 -33 11 6 11 8 11 29 3z m321 -39 c-2 -7 1 -18 7 -25 7 -7 -1 -4
-18 6 -16 11 -31 18 -33 16 -2 -2 -7 0 -10 4 -4 4 3 5 15 2 17 -5 21 -2 18 14
-4 17 -2 18 11 7 8 -7 13 -18 10 -24z m552 10 c2 -9 33 -45 68 -78 35 -34 64
-69 64 -78 0 -10 11 -31 25 -47 15 -17 21 -33 16 -37 -6 -3 -8 -12 -5 -19 19
-48 -67 -4 -91 47 -18 39 -62 84 -71 74 -4 -3 3 -22 15 -41 15 -24 18 -35 9
-38 -9 -3 -9 -17 1 -61 7 -32 17 -55 22 -51 6 3 9 -4 8 -18 -1 -12 -1 -34 0
-48 2 -23 3 -24 11 -5 5 11 9 34 9 50 1 22 4 26 10 16 5 -8 7 -20 4 -27 -2 -7
2 -32 10 -56 8 -23 18 -58 22 -75 6 -30 5 -33 -19 -33 -35 0 -75 20 -81 41 -4
10 -21 31 -40 46 -30 25 -34 36 -45 108 -7 44 -14 86 -16 93 -5 19 -38 14 -51
-8 -13 -20 -7 -76 8 -86 5 -3 9 -18 9 -33 0 -16 7 -34 15 -41 15 -12 21 -40 9
-40 -19 0 -94 60 -132 104 -91 107 -103 127 -96 160 8 41 20 53 55 61 16 4 29
11 29 16 0 5 6 9 13 9 7 0 21 14 30 30 10 17 26 30 36 30 9 0 22 5 28 11 8 8
13 8 17 0 4 -6 12 -11 17 -11 6 0 7 5 4 10 -10 16 0 12 26 -11 21 -18 24 -19
27 -5 2 9 8 13 14 10 7 -5 8 -2 2 7 -4 8 -10 22 -11 32 -4 24 21 17 25 -8z
m1062 -5 c0 -5 -7 -7 -15 -4 -8 4 -15 8 -15 10 0 2 7 4 15 4 8 0 15 -4 15 -10z
m-1931 -9 c9 -6 10 -11 2 -15 -13 -8 -31 1 -31 15 0 11 11 11 29 0z m391 -36
c0 -2 -6 -5 -13 -8 -8 -3 -14 1 -14 8 0 7 6 11 14 8 7 -3 13 -6 13 -8z m1530
5 c0 -5 -7 -7 -15 -4 -8 4 -15 8 -15 10 0 2 7 4 15 4 8 0 15 -4 15 -10z
m-1914 -22 c-18 -10 -39 -2 -31 12 3 4 15 6 26 3 19 -5 19 -7 5 -15z m134 -29
c0 -11 5 -19 10 -19 6 0 10 -4 10 -10 0 -17 -25 -11 -38 10 -7 12 -8 20 -2 20
5 0 10 5 10 11 0 5 -4 8 -8 5 -5 -3 -9 1 -9 9 0 11 4 12 14 4 7 -6 13 -20 13
-30z m175 31 c-3 -5 -1 -10 4 -10 6 0 11 -5 11 -11 0 -8 -5 -8 -15 1 -17 14
-20 30 -4 30 5 0 7 -4 4 -10z m39 -6 c3 -8 11 -12 17 -8 8 4 9 3 5 -4 -11 -18
-24 -14 -36 8 -6 11 -7 20 -1 20 5 0 12 -7 15 -16z m1566 -14 c0 -5 -4 -10 -9
-10 -6 0 -13 5 -16 10 -3 6 1 10 9 10 9 0 16 -4 16 -10z m-1906 -21 c-7 -11
-34 -12 -34 -1 0 14 11 21 26 15 8 -3 11 -9 8 -14z m1896 -19 c0 -5 -7 -7 -15
-4 -8 4 -15 8 -15 10 0 2 7 4 15 4 8 0 15 -4 15 -10z m-1896 -6 c18 -7 12 -24
-10 -24 -8 0 -14 7 -14 15 0 17 2 18 24 9z m336 2 c0 -2 -8 -10 -17 -17 -16
-13 -17 -12 -4 4 13 16 21 21 21 13z m1550 -36 c0 -5 -4 -10 -9 -10 -6 0 -13
5 -16 10 -3 6 1 10 9 10 9 0 16 -4 16 -10z m-1876 -6 c18 -7 12 -24 -10 -24
-8 0 -14 7 -14 15 0 17 2 18 24 9z m136 -34 c8 -5 12 -12 9 -15 -8 -8 -39 5
-39 16 0 11 11 11 30 -1z m1730 0 c0 -5 -4 -10 -9 -10 -6 0 -13 5 -16 10 -3 6
1 10 9 10 9 0 16 -4 16 -10z m-1856 -6 c18 -7 12 -24 -10 -24 -8 0 -14 7 -14
15 0 17 2 18 24 9z m151 -24 c-3 -5 -12 -10 -18 -10 -7 0 -6 4 3 10 19 12 23
12 15 0z m1695 -10 c0 -13 -11 -13 -30 0 -12 8 -11 10 8 10 12 0 22 -4 22 -10z
m-1829 -15 c-1 -15 -24 -12 -29 3 -3 9 2 13 12 10 10 -1 17 -7 17 -13z m169
-5 c-8 -5 -22 -9 -30 -9 -10 0 -8 3 5 9 27 12 43 12 25 0z m1060 -10 c0 -5 -2
-10 -4 -10 -3 0 -8 5 -11 10 -3 6 -1 10 4 10 6 0 11 -4 11 -10z m31 -7 c13
-16 12 -17 -3 -4 -17 13 -22 21 -14 21 2 0 10 -8 17 -17z m544 6 c11 -17 0
-20 -21 -4 -17 13 -17 14 -2 15 9 0 20 -5 23 -11z m-451 -7 c3 -5 -1 -9 -9 -9
-8 0 -12 4 -9 9 3 4 7 8 9 8 2 0 6 -4 9 -8z m-1324 -11 c0 -11 -26 -22 -34
-14 -12 12 -5 23 14 23 11 0 20 -4 20 -9z m285 -18 c30 -31 65 -95 65 -116 0
-24 -62 -77 -101 -87 -48 -13 -76 -1 -123 55 l-36 43 78 66 c42 36 80 65 84
66 4 0 19 -12 33 -27z m927 9 c-7 -2 -9 -9 -6 -14 4 -6 2 -8 -4 -4 -5 3 -12 1
-14 -5 -2 -7 -9 -5 -17 5 -12 14 -12 16 4 10 12 -5 16 -4 12 3 -8 13 13 23 28
15 5 -3 4 -7 -3 -10z m313 -23 c23 -19 26 -27 20 -55 l-6 -34 51 0 c34 0 49
-4 44 -11 -4 -6 -29 -9 -61 -7 -49 3 -55 1 -70 -23 -16 -26 -15 -27 18 -57 60
-55 13 -34 -58 26 -38 31 -79 64 -91 72 l-21 15 28 32 c32 34 77 62 102 63 9
0 29 -10 44 -21z m240 11 c3 -5 -1 -10 -9 -10 -8 0 -18 5 -21 10 -3 6 1 10 9
10 8 0 18 -4 21 -10z m-1750 -20 c-3 -5 -15 -10 -26 -10 -10 0 -19 5 -19 10 0
6 12 10 26 10 14 0 23 -4 19 -10z m1156 -7 c13 -16 12 -17 -3 -4 -17 13 -22
21 -14 21 2 0 10 -8 17 -17z m100 0 c13 -16 12 -17 -3 -4 -17 13 -22 21 -14
21 2 0 10 -8 17 -17z m474 -13 c3 -5 -1 -10 -9 -10 -8 0 -18 5 -21 10 -3 6 1
10 9 10 8 0 18 -4 21 -10z m-1723 -22 c-12 -12 -35 -1 -27 12 3 5 13 6 21 3
10 -4 12 -9 6 -15z m1101 -2 c4 -10 1 -13 -8 -9 -8 3 -12 9 -9 14 7 12 11 11
17 -5z m607 -17 c0 -11 -3 -11 -24 -3 -23 9 -20 23 4 17 11 -3 20 -9 20 -14z
m-1689 -14 c-1 -15 -24 -12 -29 3 -3 9 2 13 12 10 10 -1 17 -7 17 -13z m1124
-3 c-3 -3 -11 0 -18 7 -9 10 -8 11 6 5 10 -3 15 -9 12 -12z m-29 -17 c-3 -23
-12 -26 -13 -5 -1 11 2 20 7 20 4 0 7 -7 6 -15z m564 5 c13 -8 13 -10 -2 -10
-9 0 -20 5 -23 10 -8 13 5 13 25 0z m-1635 -20 c-3 -5 -13 -10 -21 -10 -8 0
-14 5 -14 10 0 6 9 10 21 10 11 0 17 -4 14 -10z m359 -19 c4 -5 3 -11 -2 -13
-4 -1 -33 -36 -64 -76 -53 -68 -73 -85 -73 -63 0 13 116 161 126 161 4 0 10
-4 13 -9z m1261 -1 c8 -13 -5 -13 -25 0 -13 8 -13 10 2 10 9 0 20 -4 23 -10z
m-1600 -10 c3 -5 -1 -10 -9 -10 -9 0 -16 5 -16 10 0 6 4 10 9 10 6 0 13 -4 16
-10z m1276 -15 c34 -18 69 -70 69 -103 0 -55 -56 -112 -110 -112 -33 0 -78 28
-94 59 -23 43 -31 125 -15 138 41 32 107 40 150 18z m297 -13 c2 -7 -2 -10
-12 -6 -9 3 -16 11 -16 16 0 13 23 5 28 -10z m-1551 -18 c-9 -9 -28 6 -21 18
4 6 10 6 17 -1 6 -6 8 -13 4 -17z m1533 -14 c0 -5 -4 -10 -9 -10 -6 0 -13 5
-16 10 -3 6 1 10 9 10 9 0 16 -4 16 -10z m-1505 -10 c3 -5 -1 -10 -9 -10 -9 0
-16 5 -16 10 0 6 4 10 9 10 6 0 13 -4 16 -10z m429 -2 c29 -12 61 -56 50 -66
-4 -4 -9 -2 -11 5 -17 47 -76 73 -124 53 -38 -16 -49 -37 -49 -92 0 -61 26
-88 85 -88 27 0 45 -5 45 -11 0 -18 -97 -5 -120 16 -47 43 -46 146 3 180 25
18 86 20 121 3z m1046 -18 c0 -5 -4 -10 -9 -10 -6 0 -13 5 -16 10 -3 6 1 10 9
10 9 0 16 -4 16 -10z m-1450 -10 c0 -5 -4 -10 -9 -10 -6 0 -13 5 -16 10 -3 6
1 10 9 10 9 0 16 -4 16 -10z m1006 3 c-4 -5 -23 -12 -41 -18 l-33 -10 28 -71
c38 -99 43 -124 27 -124 -9 0 -24 36 -42 95 -15 52 -31 95 -36 95 -4 0 -20 -5
-35 -10 -21 -8 -31 -8 -41 3 -12 12 -10 14 14 15 15 0 46 8 68 16 42 15 104
21 91 9z m-425 -35 c71 -11 98 -30 31 -21 l-38 5 -13 -96 c-13 -89 -22 -118
-34 -99 -3 5 3 52 12 106 l17 97 -38 6 c-21 4 -38 11 -38 16 0 6 7 7 16 4 9
-3 47 -11 85 -18z m839 12 c0 -5 -4 -10 -9 -10 -6 0 -13 5 -16 10 -3 6 1 10 9
10 9 0 16 -4 16 -10z m-1390 -10 c0 -5 -7 -10 -15 -10 -8 0 -15 5 -15 10 0 6
7 10 15 10 8 0 15 -4 15 -10z m783 -114 c28 -55 53 -104 55 -108 2 -5 -1 -8
-8 -8 -6 0 -19 13 -28 30 -16 28 -21 30 -79 30 -59 0 -61 -1 -72 -30 -5 -16
-16 -30 -24 -30 -11 0 -5 24 24 100 21 56 39 107 39 114 0 9 7 12 21 9 13 -4
37 -39 72 -107z m577 94 c0 -5 -4 -10 -9 -10 -6 0 -13 5 -16 10 -3 6 1 10 9
10 9 0 16 -4 16 -10z m-1330 -10 c0 -5 -7 -10 -15 -10 -8 0 -15 5 -15 10 0 6
7 10 15 10 8 0 15 -4 15 -10z m1300 -20 c0 -5 -4 -10 -9 -10 -6 0 -13 5 -16
10 -3 6 1 10 9 10 9 0 16 -4 16 -10z m-1268 -12 c-9 -9 -15 -9 -24 0 -9 9 -7
12 12 12 19 0 21 -3 12 -12z m1236 -17 c3 -8 -1 -12 -9 -9 -7 2 -15 10 -17 17
-3 8 1 12 9 9 7 -2 15 -10 17 -17z m-1204 -12 c-6 -11 -24 -2 -24 11 0 5 7 7
15 4 8 -4 12 -10 9 -15z m1171 -9 c3 -5 -1 -10 -9 -10 -9 0 -16 5 -16 10 0 6
4 10 9 10 6 0 13 -4 16 -10z m-1135 -8 c0 -5 16 -16 36 -25 21 -11 32 -22 28
-29 -5 -8 -11 -6 -19 5 -7 10 -20 17 -29 17 -9 0 -16 5 -16 10 0 6 -7 10 -15
10 -8 0 -15 5 -15 10 0 6 7 10 15 10 8 0 15 -4 15 -8z m1098 -20 c2 -7 -2 -10
-12 -6 -9 3 -16 11 -16 16 0 13 23 5 28 -10z m-28 -22 c0 -5 -4 -10 -9 -10 -6
0 -13 5 -16 10 -3 6 1 10 9 10 9 0 16 -4 16 -10z m-970 -31 c0 -6 -4 -7 -10
-4 -5 3 -10 11 -10 16 0 6 5 7 10 4 6 -3 10 -11 10 -16z m930 11 c0 -5 -4 -10
-9 -10 -6 0 -13 5 -16 10 -3 6 1 10 9 10 9 0 16 -4 16 -10z m-895 -20 c3 -5
-1 -10 -10 -10 -9 0 -13 5 -10 10 3 6 8 10 10 10 2 0 7 -4 10 -10z m855 0 c0
-5 -4 -10 -9 -10 -6 0 -13 5 -16 10 -3 6 1 10 9 10 9 0 16 -4 16 -10z m-38
-22 c-12 -12 -35 -1 -27 12 3 5 13 6 21 3 10 -4 12 -9 6 -15z m-777 2 c3 -5
-1 -10 -9 -10 -9 0 -16 5 -16 10 0 6 4 10 9 10 6 0 13 -4 16 -10z m736 -13
c-1 -12 -15 -9 -19 4 -3 6 1 10 8 8 6 -3 11 -8 11 -12z m-691 -7 c0 -5 -4 -10
-9 -10 -6 0 -13 5 -16 10 -3 6 1 10 9 10 9 0 16 -4 16 -10z m660 -11 c0 -5 -7
-9 -15 -9 -8 0 -15 7 -15 15 0 9 6 12 15 9 8 -4 15 -10 15 -15z m-620 1 c0 -5
-7 -10 -15 -10 -8 0 -15 5 -15 10 0 6 7 10 15 10 8 0 15 -4 15 -10z m31 -13
c-1 -12 -15 -9 -19 4 -3 6 1 10 8 8 6 -3 11 -8 11 -12z m549 3 c0 -5 -7 -10
-15 -10 -8 0 -15 5 -15 10 0 6 7 10 15 10 8 0 15 -4 15 -10z m-505 -10 c3 -5
-1 -10 -9 -10 -9 0 -16 5 -16 10 0 6 4 10 9 10 6 0 13 -4 16 -10z m460 0 c3
-5 -1 -10 -9 -10 -9 0 -16 5 -16 10 0 6 4 10 9 10 6 0 13 -4 16 -10z m-415
-15 c0 -9 -6 -12 -15 -9 -8 4 -15 10 -15 15 0 5 7 9 15 9 8 0 15 -7 15 -15z
m375 5 c3 -5 -1 -10 -9 -10 -9 0 -16 5 -16 10 0 6 4 10 9 10 6 0 13 -4 16 -10z
m-335 -10 c0 -5 -7 -10 -15 -10 -8 0 -15 5 -15 10 0 6 7 10 15 10 8 0 15 -4
15 -10z m61 0 c10 0 19 -4 19 -9 0 -14 -63 -7 -68 8 -3 10 0 12 12 8 10 -4 26
-7 37 -7z m189 -10 c0 -5 -7 -7 -15 -4 -8 4 -12 10 -9 15 6 11 24 2 24 -11z
m40 10 c0 -5 -4 -10 -9 -10 -6 0 -13 5 -16 10 -3 6 1 10 9 10 9 0 16 -4 16
-10z m-160 -10 c0 -5 -7 -10 -15 -10 -8 0 -15 5 -15 10 0 6 7 10 15 10 8 0 15
-4 15 -10z m40 0 c0 -5 -7 -10 -15 -10 -8 0 -15 5 -15 10 0 6 7 10 15 10 8 0
15 -4 15 -10z m40 0 c0 -5 -4 -10 -9 -10 -6 0 -13 5 -16 10 -3 6 1 10 9 10 9
0 16 -4 16 -10z"/>
<path d="M780 1886 c0 -31 2 -56 5 -56 11 0 75 34 75 40 0 6 -29 34 -62 59
-17 12 -18 9 -18 -43z"/>
<path d="M1436 1895 c-22 -19 -37 -37 -35 -40 3 -2 21 -11 41 -19 l36 -16 4
55 c1 30 1 55 -2 55 -3 -1 -23 -16 -44 -35z"/>
<path d="M1638 1797 l-26 -34 33 -26 c49 -39 95 -32 95 16 0 16 -55 77 -70 77
-3 0 -17 -15 -32 -33z"/>
<path d="M1030 1660 c-11 -7 -2 -10 33 -10 26 0 47 5 47 10 0 13 -60 13 -80 0z"/>
<path d="M1138 1523 c7 -3 16 -2 19 1 4 3 -2 6 -13 5 -11 0 -14 -3 -6 -6z"/>
<path d="M1180 1500 c-13 -8 -13 -10 2 -10 9 0 19 -8 21 -17 3 -11 5 -7 6 10
1 29 -5 33 -29 17z"/>
<path d="M890 1420 c-13 -9 -13 -10 0 -10 8 0 22 5 30 10 13 9 13 10 0 10 -8
0 -22 -5 -30 -10z"/>
<path d="M921 1376 c-11 -13 -7 -14 23 -9 22 3 42 1 51 -7 9 -7 18 -10 22 -6
3 3 1 6 -6 6 -7 0 -11 6 -8 13 7 18 -67 21 -82 3z"/>
<path d="M930 1334 c-22 -56 -4 -119 48 -168 29 -27 56 -29 46 -2 -3 7 2 18 9
25 12 9 16 8 21 -4 3 -9 10 -14 15 -10 5 3 12 1 16 -5 8 -13 35 -13 35 0 0 6
-6 10 -14 10 -8 0 -18 9 -21 20 -3 11 -13 20 -21 20 -17 0 -18 12 -3 27 8 8 7
13 -1 18 -7 4 -16 2 -20 -5 -6 -10 -8 -10 -12 0 -2 7 -16 14 -31 16 -19 2 -28
-3 -33 -19 l-7 -22 -8 23 c-10 27 -2 72 13 72 5 0 18 -10 28 -22 27 -34 35
-14 9 21 -28 38 -56 40 -69 5z m64 -110 c5 -14 4 -15 -9 -4 -17 14 -19 20 -6
20 5 0 12 -7 15 -16z m16 -53 c0 -15 -13 -4 -50 44 -12 15 -8 14 18 -5 17 -13
32 -31 32 -39z"/>
<path d="M1036 1305 c4 -8 11 -15 16 -15 6 0 5 6 -2 15 -7 8 -14 15 -16 15 -2
0 -1 -7 2 -15z"/>
<path d="M1040 1166 c0 -8 5 -18 10 -21 6 -3 10 1 10 9 0 8 -4 18 -10 21 -5 3
-10 -1 -10 -9z"/>
<path d="M1385 970 c3 -5 16 -10 28 -10 18 0 19 2 7 10 -20 13 -43 13 -35 0z"/>
<path d="M1760 1600 c-9 -6 -10 -10 -3 -10 6 0 15 5 18 10 8 12 4 12 -15 0z"/>
<path d="M1743 1540 c-3 -38 2 -38 16 0 7 22 7 30 -2 30 -7 0 -13 -14 -14 -30z"/>
<path d="M1875 1520 c-3 -5 -1 -10 4 -10 6 0 11 5 11 10 0 6 -2 10 -4 10 -3 0
-8 -4 -11 -10z"/>
<path d="M1890 1475 c7 -8 17 -12 22 -9 6 4 5 10 -3 15 -22 14 -33 10 -19 -6z"/>
<path d="M1715 1450 c3 -5 8 -10 11 -10 2 0 4 5 4 10 0 6 -5 10 -11 10 -5 0
-7 -4 -4 -10z"/>
<path d="M380 1020 c-23 -7 -23 -8 -3 -9 12 -1 25 4 28 9 3 6 5 10 3 9 -2 -1
-14 -5 -28 -9z"/>
<path d="M320 1001 c0 -6 4 -13 10 -16 6 -3 7 1 4 9 -7 18 -14 21 -14 7z"/>
<path d="M379 927 c6 -8 7 -18 3 -22 -4 -5 -2 -5 5 -1 14 8 6 36 -9 36 -7 0
-6 -5 1 -13z"/>
<path d="M365 883 c2 -10 4 -22 5 -28 0 -5 5 -2 11 8 8 14 14 16 25 6 11 -9
14 -7 14 10 0 22 -14 28 -25 11 -5 -8 -11 -8 -20 0 -10 9 -13 7 -10 -7z"/>
<path d="M430 869 c0 -5 5 -7 10 -4 6 3 10 8 10 11 0 2 -4 4 -10 4 -5 0 -10
-5 -10 -11z"/>
<path d="M451 668 c-34 -28 -61 -57 -61 -64 0 -6 16 -26 36 -44 30 -26 43 -31
68 -26 46 9 90 61 82 97 -6 30 -44 89 -57 89 -4 0 -34 -23 -68 -52z"/>
<path d="M1718 700 c-9 -6 -27 -25 -39 -42 l-23 -31 34 -28 33 -28 33 42 c39
48 41 58 16 80 -21 19 -30 20 -54 7z"/>
<path d="M1533 530 c-52 -21 -59 -105 -14 -151 40 -40 74 -38 118 6 30 30 35
40 29 68 -3 17 -20 44 -36 60 -31 28 -58 33 -97 17z"/>
<path d="M1153 373 c-3 -10 -12 -33 -19 -52 -8 -18 -14 -35 -14 -37 0 -2 23
-4 50 -4 28 0 50 2 50 5 0 10 -50 105 -55 105 -3 0 -8 -8 -12 -17z"/>
<path d="M2161 994 c0 -11 3 -14 6 -6 3 7 2 16 -1 19 -3 4 -6 -2 -5 -13z"/>
<path d="M2037 603 c-4 -3 -7 -13 -7 -22 1 -13 3 -13 11 2 11 19 8 33 -4 20z"/>
</g>
</svg>
