<?xml version="1.0" standalone="no"?>
<svg version="1.0" xmlns="http://www.w3.org/2000/svg"
 width="256.000000pt" height="256.000000pt" viewBox="0 0 256.000000 256.000000"
 preserveAspectRatio="xMidYMid meet">
    <g transform="translate(-100.000000,116.000000) rotate(45) scale(0.130000,-0.130000)"
       >
        <path d="M1196 2356 c-26 -7 -52 -20 -57 -27 -5 -8 -8 -36 -7 -63 3 -45 6 -52
        38 -70 51 -30 169 -29 228 2 40 22 42 24 42 70 0 52 -6 64 -35 80 -35 18 -156
        23 -209 8z"/>
        <path d="M1161 2031 c-16 -124 -42 -204 -118 -355 -76 -151 -128 -301 -144
        -412 -20 -143 -1 -414 47 -654 41 -206 58 -250 105 -283 23 -16 42 -27 44 -25
        1 2 14 50 30 108 29 110 115 343 139 375 13 18 18 10 70 -93 31 -62 77 -175
        102 -252 l45 -140 42 30 42 30 52 252 c47 229 53 270 58 425 9 260 -11 349
        -140 618 -92 193 -110 249 -130 413 -6 48 -9 52 -28 46 -28 -9 -156 -9 -183 0
        -20 6 -22 1 -33 -83z m233 -550 c80 -35 155 -146 156 -227 0 -40 -1 -42 -37
        -48 -72 -11 -109 -7 -144 19 -19 13 -45 32 -58 42 -48 35 -189 28 -288 -13
        -21 -9 -15 38 12 92 70 141 220 197 359 135z m-123 -279 c15 -9 46 -30 69 -47
        39 -27 51 -30 117 -30 40 1 73 -2 73 -5 0 -16 -98 -114 -132 -131 -53 -27
        -136 -35 -194 -19 -72 20 -184 132 -184 183 0 13 67 48 115 60 47 11 111 6
        136 -11z"/>
        <path d="M800 833 c-32 -68 -51 -194 -48 -314 l3 -103 40 -23 c24 -14 57 -23
        84 -23 42 0 43 1 38 28 -46 213 -67 328 -73 398 -4 46 -10 84 -14 84 -4 0 -18
        -21 -30 -47z"/>
        <path d="M1736 830 c-3 -14 -24 -112 -46 -219 -22 -107 -43 -205 -46 -218 -6
        -21 -3 -23 32 -23 22 0 57 10 79 23 l40 23 0 139 c-1 137 -13 222 -40 275
        l-13 25 -6 -25z"/>
        <path d="M1237 547 c-38 -103 -87 -284 -87 -318 0 -18 10 -19 135 -19 158 0
        149 -9 114 126 -20 75 -102 291 -118 306 -4 5 -24 -38 -44 -95z"/>
    </g>
</svg>
