<svg id="svg" xmlns="http://www.w3.org/2000/svg" xmlns:xlink="http://www.w3.org/1999/xlink" width="400" height="400" viewBox="0, 0, 400,400"><g id="svgg"><path id="path0" d="M198.621 4.259 C 198.621 7.026,197.921 9.651,196.623 11.750 L 194.626 14.982 192.945 12.906 C 191.823 11.520,191.264 9.318,191.264 6.275 L 191.264 1.720 187.587 4.308 C 183.721 7.029,179.310 14.385,179.310 18.112 C 179.310 20.875,177.950 20.792,175.006 17.848 C 171.460 14.302,169.073 22.202,172.024 27.716 C 172.927 29.403,172.842 29.473,171.060 28.519 C 169.986 27.945,168.724 26.465,168.255 25.231 C 167.786 23.998,166.978 22.989,166.460 22.989 C 164.552 22.989,165.599 26.696,168.411 29.899 L 171.305 33.195 167.372 37.057 C 158.804 45.470,155.083 53.292,151.707 69.983 C 150.644 75.239,149.348 80.901,148.827 82.564 C 148.051 85.043,148.185 86.036,149.572 88.081 C 150.867 89.989,151.283 92.411,151.342 98.391 C 151.459 110.165,154.894 120.281,161.527 128.390 C 166.610 134.603,165.793 135.130,145.370 138.800 C 130.222 141.521,111.254 142.806,93.333 142.323 C 75.574 141.844,75.182 141.723,65.215 133.671 C 50.794 122.019,41.807 124.310,45.903 138.594 L 46.749 141.543 40.156 141.510 C 27.214 141.445,21.886 147.396,27.644 155.484 L 29.665 158.321 27.693 160.770 C 21.670 168.249,24.406 174.713,33.594 174.713 C 36.405 174.713,36.408 175.037,33.635 178.682 C 25.605 189.235,32.100 192.172,50.286 186.214 C 63.046 182.033,67.086 182.043,77.241 186.281 C 99.243 195.462,106.492 197.290,125.782 198.523 C 132.502 198.952,138.256 199.559,138.568 199.871 C 138.880 200.182,141.332 211.873,144.018 225.849 L 148.900 251.261 144.223 263.332 C 133.419 291.213,115.476 343.109,113.613 351.865 L 112.997 354.764 104.869 355.083 C 94.831 355.477,92.874 356.776,92.874 363.044 C 92.874 371.109,111.240 382.461,124.381 382.518 C 126.236 382.526,127.396 383.305,128.670 385.401 C 131.959 390.809,140.689 394.185,145.176 391.784 C 147.147 390.729,152.020 381.263,159.171 364.598 C 164.645 351.843,189.272 302.529,190.168 302.529 C 191.642 302.529,225.355 349.628,239.609 371.601 C 253.138 392.455,255.667 394.780,264.828 394.780 C 277.144 394.780,287.538 381.150,283.587 370.181 C 282.845 368.122,280.839 361.678,279.129 355.862 C 273.603 337.070,258.485 294.594,246.468 264.103 L 239.841 247.286 243.166 226.801 C 244.995 215.533,246.884 204.894,247.364 203.157 L 248.236 200.000 269.175 199.985 C 292.339 199.968,293.762 199.737,311.215 193.148 C 326.688 187.306,330.216 187.476,348.091 194.915 C 352.988 196.953,357.724 198.621,358.615 198.621 C 362.688 198.621,363.863 191.446,360.552 186.796 C 357.736 182.842,358.097 182.069,362.759 182.069 C 370.307 182.069,372.639 177.091,368.173 170.510 C 366.282 167.724,365.992 166.668,366.812 165.554 C 373.660 156.241,370.178 150.200,357.403 149.234 C 349.837 148.662,349.809 148.634,351.300 143.263 C 354.600 131.384,345.793 130.118,330.891 140.329 L 321.641 146.667 313.895 146.992 C 295.485 147.766,265.012 143.955,243.448 138.183 C 229.015 134.320,228.979 134.273,235.366 127.852 C 237.875 125.330,240.546 122.072,241.301 120.611 C 242.303 118.673,243.557 117.812,245.944 117.425 C 255.301 115.906,261.583 103.538,256.083 97.461 C 254.863 96.113,255.011 95.408,257.461 90.884 C 261.572 83.295,263.044 78.479,263.739 70.345 L 264.368 62.989 267.356 63.288 C 271.010 63.653,271.189 62.558,267.816 60.467 L 265.287 58.900 268.276 58.875 C 272.026 58.844,272.136 57.495,268.491 56.225 C 266.447 55.512,265.231 54.122,263.865 50.934 C 261.487 45.385,261.774 44.834,265.977 46.890 C 270.428 49.066,270.348 48.388,264.897 37.701 C 264.510 36.943,262.492 35.015,260.411 33.417 C 256.574 30.470,256.787 29.425,261.225 29.425 C 265.679 29.425,259.305 22.841,253.177 21.113 C 249.395 20.047,249.346 19.979,249.498 16.038 C 249.697 10.894,248.135 9.126,245.498 11.511 C 243.789 13.059,243.207 13.113,239.730 12.048 C 232.558 9.853,229.473 9.819,225.416 11.888 C 222.005 13.628,221.609 13.670,221.609 12.283 C 221.609 9.593,217.047 2.824,214.263 1.384 C 210.803 -0.405,210.575 -0.371,210.575 1.927 C 210.575 2.987,209.682 5.107,208.591 6.639 L 206.608 9.424 205.261 6.781 C 201.583 -0.438,198.621 -1.563,198.621 4.259 M216.011 6.083 C 217.051 7.406,218.406 10.923,219.020 13.899 C 220.313 20.159,220.404 20.209,223.897 16.563 C 227.396 12.911,231.508 12.239,238.114 14.239 C 242.277 15.499,243.830 15.616,245.382 14.785 C 248.255 13.247,248.055 16.500,245.057 20.062 C 242.075 23.607,241.924 23.440,248.174 23.502 C 251.867 23.539,254.413 24.107,256.214 25.298 L 258.851 27.041 254.253 28.357 C 250.237 29.505,249.872 29.802,251.366 30.698 C 257.824 34.572,261.403 37.314,263.087 39.679 C 265.518 43.092,265.261 43.327,260.313 42.215 C 255.394 41.110,254.941 41.484,257.219 44.775 C 259.488 48.053,262.069 54.630,262.069 57.134 C 262.069 58.564,261.302 57.910,259.080 54.587 C 254.685 48.010,244.598 41.680,244.598 45.499 C 244.598 47.619,241.735 54.253,240.820 54.253 C 240.369 54.253,240.000 52.998,240.000 51.465 C 240.000 47.930,237.749 42.498,235.129 39.708 L 233.103 37.552 236.106 34.868 C 239.969 31.416,237.716 31.345,233.592 34.789 L 230.471 37.394 233.351 40.996 C 236.284 44.666,238.383 51.504,238.120 56.536 C 238.040 58.062,238.017 59.698,238.068 60.172 C 238.251 61.864,243.490 55.887,245.129 52.117 C 246.047 50.004,246.911 48.116,247.049 47.921 C 248.094 46.441,255.660 53.903,258.596 59.310 C 263.815 68.922,258.600 86.287,247.592 95.952 C 245.008 98.221,243.301 101.934,245.287 100.967 C 245.667 100.782,247.147 100.046,248.577 99.331 C 253.381 96.929,256.265 101.619,253.737 107.722 C 252.176 111.490,249.473 113.097,244.623 113.141 C 240.572 113.178,240.405 113.295,238.429 117.519 C 234.793 125.288,225.113 133.333,219.401 133.333 C 218.147 133.333,216.927 133.646,216.691 134.028 C 216.095 134.992,219.546 139.098,220.471 138.526 C 220.885 138.270,222.448 138.607,223.945 139.274 C 241.524 147.112,282.574 154.041,307.575 153.390 C 323.366 152.980,324.593 152.584,336.882 143.946 C 346.388 137.265,346.792 137.525,342.758 147.727 C 339.843 155.101,340.229 155.402,352.615 155.402 L 363.218 155.402 363.218 157.748 C 363.218 160.148,359.057 162.752,355.202 162.764 C 346.049 162.792,345.483 165.883,354.023 169.197 C 366.418 174.008,366.302 176.019,353.680 175.159 C 341.652 174.339,341.413 174.741,348.944 183.104 C 356.308 191.280,356.398 192.026,349.607 188.598 C 335.621 181.538,324.263 181.189,308.033 187.323 C 292.423 193.222,290.314 193.563,269.425 193.563 C 259.057 193.563,248.936 193.356,246.933 193.103 C 241.930 192.472,241.724 193.060,237.778 219.310 C 233.246 249.460,232.977 246.634,242.673 270.704 C 252.289 294.576,263.477 325.739,270.769 348.966 C 273.627 358.069,276.771 367.730,277.756 370.435 C 281.925 381.885,268.702 393.525,258.681 387.228 C 256.769 386.027,251.142 378.421,242.482 365.337 C 228.266 343.857,193.270 294.460,190.838 292.442 C 188.978 290.898,188.468 291.521,181.102 304.368 C 168.394 326.530,154.771 354.992,147.433 374.713 C 142.064 389.139,141.186 389.561,132.874 381.703 C 129.967 378.956,127.652 377.825,121.839 376.313 C 106.453 372.311,94.724 364.674,99.464 361.744 C 100.054 361.380,104.088 360.838,108.429 360.541 L 116.322 360.000 118.792 354.819 C 120.151 351.969,123.188 344.107,125.542 337.347 C 127.897 330.588,135.638 308.937,142.746 289.234 L 155.670 253.410 154.692 247.395 C 154.154 244.086,152.018 231.655,149.946 219.770 C 147.874 207.885,145.971 196.880,145.718 195.315 L 145.257 192.469 129.410 191.890 C 110.679 191.205,103.280 189.653,87.373 183.070 C 69.389 175.627,61.997 175.012,48.539 179.839 C 37.773 183.701,37.733 183.660,45.008 176.236 C 53.128 167.949,53.107 167.904,40.845 167.503 C 35.576 167.330,31.264 166.864,31.264 166.466 C 31.264 165.584,38.916 162.268,42.893 161.427 C 48.496 160.242,49.577 157.528,44.916 156.349 C 37.166 154.388,33.197 152.547,32.588 150.630 C 31.439 147.009,35.591 146.305,46.991 148.188 C 55.570 149.604,56.165 148.983,53.498 141.390 C 49.684 130.530,50.527 130.207,61.282 138.414 C 65.607 141.714,70.243 144.974,71.585 145.658 C 84.880 152.444,148.749 148.772,168.506 140.087 C 171.633 138.712,173.292 136.092,171.034 136.092 C 170.529 136.092,170.115 135.496,170.115 134.769 C 170.115 134.041,168.391 131.455,166.283 129.021 C 157.997 119.456,150.244 88.524,157.679 94.694 C 161.260 97.666,158.585 93.567,154.792 90.270 L 150.503 86.543 151.995 80.743 C 152.816 77.553,153.952 72.460,154.519 69.425 C 157.480 53.573,162.641 44.188,172.763 36.243 C 178.127 32.033,179.194 31.723,177.513 34.864 C 176.133 37.443,176.866 37.287,181.677 33.977 C 195.086 24.751,209.342 26.890,213.561 38.761 C 214.477 41.340,215.544 38.355,215.431 33.528 C 215.298 27.856,215.168 27.981,219.086 30.007 C 221.902 31.463,222.031 31.443,223.408 29.339 C 224.189 28.146,226.069 25.746,227.586 24.005 C 231.012 20.074,228.011 21.417,224.038 25.593 L 221.410 28.355 217.295 26.591 C 210.735 23.779,209.236 24.096,211.504 27.816 C 214.210 32.253,213.844 33.935,210.805 31.031 C 204.382 24.893,196.455 23.499,188.644 27.135 C 182.859 29.829,182.894 29.822,183.576 28.046 C 184.246 26.298,183.585 26.311,180.101 28.113 C 176.429 30.011,173.793 27.980,173.793 23.254 C 173.793 20.205,173.845 20.162,175.837 21.557 C 179.776 24.316,182.069 23.476,182.069 19.274 C 182.069 11.079,187.735 4.242,189.317 10.527 C 191.632 19.719,200.460 16.456,200.460 6.409 C 200.460 4.351,200.562 4.306,201.992 5.736 C 202.835 6.579,203.525 8.530,203.525 10.071 C 203.525 14.592,210.225 10.964,211.958 5.504 C 212.734 3.059,213.746 3.204,216.011 6.083 M233.103 26.818 C 230.181 28.430,226.207 32.416,226.207 33.735 C 226.207 35.825,227.519 35.081,232.184 30.345 C 236.581 25.881,236.880 24.734,233.103 26.818 M164.190 68.251 C 161.644 71.886,163.382 79.080,166.806 79.080 C 168.902 79.080,171.211 75.612,171.304 72.324 C 171.465 66.636,167.080 64.125,164.190 68.251 M228.717 67.812 C 224.702 72.249,223.808 78.744,226.987 80.387 C 233.587 83.801,233.037 92.355,226.088 94.382 C 222.023 95.567,218.948 97.875,220.013 98.941 C 220.291 99.219,221.778 98.795,223.317 97.999 C 224.856 97.203,227.399 96.552,228.967 96.552 C 235.258 96.552,236.098 85.826,230.240 80.301 C 226.831 77.086,226.729 75.308,229.622 69.570 C 231.198 66.444,230.748 65.569,228.717 67.812 M203.730 69.170 C 200.856 73.274,202.916 80.920,206.897 80.920 C 210.609 80.920,212.912 73.332,210.542 68.905 C 209.251 66.492,205.504 66.638,203.730 69.170 M167.356 73.158 C 167.356 73.886,166.736 74.483,165.977 74.483 C 164.592 74.483,164.087 72.542,165.186 71.443 C 166.044 70.584,167.356 71.621,167.356 73.158 M206.529 75.034 C 206.084 76.194,205.641 76.354,204.905 75.618 C 204.349 75.062,204.169 73.889,204.506 73.011 C 204.951 71.852,205.394 71.692,206.129 72.428 C 206.686 72.984,206.865 74.157,206.529 75.034 M173.333 77.428 C 170.661 81.603,168.877 82.469,165.541 81.210 C 162.477 80.053,161.709 81.213,164.537 82.726 C 168.950 85.088,175.632 81.188,175.632 76.251 C 175.632 73.958,175.515 74.018,173.333 77.428 M177.120 80.230 C 174.131 84.937,172.395 92.789,173.990 94.384 C 175.589 95.983,177.471 95.385,177.471 93.279 C 177.471 91.126,179.284 91.766,180.230 94.253 C 182.234 99.524,187.505 96.422,186.015 90.849 C 183.019 79.648,179.873 75.893,177.120 80.230 M194.943 79.800 C 194.943 84.445,206.242 87.888,212.670 85.202 C 216.867 83.448,217.390 81.482,213.278 82.916 C 209.036 84.394,200.881 83.416,197.673 81.044 C 196.171 79.934,194.943 79.374,194.943 79.800 M204.639 99.608 C 206.460 106.861,169.729 110.711,164.526 103.813 C 162.702 101.395,157.677 106.243,158.889 109.249 C 160.402 113.001,162.780 115.451,163.612 114.117 C 164.265 113.072,165.246 113.345,168.883 115.583 C 179.737 122.261,189.209 122.251,201.808 115.549 C 211.177 110.565,211.279 110.545,212.035 113.557 C 212.845 116.787,214.041 115.606,214.750 110.874 C 215.585 105.311,214.921 103.894,209.872 100.460 C 204.646 96.904,203.931 96.788,204.639 99.608 M208.522 106.743 C 208.993 109.239,200.663 113.573,198.740 111.832 C 196.486 109.792,196.098 109.934,195.414 113.051 C 194.151 118.802,181.482 118.842,170.170 113.131 C 162.357 109.187,162.129 108.120,169.307 109.091 C 180.491 110.605,192.896 109.917,200.000 107.390 C 207.052 104.882,208.155 104.798,208.522 106.743 M177.471 125.943 C 177.471 128.486,185.522 130.650,189.324 129.129 C 194.593 127.020,194.050 125.850,188.125 126.546 C 185.296 126.879,181.920 126.704,180.309 126.142 C 178.748 125.598,177.471 125.508,177.471 125.943 " stroke="none" fill="#000000" fill-rule="evenodd"></path></g></svg>