<?xml version="1.0" standalone="no"?>
<svg version="1.0" xmlns="http://www.w3.org/2000/svg"
 width="504.000000pt" height="504.000000pt" viewBox="0 0 504.000000 504.000000"
 preserveAspectRatio="xMidYMid meet">
    <g transform="translate(-230.000000,540.000000) scale(0.115000,-0.115000)">
        <path d="M5192 4599 c-129 -22 -286 -92 -399 -179 -43 -33 -302 -282 -576
        -553 l-498 -492 21 -98 c27 -123 89 -305 136 -400 90 -179 284 -413 459 -554
        176 -141 428 -288 603 -349 l52 -19 163 161 c668 659 925 916 961 964 239 310
        261 741 54 1087 -43 73 -176 213 -252 268 -113 80 -259 141 -390 164 -70 13
        -258 12 -334 0z m-284 -725 c14 -16 22 -38 22 -62 0 -32 -9 -45 -82 -117 -568
        -554 -771 -750 -777 -753 -4 -1 -23 33 -43 77 l-35 79 396 395 c218 217 405
        400 416 406 29 16 77 5 103 -25z"/>
        <path d="M2904 2626 c-461 -456 -581 -581 -627 -649 -69 -102 -107 -183 -143
        -308 -26 -85 -28 -109 -29 -254 0 -182 13 -252 75 -396 118 -277 357 -485 655
        -571 71 -20 101 -23 260 -22 167 0 186 2 269 28 201 61 291 122 531 355 281
        274 925 915 925 921 0 3 -15 11 -32 19 -79 34 -330 162 -402 205 -213 127
        -462 353 -594 541 -96 136 -183 318 -247 520 -31 96 -59 175 -63 175 -4 0
        -264 -254 -578 -564z"/>
    </g>
</svg>
