<svg id="svg" xmlns="http://www.w3.org/2000/svg"
     width="400" height="375.78125"
     viewBox="20, 20, 360, 335.78125">
    <g id="svgg">
        <path id="path0"
              d="M159.209 43.103 C 158.268 44.251,156.869 45.269,154.888 46.248 C 147.609 49.846,140.234 60.621,140.234 67.659 C 140.234 68.325,139.989 68.126,139.119 66.753 C 136.714 62.961,132.516 59.402,127.916 57.255 C 126.634 56.657,125.164 55.967,124.649 55.721 C 122.847 54.861,110.336 55.261,108.008 56.253 C 107.578 56.436,105.934 56.664,104.355 56.759 C 100.311 57.003,99.520 57.815,99.458 61.781 C 99.405 65.237,99.298 65.425,96.741 66.566 C 92.691 68.374,92.656 68.835,95.474 83.203 C 97.366 92.850,97.248 92.643,101.540 93.770 C 105.791 94.886,107.155 96.115,106.824 98.528 C 106.625 99.968,106.706 100.598,107.154 101.097 C 108.013 102.054,108.820 104.328,109.952 108.984 C 110.500 111.240,111.211 113.981,111.530 115.076 C 111.903 116.354,112.021 117.722,111.860 118.899 C 111.646 120.459,111.738 120.868,112.479 121.657 C 112.957 122.166,113.840 124.149,114.440 126.064 C 115.847 130.552,116.460 131.697,118.245 133.168 C 120.795 135.270,124.980 134.668,125.009 132.196 C 125.021 131.157,126.370 129.451,126.725 130.025 C 127.708 131.615,131.760 130.298,133.172 127.930 C 133.551 127.293,133.604 127.690,133.455 130.078 C 133.342 131.906,133.469 133.669,133.794 134.766 C 134.080 135.732,134.968 138.633,135.767 141.211 C 136.565 143.789,137.196 146.554,137.167 147.356 C 137.126 148.505,137.319 148.947,138.074 149.442 C 138.601 149.787,139.150 150.443,139.295 150.898 C 139.439 151.353,140.441 153.198,141.520 154.998 L 143.482 158.270 143.018 160.787 C 142.513 163.528,142.882 165.915,143.948 166.799 C 144.765 167.477,144.697 167.793,143.291 169.858 C 140.908 173.358,140.625 173.798,140.625 173.995 C 140.625 174.104,139.161 176.441,137.371 179.187 C 135.581 181.933,133.013 185.938,131.663 188.086 C 130.314 190.234,128.697 192.695,128.071 193.555 C 127.445 194.414,126.429 196.172,125.814 197.461 C 124.606 199.990,123.615 201.143,121.501 202.477 C 119.465 203.762,117.681 206.376,116.750 209.440 C 115.842 212.430,115.864 212.637,117.640 217.773 C 118.086 219.062,118.597 221.084,118.775 222.266 C 119.009 223.817,119.364 224.631,120.051 225.195 C 120.574 225.625,121.132 226.416,121.291 226.953 C 121.450 227.490,121.744 228.136,121.945 228.387 C 122.693 229.324,123.727 232.772,123.546 233.722 C 123.349 234.753,124.197 236.609,125.629 238.281 C 126.686 239.515,129.874 247.605,130.324 250.195 C 130.562 251.564,130.898 252.252,131.445 252.495 C 132.353 252.897,136.389 262.070,135.933 262.695 C 135.777 262.910,135.426 263.789,135.154 264.648 C 134.161 267.789,133.046 269.318,127.445 275.222 C 122.419 280.521,121.660 281.178,121.121 280.702 C 120.480 280.136,114.828 276.742,113.477 276.112 C 112.473 275.644,111.832 275.252,107.825 272.653 C 104.141 270.264,103.201 269.687,102.344 269.292 C 102.021 269.143,100.603 268.265,99.193 267.341 C 97.782 266.416,96.156 265.481,95.579 265.262 C 94.337 264.789,93.061 262.844,92.743 260.938 C 92.617 260.186,92.111 258.760,91.617 257.771 C 91.124 256.781,90.168 254.194,89.493 252.021 C 88.818 249.849,88.170 247.821,88.053 247.516 C 87.911 247.147,88.543 246.559,89.943 245.758 C 97.439 241.470,105.448 225.490,101.424 222.853 L 100.400 222.182 101.176 221.194 C 102.180 219.919,102.184 217.908,101.184 217.004 C 100.605 216.479,100.509 216.134,100.794 215.602 C 101.501 214.280,101.241 212.220,100.270 211.454 C 99.520 210.862,99.372 210.386,99.391 208.632 C 99.412 206.682,99.325 206.472,98.242 205.869 C 97.301 205.344,97.045 204.914,96.944 203.687 C 96.784 201.765,96.355 201.248,94.795 201.097 C 93.691 200.990,93.540 200.827,93.425 199.611 C 93.265 197.923,92.749 197.266,91.586 197.266 C 90.318 197.266,89.453 196.874,89.453 196.300 C 89.453 194.888,87.790 193.658,86.167 193.870 C 84.701 194.061,84.506 193.977,83.784 192.840 C 82.928 191.492,81.449 191.063,80.118 191.776 C 79.477 192.118,79.155 192.011,78.318 191.173 C 77.486 190.341,77.067 190.199,76.051 190.402 C 75.366 190.540,73.552 190.635,72.020 190.614 C 69.478 190.579,69.168 190.662,68.452 191.573 C 67.772 192.437,67.603 192.492,67.184 191.988 C 65.998 190.559,63.352 191.565,62.703 193.692 C 62.499 194.360,62.305 194.493,61.992 194.180 C 60.636 192.823,56.641 194.419,56.641 196.317 C 56.641 197.099,56.445 197.266,55.529 197.266 C 54.187 197.266,53.236 198.231,53.060 199.772 C 52.957 200.674,52.650 201.006,51.589 201.361 C 50.070 201.869,49.749 202.318,49.417 204.395 C 49.286 205.216,48.960 205.859,48.676 205.859 C 47.577 205.859,46.809 207.310,46.923 209.169 C 47.021 210.759,46.917 211.040,46.076 211.457 C 44.711 212.135,44.140 214.545,45.093 215.599 C 45.763 216.339,45.758 216.408,44.965 217.416 C 43.866 218.814,43.925 220.132,45.141 221.348 C 46.100 222.307,46.113 222.378,45.454 223.106 C 44.582 224.070,45.199 229.792,46.430 232.153 C 46.857 232.972,47.393 234.115,47.621 234.692 C 48.991 238.162,54.836 244.759,57.957 246.358 C 58.630 246.703,59.671 247.395,60.272 247.896 C 61.783 249.158,63.498 249.539,69.063 249.850 C 74.848 250.174,75.000 250.293,75.000 254.492 C 75.000 256.485,75.189 257.516,75.682 258.214 C 76.888 259.923,78.108 265.504,78.117 269.355 C 78.122 271.425,78.306 273.071,78.561 273.326 C 78.801 273.566,79.201 274.173,79.450 274.674 C 79.796 275.370,80.326 275.635,81.685 275.792 C 83.634 276.018,84.057 276.259,88.086 279.447 C 89.590 280.636,92.578 282.886,94.727 284.445 C 96.875 286.004,100.654 288.882,103.125 290.840 C 115.839 300.914,117.399 301.903,120.621 301.936 C 122.224 301.952,125.062 300.848,125.582 300.006 C 125.717 299.788,126.167 299.609,126.582 299.609 C 126.997 299.609,127.541 299.283,127.791 298.883 C 128.210 298.211,128.365 298.284,129.875 299.860 C 131.443 301.496,131.597 301.562,133.820 301.558 C 140.608 301.546,143.750 298.442,143.750 291.751 C 143.750 289.760,143.818 289.637,146.397 286.944 C 147.852 285.423,149.959 283.125,151.079 281.836 C 153.112 279.495,153.114 279.493,153.119 280.701 C 153.123 281.403,153.448 282.203,153.895 282.607 C 154.828 283.451,156.641 289.014,156.641 291.031 C 156.641 291.829,156.878 292.679,157.168 292.920 C 157.458 293.161,158.155 294.808,158.716 296.581 C 162.122 307.342,162.899 310.129,162.895 311.576 C 162.893 312.465,163.148 313.688,163.463 314.295 C 163.970 315.273,163.966 315.475,163.428 316.070 C 162.214 317.410,162.819 325.061,164.258 326.573 C 166.592 329.026,168.967 329.529,171.586 328.125 C 173.153 327.286,174.425 327.120,174.789 327.710 C 175.756 329.274,181.023 329.604,183.672 328.267 C 184.252 327.974,185.066 327.734,185.480 327.734 C 186.758 327.734,187.305 326.616,187.307 323.993 C 187.311 320.128,187.659 320.160,190.039 324.238 C 194.330 331.590,199.744 333.960,203.075 329.943 C 203.370 329.588,203.920 329.297,204.297 329.297 C 205.293 329.297,205.848 328.448,206.252 326.306 C 206.448 325.265,206.949 323.184,207.364 321.680 C 207.779 320.176,209.016 313.848,210.113 307.617 C 212.631 293.322,213.877 286.308,214.701 281.781 C 215.556 277.087,214.168 265.151,212.181 260.112 C 211.871 259.326,211.911 258.960,212.355 258.516 C 212.739 258.132,212.986 256.845,213.095 254.653 C 213.260 251.355,214.259 246.282,214.906 245.457 C 215.763 244.364,214.774 240.630,213.034 238.389 C 211.533 236.455,211.365 236.039,211.570 234.756 C 211.698 233.959,211.609 232.947,211.374 232.507 C 211.064 231.929,211.061 229.990,211.362 225.521 C 211.591 222.119,211.817 217.930,211.864 216.211 C 211.940 213.426,212.104 212.810,213.370 210.547 C 214.152 209.150,215.177 206.953,215.649 205.664 C 216.121 204.375,216.750 203.041,217.047 202.699 C 217.344 202.357,217.564 201.478,217.535 200.745 C 217.449 198.583,218.068 190.625,218.321 190.628 C 218.450 190.629,219.423 191.684,220.484 192.972 C 221.544 194.259,223.346 196.058,224.487 196.969 C 225.629 197.879,226.563 198.819,226.563 199.056 C 226.563 199.294,226.941 199.823,227.403 200.232 C 227.866 200.642,229.260 202.516,230.502 204.397 C 231.743 206.278,233.106 208.258,233.530 208.796 C 234.196 209.644,234.272 210.187,234.092 212.818 C 233.940 215.029,234.063 216.476,234.540 218.119 C 234.958 219.557,235.065 220.544,234.832 220.834 C 234.632 221.084,233.195 223.662,231.639 226.563 C 230.084 229.463,228.305 232.592,227.687 233.516 C 227.068 234.440,226.563 235.415,226.563 235.684 C 226.563 235.953,225.596 237.809,224.414 239.809 C 223.232 241.808,222.266 243.495,222.266 243.557 C 222.266 243.619,221.592 244.787,220.769 246.151 C 215.096 255.556,212.693 264.694,215.276 267.029 C 215.986 267.671,216.066 268.056,215.859 269.826 C 215.579 272.207,216.158 273.369,219.414 276.966 C 221.972 279.792,224.488 283.259,224.666 284.202 C 224.745 284.620,225.161 285.116,225.590 285.305 C 226.020 285.495,227.394 286.901,228.645 288.430 L 230.918 291.211 230.987 295.258 L 231.055 299.305 233.067 301.154 C 235.979 303.831,242.104 304.422,242.983 302.110 C 243.628 300.414,245.387 300.839,247.827 303.279 C 252.427 307.879,255.025 306.970,284.627 290.406 C 287.099 289.023,289.329 287.887,289.581 287.882 C 289.833 287.877,290.479 287.530,291.016 287.109 C 291.553 286.689,292.105 286.342,292.243 286.337 C 292.381 286.332,293.900 285.537,295.620 284.570 C 298.109 283.170,299.124 282.813,300.606 282.813 C 302.188 282.813,302.779 282.571,304.554 281.202 L 306.641 279.592 306.641 276.523 C 306.641 274.606,306.403 272.860,306.009 271.874 C 305.368 270.273,306.408 263.440,307.462 262.324 C 307.655 262.120,307.813 261.375,307.813 260.669 C 307.813 259.141,310.369 248.060,310.820 247.636 C 310.992 247.474,311.478 247.279,311.900 247.203 C 312.921 247.019,314.453 244.691,314.453 243.325 C 314.453 242.725,314.629 242.125,314.844 241.992 C 315.522 241.573,315.269 239.872,314.453 239.362 C 313.308 238.648,313.463 237.557,314.746 237.299 C 318.265 236.590,320.362 235.387,321.326 233.523 C 322.114 231.998,323.037 228.951,323.043 227.854 C 323.047 226.970,324.328 225.981,331.641 221.220 C 333.467 220.030,335.870 218.362,336.981 217.512 C 338.615 216.264,339.326 215.967,340.692 215.966 C 343.230 215.963,344.697 215.365,347.693 213.111 C 349.189 211.986,351.199 210.672,352.161 210.192 C 354.840 208.854,355.391 207.169,353.836 205.067 C 353.368 204.434,353.090 203.811,353.219 203.682 C 353.347 203.554,354.419 202.717,355.601 201.822 C 356.783 200.927,359.118 199.001,360.790 197.542 C 362.462 196.083,364.278 194.674,364.825 194.411 C 365.775 193.956,365.823 193.775,365.874 190.450 L 365.927 186.965 363.007 184.063 C 359.776 180.853,358.383 180.539,355.778 182.434 C 355.195 182.857,354.610 183.203,354.477 183.203 C 354.343 183.203,353.325 183.799,352.215 184.526 C 351.104 185.254,349.776 185.976,349.264 186.132 C 348.752 186.287,347.272 187.036,345.975 187.796 L 343.617 189.178 342.474 187.753 C 341.200 186.165,339.672 185.871,338.159 186.922 C 331.498 191.554,328.368 193.267,327.266 192.883 C 322.489 191.218,316.817 194.502,315.816 199.513 L 315.369 201.752 309.849 205.661 C 306.813 207.811,302.828 210.615,300.993 211.892 C 296.320 215.145,295.508 216.428,295.508 220.555 L 295.508 223.791 297.070 225.404 C 299.008 227.404,300.344 228.125,302.117 228.125 C 303.717 228.125,303.682 228.511,301.858 231.044 C 301.091 232.109,300.778 232.965,300.859 233.776 C 300.966 234.846,300.830 235.003,299.414 235.452 C 295.961 236.548,294.388 241.191,296.542 243.930 L 297.381 244.996 296.169 247.596 C 295.503 249.025,294.752 250.898,294.500 251.758 C 293.440 255.372,290.860 262.345,289.441 265.430 C 289.046 266.289,288.605 267.645,288.461 268.443 C 288.130 270.278,287.987 270.388,283.770 272.032 C 275.567 275.230,265.889 279.398,258.634 282.856 C 253.695 285.211,254.905 285.830,248.878 277.864 C 243.527 270.793,243.091 270.107,241.833 266.798 L 241.045 264.724 242.202 263.263 C 242.839 262.459,243.359 261.328,243.359 260.749 C 243.359 259.320,245.896 254.882,247.273 253.901 C 248.618 252.944,249.609 251.080,249.609 249.512 C 249.609 248.314,252.595 242.414,254.170 240.497 C 254.670 239.890,255.078 239.167,255.078 238.890 C 255.078 238.613,255.430 237.940,255.859 237.393 C 256.289 236.847,256.641 236.239,256.641 236.042 C 256.641 235.350,261.006 227.528,261.943 226.541 C 262.464 225.992,262.891 225.094,262.891 224.544 C 262.891 223.995,263.418 222.383,264.063 220.961 C 265.439 217.925,265.783 212.270,264.648 211.328 C 264.326 211.061,264.063 210.589,264.063 210.280 C 264.063 209.972,263.184 208.790,262.109 207.654 C 260.632 206.091,260.156 205.294,260.156 204.381 C 260.156 203.528,259.686 202.629,258.560 201.328 C 257.682 200.314,256.163 197.798,255.183 195.738 C 254.204 193.678,253.252 191.687,253.069 191.314 C 252.885 190.941,252.734 190.286,252.734 189.858 C 252.734 189.430,252.292 188.791,251.752 188.437 C 250.575 187.666,246.094 178.893,246.094 177.359 C 246.094 176.717,245.654 175.896,244.946 175.218 C 242.184 172.572,240.046 166.661,241.406 165.430 C 242.231 164.684,242.456 163.103,241.797 162.695 C 240.759 162.054,241.361 157.898,242.622 157.000 C 243.976 156.036,246.093 151.967,246.093 150.328 C 246.094 149.208,247.511 145.099,248.228 144.141 C 249.259 142.762,249.597 141.448,249.533 139.063 C 249.435 135.368,250.028 129.494,250.434 130.135 C 250.619 130.426,250.772 131.112,250.775 131.660 C 250.784 133.181,251.492 133.594,254.082 133.592 C 260.198 133.586,261.786 131.778,267.984 117.773 C 270.037 113.134,272.656 102.425,272.656 98.669 C 272.656 96.650,272.724 96.484,273.555 96.484 C 274.049 96.484,274.620 96.331,274.824 96.143 C 275.028 95.955,276.412 95.416,277.899 94.944 C 279.386 94.473,281.228 93.572,281.992 92.942 C 282.756 92.312,283.570 91.797,283.801 91.797 C 285.218 91.797,288.324 86.795,288.220 84.682 C 288.185 83.976,288.354 81.641,288.594 79.492 C 289.325 72.978,287.148 64.514,284.133 62.142 C 283.621 61.740,283.203 61.272,283.203 61.102 C 283.203 60.932,282.837 60.402,282.389 59.926 C 281.833 59.335,281.471 58.229,281.251 56.453 C 280.734 52.286,278.571 51.328,273.291 52.930 C 271.737 53.402,270.876 53.428,268.604 53.074 C 256.334 51.162,242.941 59.114,239.095 70.593 C 237.403 75.645,238.199 82.031,240.521 82.031 C 240.759 82.031,241.077 82.595,241.229 83.285 C 241.380 83.974,242.010 85.472,242.627 86.614 C 243.990 89.134,243.991 89.141,242.771 88.508 C 241.448 87.822,239.651 85.268,239.318 83.600 C 239.060 82.312,236.238 78.906,235.428 78.906 C 234.813 78.906,230.089 74.542,229.587 73.510 C 229.320 72.961,228.661 72.395,228.123 72.253 C 227.585 72.110,225.828 71.114,224.217 70.039 C 221.741 68.387,218.768 66.717,215.498 65.143 C 211.988 63.454,200.042 60.938,195.534 60.938 C 195.180 60.938,194.304 59.614,193.344 57.631 C 192.135 55.133,191.071 53.652,188.996 51.577 C 183.421 46.002,179.351 44.002,172.266 43.359 C 170.361 43.186,168.140 42.705,167.057 42.232 C 163.644 40.739,160.896 41.044,159.209 43.103 M165.772 44.722 C 168.402 45.885,168.366 45.617,166.246 48.220 C 165.299 49.383,164.408 50.699,164.267 51.144 C 164.034 51.878,163.705 51.953,160.711 51.953 L 157.411 51.953 157.968 50.622 C 158.641 49.010,160.945 45.361,161.879 44.427 C 162.768 43.538,163.164 43.568,165.772 44.722 M175.026 46.724 C 184.919 49.662,192.495 58.325,193.583 67.945 L 193.844 70.250 192.332 70.677 C 190.183 71.285,182.869 71.643,181.273 71.218 C 179.961 70.869,179.917 70.791,179.446 67.997 C 178.242 60.850,173.220 55.136,165.918 52.605 C 163.664 51.824,168.851 46.203,171.902 46.121 C 172.454 46.106,173.860 46.377,175.026 46.724 M157.422 49.013 C 157.422 50.443,155.560 52.655,153.567 53.591 C 152.341 54.167,150.502 55.374,149.480 56.274 C 147.041 58.420,146.815 58.047,148.960 55.414 C 151.641 52.122,157.422 47.750,157.422 49.013 M164.792 53.692 C 178.529 57.349,183.135 74.363,173.099 84.381 C 163.424 94.040,147.945 89.690,143.983 76.199 C 140.230 63.424,152.302 50.368,164.792 53.692 M278.424 55.176 C 278.979 55.862,279.464 59.766,278.995 59.766 C 278.512 59.766,273.281 56.276,273.121 55.848 C 272.836 55.085,277.838 54.451,278.424 55.176 M268.866 56.441 C 270.094 56.761,272.197 57.583,273.538 58.269 L 275.977 59.515 274.609 59.871 C 268.073 61.575,264.356 65.895,263.242 73.083 C 262.594 77.262,262.798 76.994,260.460 76.726 C 259.326 76.597,254.531 76.286,249.805 76.035 L 241.211 75.580 241.306 74.021 C 241.912 64.062,258.211 53.666,268.866 56.441 M123.570 58.963 C 129.495 61.001,135.523 65.807,137.562 70.116 C 138.906 72.957,138.954 73.755,137.793 73.994 C 137.310 74.094,133.135 74.911,128.516 75.811 C 107.748 79.856,108.326 79.432,110.363 89.118 L 110.959 91.952 109.983 92.929 C 105.335 97.577,100.002 81.414,101.817 68.177 C 102.758 61.311,115.144 56.064,123.570 58.963 M106.641 59.288 C 106.641 60.114,102.002 63.660,101.801 62.988 C 101.391 61.614,102.121 59.614,103.138 59.331 C 104.496 58.952,106.641 58.926,106.641 59.288 M156.610 60.198 C 147.406 61.563,144.082 73.723,151.237 79.848 C 158.602 86.152,169.758 80.208,169.053 70.355 C 168.571 63.615,163.189 59.222,156.610 60.198 M279.297 62.153 C 280.920 63.008,281.922 63.857,283.109 65.385 C 284.422 67.075,284.174 67.331,282.290 66.227 C 277.014 63.136,271.512 67.899,270.821 76.156 C 270.060 85.250,276.570 91.383,282.624 87.275 C 284.549 85.969,284.680 86.257,283.105 88.329 C 278.227 94.743,270.186 94.213,266.524 87.237 C 259.762 74.356,268.791 56.624,279.297 62.153 M162.695 62.489 C 167.232 65.020,169.029 70.375,166.985 75.274 C 166.314 76.883,164.192 79.297,163.448 79.297 C 163.194 79.297,162.775 79.551,162.518 79.862 C 160.682 82.074,154.478 81.214,151.758 78.371 C 144.111 70.378,153.194 57.188,162.695 62.489 M201.228 65.026 C 211.216 66.531,221.017 71.274,228.920 78.426 C 232.484 81.651,233.570 81.458,212.456 81.340 L 193.663 81.235 193.917 80.364 C 195.291 75.643,195.556 70.705,194.693 65.918 L 194.429 64.453 195.945 64.455 C 196.779 64.457,199.156 64.713,201.228 65.026 M155.335 67.577 C 153.609 69.092,153.311 70.764,154.413 72.756 C 155.824 75.307,159.375 75.438,161.082 73.001 C 163.594 69.415,158.604 64.706,155.335 67.577 M281.636 67.185 C 289.124 71.005,286.951 87.109,278.947 87.109 C 271.068 87.109,269.635 70.980,277.148 66.859 C 278.338 66.206,279.946 66.323,281.636 67.185 M100.272 74.707 C 100.298 81.987,100.875 85.270,102.908 89.711 C 103.930 91.943,103.845 92.044,101.521 91.348 C 99.691 90.799,99.705 90.837,97.813 81.250 C 95.833 71.217,95.836 70.076,97.852 68.908 C 100.310 67.483,100.246 67.330,100.272 74.707 M142.720 81.462 C 143.076 82.527,143.799 84.151,144.325 85.071 L 145.281 86.743 143.590 89.368 C 142.177 91.560,136.330 103.361,131.791 113.180 C 130.213 116.593,130.038 116.400,128.314 109.348 L 126.779 103.070 127.639 98.898 C 128.371 95.350,128.656 94.610,129.548 93.945 C 130.124 93.516,131.314 92.628,132.191 91.973 C 135.320 89.638,138.281 84.014,138.281 80.409 C 138.281 79.322,138.550 78.689,139.309 77.985 C 140.184 77.173,140.351 76.663,140.430 74.551 C 140.481 73.187,140.561 71.982,140.606 71.875 C 140.652 71.768,141.000 73.445,141.380 75.603 C 141.760 77.760,142.363 80.397,142.720 81.462 M193.743 73.145 C 193.712 78.900,190.833 85.057,187.995 85.437 C 185.747 85.738,184.030 86.804,181.261 89.618 C 179.871 91.031,178.504 92.188,178.224 92.188 C 177.944 92.188,176.489 92.805,174.990 93.560 C 164.539 98.823,154.281 96.209,147.491 86.551 C 144.920 82.895,145.021 82.354,147.743 85.202 C 158.223 96.171,176.680 90.482,179.452 75.429 L 179.927 72.852 185.830 72.656 C 189.076 72.549,191.864 72.329,192.025 72.168 C 192.823 71.369,193.750 71.897,193.743 73.145 M278.809 73.469 C 275.790 75.227,276.712 81.641,279.984 81.641 C 283.067 81.641,283.579 74.546,280.579 73.405 C 279.468 72.983,279.654 72.976,278.809 73.469 M139.063 75.190 C 139.063 77.087,136.941 77.936,126.349 80.282 C 113.147 83.207,113.311 83.109,113.787 87.724 C 113.982 89.609,112.304 92.355,111.571 91.351 C 111.266 90.933,110.536 87.687,110.114 84.870 C 109.375 79.938,108.197 80.527,126.367 76.753 C 140.382 73.843,139.063 74.005,139.063 75.190 M255.469 76.978 C 258.369 77.177,261.226 77.341,261.816 77.342 C 262.766 77.344,262.891 77.491,262.897 78.613 C 262.928 84.289,266.392 90.955,270.509 93.258 C 271.580 93.858,271.050 94.226,268.856 94.409 C 265.432 94.694,263.722 92.849,261.730 86.719 C 259.827 80.864,260.155 81.063,251.030 80.264 C 243.718 79.624,242.085 79.254,241.242 78.050 C 239.807 76.001,240.499 75.949,255.469 76.978 M137.109 80.589 C 137.109 82.902,136.787 83.042,127.539 84.759 C 122.812 85.636,118.253 86.513,117.406 86.709 C 115.518 87.144,115.234 86.988,115.234 85.514 C 115.234 84.049,115.494 83.948,123.798 82.194 C 127.359 81.442,131.592 80.501,133.203 80.102 C 137.194 79.116,137.109 79.105,137.109 80.589 M240.949 80.078 C 241.108 80.558,241.036 80.576,240.555 80.179 C 240.232 79.912,239.869 79.792,239.749 79.912 C 239.629 80.032,239.430 79.967,239.307 79.767 C 239.184 79.568,239.459 79.424,239.919 79.448 C 240.379 79.472,240.843 79.756,240.949 80.078 M237.628 83.650 C 237.748 84.109,237.236 83.750,236.311 82.728 C 235.479 81.808,234.790 80.888,234.782 80.685 C 234.755 80.070,237.417 82.843,237.628 83.650 M250.577 81.465 C 258.538 82.235,258.468 82.218,259.173 83.580 C 260.687 86.509,260.724 86.498,252.159 85.514 C 248.774 85.125,246.245 85.048,246.539 85.341 C 246.727 85.529,251.549 86.072,257.155 86.537 C 259.503 86.732,260.258 86.940,260.423 87.438 C 260.541 87.794,261.147 89.211,261.771 90.586 C 263.154 93.636,263.245 93.545,259.589 92.790 C 256.813 92.216,256.496 92.219,255.199 92.835 C 252.931 93.911,246.063 88.994,245.430 85.840 C 245.312 85.249,245.052 84.766,244.853 84.766 C 244.443 84.766,243.359 82.367,243.359 81.458 C 243.359 80.728,242.958 80.728,250.577 81.465 M233.630 83.496 L 234.919 84.961 232.297 85.156 C 229.111 85.394,229.114 85.382,231.562 88.611 C 237.880 96.943,243.128 110.451,244.867 122.852 C 245.448 126.996,245.625 127.584,246.395 127.925 C 247.437 128.386,247.444 128.704,246.527 133.926 C 245.661 138.859,245.965 138.659,239.355 138.666 C 233.575 138.672,232.422 139.063,232.422 141.016 C 232.422 142.960,233.584 143.359,239.235 143.359 C 245.000 143.359,245.088 143.392,244.320 145.219 L 243.788 146.484 236.866 146.484 C 229.249 146.484,228.516 146.691,228.516 148.841 C 228.516 150.581,229.124 150.753,235.687 150.869 L 241.826 150.977 239.719 154.297 L 237.611 157.617 233.747 158.070 C 215.308 160.229,180.715 161.474,178.766 160.049 C 177.262 158.950,175.021 148.828,174.889 142.544 L 174.805 138.488 176.758 138.226 C 184.364 137.206,189.844 132.346,189.844 126.621 C 189.844 123.290,190.225 121.237,194.361 102.271 C 198.393 83.781,198.339 85.609,194.855 85.466 C 191.713 85.338,191.472 85.109,192.574 83.301 L 193.348 82.031 212.844 82.031 L 232.341 82.031 233.630 83.496 M135.938 84.314 C 135.938 87.372,129.983 92.889,125.151 94.308 C 124.213 94.583,123.531 92.754,123.343 89.453 L 123.242 87.695 121.441 87.578 C 120.339 87.507,118.862 87.758,117.633 88.225 C 116.384 88.699,115.534 88.841,115.385 88.600 C 114.893 87.804,116.083 87.444,124.247 85.921 C 128.851 85.061,133.232 84.204,133.984 84.016 C 135.946 83.525,135.938 83.524,135.938 84.314 M286.814 85.438 C 286.544 85.535,286.423 85.774,286.544 85.971 C 286.665 86.167,286.600 86.328,286.399 86.328 C 286.197 86.328,285.821 86.838,285.563 87.461 C 285.305 88.085,284.646 89.008,284.100 89.512 C 283.163 90.377,283.173 90.328,284.274 88.672 C 284.916 87.705,285.743 86.415,286.111 85.806 C 286.480 85.196,286.899 84.825,287.043 84.981 C 287.187 85.136,287.084 85.342,286.814 85.438 M195.850 87.735 C 195.805 88.437,195.401 90.321,191.968 105.859 C 191.185 109.404,190.156 114.191,189.681 116.496 C 189.207 118.800,188.735 120.770,188.633 120.872 C 188.531 120.975,186.986 115.193,185.201 108.025 C 183.416 100.857,181.709 94.517,181.408 93.936 C 180.707 92.585,180.630 92.834,182.322 90.961 C 185.001 87.996,186.388 87.380,191.016 87.099 C 195.927 86.801,195.911 86.799,195.850 87.735 M237.818 88.965 C 243.421 97.250,246.257 105.784,247.278 117.426 C 248.089 126.687,247.127 129.475,245.950 121.275 C 244.353 110.146,239.944 98.361,234.228 89.941 L 232.040 86.719 234.170 86.719 L 236.299 86.719 237.818 88.965 M122.020 89.844 C 121.993 90.381,121.665 93.369,121.291 96.484 C 120.510 103.005,120.648 111.513,121.742 124.116 C 122.471 132.520,122.470 132.529,120.418 131.171 C 118.125 129.653,118.053 129.445,112.882 109.375 L 109.310 95.508 111.002 93.987 C 115.874 89.610,122.153 87.249,122.020 89.844 M148.233 90.062 C 148.816 90.826,150.415 92.333,151.786 93.410 L 154.278 95.369 153.436 96.509 L 152.593 97.649 156.932 112.203 C 159.318 120.208,161.559 127.791,161.911 129.054 C 162.997 132.951,167.448 136.850,172.191 138.060 L 173.958 138.511 173.871 141.228 C 173.744 145.184,174.819 151.652,176.368 156.253 L 177.720 160.266 172.551 159.992 C 163.414 159.510,148.673 157.855,147.600 157.192 C 147.204 156.947,143.750 151.718,143.750 151.363 C 143.750 151.258,145.293 151.172,147.179 151.172 C 151.312 151.172,152.455 150.617,152.268 148.702 C 152.091 146.893,150.942 146.497,145.849 146.490 C 141.230 146.484,140.816 146.330,140.565 144.531 L 140.430 143.555 144.448 143.443 C 148.860 143.321,149.657 142.814,149.076 140.502 C 148.733 139.132,148.019 138.920,142.969 138.685 L 138.477 138.477 137.736 135.352 C 137.129 132.792,136.988 130.602,136.954 123.242 L 136.914 114.258 138.414 108.415 C 140.136 101.712,141.798 97.420,144.664 92.285 C 146.975 88.143,146.836 88.230,148.233 90.062 M246.159 90.609 C 245.957 91.120,245.901 91.108,245.784 90.527 C 245.708 90.151,245.488 89.844,245.296 89.844 C 245.104 89.844,245.050 89.575,245.176 89.246 C 245.375 88.727,245.470 88.738,245.901 89.328 C 246.174 89.701,246.290 90.277,246.159 90.609 M242.401 90.204 C 242.279 90.403,242.554 91.201,243.013 91.979 C 243.471 92.756,243.749 93.490,243.630 93.609 C 243.396 93.844,241.797 90.915,241.797 90.250 C 241.797 90.027,241.983 89.844,242.211 89.844 C 242.438 89.844,242.524 90.006,242.401 90.204 M248.207 93.283 C 249.300 94.100,250.767 95.001,251.465 95.283 C 252.220 95.589,252.734 96.076,252.734 96.484 C 252.734 96.861,252.988 97.380,253.297 97.637 C 253.607 97.894,253.764 98.399,253.647 98.759 C 253.040 100.621,251.560 103.408,250.829 104.064 C 250.373 104.474,250.000 105.060,250.000 105.367 C 250.000 105.673,249.797 105.857,249.549 105.774 C 248.920 105.565,248.029 102.354,248.300 101.275 C 248.526 100.374,247.584 97.899,246.840 97.440 C 246.282 97.095,245.649 95.434,245.321 93.457 C 244.966 91.315,245.528 91.281,248.207 93.283 M180.240 94.874 C 180.526 95.437,181.854 100.469,183.191 106.055 C 184.528 111.641,186.285 118.837,187.095 122.047 C 188.801 128.808,188.735 129.651,186.309 132.005 C 178.749 139.341,165.870 137.658,163.463 129.019 C 163.117 127.775,162.420 125.439,161.915 123.828 C 153.306 96.357,153.167 95.330,158.239 96.704 C 164.052 98.279,169.469 97.723,175.166 94.966 C 178.541 93.333,179.448 93.316,180.240 94.874 M261.801 94.506 C 265.040 95.263,269.499 97.049,269.985 97.785 C 271.023 99.356,267.973 110.594,263.825 120.483 C 260.405 128.635,259.136 130.279,255.517 131.242 C 253.038 131.902,252.967 131.603,254.297 126.040 C 257.034 114.588,257.963 102.572,256.551 96.884 C 255.657 93.284,255.967 93.143,261.801 94.506 M124.347 99.805 C 124.895 101.953,126.145 106.834,127.125 110.652 C 128.105 114.470,128.906 117.880,128.906 118.230 C 128.906 118.984,126.972 123.048,126.614 123.045 C 125.643 123.039,121.805 104.898,122.046 101.452 C 122.588 93.702,122.758 93.580,124.347 99.805 M126.715 96.777 C 126.008 100.559,125.851 100.626,125.036 97.498 C 124.563 95.681,124.728 95.313,126.017 95.313 C 126.928 95.313,126.971 95.404,126.715 96.777 M255.854 108.265 C 255.384 113.746,254.813 116.251,253.166 120.045 C 252.221 122.222,251.944 122.161,250.599 119.484 C 249.322 116.942,249.558 116.070,255.114 102.773 C 256.058 100.513,256.340 102.602,255.854 108.265 M252.354 105.632 C 250.199 111.261,249.506 112.917,249.364 112.775 C 248.999 112.411,248.461 107.963,248.693 107.233 C 248.922 106.511,248.964 106.524,249.314 107.428 L 249.690 108.398 250.100 107.520 C 250.326 107.036,250.757 106.641,251.059 106.641 C 251.361 106.641,251.507 106.477,251.384 106.277 C 251.260 106.077,251.341 105.801,251.563 105.664 C 251.784 105.527,251.883 105.280,251.781 105.116 C 251.680 104.952,251.837 104.818,252.131 104.818 C 252.512 104.818,252.576 105.052,252.354 105.632 M135.981 110.583 C 135.571 112.604,135.110 115.373,134.958 116.735 C 134.658 119.418,130.967 127.568,129.860 127.992 C 129.202 128.245,127.404 127.175,127.084 126.341 C 126.897 125.852,136.335 106.518,136.621 106.804 C 136.679 106.861,136.391 108.562,135.981 110.583 M124.015 119.727 C 124.598 122.305,125.346 125.341,125.679 126.474 C 126.321 128.658,126.272 128.895,125.133 129.085 C 124.738 129.151,124.458 129.402,124.512 129.642 C 124.565 129.882,124.442 130.078,124.236 130.078 C 123.777 130.078,123.595 129.018,122.852 121.990 C 121.839 112.402,122.202 111.696,124.015 119.727 M113.825 119.759 C 114.164 120.641,114.132 120.705,113.477 120.454 C 113.154 120.330,112.891 119.984,112.891 119.685 C 112.891 118.945,113.533 118.995,113.825 119.759 M250.970 122.643 C 252.167 125.005,252.172 125.156,251.098 126.157 C 249.762 127.402,249.609 127.164,249.609 123.828 C 249.609 120.157,249.679 120.096,250.970 122.643 M253.554 123.718 C 253.051 124.583,252.939 123.583,253.406 122.395 C 253.663 121.742,253.700 121.738,253.823 122.351 C 253.898 122.720,253.777 123.335,253.554 123.718 M252.492 128.069 C 252.309 128.984,252.119 129.206,251.769 128.916 C 251.509 128.699,251.193 128.625,251.068 128.750 C 250.942 128.875,250.881 128.698,250.931 128.356 C 251.013 127.796,252.392 126.481,252.639 126.727 C 252.694 126.783,252.628 127.387,252.492 128.069 M245.566 140.927 C 245.279 142.699,245.833 142.545,239.551 142.600 C 233.387 142.654,233.203 142.608,233.203 141.000 C 233.203 139.560,233.538 139.477,239.844 139.353 C 245.903 139.235,245.843 139.218,245.566 140.927 M147.880 139.752 C 150.372 141.458,148.537 142.969,143.972 142.969 C 139.498 142.969,139.063 142.746,139.063 140.455 L 139.063 139.453 143.262 139.459 C 145.571 139.462,147.650 139.594,147.880 139.752 M150.527 147.243 C 151.677 147.681,152.209 149.026,151.547 149.823 C 151.189 150.255,150.074 150.391,146.900 150.391 L 142.723 150.391 142.065 149.010 C 141.702 148.251,141.406 147.556,141.406 147.465 C 141.406 147.374,142.681 147.239,144.238 147.165 C 145.796 147.091,147.630 146.995,148.314 146.953 C 148.999 146.910,149.994 147.041,150.527 147.243 M243.750 147.057 C 243.750 147.157,243.458 147.852,243.101 148.601 L 242.451 149.962 236.558 150.079 C 228.916 150.230,227.583 149.766,229.518 147.628 C 230.156 146.923,243.750 146.377,243.750 147.057 M243.948 152.201 C 243.624 152.525,243.359 152.953,243.359 153.153 C 243.359 153.753,243.213 154.069,242.599 154.785 C 241.437 156.142,241.472 155.425,242.669 153.341 C 243.341 152.170,244.036 151.303,244.214 151.413 C 244.392 151.522,244.272 151.877,243.948 152.201 M159.180 160.503 C 180.005 162.834,208.276 162.612,231.650 159.933 C 237.956 159.210,238.094 159.233,238.441 161.081 C 239.028 164.209,236.817 166.542,232.860 166.969 C 217.367 168.644,193.042 169.457,189.228 168.428 C 185.491 167.419,182.271 167.348,179.086 168.203 C 175.839 169.075,161.833 168.515,152.148 167.127 C 147.178 166.414,144.821 162.906,147.304 159.915 C 147.889 159.210,147.424 159.187,159.180 160.503 M240.720 163.954 C 240.450 164.050,240.344 164.334,240.485 164.584 C 240.635 164.853,240.517 164.832,240.197 164.535 C 239.735 164.105,239.740 163.978,240.226 163.677 C 240.541 163.483,240.891 163.426,241.004 163.551 C 241.118 163.676,240.990 163.858,240.720 163.954 M151.953 170.317 C 151.953 170.477,151.419 170.830,150.766 171.100 C 146.109 173.029,144.568 180.867,148.105 184.632 L 148.908 185.486 146.730 186.517 C 144.000 187.808,143.043 188.933,136.714 198.293 C 131.596 205.862,131.145 206.385,130.711 205.254 C 130.583 204.921,129.515 204.208,128.337 203.668 L 126.196 202.688 128.199 199.489 C 129.300 197.729,131.985 193.564,134.165 190.234 C 136.345 186.904,140.042 181.191,142.380 177.539 C 144.718 173.887,147.137 170.244,147.754 169.444 L 148.877 167.990 150.415 169.008 C 151.261 169.568,151.953 170.157,151.953 170.317 M235.547 168.535 C 235.547 169.549,232.812 171.090,231.012 171.092 C 229.528 171.093,228.645 171.345,227.576 172.070 C 226.785 172.607,226.059 173.047,225.962 173.047 C 225.720 173.047,226.990 169.817,227.421 169.336 C 227.828 168.882,235.547 168.121,235.547 168.535 M242.067 177.734 C 244.339 182.139,248.548 190.234,251.419 195.724 C 257.256 206.882,257.113 206.481,255.371 206.841 C 254.673 206.985,253.470 207.510,252.697 208.009 L 251.293 208.915 246.168 199.862 C 241.116 190.941,239.574 188.854,236.820 187.212 L 235.554 186.458 236.578 185.514 C 240.467 181.933,239.618 174.378,235.064 172.022 L 233.892 171.417 235.398 169.874 C 237.252 167.976,236.695 167.320,242.067 177.734 M156.096 169.566 C 157.131 170.425,156.663 170.754,154.785 170.489 C 153.731 170.340,152.592 169.888,152.148 169.441 L 151.367 168.655 153.459 168.884 C 154.610 169.010,155.797 169.317,156.096 169.566 M187.875 169.561 C 190.545 170.176,190.692 170.429,189.712 172.712 L 188.867 174.682 183.821 174.433 C 177.790 174.134,178.030 174.247,178.775 172.059 C 179.758 169.176,182.699 168.368,187.875 169.561 M225.781 169.317 C 225.781 169.414,225.187 170.864,224.461 172.540 C 223.734 174.215,222.834 176.553,222.459 177.734 C 221.558 180.581,222.195 180.323,214.327 181.028 C 206.245 181.752,206.720 181.869,206.941 179.213 C 207.175 176.383,206.472 174.076,204.816 172.243 C 204.051 171.396,203.489 170.679,203.568 170.649 C 203.647 170.620,208.281 170.296,213.867 169.929 C 219.453 169.563,224.419 169.236,224.902 169.202 C 225.386 169.168,225.781 169.220,225.781 169.317 M169.878 170.183 C 172.724 170.427,172.748 170.438,171.636 171.005 C 168.961 172.367,167.578 175.026,167.578 178.801 L 167.578 180.508 165.369 180.391 L 163.159 180.273 160.492 175.195 C 159.025 172.402,157.822 169.960,157.819 169.767 C 157.813 169.434,163.354 169.625,169.878 170.183 M177.116 171.777 C 176.945 172.368,176.794 173.538,176.781 174.376 L 176.758 175.901 178.711 175.982 C 179.785 176.026,182.686 176.131,185.156 176.215 L 189.648 176.367 190.820 174.023 C 191.878 171.909,192.103 171.688,193.129 171.762 C 194.858 171.887,195.019 172.337,194.087 174.442 C 192.991 176.916,192.919 180.147,193.911 182.346 L 194.649 183.982 190.968 198.143 C 186.761 214.329,187.160 213.647,183.538 210.834 C 177.569 206.199,171.157 205.571,166.844 209.200 C 165.440 210.381,165.425 210.322,166.218 206.763 C 166.544 205.299,166.899 203.706,167.006 203.223 C 167.251 202.125,173.527 201.980,179.688 202.930 C 185.610 203.842,185.303 203.949,185.040 201.074 C 184.427 194.390,181.733 191.406,176.310 191.406 C 173.462 191.406,172.080 191.855,170.610 193.258 C 170.021 193.820,169.441 194.181,169.321 194.060 C 169.094 193.834,173.202 174.499,173.824 172.863 C 174.516 171.044,177.628 170.018,177.116 171.777 M199.219 171.827 C 199.219 172.016,198.928 172.411,198.572 172.706 C 196.118 174.742,196.323 181.903,198.915 184.663 C 199.986 185.803,199.140 185.853,197.341 184.756 C 193.767 182.577,193.605 175.061,197.074 172.333 C 198.180 171.463,199.219 171.218,199.219 171.827 M154.672 173.340 C 157.734 176.153,156.832 182.653,153.114 184.576 C 151.475 185.424,150.850 185.304,149.410 183.863 C 144.622 179.075,149.752 168.819,154.672 173.340 M157.820 173.340 C 160.731 177.040,160.282 182.728,156.918 184.779 C 154.663 186.155,154.002 185.772,155.593 184.012 C 158.009 181.337,158.527 177.241,156.847 174.082 C 155.736 171.992,156.375 171.504,157.820 173.340 M204.036 173.369 C 206.787 176.241,206.202 182.629,203.027 184.371 C 201.546 185.184,200.098 184.362,198.926 182.043 C 196.206 176.659,200.388 169.561,204.036 173.369 M228.792 174.282 C 226.694 177.657,227.073 182.308,229.670 185.059 C 230.944 186.408,229.355 186.265,227.711 184.882 C 224.378 182.077,224.706 175.187,228.276 173.010 C 230.095 171.901,230.165 172.074,228.792 174.282 M172.025 173.535 C 171.864 174.019,171.369 176.050,170.925 178.050 C 170.481 180.050,169.941 181.689,169.727 181.693 C 168.336 181.714,168.819 175.620,170.364 173.657 C 171.375 172.371,172.439 172.293,172.025 173.535 M235.761 174.407 C 240.388 179.313,235.388 188.982,230.665 184.259 C 227.980 181.573,227.889 176.739,230.476 174.152 C 232.109 172.519,234.069 172.613,235.761 174.407 M151.227 175.812 C 150.320 176.785,149.985 178.665,150.437 180.241 C 151.327 183.341,153.906 182.039,153.906 178.490 C 153.906 175.218,152.805 174.118,151.227 175.812 M200.999 175.868 C 199.776 177.613,200.418 181.641,201.919 181.641 C 203.561 181.641,204.360 178.795,203.379 176.446 C 202.691 174.801,201.884 174.605,200.999 175.868 M153.111 176.537 C 153.991 178.181,153.208 181.250,151.908 181.250 C 150.646 181.250,150.471 177.754,151.658 176.270 C 152.209 175.582,152.643 175.661,153.111 176.537 M202.888 176.399 C 203.656 178.401,202.519 182.268,201.576 180.859 C 200.743 179.615,201.175 175.781,202.148 175.781 C 202.425 175.781,202.757 176.059,202.888 176.399 M231.879 176.380 C 230.607 177.651,230.641 180.646,231.943 182.129 C 233.733 184.168,235.763 179.969,234.317 177.220 C 233.523 175.713,232.796 175.463,231.879 176.380 M233.516 177.031 C 234.224 177.739,234.110 181.050,233.356 181.676 C 232.822 182.119,232.646 182.085,232.184 181.454 C 231.194 180.099,231.648 176.563,232.813 176.563 C 232.941 176.563,233.258 176.773,233.516 177.031 M225.126 184.128 C 226.824 186.720,230.196 188.205,232.796 187.505 C 236.333 186.552,238.815 188.821,243.473 197.266 C 245.309 200.596,247.695 204.886,248.775 206.800 C 251.481 211.600,250.321 213.785,245.452 213.059 C 240.776 212.361,239.937 211.619,233.618 202.598 C 230.451 198.078,228.097 195.161,226.381 193.632 C 222.778 190.422,221.513 188.710,222.385 188.222 C 224.067 187.281,224.681 184.302,223.578 182.434 C 223.130 181.676,223.028 181.011,223.237 180.226 C 223.523 179.157,223.561 179.201,224.012 181.127 C 224.273 182.241,224.774 183.591,225.126 184.128 M161.514 182.422 C 160.492 184.439,160.648 186.097,161.978 187.329 L 163.018 188.293 161.855 189.752 C 161.216 190.554,159.125 192.266,157.209 193.555 C 154.329 195.492,153.063 196.711,149.903 200.586 C 142.474 209.697,140.771 210.882,135.718 210.463 C 131.557 210.118,130.971 208.449,133.652 204.573 C 134.723 203.025,137.196 199.385,139.148 196.484 C 145.201 187.490,147.651 185.397,150.781 186.548 C 154.867 188.049,159.426 185.773,160.988 181.451 C 161.397 180.322,161.551 180.180,161.754 180.742 C 161.895 181.129,161.787 181.885,161.514 182.422 M168.638 183.474 C 169.445 184.475,169.516 185.673,168.841 186.861 C 168.094 188.174,162.500 186.177,162.500 184.597 C 162.500 181.825,166.693 181.058,168.638 183.474 M222.048 182.899 C 222.796 183.968,222.808 185.119,222.080 186.080 C 221.228 187.205,199.609 188.438,199.609 187.362 C 199.609 186.976,199.927 186.719,200.403 186.719 C 201.753 186.719,203.724 185.699,204.986 184.349 L 206.192 183.059 211.787 182.743 C 214.865 182.569,217.822 182.364,218.359 182.287 C 220.800 181.940,221.452 182.048,222.048 182.899 M360.477 185.755 C 364.326 190.128,364.287 191.153,360.146 194.434 C 356.313 197.470,356.849 197.596,353.743 192.931 C 350.634 188.260,350.589 188.517,354.949 185.987 C 359.097 183.579,358.581 183.601,360.477 185.755 M197.433 186.455 C 198.106 186.947,198.062 187.244,196.512 192.607 C 191.433 210.182,189.766 214.736,188.917 213.363 C 188.812 213.192,189.654 209.457,190.787 205.062 C 195.975 184.942,195.849 185.296,197.433 186.455 M167.931 189.304 C 168.115 189.466,162.933 213.369,162.653 213.649 C 162.549 213.753,162.123 213.625,161.706 213.364 C 156.301 209.988,152.865 223.655,158.212 227.265 C 159.461 228.109,160.370 228.211,162.023 227.695 C 162.546 227.532,163.786 230.568,170.097 247.460 L 173.454 256.444 172.827 258.944 C 172.021 262.160,172.271 263.424,174.577 267.773 L 176.441 271.289 176.266 277.539 C 176.115 282.893,175.988 283.901,175.376 284.570 C 174.435 285.600,173.993 286.826,173.012 291.138 C 171.992 295.621,171.965 295.706,171.594 295.690 C 171.426 295.683,170.337 293.266,169.172 290.319 C 168.008 287.372,165.510 281.198,163.620 276.599 L 160.183 268.236 161.342 266.917 C 162.684 265.388,162.701 265.304,161.890 264.147 C 161.027 262.915,161.400 260.757,163.747 253.416 L 165.714 247.261 164.599 245.799 C 162.278 242.755,153.468 232.814,152.752 232.431 C 152.341 232.211,151.577 232.031,151.055 232.031 C 150.197 232.031,149.839 231.396,147.319 225.409 C 144.067 217.685,144.267 218.777,145.605 216.053 C 146.502 214.230,146.684 213.336,146.705 210.666 L 146.730 207.464 151.169 202.134 C 154.527 198.103,156.290 196.345,158.403 194.919 C 159.939 193.882,162.061 192.063,163.117 190.876 C 164.959 188.807,166.712 188.235,167.931 189.304 M341.232 190.527 C 341.822 191.548,344.490 195.699,347.161 199.752 C 349.833 203.806,351.872 207.250,351.693 207.407 C 350.637 208.331,343.079 213.276,342.763 213.250 C 341.754 213.165,330.464 195.150,331.052 194.562 C 332.005 193.609,339.221 188.718,339.709 188.694 C 339.957 188.682,340.643 189.507,341.232 190.527 M214.987 191.406 C 215.751 196.159,212.340 208.639,209.673 210.852 C 208.684 211.673,196.289 213.997,195.754 213.462 C 195.657 213.365,195.863 212.971,196.211 212.586 C 199.154 209.334,199.365 205.003,196.871 199.014 C 196.436 197.968,196.527 197.351,197.662 193.656 L 198.944 189.480 202.695 189.347 C 204.757 189.274,208.290 189.224,210.544 189.236 L 214.643 189.258 214.987 191.406 M352.051 193.529 C 353.716 195.979,355.078 198.168,355.078 198.393 C 355.078 198.793,351.152 201.953,350.656 201.953 C 350.159 201.953,344.087 192.501,344.272 192.017 C 344.435 191.593,348.258 189.137,348.828 189.090 C 348.936 189.082,350.386 191.079,352.051 193.529 M74.193 192.828 C 74.286 192.913,74.161 193.182,73.916 193.427 C 73.440 193.903,72.266 193.246,72.266 192.504 C 72.266 192.178,73.750 192.428,74.193 192.828 M180.475 192.913 C 182.356 193.916,184.077 197.312,184.305 200.475 L 184.478 202.854 182.376 202.611 C 174.455 201.696,172.555 201.570,170.157 201.804 L 167.463 202.065 167.741 199.959 C 168.613 193.374,174.857 189.919,180.475 192.913 M71.875 194.336 C 72.380 194.873,72.995 195.313,73.242 195.313 C 73.490 195.313,74.105 194.873,74.609 194.336 C 75.810 193.058,76.410 193.104,77.148 194.531 C 77.811 195.813,78.908 196.057,79.703 195.098 C 80.537 194.094,81.785 194.570,82.272 196.076 C 82.807 197.732,83.194 197.883,84.784 197.061 C 86.439 196.205,86.827 196.657,87.082 199.739 C 87.097 199.918,87.944 200.006,88.965 199.935 L 90.820 199.805 91.016 201.563 C 91.205 203.263,91.258 203.324,92.642 203.440 C 94.271 203.575,94.688 204.225,94.114 205.735 C 93.563 207.184,93.860 207.673,95.477 207.976 C 96.884 208.240,97.511 209.717,96.484 210.352 C 95.616 210.888,96.082 212.400,97.266 212.891 C 98.667 213.471,98.732 214.087,97.559 215.674 L 96.680 216.864 97.754 217.788 C 99.118 218.962,99.119 220.036,97.755 221.029 L 96.681 221.811 97.571 223.015 L 98.461 224.219 96.508 224.219 L 94.556 224.219 94.777 221.191 C 96.210 201.593,72.890 189.915,58.569 203.059 C 53.608 207.612,51.460 212.748,51.476 220.020 L 51.486 224.609 50.027 224.609 C 48.099 224.609,47.925 224.352,48.935 222.986 L 49.781 221.842 48.523 220.667 C 46.965 219.211,46.965 219.042,48.525 217.821 L 49.785 216.835 48.891 215.626 C 47.779 214.122,47.911 213.333,49.414 212.500 C 50.724 211.774,50.773 211.578,50.029 210.084 C 49.359 208.738,49.721 207.813,50.916 207.813 C 52.297 207.813,52.843 206.978,52.336 205.644 C 51.748 204.096,52.086 203.583,53.787 203.443 C 55.234 203.324,55.277 203.276,55.394 201.660 L 55.514 200.000 57.437 200.000 C 59.217 200.000,59.378 199.920,59.595 198.926 C 60.052 196.842,60.113 196.773,61.235 197.047 C 63.458 197.590,63.769 197.504,64.216 196.219 C 64.848 194.404,65.091 194.307,66.717 195.221 C 68.323 196.123,68.623 196.043,69.647 194.434 C 70.487 193.113,70.717 193.103,71.875 194.336 M326.796 195.666 C 331.316 197.719,331.753 203.731,327.607 206.800 C 326.101 207.915,322.710 207.904,321.192 206.779 C 314.980 202.177,319.853 192.513,326.796 195.666 M170.898 196.493 C 170.409 196.709,171.285 196.759,173.242 196.627 C 175.717 196.460,176.880 196.578,178.830 197.197 C 181.392 198.010,182.117 197.525,179.664 196.639 C 178.120 196.081,172.061 195.980,170.898 196.493 M79.492 199.647 C 87.736 202.200,93.742 210.582,93.740 219.531 C 93.739 223.673,93.556 224.152,91.919 224.295 C 90.618 224.409,90.517 224.530,89.643 227.037 C 88.306 230.871,84.629 235.547,82.951 235.547 C 82.766 235.547,81.893 233.481,81.010 230.957 L 79.404 226.367 80.713 224.023 C 85.646 215.190,75.876 205.803,67.195 211.035 C 61.180 214.661,61.776 223.465,68.290 227.228 C 70.623 228.575,70.497 228.345,71.667 233.395 C 72.885 238.651,72.899 238.281,71.472 238.281 C 65.815 238.281,59.062 232.633,57.266 226.400 C 56.838 224.917,56.698 224.796,55.263 224.678 C 53.108 224.501,52.847 224.157,52.539 221.094 C 51.066 206.421,65.158 195.207,79.492 199.647 M169.755 199.563 C 169.564 199.873,170.509 200.000,173.005 200.000 C 174.940 200.000,177.412 200.190,178.497 200.423 C 180.866 200.931,181.907 200.678,180.273 199.991 C 178.692 199.326,170.117 198.977,169.755 199.563 M196.700 201.745 C 198.485 206.019,195.940 213.672,192.733 213.672 C 191.519 213.672,191.527 213.589,193.331 207.617 C 195.763 199.563,195.777 199.538,196.700 201.745 M336.117 206.307 C 340.555 212.887,340.492 211.849,336.607 214.465 C 334.842 215.653,330.697 218.466,327.395 220.715 L 321.392 224.805 320.755 223.837 C 319.953 222.619,319.239 221.898,317.808 220.860 C 316.359 219.809,316.495 219.622,320.830 216.732 C 326.995 212.620,328.906 210.746,328.906 208.812 C 328.906 208.481,329.516 207.411,330.262 206.434 C 331.203 205.201,331.696 204.065,331.875 202.719 C 332.202 200.251,331.807 199.917,336.117 206.307 M258.088 203.272 C 258.532 203.782,258.772 204.399,258.622 204.641 C 258.458 204.907,258.091 204.539,257.697 203.713 C 256.928 202.100,256.999 202.019,258.088 203.272 M126.443 205.240 C 129.262 207.666,125.872 216.406,122.112 216.406 C 117.805 216.406,118.538 207.420,123.041 205.022 C 124.799 204.085,125.126 204.106,126.443 205.240 M318.225 205.982 C 319.842 208.277,321.811 209.198,324.886 209.098 L 327.311 209.019 326.859 210.012 C 326.087 211.706,314.766 219.531,313.087 219.531 C 310.221 219.531,307.282 221.465,305.816 224.316 C 304.026 227.796,298.045 224.765,298.048 220.380 C 298.051 217.630,299.024 216.449,304.171 212.954 C 306.711 211.229,310.459 208.583,312.500 207.074 C 316.903 203.818,316.724 203.852,318.225 205.982 M130.082 206.738 C 132.589 210.850,129.006 217.992,124.454 217.956 C 122.722 217.943,122.832 217.728,125.264 216.381 C 127.279 215.264,128.711 211.989,128.711 208.496 C 128.711 205.150,128.937 204.860,130.082 206.738 M122.546 207.913 C 120.900 209.972,120.702 213.672,122.238 213.672 C 123.258 213.672,124.849 211.671,125.163 209.994 C 125.649 207.407,123.999 206.095,122.546 207.913 M178.914 208.685 C 180.091 209.264,181.720 210.289,182.533 210.963 L 184.012 212.189 182.227 213.321 L 180.442 214.453 172.826 214.453 C 164.277 214.453,164.074 214.380,165.455 211.817 C 167.689 207.668,173.904 206.222,178.914 208.685 M124.430 208.228 C 125.106 209.322,123.437 212.891,122.250 212.891 C 121.625 212.891,121.830 210.158,122.545 208.947 C 123.234 207.780,123.978 207.497,124.430 208.228 M259.146 208.650 C 262.182 210.033,263.861 216.420,261.954 219.330 C 260.579 221.429,257.462 220.055,255.760 216.602 C 253.513 212.041,255.638 207.051,259.146 208.650 M253.873 210.712 C 252.987 214.232,254.411 218.840,256.880 220.438 C 258.502 221.489,258.546 221.875,257.045 221.875 C 252.504 221.875,249.680 212.820,253.142 209.358 C 254.256 208.244,254.419 208.545,253.873 210.712 M144.920 211.644 C 144.911 217.203,141.076 220.451,138.070 217.445 C 135.578 214.953,135.814 213.030,138.703 212.286 C 139.653 212.042,141.309 211.392,142.383 210.843 C 144.686 209.665,144.923 209.740,144.920 211.644 M73.438 211.545 C 80.426 215.107,78.506 227.064,71.045 226.446 C 63.056 225.784,61.452 213.772,68.999 211.128 C 70.564 210.580,71.766 210.693,73.438 211.545 M257.593 211.367 C 256.453 213.212,257.988 217.383,259.808 217.383 C 261.844 217.383,260.776 211.327,258.684 211.013 C 258.245 210.947,257.754 211.106,257.593 211.367 M243.302 214.497 C 245.947 215.266,246.213 216.900,244.053 219.109 C 240.744 222.493,237.109 219.955,237.109 214.261 C 237.109 211.173,237.193 211.120,239.592 212.689 C 240.697 213.412,242.367 214.225,243.302 214.497 M134.941 212.541 C 135.163 212.750,134.653 212.891,133.672 212.891 C 132.437 212.891,132.031 212.738,132.031 212.274 C 132.031 211.614,134.165 211.810,134.941 212.541 M259.344 212.267 C 260.007 213.066,260.578 215.302,260.323 216.104 C 259.966 217.231,258.987 216.897,258.379 215.442 C 257.291 212.840,257.969 210.610,259.344 212.267 M78.832 214.844 C 80.510 217.862,80.217 221.273,78.084 223.550 L 76.909 224.805 77.523 223.542 C 78.932 220.648,78.753 216.269,77.128 213.875 C 76.602 213.099,76.172 212.377,76.172 212.269 C 76.172 211.720,78.172 213.656,78.832 214.844 M208.908 215.137 L 208.789 216.992 206.055 217.689 C 198.408 219.637,192.897 219.487,191.986 217.307 C 191.193 215.411,191.143 215.432,197.656 214.902 C 200.771 214.649,204.287 214.200,205.469 213.905 C 209.038 213.012,209.044 213.014,208.908 215.137 M184.205 215.276 C 181.860 218.062,181.809 223.925,184.107 226.465 C 185.174 227.645,184.039 227.714,182.429 226.568 C 178.945 224.087,179.426 216.254,183.177 214.373 C 184.957 213.480,185.393 213.864,184.205 215.276 M161.168 214.598 C 161.281 214.893,160.908 215.815,160.339 216.649 C 158.297 219.640,159.764 225.477,162.392 224.818 C 163.446 224.553,163.520 224.870,162.635 225.848 C 159.604 229.197,155.853 222.089,157.974 217.014 C 158.930 214.724,160.702 213.384,161.168 214.598 M135.232 215.440 C 135.894 216.892,135.281 217.255,132.684 216.950 C 130.984 216.750,130.469 216.538,130.469 216.040 C 130.469 214.190,134.435 213.691,135.232 215.440 M189.733 215.841 C 191.793 218.146,191.749 222.867,189.639 225.632 C 186.692 229.496,182.426 223.947,183.996 218.292 C 184.976 214.767,187.723 213.593,189.733 215.841 M250.000 215.430 C 250.000 215.853,249.566 216.016,248.438 216.016 C 245.974 216.016,246.578 215.020,249.121 214.889 C 249.662 214.861,250.000 215.069,250.000 215.430 M178.965 217.383 C 178.890 217.813,178.802 219.351,178.770 220.801 L 178.711 223.438 170.356 223.438 C 162.856 223.438,161.947 223.367,161.481 222.754 C 160.790 221.844,160.803 219.438,161.507 217.753 L 162.076 216.391 170.589 216.496 C 178.858 216.599,179.098 216.624,178.965 217.383 M186.957 217.786 C 185.357 219.387,185.926 224.219,187.715 224.219 C 189.380 224.219,190.165 219.940,188.845 218.056 C 188.127 217.031,187.764 216.979,186.957 217.786 M250.921 218.457 C 251.645 220.184,251.527 220.268,248.730 220.032 C 245.775 219.781,245.384 219.491,246.240 218.184 C 247.305 216.559,250.195 216.728,250.921 218.457 M188.435 218.587 C 188.948 219.925,188.690 223.064,188.047 223.311 C 187.211 223.632,186.732 222.784,186.725 220.970 C 186.715 218.649,187.851 217.066,188.435 218.587 M134.648 219.263 C 134.906 219.518,135.625 220.957,136.246 222.461 C 136.867 223.965,138.321 227.281,139.475 229.830 L 141.575 234.466 140.666 235.202 C 139.316 236.295,139.430 236.443,136.124 229.252 C 133.115 222.708,131.963 220.703,131.209 220.703 C 129.666 220.703,127.955 219.461,128.711 218.889 C 129.617 218.204,133.846 218.470,134.648 219.263 M208.984 220.106 C 208.984 221.998,205.144 223.057,196.222 223.624 C 192.313 223.872,191.977 223.723,192.375 221.911 L 192.620 220.794 196.994 220.504 C 199.399 220.344,202.773 219.909,204.492 219.538 C 209.077 218.546,208.984 218.534,208.984 220.106 M126.367 220.476 C 128.917 221.219,130.097 221.773,130.663 222.496 C 131.682 223.797,137.181 235.900,137.215 236.914 C 137.331 240.473,136.023 253.000,135.588 252.492 C 134.855 251.638,121.484 220.212,121.484 219.342 C 121.484 219.181,121.792 219.140,122.168 219.251 C 122.544 219.362,124.434 219.914,126.367 220.476 M140.887 220.196 L 142.906 220.404 143.968 222.800 C 147.502 230.775,148.093 232.813,146.875 232.813 C 145.806 232.813,145.871 233.020,147.589 235.102 C 150.688 238.857,151.946 241.163,155.306 249.240 C 156.388 251.844,153.605 256.258,152.172 254.211 C 151.837 253.733,151.563 253.196,151.563 253.018 C 151.563 252.840,150.259 249.838,148.665 246.346 C 145.569 239.564,137.109 220.028,137.109 219.661 C 137.109 219.539,137.505 219.563,137.988 219.714 C 138.472 219.864,139.776 220.081,140.887 220.196 M252.916 222.259 C 254.343 222.803,253.653 223.422,251.609 223.432 C 249.776 223.440,248.416 225.018,245.339 230.706 C 241.249 238.268,233.582 251.661,232.575 253.001 C 231.442 254.510,231.394 255.078,232.402 255.078 C 233.641 255.078,234.956 252.958,245.696 233.651 C 251.313 223.554,250.502 224.230,257.715 223.626 C 260.175 223.420,260.150 223.225,258.134 226.905 C 234.414 270.200,236.177 267.741,229.566 266.758 C 225.345 266.130,225.516 266.416,226.286 261.293 L 226.945 256.907 232.562 246.910 C 235.652 241.412,240.092 233.421,242.430 229.152 L 246.680 221.389 249.219 221.603 C 250.615 221.720,252.279 222.015,252.916 222.259 M316.602 222.371 C 318.318 223.332,319.922 225.958,319.922 227.809 C 319.922 234.417,310.966 236.939,307.652 231.265 C 304.382 225.666,310.905 219.184,316.602 222.371 M121.088 223.340 C 121.100 224.310,120.506 223.802,120.448 222.791 C 120.405 222.050,120.486 221.911,120.735 222.303 C 120.926 222.605,121.084 223.071,121.088 223.340 M244.141 222.179 C 244.141 222.413,228.984 249.881,227.927 251.563 C 226.015 254.605,225.316 256.494,224.559 260.667 C 223.602 265.944,223.798 265.715,220.688 265.184 C 217.398 264.622,217.475 264.757,218.172 260.761 C 218.718 257.631,219.112 256.708,222.417 250.823 C 224.421 247.255,228.745 239.502,232.027 233.594 C 235.309 227.686,238.132 222.676,238.301 222.461 C 238.593 222.091,244.141 221.823,244.141 222.179 M208.594 224.577 C 208.594 225.843,205.850 226.714,198.633 227.741 C 193.762 228.433,192.410 228.212,192.263 226.700 L 192.144 225.470 196.710 225.185 C 199.221 225.028,202.703 224.595,204.446 224.223 C 208.772 223.299,208.594 223.283,208.594 224.577 M176.164 229.688 C 176.967 232.373,178.626 237.867,179.850 241.896 C 182.080 249.238,182.180 250.000,180.913 250.000 C 179.955 250.000,176.869 252.026,175.846 253.327 C 174.722 254.756,175.238 255.785,169.541 240.760 C 166.784 233.489,164.410 227.245,164.265 226.886 C 163.590 225.210,165.301 224.576,170.177 224.695 L 174.705 224.805 176.164 229.688 M180.214 226.177 C 181.746 228.771,186.154 229.778,188.895 228.160 C 190.870 226.995,190.924 227.043,191.184 230.176 C 192.058 240.701,192.955 251.910,193.168 254.981 L 193.418 258.595 192.267 259.746 C 190.245 261.768,187.564 261.828,186.773 259.868 C 186.393 258.928,180.656 240.059,179.616 236.328 C 179.267 235.079,176.728 226.637,176.355 225.488 C 175.969 224.300,179.475 224.926,180.214 226.177 M310.966 226.420 C 308.882 229.069,312.216 232.349,314.784 230.176 C 316.030 229.122,316.201 227.685,315.228 226.448 C 314.086 224.996,312.096 224.983,310.966 226.420 M314.366 226.389 C 315.450 227.149,315.490 228.651,314.453 229.688 C 312.390 231.751,309.618 228.668,311.584 226.496 C 312.375 225.621,313.223 225.589,314.366 226.389 M55.721 226.855 C 58.144 234.114,63.554 238.851,70.706 239.977 L 73.338 240.392 73.974 243.349 C 74.920 247.752,74.951 247.657,72.559 247.649 C 61.551 247.613,50.236 238.303,48.235 227.636 L 47.960 226.172 51.727 226.172 C 54.967 226.172,55.525 226.267,55.721 226.855 M98.956 228.391 C 97.581 233.656,93.898 238.985,89.191 242.520 C 85.768 245.091,85.849 245.113,84.494 241.237 L 83.342 237.942 85.655 235.906 C 88.569 233.342,90.011 231.356,91.069 228.456 L 91.902 226.172 95.718 226.172 L 99.535 226.172 98.956 228.391 M77.734 227.064 C 77.734 227.125,78.450 229.190,79.325 231.654 C 82.813 241.473,84.027 245.319,83.768 245.737 C 82.980 247.012,77.401 248.306,76.811 247.351 C 76.707 247.183,76.073 244.590,75.403 241.589 C 74.732 238.588,73.848 234.727,73.437 233.008 C 72.263 228.092,72.182 228.460,74.609 227.701 C 76.697 227.049,77.734 226.837,77.734 227.064 M208.588 228.418 C 208.575 230.639,203.913 232.276,196.387 232.702 L 192.578 232.917 192.578 231.375 L 192.578 229.833 197.363 229.367 C 199.995 229.111,203.379 228.567,204.883 228.158 C 208.532 227.166,208.595 227.170,208.588 228.418 M208.203 233.832 C 208.203 235.866,203.207 237.450,196.257 237.620 L 193.164 237.695 193.044 236.035 L 192.924 234.375 195.026 234.375 C 197.381 234.375,203.196 233.450,205.865 232.650 C 208.007 232.008,208.203 232.108,208.203 233.832 M303.238 232.813 C 303.126 233.242,302.792 233.594,302.497 233.594 C 302.086 233.594,302.117 233.411,302.630 232.813 C 302.998 232.383,303.331 232.031,303.371 232.031 C 303.410 232.031,303.351 232.383,303.238 232.813 M306.880 233.540 C 307.591 234.370,308.706 235.270,309.359 235.540 C 310.012 235.811,310.547 236.275,310.547 236.571 C 310.547 237.254,309.841 237.237,308.594 236.523 C 308.057 236.216,306.782 235.959,305.762 235.951 C 303.676 235.936,303.529 235.643,304.472 233.386 C 305.182 231.688,305.302 231.696,306.880 233.540 M158.091 240.698 L 164.093 247.997 161.964 254.428 C 158.885 263.729,159.177 263.504,157.365 257.982 L 155.840 253.337 156.631 251.498 C 158.136 247.999,156.180 243.653,149.332 235.281 L 147.996 233.647 149.291 233.481 C 151.850 233.153,151.961 233.244,158.091 240.698 M125.894 234.765 C 126.007 235.195,125.912 235.661,125.684 235.802 C 125.441 235.953,125.385 235.872,125.549 235.607 C 125.702 235.359,125.631 235.156,125.391 235.156 C 125.150 235.156,125.053 234.995,125.175 234.799 C 125.296 234.602,125.175 234.353,124.905 234.244 C 124.590 234.117,124.643 234.035,125.052 234.015 C 125.403 233.998,125.782 234.336,125.894 234.765 M141.406 241.933 C 141.406 245.016,141.520 248.887,141.660 250.536 L 141.913 253.533 144.539 255.278 C 146.940 256.875,147.187 257.166,147.425 258.688 C 147.569 259.603,148.064 261.534,148.526 262.979 C 149.616 266.386,149.388 266.502,146.208 264.157 C 144.748 263.081,142.311 261.401,140.792 260.423 C 136.630 257.745,136.885 258.816,137.780 247.773 C 138.554 238.216,138.568 238.135,139.614 237.235 C 141.320 235.768,141.406 235.993,141.406 241.933 M307.532 237.247 C 308.984 237.857,312.109 241.100,312.109 241.996 C 312.109 244.452,310.603 245.808,309.472 244.371 C 307.296 241.605,304.537 240.839,301.037 242.032 C 298.063 243.045,297.007 241.403,299.121 239.052 C 300.993 236.971,304.887 236.135,307.532 237.247 M210.265 240.042 L 212.132 242.924 211.315 246.755 C 210.865 248.862,210.127 252.432,209.675 254.688 C 209.222 256.943,208.588 259.100,208.265 259.480 C 207.460 260.427,199.511 262.891,197.259 262.891 L 195.428 262.891 195.163 259.668 C 195.018 257.896,194.569 252.754,194.167 248.242 C 193.324 238.804,193.202 239.453,195.824 239.452 C 198.273 239.450,204.031 238.479,206.110 237.717 C 208.280 236.921,208.223 236.890,210.265 240.042 M143.480 238.770 C 143.592 239.038,145.193 242.762,147.037 247.045 C 148.882 251.329,150.391 255.149,150.391 255.534 C 150.391 256.828,148.619 256.848,146.982 255.573 C 146.171 254.941,144.947 254.100,144.261 253.704 C 143.307 253.152,142.953 252.624,142.755 251.454 C 142.294 248.724,143.187 248.855,144.480 251.707 C 145.199 253.294,145.891 254.297,146.265 254.297 C 147.256 254.297,146.994 253.316,144.727 248.546 C 142.727 244.339,142.578 243.827,142.578 241.154 C 142.578 238.534,142.960 237.525,143.480 238.770 M305.782 242.733 C 308.828 244.309,308.846 243.854,305.125 259.961 C 303.088 268.783,302.797 269.713,302.119 269.587 C 300.206 269.233,297.659 269.440,296.772 270.021 C 295.830 270.638,291.776 270.813,291.223 270.260 C 291.090 270.127,291.850 267.667,292.912 264.794 C 296.677 254.610,299.943 245.493,300.210 244.424 C 300.727 242.352,303.448 241.526,305.782 242.733 M84.938 248.145 C 85.517 249.552,90.636 264.425,90.749 265.030 C 90.896 265.817,89.112 265.630,87.304 264.668 C 85.046 263.467,84.228 263.433,82.227 264.453 C 81.384 264.883,80.658 265.234,80.614 265.234 C 80.569 265.234,80.157 263.521,79.697 261.426 C 79.238 259.331,78.432 255.724,77.907 253.411 C 76.705 248.112,76.659 248.441,78.613 248.416 C 79.526 248.405,81.064 248.071,82.031 247.676 C 84.393 246.709,84.343 246.700,84.938 248.145 M248.193 250.574 C 248.072 250.889,247.858 251.132,247.717 251.113 C 246.966 251.014,246.750 251.229,247.266 251.563 C 247.656 251.815,247.689 251.943,247.363 251.947 C 247.095 251.950,246.872 252.261,246.869 252.637 C 246.864 253.200,246.800 253.221,246.507 252.757 C 246.058 252.048,247.055 250.000,247.849 250.000 C 248.184 250.000,248.324 250.233,248.193 250.574 M184.041 256.184 C 186.148 263.723,188.168 264.918,192.936 261.444 L 193.879 260.757 193.627 262.898 C 193.489 264.076,193.108 268.643,192.780 273.047 C 191.965 283.998,192.055 283.594,190.437 283.594 C 186.977 283.594,183.757 287.259,182.634 292.476 C 181.881 295.974,181.641 293.403,181.641 281.865 L 181.641 269.543 180.478 267.291 C 178.034 262.560,178.151 256.726,180.758 253.201 C 182.252 251.182,182.775 251.657,184.041 256.184 M178.985 254.380 C 177.255 257.719,177.424 263.173,179.387 267.315 L 180.836 270.372 180.874 284.173 C 180.919 300.148,180.475 303.412,178.721 300.019 C 178.219 299.048,178.125 296.621,178.125 284.572 L 178.125 270.276 176.270 267.072 C 173.481 262.255,173.933 258.100,177.717 253.791 C 179.626 251.617,180.264 251.913,178.985 254.380 M155.380 256.738 C 155.947 257.434,157.511 262.875,157.302 263.421 C 157.159 263.793,152.310 265.625,151.469 265.625 C 151.098 265.625,149.145 259.458,149.287 258.731 C 149.367 258.317,150.355 257.747,151.953 257.192 C 155.041 256.120,154.893 256.140,155.380 256.738 M241.393 262.142 C 241.128 262.782,240.818 263.214,240.706 263.102 C 240.594 262.989,240.248 263.108,239.939 263.365 C 239.629 263.621,239.876 263.003,240.488 261.991 C 241.655 260.058,242.217 260.152,241.393 262.142 M211.125 262.460 C 211.202 262.859,211.628 264.862,212.072 266.910 C 212.860 270.546,213.423 274.986,213.445 277.734 C 213.456 279.092,213.298 280.102,211.487 290.234 C 210.969 293.135,209.838 299.551,208.974 304.492 C 206.759 317.165,205.882 321.398,205.016 323.596 C 204.273 325.481,204.302 326.847,205.075 326.369 C 205.708 325.978,205.530 326.557,204.688 327.628 C 204.109 328.363,203.906 328.455,203.906 327.982 C 203.906 327.092,203.616 327.175,202.111 328.496 C 198.845 331.363,195.297 330.012,192.418 324.805 C 189.418 319.377,188.046 317.758,187.180 318.623 C 186.623 319.180,186.541 319.169,186.280 318.505 C 185.761 317.186,185.882 315.520,186.479 315.749 C 186.853 315.893,186.963 315.735,186.833 315.238 C 186.729 314.842,187.037 313.405,187.517 312.044 C 188.266 309.921,190.072 304.870,194.370 292.878 C 195.497 289.734,195.569 287.387,194.594 285.541 C 193.877 284.183,194.039 280.234,195.386 266.296 L 195.508 265.039 198.441 264.773 C 201.486 264.497,207.103 262.698,209.171 261.336 C 210.415 260.518,210.793 260.735,211.125 262.460 M146.029 265.669 C 146.239 266.227,143.810 266.067,142.604 265.443 C 141.678 264.964,139.453 261.935,139.453 261.153 C 139.453 260.835,145.867 265.240,146.029 265.669 M160.078 264.531 C 161.912 266.365,159.333 267.988,151.896 269.681 C 149.620 270.199,149.759 267.102,152.051 266.230 C 157.133 264.296,159.370 263.823,160.078 264.531 M141.562 266.809 C 142.019 267.163,143.570 267.458,145.614 267.578 L 148.924 267.773 149.366 269.141 C 149.747 270.320,149.980 270.511,151.066 270.531 C 151.759 270.544,152.445 270.674,152.591 270.820 C 152.879 271.108,152.686 271.321,140.134 284.617 L 131.608 293.649 129.432 294.086 C 126.892 294.596,126.563 294.472,126.563 293.003 C 126.563 291.164,123.977 288.145,121.759 287.394 C 121.235 287.217,122.524 285.672,127.700 280.273 C 135.966 271.652,136.191 271.350,138.473 265.820 L 139.118 264.258 139.969 265.247 C 140.437 265.791,141.154 266.494,141.562 266.809 M86.749 266.376 C 90.151 269.779,85.351 275.568,81.853 272.281 C 80.667 271.168,80.220 269.175,80.872 267.912 C 82.391 264.972,84.732 264.360,86.749 266.376 M239.491 269.786 C 240.233 272.269,241.083 273.591,247.116 281.646 C 254.755 291.844,254.438 291.233,252.364 291.791 C 250.498 292.294,248.659 294.043,248.047 295.898 C 247.529 297.466,247.508 297.471,244.710 296.658 C 242.814 296.107,242.429 295.790,240.562 293.240 C 239.430 291.694,236.021 287.178,232.985 283.203 C 221.470 268.127,221.161 267.059,228.636 268.216 C 233.421 268.956,235.100 268.748,236.832 267.200 C 238.300 265.889,238.338 265.926,239.491 269.786 M82.640 268.075 C 81.439 269.908,83.363 272.123,85.174 270.992 C 86.274 270.305,86.492 269.254,85.766 268.145 C 84.960 266.916,83.422 266.881,82.640 268.075 M92.655 267.850 C 94.169 268.456,101.167 272.590,109.277 277.669 C 111.050 278.779,113.950 280.585,115.723 281.683 C 117.495 282.780,119.318 283.912,119.774 284.198 C 120.996 284.965,120.244 287.149,118.419 288.132 C 116.354 289.244,115.083 291.458,115.059 293.984 C 115.034 296.595,116.026 297.062,107.288 290.317 C 103.172 287.140,96.867 282.350,93.276 279.673 C 86.860 274.889,86.118 274.142,87.321 273.681 C 88.180 273.351,89.434 270.380,89.445 268.652 C 89.455 266.932,90.013 266.793,92.655 267.850 M222.168 267.434 C 222.891 267.628,223.047 267.942,223.047 269.212 C 223.047 271.236,223.203 271.500,228.317 278.125 C 230.721 281.240,233.717 285.195,234.974 286.914 C 236.231 288.633,238.217 291.231,239.386 292.687 C 241.756 295.638,241.775 295.938,239.559 295.341 C 238.307 295.004,237.629 294.403,235.893 292.093 C 231.434 286.157,225.488 278.564,222.376 274.829 C 217.753 269.281,217.667 266.227,222.168 267.434 M84.791 267.982 C 86.137 268.703,85.492 270.703,83.914 270.703 C 83.031 270.703,82.546 268.956,83.207 268.159 C 83.781 267.468,83.822 267.464,84.791 267.982 M158.846 270.215 C 159.177 271.021,161.354 276.164,163.683 281.644 C 166.011 287.124,168.100 292.092,168.325 292.682 C 168.999 294.456,167.179 296.163,164.272 296.483 C 161.559 296.781,162.354 298.458,157.840 282.920 C 153.780 268.943,153.900 269.668,155.566 269.187 C 157.818 268.537,158.205 268.658,158.846 270.215 M301.575 271.296 C 305.691 273.424,304.016 280.469,299.394 280.469 C 297.965 280.469,295.838 278.267,295.494 276.431 C 294.788 272.668,298.374 269.640,301.575 271.296 M294.179 273.047 C 293.639 275.059,294.017 277.705,295.072 279.299 C 296.341 281.216,296.556 280.939,291.992 283.271 C 290.273 284.149,283.945 287.541,277.930 290.809 C 271.914 294.077,265.305 297.649,263.243 298.748 L 259.493 300.745 259.673 298.868 C 259.919 296.311,258.734 293.646,256.858 292.539 C 256.094 292.089,255.467 291.429,255.464 291.075 C 255.462 290.720,255.354 289.787,255.224 289.001 L 254.988 287.573 257.865 286.210 C 266.340 282.195,285.304 274.100,289.258 272.810 C 291.391 272.113,294.390 272.258,294.179 273.047 M153.279 273.274 C 153.798 274.628,153.229 275.382,145.435 283.671 C 136.510 293.163,136.159 293.467,134.320 293.289 C 133.048 293.165,133.116 293.082,142.766 282.910 C 152.835 272.298,152.886 272.251,153.279 273.274 M298.524 273.655 C 296.301 275.212,298.373 279.015,300.729 277.699 C 302.166 276.896,302.385 274.565,301.106 273.670 C 299.998 272.893,299.615 272.891,298.524 273.655 M301.040 274.846 C 301.516 275.567,301.494 275.779,300.865 276.556 C 299.523 278.213,297.418 276.514,298.442 274.600 C 298.986 273.584,300.287 273.707,301.040 274.846 M154.682 278.246 C 154.685 278.420,154.512 278.453,154.297 278.320 C 154.082 278.188,153.904 278.309,153.900 278.590 C 153.896 278.969,153.800 278.953,153.532 278.529 C 153.301 278.163,153.326 277.768,153.601 277.436 C 154.033 276.916,154.665 277.390,154.682 278.246 M188.041 277.907 C 187.922 278.217,187.893 278.788,187.978 279.176 C 188.073 279.617,188.207 279.406,188.334 278.613 C 188.546 277.283,188.408 276.950,188.041 277.907 M155.469 281.084 C 155.469 281.397,155.227 281.523,154.883 281.391 C 154.561 281.268,154.297 280.927,154.297 280.635 C 154.297 280.322,154.539 280.195,154.883 280.327 C 155.205 280.451,155.469 280.792,155.469 281.084 M191.940 285.966 C 193.621 287.288,193.390 289.941,191.049 296.219 C 189.993 299.051,188.015 304.498,186.654 308.325 C 184.246 315.096,184.153 315.277,183.203 315.056 C 182.666 314.931,181.552 314.719,180.728 314.585 C 178.318 314.193,178.223 313.442,179.841 307.583 C 185.327 287.714,188.028 282.889,191.940 285.966 M176.526 294.336 C 176.570 300.065,176.852 301.132,178.680 302.468 C 179.332 302.945,179.322 303.133,178.486 306.186 C 177.441 309.997,177.467 310.011,174.976 304.250 C 172.663 298.901,172.705 299.905,174.492 292.809 C 176.211 285.978,176.464 286.168,176.526 294.336 M123.400 290.068 C 126.825 292.950,125.017 299.219,120.760 299.219 C 116.240 299.219,114.776 292.886,118.600 289.878 C 120.030 288.753,121.927 288.828,123.400 290.068 M119.228 292.405 C 117.508 293.609,118.520 296.875,120.612 296.875 C 121.333 296.875,123.047 295.088,123.047 294.336 C 123.047 292.599,120.668 291.396,119.228 292.405 M140.523 293.599 C 140.030 297.976,135.710 300.083,132.740 297.396 C 131.265 296.061,132.038 294.922,134.419 294.922 C 135.994 294.922,137.896 294.057,139.033 292.824 C 140.394 291.348,140.756 291.536,140.523 293.599 M121.797 293.047 C 122.986 294.236,121.928 296.267,120.244 296.026 C 119.097 295.862,118.388 294.071,119.121 293.187 C 119.722 292.463,121.139 292.389,121.797 293.047 M239.648 297.047 C 240.723 297.396,241.848 297.768,242.148 297.874 C 242.878 298.132,241.379 299.755,239.813 300.403 C 236.651 301.713,233.138 297.873,233.892 293.930 L 234.088 292.905 235.892 294.659 C 237.032 295.767,238.414 296.646,239.648 297.047 M255.826 293.537 C 257.932 294.626,258.861 298.376,257.619 300.777 C 255.345 305.175,249.212 302.981,249.221 297.773 C 249.228 294.191,252.737 291.940,255.826 293.537 M173.538 305.255 L 177.739 315.338 176.583 317.084 C 175.251 319.095,174.732 321.716,175.328 323.425 L 175.741 324.609 173.074 324.609 C 171.415 324.609,170.257 324.425,170.008 324.121 C 169.428 323.413,162.955 301.165,162.372 297.876 C 162.335 297.667,163.251 297.373,164.408 297.222 C 165.912 297.026,166.800 296.658,167.526 295.932 C 169.034 294.424,169.005 294.379,173.538 305.255 M130.700 296.973 C 131.053 297.671,131.716 298.666,132.175 299.184 C 132.633 299.702,132.788 299.999,132.520 299.845 C 132.251 299.690,132.031 299.744,132.031 299.965 C 132.031 300.185,131.753 300.259,131.413 300.129 C 131.062 299.994,130.962 299.787,131.182 299.652 C 131.632 299.373,130.377 297.656,129.723 297.656 C 129.488 297.656,129.297 297.393,129.297 297.070 C 129.297 296.748,129.111 296.484,128.883 296.484 C 128.656 296.484,128.578 296.309,128.711 296.094 C 129.183 295.330,130.067 295.721,130.700 296.973 M252.303 296.525 C 250.878 297.950,251.994 300.781,253.981 300.781 C 256.104 300.781,256.787 297.884,255.018 296.387 C 253.959 295.491,253.304 295.524,252.303 296.525 M126.766 297.258 C 126.688 298.306,126.172 298.766,126.172 297.786 C 126.172 297.143,126.468 296.484,126.758 296.484 C 126.793 296.484,126.797 296.832,126.766 297.258 M255.000 296.953 C 255.642 297.596,255.589 299.023,254.902 299.594 C 253.606 300.669,251.728 299.015,252.368 297.363 C 252.744 296.393,254.212 296.165,255.000 296.953 M244.531 298.805 C 244.531 299.266,243.769 299.759,243.490 299.479 C 243.210 299.199,243.703 298.438,244.164 298.438 C 244.366 298.438,244.531 298.603,244.531 298.805 M246.654 299.209 C 247.626 299.579,248.123 301.172,247.266 301.172 C 247.051 301.172,246.875 300.904,246.875 300.576 C 246.875 300.249,246.436 299.814,245.898 299.609 C 244.921 299.238,244.600 298.828,245.287 298.828 C 245.488 298.828,246.103 299.000,246.654 299.209 M183.458 317.262 C 185.387 319.032,185.356 323.273,183.400 325.229 C 179.844 328.786,175.030 324.077,177.116 319.083 C 178.368 316.087,181.269 315.254,183.458 317.262 M165.506 316.960 C 165.428 317.192,165.073 317.440,164.715 317.509 C 164.290 317.591,164.138 317.445,164.276 317.086 C 164.520 316.449,165.717 316.326,165.506 316.960 M167.751 321.973 C 168.326 323.745,168.889 325.415,169.001 325.684 C 169.391 326.615,167.642 326.181,166.827 325.144 C 165.895 323.960,165.135 321.467,165.426 320.550 C 165.535 320.204,165.707 319.658,165.808 319.336 C 166.191 318.112,166.739 318.856,167.751 321.973 M180.597 319.443 C 179.039 320.435,179.807 323.828,181.589 323.828 C 182.823 323.828,183.203 323.277,183.203 321.484 C 183.203 319.352,182.100 318.488,180.597 319.443 M182.617 321.246 C 182.617 322.293,182.397 322.901,181.911 323.200 C 180.560 324.028,179.736 321.606,180.755 319.802 C 181.328 318.788,182.617 319.787,182.617 321.246 M185.798 325.586 C 185.476 325.908,185.117 326.172,185.001 326.172 C 184.885 326.172,184.891 325.908,185.015 325.586 C 185.139 325.264,185.497 325.000,185.812 325.000 C 186.308 325.000,186.306 325.078,185.798 325.586 M177.769 327.845 C 177.379 328.250,176.115 327.752,176.392 327.303 C 176.511 327.110,176.412 326.953,176.172 326.953 C 175.932 326.953,175.844 326.777,175.977 326.562 C 176.125 326.322,176.576 326.436,177.141 326.855 C 177.648 327.231,177.931 327.677,177.769 327.845 "
              stroke="none" fill="#000000" fill-rule="evenodd">

        </path>
    </g>
</svg>