<?xml version="1.0" encoding="UTF-8"?>
<svg version="1.1" xmlns="http://www.w3.org/2000/svg" width="1100" height="1100">
<path d="M0 0 C1.73945238 2.07956876 2.82964127 3.76081209 4.0625 6.125 C4.83379153 7.50307682 5.60598327 8.88065005 6.37890625 10.2578125 C6.79414551 11.01481445 7.20938477 11.77181641 7.63720703 12.55175781 C10.16324 17.08974753 12.84577417 21.53623181 15.5 26 C16.62546533 27.9059753 17.75047275 29.81222108 18.875 31.71875 C21.74355104 36.573221 24.63826659 41.41126425 27.54907227 46.24047852 C29.74938699 49.89738865 31.92644925 53.5672049 34.08984375 57.24609375 C41.47179325 69.79914021 41.47179325 69.79914021 49.125 82.1875 C53.20340299 88.63206854 57.0397751 95.19708892 60.83569336 101.8112793 C63.87395795 107.0917821 66.99119632 112.31379118 70.1875 117.5 C74.75191277 124.90880611 79.20178691 132.38110887 83.625 139.875 C90.01548313 150.70035404 96.50075161 161.46411772 103.06494141 172.18505859 C106.48614093 177.78893491 109.83131021 183.42197774 113.0625 189.13671875 C115.98751159 194.3092493 119.08452374 199.34035478 122.30712891 204.33251953 C125.23928551 208.95275937 127.95297653 213.69857278 130.6875 218.4375 C136.49630972 228.44786867 142.4004156 238.39476497 148.37695312 248.30566406 C151.48797047 253.47010261 154.58663849 258.6419597 157.6875 263.8125 C162.53464045 271.89523463 162.53464045 271.89523463 167.390625 279.97265625 C170.85336496 285.72847019 174.2957562 291.49545137 177.71484375 297.27734375 C178.05057907 297.84485855 178.38631439 298.41237335 178.73222351 298.99708557 C180.4773602 301.94730229 182.22056721 304.89863166 183.96069336 307.85180664 C187.06957557 313.11915223 190.20181776 318.36481153 193.4765625 323.53125 C193.99234863 324.34940186 194.50813477 325.16755371 195.03955078 326.01049805 C195.98198596 327.49599142 196.9353549 328.97463067 197.90185547 330.44458008 C200.44497855 334.46120985 201.54865339 337.08498008 201 342 C200.34 342 199.68 342 199 342 C198.6390625 343.20527344 198.278125 344.41054688 197.90625 345.65234375 C195.92607787 351.58245034 193.18506068 357.10208039 190.41983032 362.69937134 C188.83325089 365.91300928 187.2667371 369.13640759 185.69921875 372.359375 C185.38325241 373.00824173 185.06728607 373.65710846 184.741745 374.32563782 C180.45043903 383.15902189 176.40096792 392.10254158 172.34423828 401.04541016 C170.94478332 404.12136438 169.53449287 407.19214842 168.12109375 410.26171875 C164.10943542 418.97649005 160.10308745 427.68644445 156.3125 436.5 C154.12739774 441.57522134 151.76821437 446.51958285 149.25 451.4375 C145.83449067 458.11758917 142.79586248 464.92966212 139.8125 471.8125 C135.94439858 480.72615669 131.88260361 489.51581571 127.625 498.25 C121.78147872 510.24349347 116.29398193 522.37004006 110.875 534.55859375 C108.67642805 539.50182077 106.43679665 544.4213097 104.125 549.3125 C101.84084561 554.15019308 99.6773387 559.02464849 97.5625 563.9375 C95.28450727 569.21415261 92.85919128 574.37934733 90.25 579.5 C87.40201746 585.09739721 84.68887696 590.74283573 82.08642578 596.45898438 C81.14630926 598.50263034 80.18193528 600.53527483 79.19482422 602.55664062 C76.63358447 607.89262682 74.71993101 612.77480569 73.57421875 618.59375 C71.88041995 625.74217335 69.99569305 631.40839839 64 636 C51.0213188 641.57543817 35.42037758 641.92688295 21.5390625 643.30517578 C12.75349239 644.19717812 4.06682217 645.61990806 -4.64328003 647.05480957 C-9.27961788 647.81039699 -13.92329288 648.517937 -18.56640625 649.23046875 C-29.43945866 650.90858966 -40.30843851 652.61231585 -51.17687988 654.32000732 C-54.31152069 654.81234619 -57.44626932 655.30399264 -60.58105469 655.79541016 C-70.84174114 657.4041206 -81.10202761 659.01528637 -91.36106396 660.6344862 C-97.14422353 661.54711652 -102.92775999 662.45733567 -108.7115221 663.36613941 C-112.23533931 663.91996184 -115.75896488 664.47494223 -119.28213501 665.03286743 C-133.4934084 667.28272142 -147.68337104 669.52511215 -162 671 C-160.78868028 667.22084722 -159.45257531 663.60825095 -157.78515625 660.0078125 C-157.13546875 658.59822266 -157.13546875 658.59822266 -156.47265625 657.16015625 C-155.77462891 655.65775391 -155.77462891 655.65775391 -155.0625 654.125 C-154.06371951 651.96097561 -153.06502394 649.79691202 -152.06640625 647.6328125 C-151.55609863 646.52969727 -151.04579102 645.42658203 -150.52001953 644.29003906 C-148.16788465 639.19890999 -145.8343845 634.09928555 -143.5 629 C-142.58862562 627.01168027 -141.67716691 625.02339919 -140.765625 623.03515625 C-138.87879319 618.9186153 -136.99358298 614.80133629 -135.109375 610.68359375 C-130.76427159 601.19021457 -126.41164299 591.70147325 -121.984375 582.24609375 C-119.26794104 576.44109175 -116.57316882 570.62600694 -113.875 564.8125 C-113.31006147 563.59537627 -112.74512004 562.37825388 -112.18017578 561.16113281 C-111.02728764 558.67727213 -109.87446734 556.19337998 -108.72167969 553.70947266 C-106.51906709 548.96362928 -104.31574417 544.21811576 -102.11230469 539.47265625 C-101.03203528 537.14592213 -99.95195905 534.81909832 -98.87207031 532.4921875 C-96.19219018 526.71816175 -93.50947787 520.94548897 -90.8203125 515.17578125 C-85.00371807 502.6870798 -79.24875491 490.17340951 -73.5625 477.625 C-68.72550379 466.95124575 -63.84033612 456.3021912 -58.875 445.6875 C-58.58716644 445.07202301 -58.29933289 444.45654602 -58.0027771 443.82241821 C-56.56778758 440.75459471 -55.13182546 437.6872276 -53.6953125 434.62011719 C-49.3130337 425.26233637 -44.94373115 415.89910151 -40.62304688 406.51269531 C-39.50580151 404.09468594 -38.3832789 401.6799332 -37.25195312 399.26855469 C-35.52357416 395.58364551 -33.82373088 391.8861712 -32.125 388.1875 C-31.32908447 386.50587769 -31.32908447 386.50587769 -30.51708984 384.7902832 C-26.90956013 377.13491445 -26.90956013 377.13491445 -28 369 C-29.31362717 366.52303235 -30.73349069 364.1568294 -32.23486328 361.78857422 C-34.11897262 358.8120463 -35.87563813 355.78242464 -37.62109375 352.72265625 C-38.24693359 351.63146484 -38.87277344 350.54027344 -39.51757812 349.41601562 C-40.79487766 347.18496446 -42.07092496 344.9531959 -43.34570312 342.72070312 C-46.90715149 336.51653562 -50.58415577 330.4208513 -54.45678711 324.40600586 C-56.39143975 321.38971069 -58.23265519 318.33105286 -60.0625 315.25 C-63.97704263 308.68136787 -67.95244571 302.15105454 -71.9375 295.625 C-76.55979919 288.04999464 -81.11969748 280.44391342 -85.59790039 272.78295898 C-88.59617558 267.66170454 -91.68819819 262.60408921 -94.8125 257.55859375 C-101.77516173 246.27371578 -108.5181158 234.8515782 -115.22363281 223.41259766 C-118.32441606 218.13000836 -121.46734804 212.87376356 -124.625 207.625 C-129.38799597 199.70736294 -134.10786962 191.76494529 -138.8125 183.8125 C-144.18461185 174.7357056 -149.57580685 165.67081964 -155 156.625 C-155.58628174 155.64635986 -156.17256348 154.66771973 -156.77661133 153.65942383 C-159.7989825 148.62556381 -162.85119601 143.61212686 -165.9375 138.6171875 C-170.73177474 130.84265671 -175.36355937 122.97474005 -180 115.10546875 C-183.97293908 108.37785511 -188.01747445 101.70122113 -192.12451172 95.0546875 C-194.8271892 90.65272178 -197.44870542 86.20511876 -200.0625 81.75 C-205.55991322 72.41078415 -211.11883123 63.10981065 -216.71118164 53.82714844 C-217.88538611 51.8756673 -219.05691848 49.92257551 -220.22558594 47.96777344 C-221.47774261 45.87349489 -222.73687661 43.7833804 -224.00097656 41.69628906 C-224.96342285 40.08705566 -224.96342285 40.08705566 -225.9453125 38.4453125 C-226.53070801 37.47352051 -227.11610352 36.50172852 -227.71923828 35.50048828 C-229 33 -229 33 -229 30 C-227.73715179 29.83206436 -227.73715179 29.83206436 -226.4487915 29.66073608 C-179.1847682 23.39261177 -179.1847682 23.39261177 -131.9375 17 C-131.14192688 16.89099365 -130.34635376 16.7819873 -129.52667236 16.66967773 C-128.71816833 16.55889893 -127.90966431 16.44812012 -127.07666016 16.33398438 C-109.58106004 13.93740224 -92.08130766 11.57169847 -74.58137894 9.20697021 C-72.17605447 8.88189982 -69.7707481 8.55669595 -67.365448 8.23144531 C-65.81256183 8.02147847 -64.25967488 7.81151748 -62.70678711 7.6015625 C-61.94503079 7.49856968 -61.18327448 7.39557686 -60.39843464 7.28946304 C-56.63142627 6.78031626 -52.86431784 6.27192878 -49.09700012 5.76507568 C-48.36578099 5.66669529 -47.63456186 5.5683149 -46.88118458 5.46695328 C-45.42071768 5.27046418 -43.96024751 5.07399942 -42.49977398 4.87755966 C-38.14253033 4.29078923 -33.78616222 3.69794437 -29.43039894 3.10028648 C-26.64921078 2.71919227 -23.86761156 2.34115854 -21.08593369 1.96365738 C-19.17524599 1.70322601 -17.26511809 1.43869785 -15.35501099 1.17404175 C-14.20773529 1.01880035 -13.06045959 0.86355896 -11.87841797 0.70361328 C-10.88292938 0.56706329 -9.8874408 0.43051331 -8.86178589 0.28982544 C-5.85109119 -0.01508064 -3.02151368 -0.21943768 0 0 Z M-102 69 C-100.92044741 70.73152958 -99.83617488 72.46011684 -98.75 74.1875 C-98.14671875 75.15042969 -97.5434375 76.11335938 -96.921875 77.10546875 C-95.04028105 80.04205091 -95.04028105 80.04205091 -92.765625 82.73828125 C-91 85 -91 85 -91 87 C-92.03898437 87.17015625 -93.07796875 87.3403125 -94.1484375 87.515625 C-106.85683996 89.68278382 -118.63487574 92.37344562 -127.4140625 102.65625 C-131.15148218 108.35648722 -131.6160562 114.57076406 -130.44140625 121.109375 C-125.04583129 141.15693352 -108.41064364 156.92982222 -90.93603516 167.06176758 C-73.96201593 176.44118317 -55.32077026 181.1852748 -36.546875 185.45703125 C-34.36442224 185.97067014 -32.18211966 186.48494779 -30 187 C-29.04665771 187.20488037 -28.09331543 187.40976074 -27.11108398 187.62084961 C-20.70923984 189.18996983 -17.97364988 191.36977703 -14.5625 196.9375 C-13.55997729 198.45838703 -12.55736631 199.97921588 -11.5546875 201.5 C-11.00393555 202.35722656 -10.45318359 203.21445312 -9.88574219 204.09765625 C-7.72081702 207.42969022 -5.49641441 210.7172113 -3.2578125 214 C-2.841259 214.61089981 -2.42470551 215.22179962 -1.99552917 215.85121155 C-1.14684032 217.09562309 -0.29805973 218.33997208 0.55081177 219.58425903 C2.18009612 221.97744654 3.8002228 224.37675641 5.42036438 226.77613831 C9.09599509 232.21825017 12.81202629 237.62906174 16.59643555 242.99633789 C17.75376223 244.64848263 18.88107369 246.32161054 20 248 C3.38726404 247.92013108 -13.85882675 238.71405288 -26 228 C-26.90105469 226.89785156 -26.90105469 226.89785156 -27.8203125 225.7734375 C-30.90824803 223.26103117 -33.70456434 223.5264205 -37.5 223.6875 C-38.59332642 223.71070313 -38.59332642 223.71070313 -39.70874023 223.734375 C-42.1408919 223.79583824 -44.56941619 223.89347298 -47 224 C-47.90766113 224.03818848 -48.81532227 224.07637695 -49.75048828 224.11572266 C-55.5031156 224.36609711 -61.25159124 224.66710353 -67 225 C-52.12860998 248.73240301 -20.90831086 261.34349485 5 268 C5.68674805 268.17998535 6.37349609 268.3599707 7.08105469 268.54541016 C12.5806186 269.95588997 17.96842951 270.97507042 23.63671875 271.30078125 C35.73130516 272.04614671 35.73130516 272.04614671 39.125 274.59765625 C40.70118022 276.99327107 41.84690821 279.3713713 43 282 C46.72207973 290.45866505 46.72207973 290.45866505 53 297 C59.81953582 298.82403002 67.08582762 297.93035027 74 297 C72.37314409 292.07130043 69.52967724 288.19350734 66.5625 284 C60.58144004 275.48032984 60.58144004 275.48032984 58 271 C59.19625 271.061875 60.3925 271.12375 61.625 271.1875 C73.613503 271.1124546 84.95639318 267.47025915 95 261 C95.33 260.01 95.66 259.02 96 258 C96.66 258 97.32 258 98 258 C102.77260889 249.5324681 103.91582213 243.66333221 101.5 234.125 C99.33862461 227.25728503 96.28091309 221.75592077 92 216 C91.31808594 215.07316406 90.63617187 214.14632812 89.93359375 213.19140625 C84.68199115 206.4178723 78.79444914 201.1825528 72 196 C71.36835937 195.46890625 70.73671875 194.9378125 70.0859375 194.390625 C52.51600496 179.9941164 24.38450971 171.57591632 2.4375 167.796875 C1.36113281 167.60681885 0.28476562 167.4167627 -0.82421875 167.22094727 C-2.88314438 166.87510221 -4.94869694 166.56592136 -7.01953125 166.30053711 C-11.13479673 165.61407311 -13.99429119 165.02336591 -16.97460938 161.99072266 C-18.80375532 159.39909118 -20.40492246 156.74130215 -22 154 C-23.22610858 152.17835765 -24.46592035 150.36586933 -25.71875 148.5625 C-27.61196223 145.77951722 -29.50324195 142.99522732 -31.39453125 140.2109375 C-35.06880445 134.80983196 -38.77762685 129.43594431 -42.53710938 124.09375 C-43.71302365 122.4107325 -44.86113116 120.70830326 -46 119 C-46.66 119 -47.32 119 -48 119 C-48.103125 118.443125 -48.20625 117.88625 -48.3125 117.3125 C-49.13079491 114.5600535 -50.49450585 112.43381494 -52 110 C-35.98761103 113.34804497 -22.52180225 119.23256584 -10 130 C-9.67 130.66 -9.34 131.32 -9 132 C3.38100347 132.11028714 15.65864238 132.07650471 28 131 C5.70499132 103.2818811 -27.86472803 91.28599063 -62.1875 87.48046875 C-64.47864152 87.2362173 -66.69684726 87 -69 87 C-69.28875 86.236875 -69.5775 85.47375 -69.875 84.6875 C-70.96269013 81.84970692 -70.96269013 81.84970692 -73 79 C-73.66 79 -74.32 79 -75 79 C-75.0825 78.46375 -75.165 77.9275 -75.25 77.375 C-76.32135898 73.98236324 -77.69987488 71.72383238 -80 69 C-83.33635192 67.9872962 -83.33635192 67.9872962 -87 68 C-88.134375 67.95875 -89.26875 67.9175 -90.4375 67.875 C-94.35696933 68.01252524 -98.11761699 68.45510414 -102 69 Z " fill="#1A1A1A" transform="translate(628,223)"/>
<path d="M0 0 C1.46484375 1.3984375 1.46484375 1.3984375 2.9375 3.375 C19.41590578 23.26880185 48.43766723 34.94208913 73.68359375 37.3515625 C75.69191941 37.48175408 77.70287765 37.58080017 79.71484375 37.62890625 C82.59665491 38.09689268 83.10580605 38.80165229 85 41 C86.27758917 42.93125172 87.50786565 44.8940989 88.70703125 46.875 C89.22968315 47.73557007 89.22968315 47.73557007 89.76289368 48.61352539 C93.455898 54.71167713 97.07230754 60.85552683 100.6875 67 C106.17688113 76.30839098 111.77051217 85.54366607 117.48925781 94.71337891 C121.12515962 100.55412596 124.64967397 106.44941723 128.11376953 112.39331055 C132.86588987 120.52597313 137.79264602 128.55220583 142.703125 136.58984375 C143.24646484 137.48558105 143.78980469 138.38131836 144.34960938 139.30419922 C145.47951341 141.14982057 146.62762416 142.98438435 147.79101562 144.80908203 C148.34982422 145.69837402 148.90863281 146.58766602 149.484375 147.50390625 C149.99194336 148.29740479 150.49951172 149.09090332 151.02246094 149.90844727 C152 152 152 152 151 155 C148.5234375 156.578125 148.5234375 156.578125 145.375 158.25 C134.27784638 164.59310675 128.51474749 172.95501143 124.3125 184.96484375 C123.83001273 188.10704212 123.86866022 191.19876934 123.875 194.375 C123.87242187 195.66148437 123.86984375 196.94796875 123.8671875 198.2734375 C123.91814768 201.96353479 123.91814768 201.96353479 124.5703125 205.4140625 C124.71210937 206.26742187 124.85390625 207.12078125 125 208 C123.46010018 209.53989982 121.82686709 209.41050741 119.68994141 209.70849609 C118.31051865 209.90407608 118.31051865 209.90407608 116.90322876 210.10360718 C115.89617889 210.24215118 114.88912903 210.38069519 113.8515625 210.5234375 C112.81043304 210.67027985 111.76930359 210.81712219 110.69662476 210.96841431 C107.33995732 211.44122622 103.98253723 211.90840815 100.625 212.375 C96.26270864 212.98476883 91.90082295 213.59738391 87.5390625 214.2109375 C86.47101379 214.36020691 85.40296509 214.50947632 84.30255127 214.66326904 C79.34040208 215.36213252 74.38578779 216.08570904 69.44042969 216.89550781 C68.5837973 217.03574371 67.72716492 217.17597961 66.84457397 217.32046509 C65.28026125 217.58016579 63.71685063 217.84539963 62.1546936 218.11776733 C57.36950957 218.91622877 52.85342511 219.34247565 48 219 C45.96094583 216.66734784 44.84361519 215.01018399 43.5 212.3125 C42.73937978 210.91997232 41.9776418 209.52805465 41.21484375 208.13671875 C40.84343262 207.43595215 40.47202148 206.73518555 40.08935547 206.01318359 C38.53453057 203.13978913 36.80339293 200.38871131 35.0625 197.625 C30.74521384 190.63065647 26.59239394 183.54403818 22.4375 176.45263672 C19.73426016 171.84041738 17.02531826 167.23159138 14.3125 162.625 C13.79018799 161.73433838 13.26787598 160.84367676 12.72973633 159.92602539 C10.10487262 155.47179869 7.42303311 151.07041825 4.625 146.72265625 C0.83766286 140.81209121 -2.6973541 134.76399199 -6.2199707 128.6940918 C-13.43872415 116.24368198 -13.43872415 116.24368198 -21 104 C-26.50530485 95.36422768 -31.6147767 86.490699 -36.76171875 77.63867188 C-40.75657441 70.77579077 -44.8375179 63.97892055 -49.01757812 57.22631836 C-52.39280152 51.73326698 -55.66152077 46.17760884 -58.9375 40.625 C-60.3313834 38.26654374 -61.72616919 35.90862183 -63.12109375 33.55078125 C-63.7847998 32.42881348 -64.44850586 31.3068457 -65.13232422 30.15087891 C-68.72814046 24.08452539 -72.35841477 18.03896218 -76 12 C-72.6773006 9.78486707 -70.67711224 9.45076375 -66.76171875 8.8515625 C-65.48031006 8.65272461 -64.19890137 8.45388672 -62.87866211 8.24902344 C-61.48166066 8.04066271 -60.08460527 7.83266342 -58.6875 7.625 C-57.25589163 7.40689773 -55.82433293 7.18846917 -54.39282227 6.96972656 C-40.90592245 4.9253775 -27.38791761 3.11845388 -13.85888672 1.37695312 C-11.53817849 1.07096051 -9.2244031 0.74110136 -6.91015625 0.390625 C-4 0 -4 0 0 0 Z " fill="#1A1A1A" transform="translate(770,270)"/>
<path d="M0 0 C2.00463867 1.87548828 2.00463867 1.87548828 3.23046875 4.4453125 C3.7001709 5.36344727 4.16987305 6.28158203 4.65380859 7.22753906 C5.09805176 8.14245117 5.54229492 9.05736328 6 10 C6.85435807 11.46561387 7.72478823 12.92201212 8.61328125 14.3671875 C9.04737305 15.09236572 9.48146484 15.81754395 9.92871094 16.56469727 C14.977338 24.9936242 20.06317497 33.39918935 25.17208862 41.79168701 C25.52779938 42.3760553 25.88351013 42.96042358 26.25 43.5625 C26.78417038 44.44001923 26.78417038 44.44001923 27.32913208 45.33526611 C33.54381424 55.55014107 39.66538681 65.81791114 45.73535156 76.11938477 C48.70622734 81.15663701 51.70879203 86.16218449 54.82861328 91.10839844 C56.99369473 94.60465753 59.0186871 98.18200044 61.0625 101.75 C66.3716624 110.96614289 71.82311869 120.09090376 77.31542969 129.19873047 C79.17819738 132.29632417 81.03110883 135.39968656 82.8828125 138.50390625 C83.54571289 139.61362793 84.20861328 140.72334961 84.89160156 141.86669922 C86.17906028 144.02228926 87.46496016 146.17881139 88.74902344 148.33642578 C91.95345769 153.69419133 95.2580665 158.94365815 98.75341797 164.1159668 C100.18777269 166.28379197 101.43531887 168.50192883 102.625 170.8125 C105.59694382 176.37799691 108.81238049 181.7816688 112.0625 187.1875 C112.5692627 188.03094971 113.07602539 188.87439941 113.59814453 189.7434082 C116.35717035 194.31947398 119.16205822 198.84797201 122.11499023 203.30200195 C123 205 123 205 123 208 C113.06427571 210.04949485 103.17640606 212.03778283 93.0625 212.9375 C82.91295907 213.84235587 72.91123552 215.59396801 62.87719727 217.32397461 C61.62737061 217.53932861 60.37754395 217.75468262 59.08984375 217.9765625 C57.40169556 218.27167725 57.40169556 218.27167725 55.67944336 218.57275391 C53 219 53 219 51 219 C51 218.34 51 217.68 51 217 C50.34 217 49.68 217 49 217 C47.64613064 215.34997172 46.31321858 213.6825613 45 212 C44.34 211.67 43.68 211.34 43 211 C43 210.34 43 209.68 43 209 C42.19175781 208.64421875 42.19175781 208.64421875 41.3671875 208.28125 C38.97497109 206.986453 36.93134342 205.44503627 34.7902832 203.77612305 C19.30194922 191.90725899 -1.14592505 183.04520627 -20.75 181.578125 C-21.51723389 181.51753906 -22.28446777 181.45695313 -23.07495117 181.39453125 C-24.51307073 181.30163798 -25.9546379 181.24879594 -27.39575195 181.24609375 C-30.35484659 181.08747247 -32.45831517 180.56793311 -34.52661133 178.39941406 C-36.1682698 176.00119401 -37.58629137 173.5396069 -39 171 C-40.28210563 168.83827682 -41.56469076 166.67683797 -42.84765625 164.515625 C-43.89307882 162.7222143 -44.93366289 160.92605856 -45.97369385 159.1295166 C-51.8944385 148.90902156 -57.92508935 138.77324356 -64.18359375 128.75512695 C-70.31874665 118.92190381 -76.25038978 108.96752083 -82.1953125 99.01855469 C-84.97864644 94.36309733 -87.77068076 89.71287192 -90.5625 85.0625 C-91.91674955 82.80557414 -93.27096986 80.54865554 -94.62158203 78.28955078 C-95.62923673 76.61583739 -96.64730873 74.94838333 -97.67138672 73.28466797 C-98.22197754 72.38506348 -98.77256836 71.48545898 -99.33984375 70.55859375 C-99.84765381 69.73544678 -100.35546387 68.9122998 -100.87866211 68.06420898 C-102 66 -102 66 -102 64 C-101.0821875 63.52691406 -100.164375 63.05382812 -99.21875 62.56640625 C-87.64111283 56.4091294 -80.01142795 49.45329092 -75 37 C-73.81103978 32.88705483 -73.85309024 28.87549292 -73.875 24.625 C-73.87113281 23.8825 -73.86726563 23.14 -73.86328125 22.375 C-73.86457031 21.64539063 -73.86585938 20.91578125 -73.8671875 20.1640625 C-73.86831543 19.50873535 -73.86944336 18.8534082 -73.87060547 18.17822266 C-74.03511246 15.40891825 -74.51032012 12.72849432 -75 10 C-73.83106201 9.82621826 -72.66212402 9.65243652 -71.45776367 9.47338867 C-62.06691915 8.0730703 -52.68128695 6.64379891 -43.30078125 5.17578125 C-40.31137243 4.71090512 -37.3218496 4.24677028 -34.33227539 3.78295898 C-32.29904627 3.46619671 -30.26617311 3.14714202 -28.23364258 2.82592773 C-25.23613985 2.35286383 -22.23739025 1.88853793 -19.23828125 1.42578125 C-18.34128006 1.28207596 -17.44427887 1.13837067 -16.52009583 0.99031067 C-4.66505531 -0.81709452 -4.66505531 -0.81709452 0 0 Z " fill="#1A1A1A" transform="translate(408,323)"/>
<path d="M0 0 C2.73769784 3.43424577 5.02980373 6.94188252 7.23828125 10.73046875 C7.64498047 11.40658203 8.05167969 12.08269531 8.47070312 12.77929688 C11.42578125 17.77064732 11.42578125 17.77064732 11.42578125 20.04296875 C12.08578125 20.37296875 12.74578125 20.70296875 13.42578125 21.04296875 C14.66846381 23.05152522 15.84418731 25.10166575 16.98828125 27.16796875 C17.71609054 28.46690732 18.44530138 29.7650614 19.17578125 31.0625 C19.73845703 32.06337646 19.73845703 32.06337646 20.3125 33.08447266 C23.11870024 38.02116965 26.09243768 42.86100896 29.02685547 47.72216797 C31.87623328 52.44925094 34.71196123 57.18454097 37.55078125 61.91796875 C38.85023773 64.08334695 40.14971723 66.24871133 41.44921875 68.4140625 C44.08143909 72.80088083 46.71149756 77.18898448 49.33984375 81.578125 C55.30255554 91.53183625 61.28432712 101.47129047 67.35766602 111.35791016 C71.54069355 118.18845298 75.60984297 125.08524608 79.66064453 131.99487305 C83.14758928 137.93003884 86.72317298 143.80523502 90.33959961 149.66235352 C107.72941596 177.84219986 107.72941596 177.84219986 114.98828125 190.66796875 C115.35171631 191.30581299 115.71515137 191.94365723 116.08959961 192.60083008 C118.42578125 196.79153689 118.42578125 196.79153689 118.42578125 199.04296875 C119.08578125 199.04296875 119.74578125 199.04296875 120.42578125 199.04296875 C120.95365234 200.04263672 120.95365234 200.04263672 121.4921875 201.0625 C124.6873338 207.02732926 128.10466955 212.75842475 131.78125 218.4375 C133.21465942 220.70848357 134.52931436 222.99167634 135.80078125 225.35546875 C137.81713181 229.06399775 140.04842542 232.57563334 142.36328125 236.10546875 C147.23116921 243.55053537 151.66274858 251.23784764 156.11962891 258.93359375 C159.75530029 265.20260143 163.44402029 271.43115905 167.23828125 277.60546875 C167.67672363 278.32057617 168.11516602 279.03568359 168.56689453 279.77246094 C170.29991739 282.5955376 172.03640952 285.41630831 173.78466797 288.22998047 C175.08854665 290.33017829 176.38280087 292.43604997 177.67578125 294.54296875 C178.07128174 295.17275635 178.46678223 295.80254395 178.87426758 296.45141602 C179.7867033 297.94584002 180.61555771 299.49075102 181.42578125 301.04296875 C181.09578125 301.70296875 180.76578125 302.36296875 180.42578125 303.04296875 C177.73193359 303.67797852 177.73193359 303.67797852 174.01171875 304.234375 C173.32046906 304.34002274 172.62921936 304.44567047 171.91702271 304.55451965 C169.54622181 304.91398305 167.17362351 305.25975394 164.80078125 305.60546875 C163.0786952 305.8629038 161.35669259 306.12089751 159.63476562 306.37939453 C138.66490074 309.50882769 117.66820153 312.46094388 96.6770649 315.44386673 C81.8127867 317.55622612 66.95180079 319.69048801 52.09423828 321.84967041 C49.82656165 322.17917378 47.55882374 322.50825583 45.29101562 322.83685303 C42.1209198 323.29629851 38.95102532 323.75709876 35.78125 324.21875 C34.77556976 324.36503845 33.76988953 324.5113269 32.73373413 324.66204834 C27.24804554 325.465347 21.7680485 326.29807078 16.29150391 327.16162109 C15.11090897 327.3470195 13.93031403 327.53241791 12.71394348 327.72343445 C10.44708001 328.08094681 8.18083235 328.44239372 5.91532898 328.8084259 C-4.2913798 330.41821439 -4.2913798 330.41821439 -8.57421875 330.04296875 C-10.2265625 328.49609375 -10.2265625 328.49609375 -11.51171875 326.29296875 C-11.99769531 325.48472656 -12.48367188 324.67648437 -12.984375 323.84375 C-13.50902344 322.91949219 -14.03367187 321.99523437 -14.57421875 321.04296875 C-15.21230469 319.96402344 -15.85039063 318.88507813 -16.5078125 317.7734375 C-18.21694958 314.87443838 -19.90351238 311.96423345 -21.57421875 309.04296875 C-18.48554055 306.98384995 -16.97643097 306.60886984 -13.38891602 306.0690918 C-12.32294693 305.90502838 -11.25697784 305.74096497 -10.15870667 305.57192993 C-8.99773972 305.40123993 -7.83677277 305.23054993 -6.640625 305.0546875 C-4.82648354 304.77931656 -4.82648354 304.77931656 -2.97569275 304.49838257 C0.2942933 304.00385276 3.56516116 303.51619144 6.8366394 303.03169632 C9.53267881 302.63097362 12.22775228 302.22396248 14.9228344 301.81685925 C27.35206113 299.94010475 39.78618579 298.1015747 52.2421875 296.41015625 C53.09525986 296.29406509 53.94833221 296.17797394 54.82725525 296.05836487 C58.66759762 295.53827624 62.50896469 295.02972013 66.35327148 294.53979492 C67.6795307 294.36511683 69.00578436 294.19039659 70.33203125 294.015625 C71.44900391 293.87390869 72.56597656 293.73219238 73.71679688 293.58618164 C76.6318308 293.1802527 76.6318308 293.1802527 79.42578125 291.04296875 C78.84485103 286.71384489 77.26080434 283.74703964 74.98828125 280.04296875 C70.14373828 272.11369591 68.46691231 266.37676898 69.42578125 257.04296875 C71.14830873 250.84393272 75.03161912 246.42694686 80.42578125 243.04296875 C88.86818455 238.87823802 98.22669534 237.56653129 107.42578125 236.04296875 C108.21934926 234.29625287 108.21934926 234.29625287 108.42578125 232.04296875 C107.20976037 229.57014544 107.20976037 229.57014544 105.42578125 227.04296875 C104.27649289 225.02409836 103.13104576 223.00303906 101.98828125 220.98046875 C95.16315807 208.98371487 88.0478981 197.14872352 80.67578125 185.48046875 C75.85601739 177.84991747 71.28842869 170.07370847 66.71032715 162.29675293 C61.13334863 152.83152953 55.37464021 143.49443712 49.515625 134.20043945 C45.65137457 128.05469181 41.98334594 121.85261709 38.44140625 115.515625 C35.94628477 111.13624771 33.20277825 106.9133526 30.48828125 102.66796875 C25.78080323 95.30441959 21.37824208 87.82538455 17.16796875 80.16796875 C15.46393679 77.01425471 15.46393679 77.01425471 13.42578125 74.04296875 C12.45705078 74.15125 12.45705078 74.15125 11.46875 74.26171875 C-12.69987878 76.64221297 -34.38353881 74.28043152 -54.19921875 58.98046875 C-59.18554797 54.67560453 -63.21656372 50.5198897 -66.3984375 44.71484375 C-66.72763184 44.1221167 -67.05682617 43.52938965 -67.39599609 42.91870117 C-68.34796837 41.17639016 -69.2532247 39.40880037 -70.15625 37.640625 C-72.41928275 34.61798865 -72.41928275 34.61798865 -76.39526367 34.76855469 C-82.60743857 34.95526587 -88.717588 35.91400648 -94.85546875 36.8359375 C-96.13146942 37.02243866 -97.40747009 37.20893982 -98.72213745 37.40109253 C-102.13853451 37.90064759 -105.55371083 38.40811293 -108.96868134 38.91731644 C-112.48447628 39.44021349 -116.0013401 39.95582351 -119.51806641 40.47241211 C-127.53833218 41.65226635 -135.55660873 42.84520204 -143.57421875 44.04296875 C-144.63217651 44.20099976 -145.69013428 44.35903076 -146.78015137 44.52185059 C-156.71481081 46.00743422 -166.64698074 47.50850071 -176.57421875 49.04296875 C-184.04746401 38.56981771 -184.04746401 38.56981771 -187.01171875 33.04296875 C-187.50542969 32.13546875 -187.99914062 31.22796875 -188.5078125 30.29296875 C-189.57421875 28.04296875 -189.57421875 28.04296875 -189.57421875 26.04296875 C-176.22309005 23.00862132 -162.67651689 21.28420637 -149.12258911 19.42791748 C-141.95501623 18.44604735 -134.78996454 17.44601058 -127.625 16.4453125 C-126.90110266 16.34431496 -126.17720531 16.24331741 -125.43137169 16.13925934 C-111.31739988 14.16820399 -97.22408333 12.07106115 -83.13671875 9.91796875 C-63.38175876 6.90058167 -43.61168299 4.01050866 -23.82446289 1.21240234 C-22.84106934 1.07320877 -21.85767578 0.9340152 -20.84448242 0.79060364 C-19.02045975 0.53270089 -17.19633003 0.27555352 -15.37207031 0.01933289 C-14.56036377 -0.09524765 -13.74865723 -0.20982819 -12.91235352 -0.32788086 C-12.16203354 -0.43193741 -11.41171356 -0.53599396 -10.63865662 -0.64320374 C-8.79727989 -0.9231224 -6.96923304 -1.28771818 -5.14501953 -1.66357422 C-2.57421875 -1.95703125 -2.57421875 -1.95703125 0 0 Z " fill="#1A1A1A" transform="translate(855.57421875,206.95703125)"/>
<path d="M0 0 C1.5546875 1.51171875 1.5546875 1.51171875 2.875 3.6875 C3.37 4.49445313 3.865 5.30140625 4.375 6.1328125 C7.34568479 11.37435729 10.19969321 16.66594679 13 22 C-2.01928565 24.68875872 -17.04403987 27.22801225 -32.1484375 29.38671875 C-32.81521767 29.48213078 -33.48199783 29.5775428 -34.16898346 29.6758461 C-39.60127803 30.45169362 -45.034959 31.2176394 -50.46887207 31.98205566 C-53.92690696 32.46873315 -57.38465353 32.95726523 -60.84170532 33.45088196 C-63.39314191 33.81482829 -65.94517801 34.1746053 -68.49789429 34.52946472 C-74.15290644 35.33741225 -79.56629412 36.22002712 -85 38 C-84.51020271 43.36736202 -83.18757575 47.03380838 -80.5 51.6875 C-76.49527786 58.67114455 -75.15127457 63.94889631 -76 72 C-77.65417802 77.78063296 -79.89217929 81.63959164 -85 85 C-85.66 85.66 -86.32 86.32 -87 87 C-92.76267714 89.48336363 -98.24847573 90.73288839 -104.4375 91.625 C-109.63530373 91.95917671 -109.63530373 91.95917671 -114 94 C-113.82334539 100.70404239 -110.85077004 105.05960201 -107.25 110.5625 C-106.05001851 112.44660317 -104.85216264 114.33206155 -103.65625 116.21875 C-102.73779297 117.66121094 -102.73779297 117.66121094 -101.80078125 119.1328125 C-99.023458 123.55484127 -96.38511252 128.05476501 -93.75 132.5625 C-88.660401 141.23523953 -83.47726082 149.84736378 -78.25 158.4375 C-77.69712814 159.34618332 -77.69712814 159.34618332 -77.13308716 160.27322388 C-75.36633561 163.17684165 -73.59942411 166.08036207 -71.83251953 168.98388672 C-68.57587215 174.34394823 -65.35164053 179.72302556 -62.13378906 185.10644531 C-60.80830611 187.32015026 -59.47851016 189.53123723 -58.1484375 191.7421875 C-53.37408731 199.68164204 -48.61711931 207.62928463 -43.9375 215.625 C-39.58803499 223.05048922 -35.12977853 230.40548147 -30.61328125 237.73046875 C-28.93000323 240.4640235 -27.28166436 243.21311382 -25.66796875 245.98828125 C-25.30977051 246.59575195 -24.95157227 247.20322266 -24.58251953 247.82910156 C-23.6315616 249.44513825 -22.69226671 251.06802238 -21.75390625 252.69140625 C-20.23061077 255.04545885 -20.23061077 255.04545885 -18.2265625 255.8984375 C-15.00281446 256.04548566 -11.99894031 255.55946775 -8.8125 255.0625 C11.65967064 252.13580495 29.98400664 257.75991115 46.66796875 269.94921875 C54.6631837 276.14934851 59.58001633 282.70989842 64.546875 291.48828125 C65.77605527 293.86204156 65.77605527 293.86204156 67 295 C76.67311341 294.90646549 86.29859148 293.12530342 95.82232666 291.58850098 C110.66910094 289.19767505 125.52591249 287.07120212 140.45825195 285.29370117 C147.39298134 284.46699853 154.28388883 283.5244 161.17333984 282.37597656 C166.44099214 281.67532148 166.44099214 281.67532148 169 282 C170.56152344 283.58886719 170.56152344 283.58886719 171.859375 285.796875 C172.33503906 286.5909375 172.81070312 287.385 173.30078125 288.203125 C173.77902344 289.04359375 174.25726562 289.8840625 174.75 290.75 C175.24371094 291.575 175.73742187 292.4 176.24609375 293.25 C178.34146479 296.80926039 180.16432532 299.9229205 181 304 C171.09483139 305.93727033 161.18758637 307.63813137 151.18768311 309.01895142 C147.36753648 309.54662295 143.54916705 310.08696542 139.73046875 310.625 C138.53040192 310.79356255 138.53040192 310.79356255 137.30609131 310.9655304 C131.7388747 311.74910202 126.17515546 312.55440565 120.61328125 313.375 C119.82400238 313.49144363 119.03472351 313.60788727 118.2215271 313.7278595 C116.59819708 313.96749217 114.97487565 314.20718299 113.3515625 314.44692993 C100.45302186 316.35090788 87.54924788 318.21263968 74.63671875 320.01953125 C73.39166565 320.19376114 72.14661255 320.36799103 70.86383057 320.54750061 C64.73307923 321.40451046 58.60191097 322.25841983 52.47021484 323.10864258 C50.16889211 323.42881702 47.86762192 323.74936941 45.56640625 324.0703125 C43.88342438 324.30493446 43.88342438 324.30493446 42.16644287 324.54429626 C33.06069185 325.82543135 23.97342939 327.21615914 14.89637756 328.68704224 C7.94586414 329.78888707 1.01966157 330.50670098 -6 331 C-6.42708252 330.27635254 -6.85416504 329.55270508 -7.29418945 328.80712891 C-15.41388076 315.05672427 -23.57220698 301.33745119 -31.93798828 287.73486328 C-33.33113777 285.45906551 -34.69855328 283.16839518 -36.0625 280.875 C-38.07848277 277.49408839 -40.15889018 274.15897602 -42.26342773 270.83251953 C-47.65900432 262.29120995 -52.75960153 253.59622288 -57.82177734 244.85375977 C-61.15863417 239.10705162 -64.55822413 233.41920347 -68.125 227.8125 C-72.54725484 220.85789742 -76.62364944 213.725935 -80.68676758 206.55688477 C-83.91213886 200.875321 -87.23494028 195.27671391 -90.6953125 189.734375 C-93.92843852 184.53157497 -97.04508994 179.25784237 -100.1875 174 C-104.872995 166.16689075 -109.60652741 158.36919773 -114.4375 150.625 C-119.80858601 142.00841379 -125.00602048 133.29375158 -130.16525269 124.54937744 C-134.22585026 117.66723218 -138.30905437 110.80359727 -142.5 104 C-147.83330831 95.34092789 -153.00566458 86.58783408 -158.16796875 77.82617188 C-162.09927196 71.16435666 -166.10601848 64.55569839 -170.17211914 57.9753418 C-172.54209169 54.11760766 -174.84452502 50.223586 -177.125 46.3125 C-177.96841264 44.87219823 -178.81216163 43.43209336 -179.65625 41.9921875 C-180.25373047 40.9727002 -180.25373047 40.9727002 -180.86328125 39.93261719 C-183.21303369 35.9376343 -185.60255922 31.96649754 -188 28 C-184.49038188 25.93356388 -181.17047677 25.40645526 -177.1640625 24.81640625 C-176.15211319 24.66485329 -176.15211319 24.66485329 -175.11972046 24.51023865 C-172.95570503 24.1879256 -170.79042262 23.87520253 -168.625 23.5625 C-167.23949444 23.3567174 -165.85407686 23.15034158 -164.46875 22.94335938 C-156.5653633 21.77049206 -148.65226385 20.67550114 -140.734375 19.60546875 C-127.01734646 17.74998542 -113.32210769 15.74633231 -99.625 13.75 C-96.898465 13.3532451 -94.17188713 12.95678516 -91.4453125 12.56030273 C-83.29664643 11.3751027 -75.14828296 10.18783079 -67 9 C-65.76987183 8.82067932 -64.53974365 8.64135864 -63.27233887 8.456604 C-52.63779964 6.90622235 -42.00331699 5.35545779 -31.36929321 3.80154419 C-28.79192094 3.42539572 -26.21434013 3.05070657 -23.63671875 2.67626953 C-20.67993896 2.2465068 -17.72429924 1.81007192 -14.76953125 1.36669922 C-13.52558594 1.18252441 -12.28164063 0.99834961 -11 0.80859375 C-9.948125 0.65060303 -8.89625 0.4926123 -7.8125 0.32983398 C-5.156452 0.0183478 -2.6691125 -0.1741873 0 0 Z " fill="#1A1A1A" transform="translate(379,275)"/>
<path d="M0 0 C6.0186053 2.95789538 8.67217346 7.56129 12 13.125 C12.495 13.929375 12.99 14.73375 13.5 15.5625 C15.0152933 18.03274377 16.51001256 20.51442233 18 23 C18.49137451 23.8154126 18.98274902 24.6308252 19.48901367 25.47094727 C23.13118316 31.52294636 26.7254329 37.60273131 30.3125 43.6875 C37.43176321 55.74678419 44.6031759 67.76637213 51.96484375 79.6796875 C54.57677851 83.94100141 57.13707154 88.23228359 59.69506836 92.52612305 C62.61103545 97.40178312 65.65819075 102.18215331 68.78515625 106.92578125 C70 109 70 109 70 111 C70.66 111.33 71.32 111.66 72 112 C72.94554794 113.56237815 73.82374249 115.1657834 74.66796875 116.78515625 C78.0384596 123.11336239 81.64608568 129.2770288 85.3125 135.4375 C85.65293335 136.01082062 85.9933667 136.58414124 86.34411621 137.17483521 C92.81468593 148.0717423 99.38319573 158.90836257 105.97380066 169.73295593 C109.79883042 176.01573788 113.59866741 182.31284514 117.375 188.625 C121.13869336 194.91312184 124.92751492 201.18492635 128.75 207.4375 C129.20012451 208.17436035 129.65024902 208.9112207 130.11401367 209.67041016 C132.21503866 213.10423544 134.32717021 216.53026173 136.46484375 219.94140625 C137.03090332 220.84838257 137.03090332 220.84838257 137.60839844 221.77368164 C138.61416169 223.3826753 139.62523382 224.98834707 140.63671875 226.59375 C142 229 142 229 142 231 C142.66 231.33 143.32 231.66 144 232 C145.13832699 233.84213131 146.20798769 235.7267254 147.25 237.625 C152.71506827 247.43460571 158.63443303 256.97070284 164.5012207 266.54321289 C167.29591029 271.12424584 170.02534472 275.74053816 172.73046875 280.375 C173.45891127 281.62113649 174.18742947 282.86722874 174.91601562 284.11328125 C176.04409554 286.04303863 177.17176629 287.97302892 178.2980957 289.90380859 C182.92182848 297.82815947 187.61886821 305.69588592 192.4621582 313.48828125 C194 316 194 316 195 318 C205.62395181 316.83239578 216.16986293 315.41423922 226.71658325 313.68582153 C242.47084336 311.11011802 258.25545918 308.78858748 274.0625 306.5625 C291.1271056 304.15740903 308.16349376 301.61388873 325.18673706 298.93203735 C339.25867745 296.716286 353.34243934 294.62130943 367.44970703 292.64331055 C375.78924514 291.47232665 384.11678394 290.25282289 392.41455078 288.81152344 C403.29637815 286.98847452 403.29637815 286.98847452 407 289.1875 C408.44092796 291.79918193 407.76008311 293.14063974 407 296 C406.11358501 298.10557652 405.17115593 300.18805795 404.1875 302.25 C401.98993676 306.6614897 401.98993676 306.6614897 400.45800781 311.31567383 C399.663873 314.12391453 398.94083663 315.80131287 397 318 C391.94596143 319.98102929 386.72480222 320.53017142 381.375 321.1875 C379.77135307 321.41543442 378.16824767 321.64720762 376.56567383 321.88256836 C373.15380909 322.37626108 369.73980936 322.84495333 366.32177734 323.29394531 C360.99590976 323.99443064 355.67937385 324.75265932 350.36328125 325.5234375 C345.01202155 326.29731207 339.66053721 327.06858562 334.3059082 327.81884766 C323.86958112 329.28213729 313.46047573 330.8469454 303.0625 332.5625 C292.12162048 334.36488492 281.165853 336.00594587 270.18447876 337.53820801 C259.4113506 339.04406713 248.65654005 340.65531338 237.90625 342.31640625 C236.5672049 342.5229117 235.22815459 342.72938337 233.88909912 342.93582153 C228.50666914 343.76614598 223.12426071 344.59648733 217.74377441 345.43933105 C213.94965089 346.03301437 210.1546036 346.62046046 206.359375 347.20703125 C205.21601685 347.38802872 204.07265869 347.56902618 202.89465332 347.75550842 C188.50843533 349.96566076 188.50843533 349.96566076 182.875 347.75 C182.25367188 347.51796875 181.63234375 347.2859375 180.9921875 347.046875 C175.10326738 343.95230521 172.38235701 339.81616084 169.25 334.1875 C168.36912931 332.64807127 167.48760679 331.10901535 166.60546875 329.5703125 C166.1676709 328.79977539 165.72987305 328.02923828 165.27880859 327.23535156 C163.41853887 323.98360862 161.49625363 320.77092138 159.5625 317.5625 C159.19987061 316.95865479 158.83724121 316.35480957 158.46362305 315.73266602 C155.52421101 310.84646223 152.54364975 305.98580756 149.5625 301.125 C145.98083715 295.28450758 142.45795148 289.41455504 139 283.5 C132.60251536 272.56351788 126.06167637 261.70687443 119.1875 251.0625 C117.04232016 247.72387987 115.06964994 244.34918148 113.203125 240.84765625 C110.16639174 235.24163191 106.90591353 229.80220648 103.5625 224.375 C102.3273954 222.35851962 101.09304732 220.34157571 99.859375 218.32421875 C98.90901367 216.77033447 98.90901367 216.77033447 97.93945312 215.18505859 C94.70255288 209.86927301 91.50814621 204.52815222 88.3125 199.1875 C84.01008418 192.0015853 79.6908304 184.82743595 75.3125 177.6875 C69.97736868 168.98690485 64.72640796 160.23699823 59.48535156 151.47949219 C58.07355256 149.12278103 56.65860123 146.7680024 55.2421875 144.4140625 C50.59417923 136.68616683 45.96451987 128.94796892 41.37109375 121.1875 C31.0006653 103.60629233 31.0006653 103.60629233 20.28149414 86.23706055 C17.10848102 81.21583834 14.09344102 76.11063529 11.09716797 70.98242188 C7.29596954 64.48279671 3.43626951 58.01910643 -0.4375 51.5625 C-1.07534424 50.49894287 -1.71318848 49.43538574 -2.37036133 48.33959961 C-5.34927628 43.38107166 -8.34077738 38.43121329 -11.37109375 33.50390625 C-11.88164307 32.67366943 -12.39219238 31.84343262 -12.91821289 30.98803711 C-13.86364534 29.45446233 -14.81188766 27.92261493 -15.76342773 26.39282227 C-19.15096418 20.90489508 -20.89024548 16.51610232 -20 10 C-15.47449574 1.28421402 -9.66433623 -1.82295385 0 0 Z " fill="#1A1A1A" transform="translate(93,468)"/>
<path d="M0 0 C4.50183512 3.36380776 7.22694513 6.44016624 10.1015625 11.34765625 C10.46010818 11.95232224 10.81865387 12.55698822 11.18806458 13.17997742 C12.34416654 15.1348714 13.48450909 17.09846553 14.625 19.0625 C15.42732965 20.424824 16.23080637 21.78647306 17.03540039 23.14746094 C18.63221114 25.85128024 20.22361856 28.55814964 21.81005859 31.26806641 C24.65076438 36.11648907 27.54016991 40.9352546 30.4375 45.75 C31.14507446 46.92997559 31.14507446 46.92997559 31.86694336 48.13378906 C35.56697949 54.30030066 39.31378499 60.43761141 43.0703125 66.56982422 C47.42689402 73.68546911 51.71793612 80.83935236 56 88 C61.71029027 97.54546928 67.42608579 107.08581982 73.25 116.5625 C76.5468352 121.92827374 79.79429119 127.32147537 83 132.7421875 C83.35012146 133.33420456 83.70024292 133.92622162 84.06097412 134.53617859 C85.79567868 137.47143743 87.52696779 140.4086353 89.25488281 143.34790039 C92.88997136 149.51342966 96.62359041 155.5936231 100.49023438 161.61645508 C102.3052852 164.4819695 103.98182778 167.40794495 105.625 170.375 C108.92537258 176.24718792 112.43240165 181.97438315 116 187.6875 C121.1190595 195.8897493 126.09260383 204.16958245 131 212.5 C135.84592246 220.72574352 140.75468611 228.9026345 145.8125 237 C150.30552922 244.19321954 154.62079023 251.46481682 158.83056641 258.8269043 C162.84948315 265.82098644 167.0966264 272.66296287 171.3684082 279.50463867 C175.06837616 285.44684368 178.58225046 291.45604954 182.01171875 297.55859375 C185.82138283 304.15253099 189.92392396 310.56848658 194 317 C205.58763845 316.38414023 216.97231678 314.65124948 228.4375 312.9375 C230.56252618 312.62308044 232.687609 312.30904353 234.81274414 311.99536133 C239.28437704 311.3345973 243.75560429 310.67117278 248.2265625 310.00585938 C254.77483856 309.03211186 261.32476967 308.06987293 267.875 307.109375 C287.2917468 304.25756063 306.70174542 301.36532899 326.09765625 298.375 C327.18438787 298.20749961 327.18438787 298.20749961 328.29307365 298.03661537 C335.42468561 296.93708716 342.55586625 295.83484129 349.68601131 294.72583866 C361.91680071 292.82406592 374.14883845 290.93045994 386.40625 289.20703125 C387.27157349 289.08188644 388.13689697 288.95674164 389.02844238 288.82780457 C402.07383075 287.03691537 402.07383075 287.03691537 406 289 C407.00758755 291.43299611 407.09820396 292.67355474 406.33496094 295.21069336 C405.97176758 295.99581299 405.60857422 296.78093262 405.234375 297.58984375 C404.83863281 298.45673828 404.44289063 299.32363281 404.03515625 300.21679688 C403.61105469 301.11462891 403.18695313 302.01246094 402.75 302.9375 C402.34136719 303.83146484 401.93273437 304.72542969 401.51171875 305.64648438 C400.37129277 308.11618502 399.22700027 310.57208968 398 313 C397.68442139 313.88163818 397.36884277 314.76327637 397.04370117 315.67163086 C393.60485076 319.58948014 388.99696025 319.3838487 384.00390625 319.9765625 C381.62501013 320.29998608 379.24627459 320.62459237 376.86767578 320.95019531 C374.95405243 321.20162292 374.95405243 321.20162292 373.00177002 321.45812988 C366.76716978 322.28870824 360.5562654 323.27690821 354.34194946 324.24560738 C350.62853267 324.82278325 346.91357759 325.38987985 343.19873047 325.95776367 C341.67055076 326.19166906 340.14237288 326.42558639 338.61419678 326.65951538 C315.23831023 330.2361288 291.86201231 333.80184549 268.45779419 337.18914795 C267.68668304 337.30075256 266.9155719 337.41235718 266.12109375 337.52734375 C264.96213089 337.69499237 264.96213089 337.69499237 263.77975464 337.86602783 C256.5496725 338.91461369 249.32358706 339.98963147 242.09765625 341.06640625 C240.27947388 341.33707161 240.27947388 341.33707161 238.42456055 341.61320496 C231.17755411 342.69215568 231.17755411 342.69215568 223.93109131 343.77474976 C217.54582877 344.73019459 211.15942866 345.67652565 204.76940918 346.59967041 C202.99293179 346.85646759 201.21677599 347.11550527 199.44104004 347.37738037 C197.21599451 347.70290368 194.98952872 348.01437291 192.76171875 348.3203125 C191.57151123 348.48805176 190.38130371 348.65579102 189.1550293 348.82861328 C184.17365096 349.09921048 179.94366505 348.07968189 176 345 C171.44530465 339.76422137 168.01230591 333.83868907 164.625 327.8125 C163.66675293 326.13202007 162.70711099 324.45233478 161.74609375 322.7734375 C161.04782471 321.55285645 161.04782471 321.55285645 160.33544922 320.30761719 C157.95946286 316.20198226 155.46071944 312.17638867 152.94921875 308.15234375 C146.84442443 298.27945996 140.9967074 288.24851475 135.09765625 278.25195312 C131.07867421 271.45685343 126.99382996 264.71023796 122.84423828 257.99438477 C120.31806617 253.89278284 117.84348593 249.76147713 115.375 245.625 C110.95016386 238.22936537 106.48719063 230.85795456 102 223.5 C99.66557819 219.66732853 97.33250317 215.83383938 95 212 C94.42056641 211.04834961 93.84113281 210.09669922 93.24414062 209.11621094 C91.57531606 206.37160738 89.91188279 203.62381102 88.25 200.875 C87.74855469 200.05193359 87.24710937 199.22886719 86.73046875 198.38085938 C84.47664507 194.64227441 82.61276944 191.06354654 81 187 C80.34 186.67 79.68 186.34 79 186 C77.79958157 184.05345683 76.66610996 182.06551767 75.5625 180.0625 C72.27194248 174.16972773 68.84236972 168.37757988 65.3125 162.625 C64.86140869 161.88902588 64.41031738 161.15305176 63.94555664 160.39477539 C61.41362146 156.27097256 61.41362146 156.27097256 58.83740234 152.17480469 C56.17668602 147.99098102 53.68125233 143.72578234 51.234375 139.4140625 C47.02383357 131.99576538 42.65327174 124.68007949 38.25 117.375 C37.45769967 116.05811155 36.66554668 114.74113444 35.87353516 113.42407227 C34.30660965 110.81863664 32.73898947 108.213621 31.17089844 105.60888672 C28.72992295 101.55285485 26.29819607 97.49130886 23.86694336 93.42944336 C20.33906548 87.5369463 16.8011752 81.6529388 13.1875 75.8125 C8.72430358 68.59208099 4.35780856 61.3136483 0.01416016 54.02075195 C-3.0196355 48.9325482 -6.06996892 43.85981561 -9.22920227 38.84857178 C-10.29303898 37.15912367 -11.34762597 35.46386256 -12.40209961 33.76855469 C-13.72801064 31.63933591 -15.06928452 29.51958326 -16.42797852 27.41113281 C-20.03780869 21.56909263 -22.352235 16.94322349 -21 10 C-19.45730124 5.55177943 -17.40710811 2.89465105 -13.3125 0.5 C-8.85726378 -1.41649826 -4.57208692 -1.70471282 0 0 Z " fill="#1A1A1A" transform="translate(58,546)"/>
<path d="M0 0 C5.9783815 3.1336344 8.66557302 8.92934812 11.9296875 14.59765625 C12.62614249 15.77218749 13.32449501 16.94559545 14.0246582 18.11791992 C15.44256622 20.50029142 16.8481866 22.8892059 18.2421875 25.28564453 C20.05222108 28.39619784 21.87717636 31.49714579 23.7109375 34.59375 C25.31950746 37.31113768 26.92631518 40.02941133 28.52490234 42.75268555 C32.11434861 48.86138108 35.80354283 54.89961052 39.5546875 60.91015625 C45.17795307 69.92578736 50.60841061 79.04705515 56.00561523 88.19946289 C60.97732624 96.62256772 66.02784345 104.99516534 71.1171875 113.34765625 C76.13982752 121.59102435 81.12266093 129.85352896 85.98974609 138.18994141 C88.97710544 143.29952495 92.07296738 148.33643943 95.19140625 153.3671875 C97.5265934 157.18799847 99.79435458 161.04478039 102.0546875 164.91015625 C105.84667629 171.38768541 109.71468714 177.81308139 113.6394043 184.2109375 C137.15032611 222.53768498 137.15032611 222.53768498 146.578125 238.7265625 C150.89422783 246.13100027 155.30499843 253.44380215 159.9296875 260.66015625 C165.50253545 269.36938081 170.66069446 278.29410318 175.78662109 287.27197266 C179.78776087 294.26176551 183.89391366 301.15728601 188.27392578 307.91674805 C190.32286358 311.10523331 191.88896223 314.18991985 193.2421875 317.72265625 C227.17570353 312.84094805 227.17570353 312.84094805 261.0546875 307.59765625 C273.02322193 305.68116375 284.99825677 303.87071432 297.00268555 302.19140625 C308.12624243 300.63186909 319.23490103 298.97927104 330.33984375 297.29296875 C331.06009357 297.18362 331.7803434 297.07427124 332.52241898 296.96160889 C339.14077517 295.95640358 345.75881147 294.94911009 352.37609863 293.93688965 C353.79011895 293.72061197 355.20414075 293.50434398 356.61816406 293.28808594 C357.30986757 293.18228966 358.00157108 293.07649338 358.71423531 292.96749115 C364.67547855 292.05696494 370.63930313 291.16427516 376.60357666 290.27380371 C380.0737762 289.74816584 383.53955382 289.19919051 387.00537109 288.64550781 C389.00477627 288.33979716 391.00428091 288.034736 393.00390625 287.73046875 C393.89616409 287.58092743 394.78842194 287.43138611 395.7077179 287.27731323 C401.66361686 286.40007722 401.66361686 286.40007722 404.81958008 288.15966797 C405.28904053 288.6754541 405.75850098 289.19124023 406.2421875 289.72265625 C405.75581965 296.02837271 403.57459814 300.89563553 400.8046875 306.53515625 C400.39669922 307.39302734 399.98871094 308.25089844 399.56835938 309.13476562 C396.5297065 315.43513725 396.5297065 315.43513725 394.2421875 317.72265625 C391.73182318 318.26189736 389.2828918 318.69045923 386.74609375 319.0546875 C385.97933823 319.17131744 385.2125827 319.28794739 384.42259216 319.40811157 C381.88443668 319.79191635 379.34466779 320.16363542 376.8046875 320.53515625 C375.02009286 320.8022188 373.23558861 321.06988607 371.45117188 321.33813477 C358.97855941 323.20501433 346.49436715 324.99352831 334.00708008 326.75927734 C321.66089961 328.50682333 309.32527626 330.32260479 296.9921875 332.16015625 C295.99137146 332.30926453 294.99055542 332.4583728 293.95941162 332.61199951 C281.21527764 334.51282559 268.47665393 336.4468883 255.74316406 338.41769409 C249.4197348 339.39565869 243.09526183 340.36682913 236.77038574 341.33538818 C235.02757786 341.60235057 233.28482387 341.86966496 231.54211426 342.13726807 C225.93205194 342.99807713 220.32068679 343.84949873 214.7074585 344.68942261 C212.92435352 344.95750761 211.14166131 345.22835552 209.35943604 345.50222778 C182.94565778 349.55539064 182.94565778 349.55539064 176.2421875 344.72265625 C171.68140051 340.62931834 168.84621637 335.48639322 165.90673828 330.17456055 C162.22548112 323.56368555 158.22872233 317.15234246 154.2421875 310.72265625 C149.51338817 303.08659333 144.88060251 295.43411163 140.4921875 287.59765625 C136.88797402 281.29028267 132.98642148 275.15563766 129.16317749 268.97964478 C124.73366498 261.82068491 120.42554476 254.63324574 116.3046875 247.29296875 C113.50716586 242.38569791 110.52249791 237.59055624 107.5546875 232.78515625 C107.00723877 231.89594482 106.45979004 231.0067334 105.89575195 230.09057617 C103.51409209 226.25271179 101.10847896 222.47043534 98.45703125 218.8125 C96.45664976 216.02184435 94.99107063 213.26001642 93.5078125 210.17578125 C90.81127136 204.94915212 87.6413437 199.97244215 84.58984375 194.94726562 C82.12646651 190.88090812 79.68620605 186.80066693 77.2421875 182.72265625 C76.21103263 181.00384917 75.17978386 179.28509843 74.1484375 177.56640625 C68.8984375 168.81640625 68.8984375 168.81640625 67.80786133 166.99853516 C67.09965265 165.81834961 66.39115834 164.63833543 65.68237305 163.45849609 C63.52471911 159.8658056 61.37504221 156.268485 59.23046875 152.66796875 C58.4415625 151.34635742 58.4415625 151.34635742 57.63671875 149.99804688 C56.61533405 148.28691226 55.59567655 146.57474495 54.578125 144.86132812 C52.23265461 140.93632008 49.83308262 137.08467571 47.25390625 133.30859375 C44.52913893 129.26772564 42.21521947 125.08399948 39.91699219 120.78955078 C36.56544442 114.65221215 32.94530548 108.66723858 29.3671875 102.66015625 C28.74907196 101.62026047 28.74907196 101.62026047 28.11846924 100.55935669 C21.09672046 88.74916111 13.93890229 77.02871352 6.7109375 65.34375 C2.48564775 58.51080713 -1.64812568 51.62550685 -5.7578125 44.72265625 C-6.75707396 43.05554668 -7.75701707 41.3888454 -8.7578125 39.72265625 C-9.21542969 38.95824219 -9.67304688 38.19382812 -10.14453125 37.40625 C-11.4539141 35.22817248 -12.77023953 33.05469411 -14.08984375 30.8828125 C-14.91666667 29.51692708 -15.74348958 28.15104167 -16.5703125 26.78515625 C-16.96798828 26.13353516 -17.36566406 25.48191406 -17.77539062 24.81054688 C-20.96729733 19.5275817 -22.27616376 15.9428714 -21.7578125 9.72265625 C-20.07662033 5.4717662 -17.76291024 2.04819687 -13.7578125 -0.27734375 C-8.74514688 -1.94823229 -5.00160433 -1.70012954 0 0 Z " fill="#1A1A1A" transform="translate(160.7578125,325.27734375)"/>
<path d="M0 0 C0.75023438 -0.02578125 1.50046875 -0.0515625 2.2734375 -0.078125 C6.42955792 0.50179878 8.8996139 2.30840811 11.43359375 5.59765625 C11.97113281 6.49355469 12.50867188 7.38945312 13.0625 8.3125 C13.65804687 9.2921875 14.25359375 10.271875 14.8671875 11.28125 C15.44726562 12.2609375 16.02734375 13.240625 16.625 14.25 C17.14320313 15.1059375 17.66140625 15.961875 18.1953125 16.84375 C19.18224436 18.47657967 20.16283247 20.11326225 21.13671875 21.75390625 C22.18929425 23.51924941 23.25580389 25.27631938 24.33203125 27.02734375 C25.15767578 28.37505859 25.15767578 28.37505859 26 29.75 C26.50273437 30.5646875 27.00546875 31.379375 27.5234375 32.21875 C28.625 34.25 28.625 34.25 28.625 36.25 C29.285 36.25 29.945 36.25 30.625 36.25 C31.0060791 36.91717041 31.3871582 37.58434082 31.77978516 38.27172852 C39.05179552 50.98525365 46.39588592 63.63652119 54.05981445 76.11914062 C57.5552758 81.82274976 61.00381714 87.55147133 64.41015625 93.30859375 C64.82560699 94.01052856 65.24105774 94.71246338 65.6690979 95.43566895 C67.71340855 98.89178489 69.75389463 102.35010256 71.79003906 105.81103516 C75.87858179 112.74234195 80.07569939 119.57767422 84.4571991 126.32781982 C87.69639902 131.32719534 90.75183909 136.41612874 93.75 141.5625 C94.8651243 143.46268645 95.98104214 145.36240738 97.09765625 147.26171875 C97.6714502 148.23802246 98.24524414 149.21432617 98.83642578 150.22021484 C101.9264708 155.45464819 105.0567046 160.66487031 108.1875 165.875 C108.81906006 166.92623047 109.45062012 167.97746094 110.10131836 169.06054688 C111.34955449 171.13766336 112.59800393 173.21465168 113.84667969 175.29150391 C116.50470541 179.71351869 119.1585948 184.13801151 121.8125 188.5625 C122.79294494 190.19662887 123.77341344 191.8307436 124.75390625 193.46484375 C130.40234375 202.87890625 130.40234375 202.87890625 131.8125 205.22924805 C132.7798524 206.84144729 133.74730209 208.45358816 134.71484375 210.06567383 C137.37677809 214.50124076 140.03724977 218.93767625 142.69523621 223.37561035 C152.21921645 239.27659997 161.78904682 255.14854101 171.42245483 270.98347473 C174.01394444 275.24359075 176.60152659 279.50606485 179.1875 283.76953125 C179.94848193 285.02392845 180.70946822 286.27832301 181.47045898 287.53271484 C182.89475436 289.88051233 184.31869749 292.22852217 185.74243164 294.57666016 C186.72264282 296.19193604 186.72264282 296.19193604 187.72265625 297.83984375 C188.35703613 298.88640137 188.99141602 299.93295898 189.64501953 301.01123047 C191.0506319 303.31047261 192.46640426 305.60037009 193.89794922 307.88330078 C194.26971786 308.47873184 194.64148651 309.0741629 195.02452087 309.68763733 C196.06431564 311.35059999 197.10904358 313.01047513 198.15405273 314.67016602 C199.625 317.25 199.625 317.25 199.625 319.25 C200.27082031 319.14042969 200.91664063 319.03085937 201.58203125 318.91796875 C220.55465482 315.72558476 239.57535863 312.94116254 258.625 310.25 C274.77276684 307.96861177 290.90023206 305.64514847 306.98828125 302.97265625 C317.08792084 301.30441221 327.21224316 299.85750151 337.34921265 298.43869019 C347.8407688 296.9682657 358.29815852 295.35423938 368.75 293.625 C378.42147136 292.04578221 388.09646632 290.53040754 397.8125 289.25 C398.85229004 289.10095215 399.89208008 288.9519043 400.96337891 288.79833984 C401.91776855 288.6792627 402.8721582 288.56018555 403.85546875 288.4375 C404.68457764 288.32792969 405.51368652 288.21835937 406.36791992 288.10546875 C409.25164421 288.29012692 410.49997301 289.36244196 412.625 291.25 C412.05475806 297.18838158 409.69161628 302.13771614 407.25 307.5 C406.85039063 308.41007812 406.45078125 309.32015625 406.0390625 310.2578125 C405.6471875 311.12664062 405.2553125 311.99546875 404.8515625 312.890625 C404.49658691 313.67985352 404.14161133 314.46908203 403.77587891 315.28222656 C402.625 317.25 402.625 317.25 399.625 319.25 C397.22906998 319.73267477 394.89052783 320.11822313 392.47265625 320.44140625 C391.73078064 320.54714462 390.98890503 320.652883 390.22454834 320.76182556 C388.58633017 320.99457096 386.94761775 321.22385626 385.3085022 321.45019531 C381.68107883 321.95161896 378.05625835 322.47079265 374.43119812 322.98898315 C372.43205405 323.27470974 370.43279249 323.55961522 368.4334259 323.84378052 C355.09124524 325.74358997 341.76477965 327.74881011 328.4375 329.75 C326.49777313 330.04071884 326.49777313 330.04071884 324.51885986 330.33731079 C308.26818806 332.77378186 292.02803997 335.26477444 275.80227661 337.86175537 C263.22524989 339.87263371 250.62937729 341.71918563 238.01586914 343.48608398 C231.3274876 344.42463398 224.64708301 345.38898632 217.9765625 346.44921875 C216.20007324 346.73128174 216.20007324 346.73128174 214.38769531 347.01904297 C212.2167649 347.36730552 210.0467381 347.72127759 207.87792969 348.08251953 C199.2232066 349.47185322 191.5609322 350.67580834 183.625 346.25 C178.90233085 342.13543373 175.94744026 337.30546306 172.75 332 C172.19046631 331.08395996 171.63093262 330.16791992 171.05444336 329.22412109 C169.23521095 326.23834074 167.42827954 323.24543973 165.625 320.25 C165.01769043 319.24163086 164.41038086 318.23326172 163.78466797 317.19433594 C160.65032725 311.98393888 157.5247494 306.76833718 154.40234375 301.55078125 C142.35004672 281.37382766 142.35004672 281.37382766 129.6875 261.578125 C127.98007253 258.82295795 126.42359069 256.06358218 124.890625 253.2109375 C121.6219473 247.15752686 118.07288105 241.28803041 114.47827148 235.42489624 C112.58906222 232.34280747 110.70864508 229.25536436 108.828125 226.16796875 C108.46017822 225.56416885 108.09223145 224.96036896 107.71313477 224.33827209 C104.00993218 218.25379037 100.39940727 212.11761276 96.8046875 205.96875 C93.54006718 200.38552377 90.19832239 194.84865181 86.86279297 189.30761719 C85.01588035 186.23744371 83.17301088 183.16484881 81.33007812 180.09228516 C80.31744038 178.40422977 79.3044188 176.71640458 78.29101562 175.02880859 C75.65459634 170.63784725 73.02374138 166.24369807 70.40234375 161.84375 C69.87423096 160.95905029 69.34611816 160.07435059 68.80200195 159.1628418 C67.80257982 157.48833415 66.80488361 155.81279456 65.80932617 154.13598633 C63.44995327 150.18718461 61.02338743 146.3115863 58.453125 142.49609375 C56.37120296 139.40549898 54.46941206 136.31066919 52.75 133 C50.00638254 127.87339521 47.01485901 122.94476373 43.9453125 118.0078125 C41.20888403 113.59553108 38.54258436 109.14162775 35.875 104.6875 C35.36646484 103.83905518 34.85792969 102.99061035 34.33398438 102.11645508 C31.7321772 97.77373281 29.13433604 93.42866071 26.5390625 89.08203125 C25.52636577 87.38782706 24.51334751 85.69381502 23.5 84 C23.00234131 83.16815186 22.50468262 82.33630371 21.99194336 81.47924805 C18.87027682 76.27817771 15.67935408 71.12681494 12.4375 66 C8.72322956 60.12128268 5.25929623 54.13607206 1.88696289 48.05566406 C-2.10728489 40.875433 -6.25902833 33.73452498 -10.94921875 26.984375 C-14.19907986 22.25391814 -15.74266777 18.0678018 -15.375 12.25 C-13.73756116 7.51962113 -11.12186806 4.52850955 -7.375 1.25 C-4.64682878 0.34060959 -2.82790223 0.05790926 0 0 Z " fill="#1A1A1A" transform="translate(121.375,395.75)"/>
<path d="M0 0 C4.50665686 4.05599118 6.13159351 6.79241331 6.6328125 12.8671875 C6.41038165 16.85785866 4.88856838 20.07958791 2.5 23.25 C-0.40394024 25.77296729 -2.57267078 26.70938874 -6.36181641 27.26855469 C-7.81411148 27.49179413 -7.81411148 27.49179413 -9.29574585 27.71954346 C-10.34541534 27.86881287 -11.39508484 28.01808228 -12.4765625 28.171875 C-13.58254791 28.33870789 -14.68853333 28.50554077 -15.82803345 28.6774292 C-18.18655604 29.03183433 -20.54587223 29.38099134 -22.90588379 29.7253418 C-26.38916937 30.23382128 -29.87009166 30.7559877 -33.35058594 31.28320312 C-39.27049705 32.17822662 -45.19211818 33.06130746 -51.11431885 33.94104004 C-71.96512899 37.04015096 -92.80343332 40.20925282 -113.625 43.5 C-131.53523408 46.32919109 -149.45507545 49.05792648 -167.40087891 51.65136719 C-171.90894992 52.30653267 -176.41336634 52.98553217 -180.91796875 53.6640625 C-183.26882157 54.01640733 -185.61973445 54.36834835 -187.97067261 54.72012329 C-189.47002209 54.94533988 -190.96915491 55.17200437 -192.4680481 55.40023804 C-194.53541496 55.71481501 -196.60352771 56.02397647 -198.671875 56.33203125 C-200.4367627 56.59850464 -200.4367627 56.59850464 -202.23730469 56.87036133 C-205.36028145 57.23374272 -208.35952507 57.32002008 -211.5 57.25 C-209.962002 52.2237591 -207.8877444 47.60236933 -205.625 42.875 C-205.11646484 41.79992187 -205.11646484 41.79992187 -204.59765625 40.703125 C-203.9140359 39.26310344 -203.219047 37.82842287 -202.51269531 36.39941406 C-201.46694182 34.25951633 -201.46694182 34.25951633 -200.66699219 31.99902344 C-199.79348252 29.80782989 -198.93385605 28.12283657 -197.5 26.25 C-188.91369516 23.68375342 -179.74040634 22.8825117 -170.87890625 21.60546875 C-169.13471678 21.35156284 -167.39057196 21.09735003 -165.64646912 20.84284973 C-161.04865333 20.17273613 -156.45027025 19.50659903 -151.85174561 18.84136963 C-147.29992728 18.18228777 -142.74860762 17.51978372 -138.19726562 16.85742188 C-131.92482517 15.94492204 -125.65231923 15.03287532 -119.37969685 14.12162685 C-115.91197428 13.61783954 -112.44428174 13.11384578 -108.9765892 12.60985184 C-106.58807057 12.26279678 -104.19950851 11.9160418 -101.8109436 11.56930542 C-86.82017653 9.39187662 -71.8393288 7.17132349 -56.87890625 4.79296875 C-55.64284134 4.59694565 -54.40677643 4.40092255 -53.133255 4.19895935 C-48.16887677 3.41086438 -43.20468095 2.62196292 -38.24243164 1.82055664 C-34.51827462 1.22030091 -30.79254736 0.63076464 -27.06640625 0.04296875 C-25.96116104 -0.13820999 -24.85591583 -0.31938873 -23.71717834 -0.50605774 C-6.41525158 -3.20762579 -6.41525158 -3.20762579 0 0 Z " fill="#1A1A1A" transform="translate(972.5,690.75)"/>
<path d="M0 0 C3.41949885 2.83329904 6.86769081 6.19111319 7.42578125 10.765625 C7.60499877 16.31193552 7.06656291 19.53558449 3.1875 23.8125 C-3.27476778 28.52895003 -10.29519779 29.16922366 -18.0625 30.25 C-19.50180863 30.46133589 -20.94093285 30.67393097 -22.37988281 30.88769531 C-26.1308953 31.44100914 -29.88418139 31.97665086 -33.63867188 32.50579834 C-36.95775288 32.97408175 -40.27566493 33.45049942 -43.59375 33.92578125 C-47.67060146 34.5081886 -51.74765534 35.08895823 -55.82543945 35.66479492 C-70.31253797 37.71537752 -84.78122914 39.88686289 -99.25 42.0625 C-100.51165985 42.2521936 -101.7733197 42.44188721 -103.07321167 42.6373291 C-108.94018497 43.51969552 -114.80706149 44.40270285 -120.67385578 45.2862587 C-133.15178144 47.16540241 -145.63065724 49.0382082 -158.10967731 50.91006851 C-162.70981914 51.60010444 -167.30987894 52.2906853 -171.90991211 52.98144531 C-174.31103333 53.34180902 -176.71215629 53.70216121 -179.11328125 54.0625 C-180.19906464 54.22562683 -181.28484802 54.38875366 -182.40353394 54.55682373 C-199.56043462 57.13040163 -199.56043462 57.13040163 -205.8125 56.8125 C-206.4725 56.1525 -207.1325 55.4925 -207.8125 54.8125 C-207.57177459 48.88463674 -205.43230141 44.31126296 -202.8125 39.0625 C-202.08202526 37.56834713 -201.3528057 36.07357978 -200.625 34.578125 C-200.30144531 33.92618164 -199.97789062 33.27423828 -199.64453125 32.60253906 C-198.69438483 30.64667077 -198.69438483 30.64667077 -197.8125 27.8125 C-193.24057877 25.2293009 -187.8178153 24.94781684 -182.6953125 24.26171875 C-181.69890747 24.12275681 -180.70250244 23.98379486 -179.67590332 23.84062195 C-177.5400972 23.5431258 -175.40391273 23.24833564 -173.26739502 22.95599365 C-167.66590753 22.18892961 -162.06734193 21.40115995 -156.46875 20.61328125 C-155.36342926 20.45807007 -154.25810852 20.30285889 -153.11929321 20.14294434 C-144.53931667 18.93154782 -135.98548308 17.6067986 -127.4375 16.1875 C-116.0051921 14.29340348 -104.55504464 12.60860421 -93.08013916 10.99945068 C-82.80243674 9.55570439 -72.55393927 7.99742449 -62.3125 6.3125 C-51.64236624 4.5647218 -40.96409001 2.89579381 -30.2644043 1.33935547 C-28.73396755 1.11615674 -27.20384451 0.89079446 -25.67407227 0.66308594 C-5.51763901 -2.3296698 -5.51763901 -2.3296698 0 0 Z " fill="#1A1A1A" transform="translate(1004.8125,618.1875)"/>
<path d="M0 0 C3.44959928 3.75397569 5.27033072 7.20927662 5.5625 12.3125 C5.36638342 16.59437872 3.99538216 19.07412013 1.125 22.3125 C-4.25150039 25.93048395 -8.84583105 27.16659866 -15.21484375 28.0234375 C-16.56698471 28.22333031 -16.56698471 28.22333031 -17.94644165 28.42726135 C-20.90001484 28.86079532 -23.85605298 29.2740617 -26.8125 29.6875 C-28.89791557 29.99017104 -30.9831186 30.29430986 -33.06811523 30.59985352 C-37.31495261 31.22046171 -41.56273659 31.83380244 -45.81152344 32.44091797 C-53.56911928 33.55173883 -61.31771334 34.72028632 -69.06628418 35.89208984 C-73.13475043 36.50618215 -77.20416899 37.11390737 -81.2734375 37.72265625 C-92.25205964 39.36675886 -103.22878918 41.023359 -114.2053833 42.68093872 C-117.55135001 43.18581756 -120.89748132 43.6895925 -124.24365234 44.19311523 C-134.82320766 45.78632357 -145.40097843 47.38951371 -155.97380066 49.02688599 C-160.83332562 49.77887332 -165.69367929 50.52542247 -170.55410767 51.27154541 C-172.87010118 51.62864553 -175.18568501 51.98841418 -177.50082397 52.35101318 C-180.72220057 52.85536671 -183.94487944 53.35047792 -187.16796875 53.84375 C-188.57701477 54.06812241 -188.57701477 54.06812241 -190.01452637 54.29702759 C-196.01152426 55.20300059 -201.8127667 55.48534038 -207.875 55.3125 C-209.16796875 53.015625 -209.16796875 53.015625 -209.875 49.3125 C-208.74191991 45.36085454 -206.97812831 41.75431891 -205.1875 38.0625 C-204.49624023 36.55429687 -204.49624023 36.55429687 -203.79101562 35.015625 C-200.30802043 27.60118028 -200.30802043 27.60118028 -196.875 25.3125 C-194.8515625 24.80192566 -194.8515625 24.80192566 -192.5 24.43041992 C-191.61069794 24.28633698 -190.72139587 24.14225403 -189.80514526 23.99380493 C-188.83819733 23.84502899 -187.87124939 23.69625305 -186.875 23.54296875 C-185.36089035 23.3014357 -185.36089035 23.3014357 -183.81619263 23.05502319 C-180.50362236 22.52900818 -177.18942621 22.01418082 -173.875 21.5 C-171.56358744 21.13631592 -169.2522271 20.77229979 -166.94091797 20.40795898 C-153.30646406 18.26807779 -139.66143397 16.22437848 -125.99291992 14.31494141 C-112.69642804 12.45407837 -99.41969127 10.46562271 -86.14291382 8.46939087 C-82.21307663 7.87884347 -78.28295834 7.29019798 -74.3527832 6.7019043 C-63.6861487 5.10321148 -53.02029746 3.50234753 -42.36579895 1.8243866 C-38.65515957 1.24008981 -34.943384 0.66320654 -31.23153687 0.0866394 C-28.76595162 -0.30019156 -26.30261397 -0.69952377 -23.83911133 -1.09936523 C-6.52951153 -3.83253938 -6.52951153 -3.83253938 0 0 Z " fill="#1A1A1A" transform="translate(1039.875,547.6875)"/>
<path d="M0 0 C3.27163192 3.03794392 3.7238459 6.39788141 4.0625 10.6875 C3.93006037 15.58776614 2.08942866 18.91057134 -1.3125 22.3125 C-6.23672966 25.40445816 -11.34550816 26.33105855 -17.046875 27.11328125 C-17.72332565 27.20789642 -18.39977631 27.3025116 -19.09672546 27.3999939 C-20.55420236 27.60323197 -22.01203683 27.80391925 -23.47018433 28.00228882 C-26.57923122 28.42533228 -29.68648733 28.86090297 -32.79393005 29.29554749 C-34.41229775 29.52173726 -36.03075816 29.74726462 -37.64930725 29.97215271 C-45.52286166 31.06696494 -53.38925442 32.20860877 -61.25378418 33.36630249 C-63.37895678 33.67888902 -65.50440241 33.98956321 -67.62988281 34.30004883 C-73.45804874 35.15497747 -79.27896149 36.03343191 -85.0859375 37.0234375 C-91.76534233 38.15454102 -98.47323849 39.04128664 -105.1875 39.9375 C-113.82619698 41.10764088 -122.42613779 42.34636762 -130.99804688 43.93212891 C-136.88473206 45.0109694 -142.79402203 45.84438898 -148.72192383 46.66210938 C-154.87823205 47.5244631 -161.0184665 48.46905303 -167.15625 49.453125 C-167.97555496 49.58418137 -168.79485992 49.71523773 -169.63899231 49.8502655 C-173.75075787 50.50880421 -177.86161307 51.17246342 -181.97143555 51.84301758 C-192.61932193 53.56279208 -203.27006962 54.9053376 -214 56 C-212.2105724 50.45322568 -209.96368776 45.24028459 -207.5625 39.9375 C-207.16740234 39.05255859 -206.77230469 38.16761719 -206.36523438 37.25585938 C-205.60000498 35.5586035 -204.82145774 33.86727048 -204.02783203 32.18310547 C-203.22244807 30.4724776 -202.46018883 28.74153445 -201.71484375 27.00390625 C-197.44479202 22.01407359 -186.6275673 22.06712284 -180.40625 21.125 C-179.30132202 20.95500488 -178.19639404 20.78500977 -177.0579834 20.60986328 C-174.72512851 20.25178456 -172.39199183 19.89553743 -170.05859375 19.54101562 C-166.53835239 19.00583074 -163.01912583 18.46434115 -159.5 17.921875 C-157.21880786 17.57253863 -154.93755953 17.22356896 -152.65625 16.875 C-151.62649048 16.71660645 -150.59673096 16.55821289 -149.5357666 16.39501953 C-143.76737347 15.5214997 -137.99383195 14.73994814 -132.20263672 14.03442383 C-124.14249114 13.04856217 -116.12246159 11.83638036 -108.1015625 10.57421875 C-106.61408349 10.34218056 -105.12656408 10.11040129 -103.63900757 9.87886047 C-99.7491143 9.27289416 -95.85963017 8.66434677 -91.97027588 8.05493164 C-81.27216867 6.37887164 -70.57319622 4.7086078 -59.87070084 3.06077385 C-56.01464375 2.46685005 -52.15926226 1.86905807 -48.30505371 1.26324463 C-44.46317134 0.65966775 -40.61977606 0.06673267 -36.77515793 -0.5191555 C-35.34622357 -0.7386718 -33.9178259 -0.96171902 -32.49007034 -1.18877602 C-7.26644354 -5.19225631 -7.26644354 -5.19225631 0 0 Z " fill="#1A1A1A" transform="translate(939,770)"/>
<path d="M0 0 C12.07597069 0.43912621 23.67182484 5.50902414 34.25 11.0625 C34.85730957 11.37840088 35.46461914 11.69430176 36.09033203 12.01977539 C40.04256292 14.18689497 42.95628927 16.69670859 46 20 C47.05574219 21.12921875 47.05574219 21.12921875 48.1328125 22.28125 C48.79023437 23.0134375 49.44765625 23.745625 50.125 24.5 C50.78757812 25.2321875 51.45015625 25.964375 52.1328125 26.71875 C56.64631045 32.23314917 58.18750876 36.89810571 58 44 C56.35800054 48.19622084 53.73540771 50.53802674 50 53 C45.57241962 54.61002923 41.69972968 55.50114153 37 55 C35.0859375 53.2265625 35.0859375 53.2265625 33.375 50.625 C32.69824219 49.62082031 32.02148438 48.61664063 31.32421875 47.58203125 C30.95603027 47.01436035 30.5878418 46.44668945 30.20849609 45.86181641 C28.89365367 43.83616219 27.5526086 41.82958072 26.20703125 39.82421875 C24.16067921 36.77077204 22.12595991 33.70999207 20.09765625 30.64453125 C17.16284495 26.22341275 14.15169062 21.8584971 11.125 17.5 C7.17490742 11.80170091 3.43444868 6.02839937 0 0 Z " fill="#1B1B1B" transform="translate(633,417)"/>
<path d="M0 0 C1.47705078 1.82910156 1.47705078 1.82910156 3.1953125 4.390625 C3.82477783 5.32189209 4.45424316 6.25315918 5.1027832 7.21264648 C6.10378052 8.71613647 6.10378052 8.71613647 7.125 10.25 C7.80715576 11.26328369 8.48931152 12.27656738 9.19213867 13.32055664 C11.1347446 16.20931666 13.06862005 19.10372707 15 22 C15.80562942 23.20206438 16.61154171 24.40393932 17.41796875 25.60546875 C19.28644347 28.39854952 21.14382857 31.1987311 23 34 C24.83189838 36.75095717 26.66599909 39.50044425 28.5 42.25 C29.36461934 43.54685099 30.22920592 44.84372383 31.09375 46.140625 C31.7228125 47.08421875 32.351875 48.0278125 33 49 C25.97120114 51.62710056 16.30800905 47.09341138 9.73828125 44.1953125 C-2.2908223 38.56553003 -12.72960677 31.387901 -17.984375 18.60546875 C-19.08043019 14.68239317 -19.04672884 12.2192661 -18.1875 8.1875 C-14.68454833 3.08319899 -9.89350267 1.73876664 -4.0625 0.25 C-2 0 -2 0 0 0 Z " fill="#1B1B1B" transform="translate(554,332)"/>
<path d="" fill="#555554" transform="translate(0,0)"/>
<path d="" fill="#6C6C6C" transform="translate(0,0)"/>
<path d="" fill="#616161" transform="translate(0,0)"/>
<path d="" fill="#4A4A4A" transform="translate(0,0)"/>
<path d="M0 0 C2 1 2 1 2 1 Z " fill="#696969" transform="translate(54,543)"/>
<path d="" fill="#6A6A6A" transform="translate(0,0)"/>
<path d="" fill="#6A6A6A" transform="translate(0,0)"/>
<path d="" fill="#606060" transform="translate(0,0)"/>
<path d="" fill="#686868" transform="translate(0,0)"/>
<path d="" fill="#585858" transform="translate(0,0)"/>
<path d="M0 0 C2 1 2 1 2 1 Z " fill="#5E5E5E" transform="translate(737,250)"/>
<path d="" fill="#656565" transform="translate(0,0)"/>
<path d="" fill="#656565" transform="translate(0,0)"/>
<path d="" fill="#5C5C5C" transform="translate(0,0)"/>
<path d="" fill="#5E5E5E" transform="translate(0,0)"/>
<path d="" fill="#424242" transform="translate(0,0)"/>
<path d="" fill="#6F6F6F" transform="translate(0,0)"/>
<path d="" fill="#424242" transform="translate(0,0)"/>
<path d="" fill="#5E5E5E" transform="translate(0,0)"/>
<path d="" fill="#535352" transform="translate(0,0)"/>
<path d="" fill="#424242" transform="translate(0,0)"/>
<path d="" fill="#6F6F6E" transform="translate(0,0)"/>
<path d="" fill="#424242" transform="translate(0,0)"/>
<path d="" fill="#696969" transform="translate(0,0)"/>
<path d="" fill="#6F6F6F" transform="translate(0,0)"/>
<path d="" fill="#5E5E5E" transform="translate(0,0)"/>
<path d="" fill="#535352" transform="translate(0,0)"/>
<path d="" fill="#5E5E5D" transform="translate(0,0)"/>
<path d="" fill="#6B6B6B" transform="translate(0,0)"/>
<path d="" fill="#424242" transform="translate(0,0)"/>
<path d="" fill="#424242" transform="translate(0,0)"/>
<path d="" fill="#535353" transform="translate(0,0)"/>
<path d="" fill="#696968" transform="translate(0,0)"/>
<path d="" fill="#424241" transform="translate(0,0)"/>
<path d="" fill="#424242" transform="translate(0,0)"/>
<path d="" fill="#424241" transform="translate(0,0)"/>
<path d="" fill="#424242" transform="translate(0,0)"/>
<path d="" fill="#5E5E5E" transform="translate(0,0)"/>
<path d="" fill="#535352" transform="translate(0,0)"/>
<path d="" fill="#424242" transform="translate(0,0)"/>
<path d="" fill="#424242" transform="translate(0,0)"/>
<path d="" fill="#6F6F6F" transform="translate(0,0)"/>
<path d="" fill="#424242" transform="translate(0,0)"/>
<path d="" fill="#696969" transform="translate(0,0)"/>
<path d="" fill="#696969" transform="translate(0,0)"/>
<path d="" fill="#565656" transform="translate(0,0)"/>
<path d="" fill="#6B6B6B" transform="translate(0,0)"/>
<path d="" fill="#5E5E5E" transform="translate(0,0)"/>
<path d="" fill="#424242" transform="translate(0,0)"/>
<path d="" fill="#656563" transform="translate(0,0)"/>
<path d="" fill="#6F6F6F" transform="translate(0,0)"/>
<path d="" fill="#424242" transform="translate(0,0)"/>
<path d="" fill="#696969" transform="translate(0,0)"/>
<path d="" fill="#5F5F5F" transform="translate(0,0)"/>
<path d="" fill="#666666" transform="translate(0,0)"/>
<path d="" fill="#424242" transform="translate(0,0)"/>
<path d="" fill="#6C6C6C" transform="translate(0,0)"/>
<path d="" fill="#424241" transform="translate(0,0)"/>
<path d="" fill="#535353" transform="translate(0,0)"/>
<path d="" fill="#5E5E5E" transform="translate(0,0)"/>
<path d="" fill="#696969" transform="translate(0,0)"/>
<path d="" fill="#6F6F6F" transform="translate(0,0)"/>
<path d="" fill="#424242" transform="translate(0,0)"/>
<path d="" fill="#696969" transform="translate(0,0)"/>
<path d="" fill="#424241" transform="translate(0,0)"/>
<path d="" fill="#5E5E5D" transform="translate(0,0)"/>
<path d="" fill="#5E5E5D" transform="translate(0,0)"/>
<path d="" fill="#535353" transform="translate(0,0)"/>
<path d="" fill="#6B6B6B" transform="translate(0,0)"/>
<path d="" fill="#656565" transform="translate(0,0)"/>
<path d="" fill="#6B6B6B" transform="translate(0,0)"/>
<path d="" fill="#5E5E5E" transform="translate(0,0)"/>
<path d="" fill="#535352" transform="translate(0,0)"/>
<path d="" fill="#424242" transform="translate(0,0)"/>
<path d="" fill="#424242" transform="translate(0,0)"/>
<path d="" fill="#424242" transform="translate(0,0)"/>
<path d="" fill="#535353" transform="translate(0,0)"/>
<path d="" fill="#535353" transform="translate(0,0)"/>
<path d="" fill="#696968" transform="translate(0,0)"/>
<path d="" fill="#5E5E5D" transform="translate(0,0)"/>
<path d="" fill="#5E5E5E" transform="translate(0,0)"/>
<path d="" fill="#5E5E5E" transform="translate(0,0)"/>
<path d="" fill="#696969" transform="translate(0,0)"/>
<path d="" fill="#535353" transform="translate(0,0)"/>
<path d="" fill="#696969" transform="translate(0,0)"/>
<path d="" fill="#636363" transform="translate(0,0)"/>
<path d="" fill="#535353" transform="translate(0,0)"/>
<path d="" fill="#424242" transform="translate(0,0)"/>
<path d="" fill="#535353" transform="translate(0,0)"/>
<path d="" fill="#424242" transform="translate(0,0)"/>
<path d="" fill="#696969" transform="translate(0,0)"/>
<path d="" fill="#424242" transform="translate(0,0)"/>
<path d="" fill="#6F6F6F" transform="translate(0,0)"/>
<path d="" fill="#535353" transform="translate(0,0)"/>
<path d="" fill="#666666" transform="translate(0,0)"/>
<path d="" fill="#424242" transform="translate(0,0)"/>
<path d="" fill="#656565" transform="translate(0,0)"/>
<path d="" fill="#5E5E5E" transform="translate(0,0)"/>
<path d="" fill="#535353" transform="translate(0,0)"/>
<path d="" fill="#6F6F6F" transform="translate(0,0)"/>
<path d="" fill="#6B6B6A" transform="translate(0,0)"/>
<path d="" fill="#6C6C6C" transform="translate(0,0)"/>
<path d="" fill="#424242" transform="translate(0,0)"/>
<path d="" fill="#535353" transform="translate(0,0)"/>
<path d="" fill="#6C6C6C" transform="translate(0,0)"/>
<path d="" fill="#424242" transform="translate(0,0)"/>
<path d="" fill="#424242" transform="translate(0,0)"/>
<path d="" fill="#424242" transform="translate(0,0)"/>
<path d="" fill="#5E5E5D" transform="translate(0,0)"/>
<path d="" fill="#6F6F6E" transform="translate(0,0)"/>
<path d="" fill="#535353" transform="translate(0,0)"/>
<path d="" fill="#656565" transform="translate(0,0)"/>
<path d="" fill="#424242" transform="translate(0,0)"/>
<path d="" fill="#424242" transform="translate(0,0)"/>
<path d="" fill="#6F6F6F" transform="translate(0,0)"/>
<path d="" fill="#696969" transform="translate(0,0)"/>
<path d="" fill="#424241" transform="translate(0,0)"/>
<path d="" fill="#424241" transform="translate(0,0)"/>
<path d="" fill="#6F6F6F" transform="translate(0,0)"/>
<path d="" fill="#656563" transform="translate(0,0)"/>
<path d="" fill="#5E5E5E" transform="translate(0,0)"/>
<path d="" fill="#5E5E5E" transform="translate(0,0)"/>
<path d="" fill="#656565" transform="translate(0,0)"/>
<path d="" fill="#656565" transform="translate(0,0)"/>
<path d="" fill="#666666" transform="translate(0,0)"/>
<path d="" fill="#535353" transform="translate(0,0)"/>
<path d="" fill="#5E5E5E" transform="translate(0,0)"/>
<path d="" fill="#6F6F6F" transform="translate(0,0)"/>
<path d="" fill="#5E5E5E" transform="translate(0,0)"/>
<path d="" fill="#5E5E5E" transform="translate(0,0)"/>
<path d="" fill="#696969" transform="translate(0,0)"/>
<path d="" fill="#424242" transform="translate(0,0)"/>
<path d="" fill="#535352" transform="translate(0,0)"/>
<path d="" fill="#6C6C6C" transform="translate(0,0)"/>
<path d="" fill="#6F6F6D" transform="translate(0,0)"/>
<path d="" fill="#424241" transform="translate(0,0)"/>
<path d="" fill="#656563" transform="translate(0,0)"/>
<path d="" fill="#656565" transform="translate(0,0)"/>
<path d="" fill="#6F6F6F" transform="translate(0,0)"/>
<path d="" fill="#535353" transform="translate(0,0)"/>
<path d="" fill="#424242" transform="translate(0,0)"/>
<path d="" fill="#535353" transform="translate(0,0)"/>
<path d="" fill="#6F6F6F" transform="translate(0,0)"/>
<path d="" fill="#6F6F6F" transform="translate(0,0)"/>
<path d="" fill="#424242" transform="translate(0,0)"/>
<path d="" fill="#656565" transform="translate(0,0)"/>
<path d="" fill="#5E5E5E" transform="translate(0,0)"/>
<path d="" fill="#535353" transform="translate(0,0)"/>
<path d="" fill="#424242" transform="translate(0,0)"/>
<path d="" fill="#535353" transform="translate(0,0)"/>
<path d="" fill="#424242" transform="translate(0,0)"/>
<path d="" fill="#6F6F6F" transform="translate(0,0)"/>
<path d="" fill="#5E5E5E" transform="translate(0,0)"/>
<path d="" fill="#424242" transform="translate(0,0)"/>
<path d="" fill="#535353" transform="translate(0,0)"/>
<path d="" fill="#5E5E5E" transform="translate(0,0)"/>
<path d="" fill="#5E5E5E" transform="translate(0,0)"/>
<path d="" fill="#5E5E5E" transform="translate(0,0)"/>
<path d="" fill="#424241" transform="translate(0,0)"/>
<path d="" fill="#535353" transform="translate(0,0)"/>
<path d="" fill="#424242" transform="translate(0,0)"/>
<path d="" fill="#424242" transform="translate(0,0)"/>
<path d="" fill="#5F5F5F" transform="translate(0,0)"/>
<path d="" fill="#5E5E5E" transform="translate(0,0)"/>
<path d="" fill="#424242" transform="translate(0,0)"/>
<path d="" fill="#656565" transform="translate(0,0)"/>
<path d="" fill="#424242" transform="translate(0,0)"/>
<path d="" fill="#424242" transform="translate(0,0)"/>
<path d="" fill="#424242" transform="translate(0,0)"/>
<path d="" fill="#424241" transform="translate(0,0)"/>
<path d="" fill="#5E5E5E" transform="translate(0,0)"/>
<path d="" fill="#535353" transform="translate(0,0)"/>
<path d="" fill="#535353" transform="translate(0,0)"/>
<path d="" fill="#656565" transform="translate(0,0)"/>
<path d="" fill="#424242" transform="translate(0,0)"/>
<path d="" fill="#696969" transform="translate(0,0)"/>
<path d="" fill="#656565" transform="translate(0,0)"/>
<path d="" fill="#424242" transform="translate(0,0)"/>
<path d="" fill="#636362" transform="translate(0,0)"/>
<path d="" fill="#535353" transform="translate(0,0)"/>
<path d="" fill="#535352" transform="translate(0,0)"/>
<path d="" fill="#424242" transform="translate(0,0)"/>
<path d="" fill="#424241" transform="translate(0,0)"/>
<path d="" fill="#424241" transform="translate(0,0)"/>
<path d="" fill="#424242" transform="translate(0,0)"/>
<path d="" fill="#424242" transform="translate(0,0)"/>
<path d="" fill="#424241" transform="translate(0,0)"/>
<path d="" fill="#696968" transform="translate(0,0)"/>
<path d="" fill="#656563" transform="translate(0,0)"/>
<path d="" fill="#424242" transform="translate(0,0)"/>
<path d="" fill="#696969" transform="translate(0,0)"/>
<path d="" fill="#424241" transform="translate(0,0)"/>
<path d="" fill="#535353" transform="translate(0,0)"/>
<path d="" fill="#424242" transform="translate(0,0)"/>
<path d="" fill="#424242" transform="translate(0,0)"/>
<path d="" fill="#6C6C6C" transform="translate(0,0)"/>
<path d="" fill="#424242" transform="translate(0,0)"/>
<path d="" fill="#424242" transform="translate(0,0)"/>
<path d="" fill="#424242" transform="translate(0,0)"/>
<path d="" fill="#424242" transform="translate(0,0)"/>
<path d="" fill="#535353" transform="translate(0,0)"/>
<path d="" fill="#424242" transform="translate(0,0)"/>
<path d="" fill="#484848" transform="translate(0,0)"/>
<path d="" fill="#5E5E5E" transform="translate(0,0)"/>
<path d="" fill="#696969" transform="translate(0,0)"/>
<path d="" fill="#565656" transform="translate(0,0)"/>
<path d="" fill="#5E5E5E" transform="translate(0,0)"/>
<path d="" fill="#535353" transform="translate(0,0)"/>
<path d="" fill="#5E5E5E" transform="translate(0,0)"/>
<path d="" fill="#424242" transform="translate(0,0)"/>
<path d="" fill="#424242" transform="translate(0,0)"/>
<path d="" fill="#424242" transform="translate(0,0)"/>
<path d="" fill="#656565" transform="translate(0,0)"/>
<path d="" fill="#424242" transform="translate(0,0)"/>
<path d="" fill="#666665" transform="translate(0,0)"/>
<path d="" fill="#6C6C6C" transform="translate(0,0)"/>
<path d="" fill="#656565" transform="translate(0,0)"/>
<path d="" fill="#6C6C6C" transform="translate(0,0)"/>
<path d="" fill="#656563" transform="translate(0,0)"/>
<path d="" fill="#696969" transform="translate(0,0)"/>
<path d="" fill="#424242" transform="translate(0,0)"/>
<path d="" fill="#6C6C6C" transform="translate(0,0)"/>
<path d="" fill="#535352" transform="translate(0,0)"/>
<path d="" fill="#535352" transform="translate(0,0)"/>
<path d="" fill="#696969" transform="translate(0,0)"/>
<path d="" fill="#5E5E5D" transform="translate(0,0)"/>
<path d="" fill="#565656" transform="translate(0,0)"/>
<path d="" fill="#5E5E5E" transform="translate(0,0)"/>
<path d="" fill="#484848" transform="translate(0,0)"/>
<path d="" fill="#424242" transform="translate(0,0)"/>
<path d="" fill="#535353" transform="translate(0,0)"/>
<path d="" fill="#6F6F6F" transform="translate(0,0)"/>
<path d="" fill="#5E5E5E" transform="translate(0,0)"/>
<path d="" fill="#696969" transform="translate(0,0)"/>
<path d="" fill="#424241" transform="translate(0,0)"/>
<path d="" fill="#424242" transform="translate(0,0)"/>
<path d="" fill="#6B6B6A" transform="translate(0,0)"/>
<path d="" fill="#424242" transform="translate(0,0)"/>
<path d="" fill="#535353" transform="translate(0,0)"/>
<path d="" fill="#696969" transform="translate(0,0)"/>
<path d="" fill="#656565" transform="translate(0,0)"/>
<path d="" fill="#696968" transform="translate(0,0)"/>
<path d="" fill="#5E5E5D" transform="translate(0,0)"/>
<path d="" fill="#5E5E5D" transform="translate(0,0)"/>
<path d="" fill="#424242" transform="translate(0,0)"/>
<path d="" fill="#535353" transform="translate(0,0)"/>
<path d="" fill="#656563" transform="translate(0,0)"/>
<path d="" fill="#6C6C6B" transform="translate(0,0)"/>
<path d="" fill="#424242" transform="translate(0,0)"/>
<path d="" fill="#535353" transform="translate(0,0)"/>
<path d="" fill="#535353" transform="translate(0,0)"/>
<path d="" fill="#696969" transform="translate(0,0)"/>
<path d="" fill="#5E5E5E" transform="translate(0,0)"/>
<path d="" fill="#5E5E5E" transform="translate(0,0)"/>
<path d="" fill="#5E5E5E" transform="translate(0,0)"/>
<path d="" fill="#6F6F6F" transform="translate(0,0)"/>
<path d="" fill="#535353" transform="translate(0,0)"/>
<path d="" fill="#535353" transform="translate(0,0)"/>
<path d="" fill="#424242" transform="translate(0,0)"/>
<path d="" fill="#424242" transform="translate(0,0)"/>
<path d="" fill="#6B6B6B" transform="translate(0,0)"/>
<path d="" fill="#5E5E5E" transform="translate(0,0)"/>
<path d="" fill="#6C6C6C" transform="translate(0,0)"/>
<path d="" fill="#656565" transform="translate(0,0)"/>
<path d="" fill="#424242" transform="translate(0,0)"/>
<path d="" fill="#6C6C6C" transform="translate(0,0)"/>
<path d="" fill="#6F6F6F" transform="translate(0,0)"/>
<path d="" fill="#424242" transform="translate(0,0)"/>
<path d="" fill="#5E5E5E" transform="translate(0,0)"/>
<path d="" fill="#424242" transform="translate(0,0)"/>
<path d="" fill="#656565" transform="translate(0,0)"/>
<path d="" fill="#6C6C6C" transform="translate(0,0)"/>
<path d="" fill="#535353" transform="translate(0,0)"/>
<path d="" fill="#424242" transform="translate(0,0)"/>
<path d="" fill="#535353" transform="translate(0,0)"/>
<path d="" fill="#6F6F6F" transform="translate(0,0)"/>
<path d="" fill="#6B6B6B" transform="translate(0,0)"/>
<path d="" fill="#424242" transform="translate(0,0)"/>
<path d="" fill="#535353" transform="translate(0,0)"/>
<path d="" fill="#535353" transform="translate(0,0)"/>
<path d="" fill="#535353" transform="translate(0,0)"/>
<path d="" fill="#5E5E5D" transform="translate(0,0)"/>
<path d="" fill="#696968" transform="translate(0,0)"/>
<path d="" fill="#535352" transform="translate(0,0)"/>
<path d="" fill="#535353" transform="translate(0,0)"/>
<path d="" fill="#6C6C6C" transform="translate(0,0)"/>
<path d="" fill="#424242" transform="translate(0,0)"/>
<path d="" fill="#424242" transform="translate(0,0)"/>
<path d="" fill="#535353" transform="translate(0,0)"/>
<path d="" fill="#6C6C6C" transform="translate(0,0)"/>
<path d="" fill="#696969" transform="translate(0,0)"/>
<path d="" fill="#6C6C6C" transform="translate(0,0)"/>
<path d="" fill="#6C6C6C" transform="translate(0,0)"/>
<path d="" fill="#424242" transform="translate(0,0)"/>
<path d="" fill="#535353" transform="translate(0,0)"/>
<path d="" fill="#656563" transform="translate(0,0)"/>
<path d="" fill="#424242" transform="translate(0,0)"/>
<path d="" fill="#5E5E5D" transform="translate(0,0)"/>
<path d="" fill="#424241" transform="translate(0,0)"/>
<path d="" fill="#6C6C6B" transform="translate(0,0)"/>
<path d="" fill="#424241" transform="translate(0,0)"/>
<path d="" fill="#424241" transform="translate(0,0)"/>
<path d="" fill="#424242" transform="translate(0,0)"/>
<path d="" fill="#424242" transform="translate(0,0)"/>
<path d="" fill="#656565" transform="translate(0,0)"/>
<path d="" fill="#6B6B6B" transform="translate(0,0)"/>
<path d="" fill="#6C6C6C" transform="translate(0,0)"/>
<path d="" fill="#424241" transform="translate(0,0)"/>
<path d="" fill="#535353" transform="translate(0,0)"/>
<path d="" fill="#686867" transform="translate(0,0)"/>
<path d="" fill="#6C6C6C" transform="translate(0,0)"/>
<path d="" fill="#656565" transform="translate(0,0)"/>
<path d="" fill="#696969" transform="translate(0,0)"/>
<path d="" fill="#656565" transform="translate(0,0)"/>
<path d="" fill="#535353" transform="translate(0,0)"/>
<path d="" fill="#424242" transform="translate(0,0)"/>
<path d="" fill="#6F6F6F" transform="translate(0,0)"/>
<path d="" fill="#696969" transform="translate(0,0)"/>
<path d="" fill="#424242" transform="translate(0,0)"/>
<path d="" fill="#424242" transform="translate(0,0)"/>
</svg>
