<?xml version="1.0" standalone="no"?>
<svg version="1.0" xmlns="http://www.w3.org/2000/svg"
width="1116.000000pt" height="1116.000000pt" viewBox="0 0 1116.000000 1116.000000"
preserveAspectRatio="xMidYMid meet">

    <g transform="translate(0.000000,1116.000000) scale(0.100000,-0.100000)">
        <path d="M4818 11151 c-96 -31 -139 -87 -204 -270 -50 -138 -69 -155 -271
        -247 -50 -23 -105 -52 -123 -66 -55 -43 -99 -118 -132 -223 -17 -55 -39 -116
        -48 -135 -40 -79 -118 -130 -200 -130 -41 0 -56 5 -76 26 -25 24 -26 29 -22
        121 2 66 -1 98 -8 100 -38 13 -184 -227 -204 -335 -22 -121 18 -247 118 -370
        l36 -43 1 -117 c0 -97 4 -127 23 -174 26 -65 96 -147 182 -213 l58 -44 5 -188
        c6 -210 23 -313 83 -493 61 -182 149 -349 262 -499 53 -69 55 -75 38 -85 -143
        -83 -321 -220 -462 -358 l-70 -69 -100 76 c-131 100 -179 118 -312 119 l-103
        1 -88 87 c-49 49 -98 91 -110 96 -13 4 -101 -8 -235 -35 -242 -47 -261 -56
        -361 -157 -147 -150 -350 -438 -451 -642 -52 -105 -59 -125 -59 -179 0 -39 7
        -73 19 -98 29 -59 106 -137 184 -187 63 -40 69 -48 64 -70 -12 -42 -6 -371 7
        -438 27 -138 171 -475 282 -659 60 -100 172 -222 238 -261 42 -25 55 -27 151
        -27 123 0 160 11 396 116 311 138 561 276 794 439 47 33 88 60 91 60 3 0 16
        -48 28 -107 17 -86 21 -144 21 -283 0 -217 -15 -433 -35 -531 -9 -41 -27 -136
        -40 -211 -28 -157 -18 -134 -143 -338 -287 -466 -521 -949 -610 -1260 -52
        -179 -72 -320 -92 -640 -35 -583 30 -1103 172 -1373 17 -31 29 -59 27 -60 -2
        -2 -50 -29 -106 -60 -304 -171 -507 -341 -489 -411 15 -60 138 -114 282 -123
        280 -18 741 119 1043 310 l64 41 38 -43 38 -42 80 21 c193 52 301 165 301 313
        0 56 3 69 18 73 79 25 86 46 77 221 -15 309 41 794 120 1029 62 187 194 370
        465 649 86 88 166 174 179 190 13 17 25 25 28 19 2 -5 80 -147 174 -315 419
        -746 616 -1124 729 -1399 159 -388 266 -554 396 -611 36 -17 44 -25 44 -47 0
        -50 30 -166 55 -217 90 -185 476 -389 704 -372 89 7 183 49 232 104 71 82 125
        260 117 391 -4 75 -44 172 -96 232 l-30 35 56 59 55 60 -6 101 c-8 131 -38
        353 -88 655 -92 558 -209 1050 -324 1355 -62 166 -259 632 -396 942 l-130 291
        -6 124 c-6 130 4 232 38 401 23 116 95 366 139 489 l32 86 102 -49 c55 -27
        133 -56 171 -64 39 -9 84 -21 100 -27 114 -40 259 -79 370 -100 117 -21 157
        -23 401 -22 271 2 357 10 419 41 39 19 122 100 141 136 28 53 39 547 15 687
        -68 404 -256 783 -530 1073 l-84 87 2 96 c4 179 -35 237 -220 327 -136 66
        -318 133 -525 192 -142 41 -389 95 -435 95 -12 0 -74 29 -138 64 -148 82 -310
        146 -481 190 -74 20 -136 35 -138 36 -1 0 15 35 37 78 79 157 131 316 131 399
        0 35 3 40 34 51 132 48 226 206 226 383 0 126 -46 227 -132 289 l-41 30 -1
        287 c-2 231 -6 305 -20 373 -60 290 -146 483 -268 602 -157 154 -388 299 -496
        313 -26 3 -62 8 -80 11 -20 3 -79 40 -159 100 -69 52 -143 104 -164 115 -54
        27 -119 24 -274 -12 l-133 -31 -107 37 c-112 38 -224 53 -277 36z m262 -117
        c73 -26 79 -26 215 -19 271 15 292 13 365 -21 36 -17 108 -62 160 -99 72 -53
        108 -72 154 -82 126 -30 267 -122 416 -272 67 -67 96 -106 132 -176 51 -99 99
        -245 122 -371 17 -91 41 -342 34 -350 -3 -2 -27 25 -54 62 -27 37 -76 89 -109
        116 -71 58 -210 128 -316 159 l-76 22 37 71 c96 178 91 283 -16 390 -59 59
        -114 79 -201 74 -94 -5 -155 -37 -286 -152 -59 -51 -119 -97 -134 -100 -28 -8
        -26 -8 -233 101 -135 71 -211 92 -270 74 -34 -10 -57 -33 -161 -161 -79 -97
        -130 -152 -146 -156 -14 -4 -69 -2 -122 4 -117 14 -151 6 -211 -45 -51 -44
        -95 -133 -161 -322 -37 -106 -49 -131 -92 -178 -123 -134 -246 -128 -383 20
        -119 129 -164 297 -113 432 l21 56 21 -43 c35 -68 65 -83 160 -83 147 0 216
        56 292 237 123 296 177 351 360 364 124 9 149 22 176 92 11 32 28 86 36 122
        41 179 69 240 117 261 39 17 185 2 266 -27z m919 -633 c21 -11 51 -35 66 -52
        73 -87 64 -187 -28 -316 -34 -47 -31 -70 10 -79 105 -23 222 -62 303 -101 137
        -66 243 -175 290 -297 6 -16 -13 -3 -56 40 -127 125 -386 277 -472 278 -43 1
        -47 -1 -47 -23 0 -20 11 -27 90 -56 170 -61 274 -123 432 -258 69 -59 83 -75
        83 -100 l0 -29 -63 55 c-98 86 -203 154 -286 186 -99 38 -154 47 -169 28 -25
        -30 18 -67 78 -67 51 0 301 -141 415 -234 l30 -25 -32 -30 c-19 -17 -31 -36
        -27 -44 3 -8 30 -27 60 -42 111 -56 172 -165 162 -289 -10 -122 -87 -230 -198
        -280 -55 -25 -60 -30 -70 -69 -73 -297 -155 -490 -286 -672 -35 -50 -64 -93
        -64 -96 0 -18 33 -15 81 7 35 16 78 51 124 99 l72 74 144 -48 c123 -42 241
        -89 351 -141 26 -12 21 -16 -205 -138 -128 -68 -239 -131 -248 -138 -25 -22
        -38 -81 -54 -236 -12 -111 -19 -145 -32 -153 -99 -60 -207 -177 -244 -264 -23
        -51 -80 -277 -104 -406 -26 -136 -18 -290 19 -372 33 -73 97 -138 177 -179 46
        -24 66 -29 134 -29 70 0 88 4 145 32 36 18 87 52 113 77 40 39 54 46 87 46 45
        0 45 0 25 -40 -19 -37 -45 -159 -45 -211 0 -58 32 -114 82 -143 46 -27 154
        -57 286 -80 46 -7 86 -16 88 -19 3 -3 1 -14 -5 -25 -16 -30 -14 -45 13 -85
        l24 -36 -39 -99 c-46 -117 -96 -290 -133 -455 -33 -144 -76 -397 -76 -441 0
        -18 -6 -39 -12 -48 -26 -33 -498 -197 -769 -268 -266 -68 -372 -84 -564 -84
        -145 0 -189 4 -301 27 -246 51 -495 129 -852 269 -141 55 -153 62 -147 82 17
        57 34 183 40 291 16 274 -43 800 -125 1110 -33 126 -75 341 -93 477 l-13 93
        -48 -80 -47 -80 40 -155 c36 -137 81 -338 81 -360 0 -5 -17 -18 -37 -31 -21
        -12 -81 -53 -133 -90 -185 -131 -479 -288 -750 -400 -115 -47 -133 -52 -225
        -56 -125 -7 -200 8 -262 51 -98 67 -214 259 -288 475 -35 103 -115 499 -115
        570 l0 36 47 -70 c110 -165 257 -325 388 -424 81 -61 226 -133 305 -152 83
        -20 195 -15 263 11 127 48 208 145 269 324 20 59 39 110 42 113 7 8 54 -68 70
        -114 8 -24 18 -70 22 -103 l7 -60 29 18 30 17 -6 76 c-12 150 -60 283 -123
        347 l-23 23 54 70 c92 117 97 178 22 254 -24 24 -62 57 -85 73 -52 38 -41 48
        60 54 181 11 287 124 277 295 -4 80 -30 140 -89 207 l-40 46 63 58 c187 175
        432 362 472 362 6 0 40 -25 76 -56 230 -198 492 -309 786 -333 186 -16 391 36
        581 147 70 41 167 121 147 122 -6 0 -59 -23 -117 -50 -214 -101 -363 -137
        -527 -127 -169 11 -323 53 -484 133 -141 71 -231 138 -366 274 -269 269 -419
        576 -476 973 -22 159 -15 456 15 601 20 98 21 99 74 146 77 69 101 109 153
        260 69 199 102 268 136 286 23 12 59 14 161 12 121 -3 136 -1 179 20 26 13 83
        59 127 102 93 91 141 112 254 112 78 -1 138 -17 229 -63 32 -16 73 -29 93 -29
        38 0 103 28 124 54 18 21 161 112 224 142 60 29 112 27 176 -5z m-2066 -953
        l59 -13 -7 -40 c-4 -22 -15 -92 -24 -155 l-17 -115 -51 52 c-85 87 -134 216
        -103 273 13 24 25 24 143 -2z m3382 -1773 c278 -48 722 -200 859 -294 35 -25
        55 -48 73 -88 53 -115 66 -308 29 -428 -11 -35 -16 -94 -16 -195 -1 -315 -28
        -672 -66 -855 -35 -170 -96 -319 -159 -392 -18 -21 -58 -53 -90 -72 -48 -29
        -68 -35 -134 -39 -55 -3 -95 1 -137 13 -57 16 -255 114 -282 139 -10 10 21 14
        155 19 92 4 185 11 206 17 74 22 88 98 22 125 -21 9 -104 18 -227 24 -193 10
        -337 35 -571 99 -100 27 -103 33 -83 133 9 45 24 94 32 109 21 34 94 84 175
        118 64 27 65 27 314 27 275 0 324 8 375 55 39 36 39 72 2 110 -31 31 -9 28
        -352 51 -211 14 -223 12 -427 -90 -176 -88 -212 -98 -261 -74 -80 39 -159 206
        -169 360 -5 71 -3 86 15 115 39 63 120 108 305 169 121 41 123 41 328 49 238
        10 271 18 295 76 14 32 13 38 -1 60 -22 35 -65 53 -147 63 -362 46 -347 45
        -411 32 -81 -17 -199 -79 -270 -142 l-56 -50 -16 25 c-9 14 -32 60 -51 103
        -49 112 -45 164 22 344 l24 65 223 117 222 117 80 0 c44 0 121 -7 170 -15z
        m-4199 -101 c88 -53 132 -100 149 -159 30 -111 34 -102 -45 -109 -92 -9 -176
        -32 -222 -59 -20 -12 -91 -82 -158 -156 -100 -111 -120 -138 -120 -165 0 -47
        25 -76 65 -76 34 0 57 14 255 157 73 53 229 121 324 143 88 19 138 -13 190
        -124 14 -30 31 -85 38 -123 20 -120 -2 -141 -208 -192 -67 -17 -134 -36 -151
        -43 -61 -26 -297 -252 -320 -307 -13 -31 -13 -36 5 -60 51 -69 161 -21 355
        156 93 85 158 115 257 120 74 4 76 4 125 -34 28 -21 51 -48 53 -59 2 -13 -20
        -52 -60 -104 -35 -46 -78 -104 -97 -129 -39 -51 -132 -146 -233 -236 -73 -64
        -85 -97 -50 -127 45 -39 90 -20 236 98 41 34 58 43 53 29 -66 -178 -105 -236
        -186 -277 -102 -52 -219 -28 -373 74 -108 71 -371 328 -511 498 -47 58 -106
        120 -130 137 -95 66 -207 235 -207 311 0 123 342 647 492 754 21 15 87 34 202
        59 94 20 180 37 192 38 11 0 47 -15 80 -35z m347 -155 c100 -51 232 -146 295
        -214 70 -74 104 -140 110 -211 4 -49 2 -54 -37 -97 -23 -25 -56 -52 -74 -60
        l-32 -16 -11 72 c-31 191 -148 359 -261 374 l-39 5 -11 67 c-7 36 -15 76 -18
        89 -10 30 3 28 78 -9z m3065 -648 c-51 -58 -62 -95 -62 -206 -1 -77 5 -117 23
        -175 29 -93 71 -178 112 -225 29 -32 30 -38 17 -51 -25 -25 -143 -39 -213 -24
        -69 14 -101 43 -138 123 -84 178 -52 429 90 712 78 154 65 154 138 8 l64 -127
        -31 -35z m2027 69 c181 -219 331 -531 394 -822 41 -192 48 -352 26 -671 -7
        -101 -53 -131 -210 -133 -60 -1 -137 -7 -170 -14 -107 -22 -377 -5 -573 36
        l-32 7 47 33 c162 115 293 365 349 661 26 140 30 493 9 686 l-17 158 25 57
        c14 31 31 70 37 86 10 28 11 28 31 10 12 -11 49 -53 84 -94z m-4039 -2795
        c373 -146 647 -227 879 -261 148 -22 414 -15 573 15 263 50 527 130 842 256
        105 42 193 75 195 73 7 -6 290 -658 375 -863 271 -652 371 -978 474 -1550 55
        -304 106 -687 106 -791 0 -55 -3 -65 -26 -83 -32 -25 -157 -73 -244 -94 -135
        -33 -564 -47 -648 -21 -25 7 -62 80 -222 434 -148 329 -211 455 -354 715 -245
        443 -520 903 -818 1368 -177 275 -188 281 -113 57 25 -74 45 -138 45 -142 0
        -5 -74 -85 -165 -179 -274 -283 -424 -476 -515 -664 -104 -212 -173 -562 -200
        -1015 -6 -102 -14 -230 -18 -285 l-7 -100 -82 -27 c-306 -103 -606 -148 -767
        -115 -44 9 -103 28 -131 42 l-52 25 -31 97 c-90 282 -129 659 -119 1148 9 433
        37 638 113 829 68 171 228 471 441 824 117 195 215 363 218 373 4 10 12 19 19
        19 8 0 112 -38 232 -85z m159 -3321 c-8 -45 -51 -76 -150 -108 -44 -14 -83
        -26 -88 -26 -5 0 -28 14 -51 30 l-42 31 -140 -66 c-385 -183 -609 -239 -939
        -233 -106 2 -160 7 -162 14 -6 18 42 69 103 109 30 20 124 76 209 125 l154 89
        63 -9 c120 -17 332 -22 453 -11 135 13 270 42 460 99 l130 38 3 -25 c2 -13 1
        -39 -3 -57z m3288 -71 c57 -93 70 -135 65 -207 -5 -86 -44 -149 -118 -194 -69
        -41 -107 -52 -195 -59 -97 -7 -187 16 -320 82 -119 59 -222 134 -243 178 -8
        16 -16 52 -19 82 l-6 54 131 0 c220 0 470 38 588 89 38 17 72 30 76 31 4 1 22
        -25 41 -56z"/>
        <path d="M5412 9606 c-30 -16 -51 -49 -107 -163 -48 -97 -64 -111 -120 -101
        -34 7 -34 -26 0 -48 19 -12 44 -15 114 -13 89 4 90 4 85 -18 -7 -28 13 -116
        37 -165 23 -45 66 -80 93 -76 13 2 30 20 44 48 19 37 23 56 19 105 -9 121 -55
        205 -112 205 -20 0 -25 4 -22 18 3 9 8 38 12 64 7 56 45 94 103 103 87 15 89
        20 15 38 -84 20 -129 21 -161 3z"/>
        <path d="M6222 9473 c2 -20 10 -30 28 -35 111 -30 142 -43 195 -78 66 -44 75
        -47 75 -25 0 50 -182 165 -262 165 -37 0 -39 -2 -36 -27z"/>
        <path d="M6170 9346 c0 -7 27 -68 60 -134 l59 -122 -23 -27 c-14 -16 -26 -26
        -28 -23 -3 3 -17 26 -32 52 -32 57 -81 88 -102 66 -12 -12 -8 -26 25 -95 l40
        -82 -50 -31 c-44 -27 -48 -33 -39 -50 14 -25 14 -25 67 6 25 14 46 24 48 22 4
        -4 55 -119 55 -124 0 -2 -27 -17 -60 -34 -54 -27 -59 -33 -50 -50 14 -26 27
        -25 75 5 22 13 43 25 46 25 4 0 17 -24 29 -52 27 -62 35 -52 21 24 l-10 53 42
        43 41 42 23 -42 c24 -46 31 -31 14 30 -8 27 -5 41 25 98 41 79 44 104 10 104
        -19 0 -28 -8 -37 -35 -7 -19 -16 -35 -19 -35 -4 0 -14 26 -23 57 -14 50 -14
        60 -1 74 15 16 49 108 43 113 -2 2 -13 6 -25 10 -17 5 -24 -1 -38 -36 l-18
        -43 -13 36 c-24 66 -54 116 -85 143 -34 28 -70 35 -70 12z m185 -436 c-3 -9
        -19 -29 -35 -45 -22 -21 -31 -25 -34 -14 -3 8 -11 38 -19 67 l-15 52 36 30 37
        30 17 -52 c10 -28 16 -59 13 -68z"/>
        <path d="M4872 9318 c-6 -7 -18 -76 -26 -153 -14 -119 -25 -165 -73 -306 -36
        -108 -54 -175 -50 -190 4 -15 45 -54 106 -101 117 -92 147 -99 206 -47 19 17
        35 35 35 40 0 5 -41 36 -90 69 -50 34 -96 72 -102 85 -8 18 -7 50 6 127 34
        216 47 427 30 472 -7 19 -28 21 -42 4z"/>
        <path d="M4214 9303 c-17 -10 -49 -33 -70 -52 -34 -29 -36 -33 -14 -27 14 4
        46 9 72 13 55 7 70 -2 98 -58 19 -35 19 -39 2 -71 -28 -54 -23 -161 11 -230
        33 -67 69 -95 106 -82 55 19 79 140 46 234 -21 58 -19 67 13 73 36 7 82 50 82
        77 0 20 -1 20 -30 5 -45 -23 -62 -19 -110 31 -55 56 -126 104 -154 104 -12 0
        -35 -8 -52 -17z"/>
        <path d="M5655 8802 c-72 -27 -95 -44 -95 -69 0 -29 6 -29 82 7 102 49 154 35
        192 -48 19 -42 53 -61 63 -35 9 22 -37 112 -69 134 -40 29 -113 33 -173 11z"/>
        <path d="M5680 8704 c-18 -8 -108 -75 -200 -148 -288 -233 -368 -280 -502
        -297 -60 -8 -114 -7 -198 1 -146 15 -170 12 -189 -22 -32 -56 26 -297 84 -355
        18 -18 40 -33 49 -33 9 0 56 16 105 35 49 19 117 39 152 44 132 22 362 7 527
        -35 95 -23 98 -23 122 -5 33 24 118 192 158 313 35 107 41 192 21 332 -14 106
        -31 148 -65 168 -26 15 -33 15 -64 2z m26 -135 c17 -19 19 -36 18 -158 -2
        -148 -27 -276 -75 -377 -33 -68 -59 -79 -118 -49 -117 59 -304 99 -433 93 -83
        -4 -106 -9 -210 -52 -69 -28 -129 -46 -145 -44 -25 3 -30 9 -46 68 -29 107
        -38 101 158 104 193 3 250 16 364 83 82 49 288 204 381 288 40 36 76 65 80 65
        4 0 15 -9 26 -21z"/>
        <path d="M5410 6950 c-11 -11 -20 -24 -20 -29 0 -5 -9 -13 -20 -16 -23 -7 -72
        -100 -95 -180 -12 -40 -14 -86 -11 -195 3 -79 9 -146 14 -149 5 -3 11 -15 13
        -26 3 -14 12 -20 29 -20 25 0 25 2 28 90 2 49 6 92 11 95 4 3 13 32 19 64 7
        33 22 78 35 100 13 23 30 57 37 76 7 19 31 54 52 77 41 46 44 54 26 86 -26 49
        -83 62 -118 27z"/>
        <path d="M4510 6240 c-28 -28 -25 -46 10 -82 27 -26 36 -30 68 -25 63 11 94
        74 54 110 -27 25 -106 23 -132 -3z"/>
        <path d="M5195 5691 c-27 -4 -79 -17 -115 -29 -36 -12 -83 -26 -105 -31 -22
        -6 -64 -27 -93 -48 -78 -57 -82 -104 -10 -131 32 -12 40 -12 82 7 25 12 46 26
        46 31 0 6 20 10 44 10 27 0 66 11 102 28 58 27 61 27 251 26 155 -1 197 -4
        216 -17 13 -8 50 -18 83 -22 32 -4 68 -13 80 -20 34 -21 132 -47 153 -40 12 3
        31 -1 45 -10 27 -18 46 -13 46 12 0 17 -28 42 -47 43 -7 0 -23 11 -37 25 -14
        14 -36 25 -49 25 -14 0 -42 7 -63 16 -68 27 -108 45 -134 58 -57 31 -167 56
        -287 66 -134 11 -132 11 -208 1z"/>
        <path d="M5365 4679 c-44 -10 -77 -42 -68 -65 16 -42 155 -60 228 -30 100 42
        -38 124 -160 95z"/>
    </g>
</svg>
