<?xml version="1.0" standalone="no"?>
<svg version="1.0" xmlns="http://www.w3.org/2000/svg"
 width="348.000000pt" height="348.000000pt" viewBox="0 0 348.000000 348.000000"
 preserveAspectRatio="xMidYMid meet">

<g transform="translate(0.000000,348.000000) scale(0.100000,-0.100000)"
fill="#000000" stroke="none">
<path d="M1783 3400 c-18 -10 -40 -32 -49 -47 -10 -15 -19 -29 -20 -31 -1 -2
-21 2 -44 8 -54 14 -95 1 -140 -45 -46 -48 -67 -46 -77 8 -10 51 -35 59 -77
26 -49 -38 -70 -121 -47 -182 7 -18 5 -31 -10 -53 -22 -34 -25 -107 -5 -145
12 -23 12 -35 0 -80 -8 -29 -14 -94 -14 -144 0 -139 37 -252 105 -319 46 -46
43 -48 -74 -70 -172 -31 -239 -37 -432 -37 -221 -1 -218 -1 -308 76 -120 103
-197 84 -167 -41 l7 -31 -49 5 c-103 9 -162 -40 -128 -106 9 -17 21 -32 27
-34 7 -2 -2 -17 -20 -35 -30 -31 -38 -57 -23 -79 11 -18 48 -34 76 -34 31 0
32 -4 6 -33 -26 -27 -36 -65 -23 -86 15 -24 66 -18 163 18 117 42 152 41 271
-14 137 -63 225 -84 375 -93 l128 -7 8 -40 c3 -22 23 -124 43 -227 l35 -187
-34 -88 c-90 -227 -227 -620 -261 -745 l-18 -68 -66 0 c-85 0 -111 -16 -111
-70 0 -31 6 -44 35 -69 62 -54 176 -101 247 -101 21 0 29 -6 34 -25 7 -26 37
-47 87 -59 61 -14 76 5 152 189 54 133 283 595 294 595 12 0 351 -476 442
-622 39 -62 83 -125 97 -140 50 -54 141 -62 201 -18 67 47 102 156 66 204 -8
11 -15 29 -15 39 0 36 -177 550 -269 782 l-91 230 33 210 c26 168 36 209 48
206 7 -2 73 -6 144 -8 154 -6 265 11 377 58 146 61 185 61 339 -7 43 -19 83
-34 91 -34 40 0 51 61 18 103 -28 35 -25 44 10 39 39 -6 80 21 80 52 0 14 -12
39 -27 57 -19 22 -24 34 -15 37 21 7 43 60 36 87 -9 36 -52 55 -124 55 -55 0
-60 2 -51 18 18 33 19 80 4 102 -13 19 -22 21 -56 17 -23 -3 -58 -19 -81 -36
-123 -92 -107 -86 -240 -83 -219 5 -403 32 -591 86 -109 32 -109 31 -88 67 13
22 25 29 48 29 39 0 93 33 105 66 14 36 12 89 -4 129 -13 31 -13 36 5 59 11
14 32 51 47 83 24 51 27 69 26 158 0 116 -21 174 -93 260 -23 28 -49 67 -58
88 -22 53 -56 77 -111 77 -37 0 -51 6 -83 35 -44 40 -70 43 -116 15z m78 -47
c19 -22 72 -43 109 -43 46 0 67 -15 81 -57 7 -21 30 -63 53 -93 49 -67 86
-165 86 -229 0 -63 -23 -136 -65 -211 l-35 -62 20 -28 c46 -64 9 -150 -64
-150 -26 0 -41 -8 -65 -35 -37 -43 -64 -92 -56 -105 8 -13 204 -75 312 -99
139 -31 325 -52 447 -50 112 1 166 12 208 43 13 9 45 32 72 51 26 19 52 35 57
35 15 0 10 -27 -12 -74 -34 -69 -26 -76 80 -69 78 5 91 4 97 -11 3 -9 1 -23
-6 -30 -11 -14 -23 -18 -102 -31 -21 -3 -38 -10 -38 -15 0 -5 26 -18 58 -30
67 -25 97 -45 88 -59 -4 -5 -16 -8 -29 -5 -12 2 -50 7 -84 10 -81 9 -81 -2 -6
-78 61 -62 66 -81 12 -49 -119 69 -238 76 -369 21 -120 -50 -189 -63 -345 -63
-77 0 -159 4 -183 10 -54 14 -54 14 -77 -152 -9 -66 -23 -160 -32 -210 -18
-108 -15 -130 31 -233 85 -193 225 -584 301 -835 19 -65 40 -127 45 -138 8
-14 6 -28 -9 -58 -41 -79 -121 -105 -179 -56 -16 13 -62 77 -102 142 -72 115
-192 289 -334 485 -39 53 -87 120 -106 147 -19 28 -40 50 -47 51 -14 0 -81
-115 -192 -334 -93 -183 -138 -284 -181 -409 -15 -42 -30 -80 -33 -83 -12 -13
-73 17 -88 44 -13 23 -27 30 -81 41 -77 15 -150 47 -195 85 -48 41 -35 55 55
58 l77 3 22 45 c12 25 29 65 37 90 23 73 118 338 204 575 l81 221 -34 184
c-19 102 -39 221 -46 265 l-12 80 -136 2 c-160 2 -243 20 -384 85 -119 54
-201 61 -304 28 -37 -13 -73 -27 -80 -32 -7 -6 -18 -8 -24 -6 -7 2 18 30 54
62 37 33 64 63 61 68 -4 5 -45 8 -92 6 -55 -2 -87 1 -89 8 -4 12 54 39 104 49
17 4 37 13 43 20 10 11 6 15 -17 20 -67 15 -107 31 -117 48 -22 36 38 47 133
25 68 -15 78 -5 51 56 -21 51 -26 86 -11 86 5 0 33 -19 61 -42 92 -75 120 -89
189 -100 67 -9 353 -12 394 -4 12 3 45 8 72 11 77 9 235 42 280 58 22 8 41 20
43 28 1 8 -15 33 -37 56 -61 66 -87 104 -105 158 -24 71 -31 215 -14 295 13
56 13 70 0 100 -18 45 -11 129 12 146 15 11 16 18 5 72 -11 54 -11 63 5 88
l18 27 14 -32 c7 -17 23 -35 36 -40 29 -11 79 4 92 26 5 10 20 28 33 41 22 22
30 24 84 18 l59 -7 47 45 c50 49 72 56 94 29z"/>
<path d="M1538 3034 c-16 -8 -28 -19 -28 -25 0 -13 49 -3 65 12 18 18 -9 28
-37 13z"/>
<path d="M1861 3036 c-8 -9 0 -22 28 -50 45 -44 61 -34 31 17 -24 40 -44 51
-59 33z"/>
<path d="M1512 2918 c-17 -17 -15 -77 3 -84 22 -9 45 14 45 45 0 25 -15 51
-30 51 -3 0 -11 -5 -18 -12z"/>
<path d="M1631 2854 c-28 -42 -51 -83 -51 -93 0 -26 29 -61 51 -61 23 0 24 10
3 47 -16 27 -15 30 16 83 71 120 58 137 -19 24z"/>
<path d="M1822 2908 c-16 -16 -15 -63 1 -77 23 -19 49 9 45 49 -3 37 -24 50
-46 28z"/>
<path d="M1476 2641 c-16 -18 -16 -21 -1 -50 9 -18 20 -29 26 -25 6 3 21 -4
34 -16 21 -19 96 -48 120 -45 38 4 91 19 131 36 44 20 47 20 57 4 9 -17 11
-16 23 6 23 41 17 66 -20 88 -40 25 -46 26 -46 6 0 -15 -4 -16 -100 -20 -66
-3 -174 12 -178 24 -6 17 -27 13 -46 -8z m237 -35 c59 1 107 -2 107 -7 0 -15
-128 -69 -164 -69 -43 0 -101 28 -136 65 l-25 26 55 -8 c30 -4 103 -7 163 -7z"/>
<path d="M1603 2458 c2 -7 19 -13 37 -13 18 0 35 6 38 13 2 8 -9 12 -38 12
-29 0 -40 -4 -37 -12z"/>
</g>
</svg>
