<?xml version="1.0" standalone="no"?>
<svg version="1.0" xmlns="http://www.w3.org/2000/svg"
     width="211.000000pt" height="215.000000pt"
     viewBox="0 0 211.000000 215.000000"
     preserveAspectRatio="xMidYMid meet">

    <g transform="translate(0.000000,215.000000) scale(0.100000,-0.100000)">
        <path d="M1291 2105 c-42 -44 -43 -45 -94 -40 -51 6 -53 5 -100 -40 -54 -50
        -72 -54 -111 -24 -37 29 -49 16 -44 -47 5 -64 20 -84 62 -84 25 0 42 10 76 46
        62 63 71 66 112 45 34 -19 34 -19 74 5 55 34 77 31 118 -17 33 -39 37 -41 73
        -34 21 4 51 9 66 12 20 4 35 -1 53 -18 30 -29 31 -60 0 -96 l-24 -28 39 -42
        c21 -23 39 -51 39 -60 0 -12 -5 -8 -16 12 -15 29 -53 68 -84 85 -12 7 -10 13
        13 34 33 31 34 46 2 76 -23 21 -28 22 -64 12 -55 -17 -64 -15 -107 19 -33 26
        -44 30 -74 24 -47 -9 -99 -9 -132 0 -24 6 -34 1 -77 -44 -27 -28 -57 -51 -65
        -51 -24 0 -65 -70 -88 -151 -36 -129 -14 -247 68 -360 44 -61 151 -119 218
        -119 53 0 62 -16 14 -23 -18 -3 -3 -4 33 -3 54 1 75 7 107 29 23 15 46 36 52
        48 11 20 10 21 -20 14 -29 -6 -25 0 51 74 45 45 91 81 101 81 29 0 58 36 58
        74 0 19 -5 38 -11 41 -6 4 -8 14 -5 22 8 19 -7 45 -52 96 -36 40 -36 41 -5 17
        17 -14 37 -35 44 -47 7 -13 16 -23 21 -23 15 0 -19 54 -56 89 -20 19 -36 39
        -36 43 0 18 47 -24 74 -66 23 -37 31 -43 41 -32 20 19 37 94 36 152 -1 67 -20
        108 -76 169 -26 28 -56 60 -67 72 -10 12 -36 27 -56 34 -20 6 -58 24 -83 40
        -25 16 -48 29 -51 29 -2 0 -24 -20 -47 -45z m-223 -270 c-2 -1 -14 -8 -28 -15
        -25 -13 -25 -13 -6 8 10 12 23 19 28 16 5 -3 8 -7 6 -9z m312 -27 l23 -31 -39
        28 c-21 16 -41 30 -43 32 -2 2 5 3 15 3 11 0 31 -14 44 -32z m-322 -104 c-4
        -35 -32 -39 -36 -6 -4 27 17 57 30 44 5 -5 8 -22 6 -38z m93 -47 c-21 -37 -27
        -57 -21 -67 6 -8 10 -20 10 -27 0 -20 -26 -4 -39 23 -10 23 -8 30 20 61 17 20
        36 47 42 60 6 14 13 20 15 14 2 -6 -10 -35 -27 -64z m215 48 c24 -37 13 -40
        -45 -14 -52 24 -51 39 1 39 19 0 33 -8 44 -25z m184 -70 c13 -14 21 -25 18
        -25 -2 0 -15 11 -28 25 -13 14 -21 25 -18 25 2 0 15 -11 28 -25z m-4 -52 c-7
        -7 -26 7 -26 19 0 6 6 6 15 -2 9 -7 13 -15 11 -17z m-224 -60 c29 -28 38 -76
        16 -89 -7 -4 -8 -3 -4 5 4 6 1 14 -8 17 -8 3 -12 12 -9 20 3 8 -3 17 -13 21
        -11 5 -19 18 -20 31 -1 28 4 28 38 -5z m-282 -36 c8 -3 2 -6 -14 -6 -23 -1
        -26 -4 -17 -15 9 -11 9 -16 0 -21 -23 -15 -39 41 -17 63 9 9 14 8 22 -2 6 -8
        18 -16 26 -19z m175 -7 c-16 -4 -57 -7 -90 -7 l-60 0 60 7 c33 4 74 7 90 7
        l30 1 -30 -8z m85 -25 c0 -17 -127 -61 -163 -56 -26 4 -109 42 -104 48 3 2 16
        -1 29 -8 35 -19 157 -17 193 3 31 18 45 22 45 13z m-135 -86 c4 -6 5 -13 1
        -16 -8 -8 -56 6 -56 17 0 13 47 13 55 -1z"/>
        <path d="M932 1833 c4 -45 16 -48 38 -10 13 24 13 29 0 37 -30 19 -41 11 -38
        -27z"/>
        <path d="M223 1630 c-52 -21 -69 -121 -33 -196 16 -33 30 -45 64 -58 60 -23
        96 -61 96 -100 0 -18 -5 -37 -12 -44 -9 -9 -8 -16 5 -30 21 -23 22 -65 2 -82
        -11 -9 -13 -16 -5 -24 15 -15 12 -45 -7 -64 -11 -11 -41 -18 -97 -22 -102 -8
        -77 -24 28 -18 85 4 107 18 137 83 23 49 25 79 5 72 -9 -4 -6 9 10 36 13 23
        24 52 24 65 0 43 -30 95 -85 146 -61 56 -63 64 -50 169 6 46 5 61 -6 68 -17
        11 -47 10 -76 -1z"/>
        <path d="M62 1350 c-27 -25 -28 -50 -4 -80 15 -18 21 -20 45 -11 40 15 82 14
        143 -5 60 -19 84 -14 84 18 -1 30 -17 50 -60 77 -50 30 -176 30 -208 1z"/>
        <path d="M1460 1307 c0 -8 -14 -34 -30 -59 -36 -54 -103 -88 -175 -88 -53 0
        -75 10 -128 57 -21 19 -46 33 -55 31 -28 -5 -26 -53 4 -108 l27 -50 -18 -98
        c-13 -66 -20 -153 -21 -272 l-3 -175 -31 2 c-17 0 -49 13 -70 27 -65 43 -68
        39 -49 -73 15 -85 22 -97 69 -121 131 -67 439 -73 583 -11 l48 21 -5 72 c-2
        40 -5 76 -5 80 -1 3 -29 -3 -63 -14 -82 -25 -271 -37 -284 -17 -15 23 -14 286
        2 408 15 119 24 141 55 141 29 0 120 44 157 75 39 33 76 88 86 127 6 25 2 29
        -30 43 -45 19 -64 19 -64 2z"/>
        <path d="M1570 1255 c0 -37 -23 -76 -70 -119 -44 -39 -138 -86 -175 -86 -13 0
        -26 -7 -29 -16 -25 -65 -46 -466 -27 -502 13 -25 27 -25 204 4 134 22 133 21
        147 123 7 47 19 106 26 130 7 25 11 47 9 51 -2 3 -33 21 -70 39 -94 47 -74 49
        26 2 46 -22 108 -47 137 -56 29 -10 55 -21 58 -26 2 -5 -15 -39 -40 -76 -24
        -37 -54 -91 -66 -120 l-22 -52 28 -36 c36 -47 72 -65 133 -65 l50 0 51 86 c72
        122 127 235 135 275 9 47 -32 106 -160 235 -102 102 -150 139 -256 200 -73 41
        -89 43 -89 9z"/>
        <path d="M484 1243 c4 -15 7 -57 8 -93 2 -54 -2 -72 -24 -105 -14 -22 -33 -46
        -42 -54 -36 -30 -17 -34 112 -27 160 8 302 41 317 74 5 12 13 22 17 22 5 0 8
        -78 8 -172 0 -247 -2 -239 83 -288 38 -22 71 -39 72 -38 2 2 5 82 9 178 3 96
        8 184 10 195 30 134 30 145 6 187 -16 29 -23 56 -22 90 l1 48 -217 -2 c-119
        -2 -246 1 -280 5 l-64 8 6 -28z"/>
        <path d="M90 1241 c-19 -5 -26 -14 -28 -40 -5 -50 11 -61 92 -61 39 0 89 -5
        110 -10 52 -12 78 2 74 38 -2 21 -14 32 -48 49 -47 24 -154 36 -200 24z"/>
        <path d="M451 1209 c-6 -17 -11 -42 -11 -54 0 -46 -32 -115 -71 -150 -21 -19
        -39 -37 -39 -39 0 -14 61 12 88 38 44 41 62 86 62 155 0 72 -13 95 -29 50z"/>
        <path d="M120 1121 c-19 -5 -26 -15 -28 -38 -4 -43 23 -56 113 -56 77 0 115
        14 115 42 0 20 -29 35 -100 51 -51 11 -64 11 -100 1z"/>
        <path d="M1655 470 c-20 -39 -19 -106 5 -157 22 -49 34 -53 135 -50 63 2 71 4
        84 28 17 30 8 97 -15 106 -17 6 -54 -23 -54 -44 0 -7 6 -13 14 -13 18 0 29
        -16 21 -30 -9 -15 -42 6 -50 30 -4 12 0 31 9 45 9 13 16 26 16 28 0 2 -17 9
        -38 15 -21 6 -51 25 -67 42 -16 16 -32 30 -37 30 -4 0 -14 -13 -23 -30z"/>
        <path d="M945 276 c6 -52 17 -101 24 -109 6 -9 47 -28 89 -44 75 -27 82 -28
        272 -27 162 0 209 4 275 21 48 12 81 26 83 34 4 25 -75 204 -89 202 -8 0 -50
        -10 -94 -22 -62 -16 -110 -21 -215 -20 -133 0 -196 9 -289 43 -70 25 -68 27
        -56 -78z"/>
    </g>
</svg>
