<?xml version="1.0" standalone="no"?>
<svg version="1.0" xmlns="http://www.w3.org/2000/svg"
 width="156" height="139" viewBox="0 0 156.000000 139.000000"
 preserveAspectRatio="xMidYMid meet">

    <g transform="translate(0.000000,139.000000) scale(0.100000,-0.100000)">
        <path d="M287 1294 c-4 -4 -7 -16 -7 -26 0 -11 -5 -28 -10 -39 -10 -18 -12
        -18 -35 -3 -13 9 -30 14 -37 11 -9 -3 -6 -7 7 -12 11 -5 30 -17 42 -28 19 -17
        24 -18 37 -5 11 12 12 18 3 27 -19 19 5 33 37 21 23 -8 28 -7 35 13 12 30 5
        34 -19 12 -11 -10 -20 -14 -20 -8 0 16 -25 45 -33 37z"/>
        <path d="M1115 1249 c-66 -17 -71 -17 -83 -1 -16 21 -24 10 -47 -63 -9 -27
        -23 -66 -32 -85 -18 -39 -23 -117 -9 -168 7 -31 6 -33 -11 -28 -11 3 -41 -1
        -69 -9 -72 -22 -131 -20 -144 5 -16 30 5 54 65 75 42 14 54 23 58 42 3 19 -1
        27 -20 34 -13 5 -28 9 -32 9 -5 0 -20 17 -35 39 -29 41 -78 61 -191 77 -27 4
        -55 14 -61 23 -18 23 -145 24 -151 0 -3 -11 -11 -15 -24 -12 -22 6 -49 -13
        -49 -33 0 -23 39 -38 58 -22 14 11 15 11 9 -5 -4 -10 -7 -23 -7 -29 0 -6 -7
        -7 -15 -4 -10 4 -19 -2 -23 -15 -7 -19 -9 -19 -21 -5 -8 9 -10 16 -6 16 4 0 2
        7 -5 15 -9 10 -9 15 -1 15 6 0 11 5 11 11 0 7 -9 9 -21 6 -17 -5 -24 3 -40 40
        -11 26 -24 43 -32 40 -6 -2 -12 -9 -12 -15 0 -5 -4 -14 -9 -19 -5 -5 -6 -3 -2
        5 4 6 2 12 -4 12 -7 0 -10 -6 -8 -12 3 -7 15 -13 29 -13 16 0 28 -9 38 -30 8
        -16 18 -32 23 -33 4 -2 18 -25 30 -50 l21 -47 12 34 11 35 17 -24 c13 -19 17
        -21 22 -8 3 8 5 21 3 29 -2 8 2 14 7 14 22 -1 85 -30 85 -40 0 -5 5 -27 10
        -47 10 -33 16 -39 58 -51 46 -14 47 -15 60 -73 8 -32 19 -70 26 -84 16 -36
        134 -90 200 -93 l51 -2 24 -73 c28 -85 25 -95 -52 -200 -45 -61 -94 -195 -84
        -232 3 -13 -3 -22 -25 -31 -32 -13 -52 -43 -44 -65 8 -20 105 -18 172 3 49 15
        54 20 69 61 19 58 56 121 89 151 l26 24 26 -24 c34 -31 68 -91 88 -155 15 -45
        21 -52 55 -63 21 -6 66 -11 100 -11 78 0 90 19 40 63 -23 21 -33 38 -31 54 7
        48 -66 263 -104 304 -12 13 -12 22 2 68 15 52 16 53 36 34 11 -10 26 -30 34
        -45 12 -23 12 -30 -3 -55 -15 -27 -15 -31 4 -74 22 -49 35 -53 105 -30 31 10
        38 18 44 46 3 19 3 39 -1 44 -3 6 -8 31 -10 56 -5 63 -32 141 -67 197 -28 45
        -113 118 -137 118 -20 0 -11 15 19 32 17 9 30 23 30 30 0 7 11 36 25 63 29 59
        30 75 9 145 -11 37 -29 66 -55 92 -21 21 -42 37 -47 37 -4 -1 -38 -10 -77 -20z
        m120 -36 c45 -39 70 -149 42 -187 -12 -17 -14 -16 -25 8 -9 19 -9 32 0 51 14
        30 -3 55 -38 55 -14 0 -25 8 -29 21 -6 18 -13 20 -40 16 -18 -3 -37 -1 -43 5
        -7 7 -22 6 -46 -3 -42 -15 -62 -3 -51 31 5 17 9 19 21 9 12 -10 22 -10 50 0
        18 7 38 10 44 6 5 -3 22 1 37 9 29 15 40 12 78 -21z m-831 -39 c7 -17 -10 -54
        -24 -54 -17 0 -20 18 -4 24 9 4 12 11 7 18 -13 21 -12 37 2 32 7 -3 16 -12 19
        -20z m44 -13 c4 -34 -11 -61 -34 -61 -19 0 -18 20 2 35 13 9 14 16 6 32 -12
        21 -6 36 12 30 6 -2 12 -18 14 -36z m52 8 c11 -27 11 -33 -7 -57 -11 -15 -31
        -28 -44 -28 l-23 -1 23 18 c18 15 21 25 16 49 -12 54 15 69 35 19z m605 0 c4
        -5 19 -7 35 -4 20 4 29 2 34 -10 3 -9 22 -23 42 -31 35 -15 35 -16 20 -39 -15
        -23 -15 -27 4 -59 12 -22 15 -38 9 -42 -5 -3 -9 -13 -7 -22 3 -22 -10 -42 -27
        -42 -13 0 -36 -17 -99 -73 -17 -16 -24 -25 -16 -21 8 4 25 16 37 27 13 11 26
        17 30 14 10 -10 -34 -54 -74 -72 -19 -9 -32 -19 -29 -22 7 -7 52 21 87 54 l27
        25 38 -20 c82 -42 161 -155 180 -256 8 -43 -3 -56 -48 -56 -23 0 -32 8 -50 48
        -26 55 -99 132 -125 132 -15 -1 -14 -4 6 -20 19 -17 22 -26 17 -55 -6 -30 -12
        -36 -47 -45 -70 -19 -73 -16 -80 85 l-6 90 1 -95 1 -95 58 2 57 2 0 -33 c0
        -38 -11 -50 -60 -64 -20 -6 -27 -11 -15 -11 11 0 33 6 50 15 28 14 31 14 47
        -6 27 -33 79 -179 85 -236 l6 -52 -40 -12 c-47 -14 -83 -10 -93 10 -59 128
        -110 200 -141 200 -18 -1 -71 -78 -103 -152 l-26 -58 -46 0 c-25 0 -54 5 -65
        10 -42 23 -16 116 67 237 l56 81 32 -19 c17 -10 38 -19 46 -19 8 0 -5 9 -29
        20 -37 17 -42 23 -37 43 3 12 6 27 6 33 0 6 18 10 43 10 l42 -1 1 48 1 47 -4
        -45 c-4 -41 -6 -45 -31 -45 -15 0 -32 4 -39 8 -12 7 -58 136 -66 182 l-4 25
        -8 -24 c-7 -22 -12 -23 -71 -19 -81 5 -89 13 -67 66 17 39 21 42 56 42 21 0
        54 7 74 15 38 16 90 19 110 7 6 -4 14 -19 18 -34 4 -15 14 -33 23 -40 13 -11
        12 -8 -2 20 -24 46 -15 62 13 24 16 -23 30 -32 49 -31 25 1 24 2 -8 11 -34 11
        -34 11 -10 18 14 5 18 8 9 9 -17 1 -71 55 -89 89 -27 54 -3 160 46 203 17 14
        65 36 86 38 4 1 10 -4 13 -10z m-551 -15 c16 -6 22 -50 8 -70 -14 -21 -48 -25
        -63 -7 -12 15 -12 16 5 10 10 -4 25 -2 32 4 19 16 18 49 -2 49 -8 0 -12 5 -9
        10 7 12 8 12 29 4z m446 -4 c0 -5 -5 -10 -11 -10 -5 0 -7 5 -4 10 3 6 8 10 11
        10 2 0 4 -4 4 -10z m-317 -21 c39 -11 70 -51 51 -68 -5 -5 -44 -7 -87 -4 -74
        5 -77 7 -70 27 3 11 7 29 7 39 0 20 40 23 99 6z m-147 -26 c-10 -10 -19 5 -10
        18 6 11 8 11 12 0 2 -7 1 -15 -2 -18z m-51 -33 c3 -5 -1 -10 -10 -10 -9 0 -13
        5 -10 10 3 6 8 10 10 10 2 0 7 -4 10 -10z m0 -30 c3 -5 1 -10 -4 -10 -6 0 -11
        5 -11 10 0 6 2 10 4 10 3 0 8 -4 11 -10z m95 0 c0 -5 -4 -10 -10 -10 -5 0 -10
        5 -10 10 0 6 5 10 10 10 6 0 10 -4 10 -10z m109 6 c-11 -9 -69 -15 -64 -6 3 6
        20 10 37 10 17 0 29 -2 27 -4z m84 -3 c-7 -2 -19 -2 -25 0 -7 3 -2 5 12 5 14
        0 19 -2 13 -5z m32 -22 c16 -7 14 -9 -17 -15 -24 -4 -48 -2 -70 8 l-33 14 50
        0 c28 1 59 -3 70 -7z m-57 -30 c28 -17 -24 -14 -78 4 l-45 15 53 -4 c28 -3 60
        -10 70 -15z m-90 -13 c61 -11 63 -17 5 -20 -37 -1 -42 -4 -47 -29 -3 -16 -3
        -36 0 -44 5 -11 2 -13 -9 -9 -10 4 -17 21 -19 47 -3 41 -4 42 -45 51 -24 5
        -43 12 -43 17 0 9 77 3 158 -13z m6 -73 c3 -9 -1 -18 -10 -22 -19 -7 -28 2
        -21 22 8 19 23 19 31 0z m46 -2 c0 -5 -4 -14 -9 -22 -11 -17 -32 -5 -24 14 5
        15 33 21 33 8z m-58 -55 c-6 -6 -19 -7 -29 -3 -17 7 -17 8 2 15 24 9 41 2 27
        -12z m68 -8 c0 -21 -41 -70 -59 -70 -5 0 -13 5 -16 10 -3 6 -1 10 5 10 6 0 16
        12 23 28 19 44 47 57 47 22z m-60 -20 c0 -6 -7 -13 -15 -16 -20 -8 -48 3 -40
        16 8 13 55 13 55 0z m750 -341 c0 -32 -3 -40 -15 -36 -8 4 -17 2 -21 -4 -3 -6
        -13 -8 -21 -5 -9 4 -22 1 -30 -5 -19 -17 -27 -5 -13 21 13 24 4 43 -10 20 -7
        -12 -10 -12 -16 3 -10 26 4 35 61 40 28 2 53 4 58 5 4 1 7 -16 7 -39z m-600
        -323 l45 -14 -48 -22 c-48 -21 -108 -24 -114 -5 -2 6 14 21 34 33 21 12 38 22
        38 22 0 0 20 -7 45 -14z m80 -6 c0 -5 -8 -10 -17 -10 -15 0 -16 2 -3 10 19 12
        20 12 20 0z m420 -5 c37 -19 38 -35 3 -36 -51 -2 -76 3 -111 21 l-34 19 43 4
        c24 2 50 4 57 5 7 1 26 -5 42 -13z"/>
        <path d="M1025 1140 c-3 -5 1 -10 9 -10 9 0 16 5 16 10 0 6 -4 10 -9 10 -6 0
        -13 -4 -16 -10z"/>
        <path d="M1150 1111 c0 -5 5 -13 10 -16 6 -3 10 -2 10 4 0 5 -4 13 -10 16 -5
        3 -10 2 -10 -4z"/>
        <path d="M1003 1095 c-8 -22 6 -33 17 -15 13 20 12 30 0 30 -6 0 -13 -7 -17
        -15z"/>
        <path d="M1045 1056 c-29 -24 -30 -25 -11 -43 18 -17 19 -17 12 1 -4 13 1 27
        15 43 29 30 22 29 -16 -1z"/>
        <path d="M1121 1062 c-13 -25 2 -38 19 -16 9 10 10 18 3 25 -8 8 -14 5 -22 -9z"/>
        <path d="M965 989 c-10 -15 5 -31 19 -20 7 6 23 7 37 4 33 -8 21 2 -18 15 -20
        7 -35 7 -38 1z"/>
        <path d="M1080 969 c-14 -4 -18 -8 -10 -9 8 -2 -1 -6 -20 -10 -34 -7 -34 -7
        -5 -8 17 0 43 3 59 7 23 5 26 8 15 17 -8 6 -24 8 -39 3z"/>
        <path d="M1000 934 c0 -9 40 -23 44 -15 3 5 -5 11 -19 13 -14 3 -25 4 -25 2z"/>
        <path d="M1003 715 c0 -27 2 -38 4 -22 2 15 2 37 0 50 -2 12 -4 0 -4 -28z"/>
        <path d="M1018 453 c12 -2 32 -2 45 0 12 2 2 4 -23 4 -25 0 -35 -2 -22 -4z"/>
        <path d="M98 1243 c-8 -10 -23 -31 -33 -48 -18 -30 -18 -30 2 -12 28 25 40 21
        47 -14 5 -28 7 -29 21 -15 13 13 14 19 3 38 -6 13 -13 32 -15 42 -5 28 -8 29
        -25 9z"/>
    </g>
</svg>
