<svg xmlns="http://www.w3.org/2000/svg" width="400" height="400" viewBox="0, 0, 400,400">
    <path d="M120.115 2.546 C 119.698 4.016,119.426 11.849,119.693 14.696 L 119.949 17.435 121.044 17.404 L 122.139 17.373 121.921 12.879 C 121.572 5.661,120.680 0.555,120.115 2.546 M113.827 7.997 C 113.827 8.592,115.803 15.375,116.344 16.638 C 116.965 18.087,117.102 18.197,118.011 17.978 C 119.385 17.649,119.372 17.776,118.307 15.116 C 117.122 12.157,113.827 6.920,113.827 7.997 M104.906 8.406 C 104.906 8.952,109.527 14.568,112.059 17.101 C 114.897 19.938,114.945 19.968,115.808 19.402 C 117.019 18.608,117.049 18.665,113.538 15.113 C 109.688 11.219,104.906 7.504,104.906 8.406 M125.318 10.540 C 124.184 12.450,122.391 16.606,122.391 17.327 C 122.391 17.375,122.881 17.585,123.479 17.794 C 124.842 18.269,125.724 16.564,126.553 11.843 C 127.258 7.834,127.054 7.618,125.318 10.540 M130.062 13.176 C 126.112 16.466,125.029 17.993,125.805 19.178 L 126.426 20.125 128.217 18.180 C 129.816 16.444,133.095 11.797,133.095 11.267 C 133.095 10.788,132.419 11.214,130.062 13.176 M137.362 15.306 C 128.486 18.897,126.491 20.325,127.933 22.056 C 128.151 22.319,134.646 18.798,137.650 16.789 C 142.574 13.495,142.520 13.220,137.362 15.306 M102.052 16.182 C 102.052 17.348,113.434 22.786,114.066 21.922 C 114.765 20.967,114.686 20.810,113.024 19.847 C 110.724 18.514,102.052 15.617,102.052 16.182 M130.644 22.508 C 127.966 22.855,128.114 22.758,128.354 24.009 C 128.607 25.327,132.830 24.949,138.448 23.105 L 139.697 22.695 138.269 22.430 C 136.480 22.097,133.589 22.126,130.644 22.508 M105.806 23.214 C 102.695 23.697,102.689 23.740,105.620 24.418 C 110.710 25.595,113.325 25.605,113.615 24.448 C 113.751 23.908,113.774 23.378,113.666 23.271 C 113.311 22.916,107.977 22.877,105.806 23.214 M121.035 23.622 C 119.875 24.782,120.516 26.236,122.562 27.084 C 130.486 30.369,134.756 36.052,135.787 44.688 C 136.181 47.987,135.804 49.240,134.417 49.250 C 130.698 49.275,129.795 50.561,129.155 56.735 C 128.528 62.781,128.595 62.647,126.077 62.914 C 101.998 65.462,89.976 98.647,105.952 118.466 C 107.284 120.119,108.029 121.346,107.900 121.677 C 107.272 123.283,107.350 124.909,108.134 126.559 C 110.597 131.745,123.507 140.907,133.190 144.341 L 135.960 145.324 135.747 147.684 C 135.630 148.982,135.477 150.234,135.407 150.465 C 134.952 151.955,137.214 173.081,138.486 179.233 C 140.087 186.979,143.459 194.585,152.909 211.775 L 157.421 219.982 158.654 226.227 C 159.332 229.661,160.518 235.761,161.289 239.783 L 162.692 247.095 162.365 255.127 C 162.031 263.347,160.508 273.987,159.351 276.180 C 159.092 276.672,157.080 280.045,154.881 283.675 C 151.044 290.011,142.373 306.771,142.373 307.852 C 142.373 308.219,142.128 308.312,141.549 308.167 C 141.096 308.053,138.005 307.867,134.680 307.753 C 131.356 307.639,128.113 307.466,127.475 307.369 L 126.316 307.193 126.316 297.218 L 126.316 287.244 132.690 287.244 L 139.064 287.244 140.005 286.303 C 140.915 285.393,140.946 285.224,140.946 281.161 L 140.946 276.959 139.848 276.035 L 138.750 275.112 120.552 275.112 L 102.354 275.112 101.311 276.155 C 99.811 277.654,99.694 284.736,101.143 286.299 L 102.018 287.244 108.279 287.244 L 114.541 287.244 114.541 297.228 L 114.541 307.212 113.738 307.375 C 113.296 307.465,110.144 307.635,106.733 307.754 C 98.573 308.038,99.766 307.274,92.257 317.024 C 87.754 322.870,87.862 321.857,90.788 330.754 C 96.430 347.908,96.707 349.002,95.540 349.514 C 95.010 349.746,94.701 350.231,94.632 350.937 C 94.480 352.488,97.027 373.708,97.411 374.093 C 97.605 374.287,100.137 374.145,103.729 373.738 C 116.132 372.334,140.777 373.018,141.566 374.788 C 141.872 375.472,141.576 375.730,138.361 377.587 C 131.397 381.611,125.245 386.772,125.245 388.590 C 125.245 395.689,149.221 392.881,162.805 384.191 L 164.824 382.900 165.606 383.998 C 168.281 387.755,178.544 380.677,177.958 375.478 C 177.788 373.969,177.823 373.903,179.168 373.217 C 179.930 372.828,180.566 372.393,180.581 372.250 C 180.597 372.106,180.637 368.430,180.670 364.080 C 180.704 359.729,180.828 356.074,180.946 355.956 C 181.322 355.580,197.009 355.711,200.714 356.122 C 217.044 357.931,227.865 363.204,232.125 371.429 C 234.349 375.722,236.488 378.324,238.640 379.354 C 240.376 380.184,240.404 380.224,240.617 382.159 C 241.750 392.459,257.691 401.084,267.001 396.435 L 268.566 395.653 272.107 396.428 C 287.094 399.709,310.510 399.863,319.918 396.744 C 328.392 393.934,333.858 387.414,332.286 381.991 C 332.037 381.131,332.185 380.532,333.073 378.807 C 336.795 371.575,332.434 363.219,321.610 356.844 C 314.090 352.415,312.824 351.074,311.089 345.703 C 308.287 337.027,310.142 332.701,318.852 327.604 C 328.035 322.230,329.282 321.105,331.685 316.023 C 338.116 302.425,335.914 291.964,326.774 292.685 C 324.658 292.853,324.468 292.802,323.392 291.787 C 322.527 290.970,321.821 290.669,320.462 290.539 L 318.671 290.367 319.251 289.251 C 321.394 285.123,318.678 280.107,314.299 280.107 L 312.383 280.107 311.530 277.602 C 310.038 273.219,307.269 269.658,303.568 267.362 C 301.883 266.317,301.517 265.916,301.517 265.116 C 301.517 255.773,292.665 230.308,284.795 217.007 C 275.167 200.737,258.276 186.234,240.036 178.576 L 234.756 176.359 236.825 175.201 C 237.963 174.565,239.975 173.330,241.297 172.457 C 242.619 171.585,243.876 170.979,244.090 171.111 C 244.304 171.243,245.456 171.338,246.649 171.321 C 253.625 171.223,259.805 163.608,257.916 157.438 L 257.449 155.910 259.635 153.629 C 267.026 145.917,273.315 132.683,273.325 124.823 C 273.332 118.931,270.125 110.030,266.705 106.451 C 264.795 104.453,264.709 104.266,263.488 99.444 C 262.068 93.839,261.843 93.559,256.558 90.799 C 252.326 88.589,251.960 88.312,250.864 86.504 C 246.467 79.249,242.814 78.499,235.141 83.274 C 232.054 85.195,231.172 85.292,226.650 84.208 C 221.426 82.956,218.172 83.392,214.997 85.769 C 207.790 91.167,200.197 88.941,205.193 82.895 C 207.356 80.277,206.888 79.784,203.073 80.664 C 196.509 82.177,192.283 87.052,192.146 93.272 C 192.083 96.140,192.037 96.286,190.611 98.175 C 187.612 102.148,186.768 105.931,187.807 110.751 L 188.336 113.206 186.700 115.212 C 173.618 131.254,172.424 155.009,183.937 170.161 L 185.937 172.792 184.623 172.017 C 175.401 166.575,168.140 155.380,161.828 136.868 L 160.864 134.040 161.647 132.472 C 162.078 131.609,162.577 129.671,162.757 128.164 C 163.455 122.303,164.135 120.883,168.074 117.061 C 175.013 110.327,174.769 105.374,167.535 106.115 L 165.282 106.346 165.595 105.002 C 169.461 88.398,161.381 72.945,145.145 65.887 L 142.520 64.746 143.145 60.294 C 144.196 52.808,143.941 51.693,140.864 50.316 L 139.478 49.695 139.342 45.989 C 138.963 35.697,133.594 27.740,124.548 24.064 C 122.120 23.078,121.639 23.017,121.035 23.622 M110.065 26.935 C 105.219 28.369,98.519 31.339,99.426 31.651 C 100.381 31.979,112.396 29.124,113.758 28.244 C 114.317 27.884,113.964 26.038,113.342 26.067 C 113.118 26.078,111.644 26.468,110.065 26.935 M111.508 30.652 C 108.337 33.310,104.702 37.024,104.988 37.311 C 105.462 37.784,113.300 32.649,115.044 30.722 C 115.699 29.999,115.700 29.949,115.076 29.260 C 114.220 28.314,114.360 28.259,111.508 30.652 M115.016 32.718 C 113.704 34.770,111.633 39.035,111.152 40.678 C 110.512 42.861,115.589 36.784,117.392 33.209 C 118.155 31.697,118.161 31.608,117.546 31.158 C 116.565 30.440,116.414 30.534,115.016 32.718 M118.495 33.630 C 117.267 39.703,116.264 50.087,116.968 49.420 C 117.722 48.707,121.395 32.715,120.899 32.308 C 119.737 31.355,118.856 31.840,118.495 33.630 M122.291 32.005 C 121.357 32.248,122.260 37.006,123.940 40.688 L 124.830 42.640 124.848 41.035 C 124.883 37.836,123.775 31.702,123.180 31.799 C 123.040 31.822,122.640 31.915,122.291 32.005 M136.390 53.671 C 137.380 54.019,138.638 53.407,138.244 52.770 C 137.914 52.235,139.172 52.419,140.266 53.065 C 141.666 53.892,141.570 54.486,139.964 54.932 C 136.205 55.976,130.834 54.169,132.828 52.531 C 133.700 51.815,135.045 51.869,135.252 52.628 C 135.358 53.019,135.871 53.488,136.390 53.671 M133.631 56.903 C 134.418 57.187,136.378 57.424,138.002 57.433 C 139.621 57.442,140.943 57.569,140.941 57.716 C 140.885 60.764,139.073 69.501,138.379 70.063 C 137.068 71.128,131.887 70.294,130.739 68.833 C 130.342 68.329,131.561 56.371,132.008 56.384 C 132.115 56.387,132.846 56.620,133.631 56.903 M128.161 67.801 C 127.700 72.628,139.035 74.934,141.295 70.473 C 141.594 69.884,141.874 69.339,141.919 69.261 C 142.221 68.740,149.693 72.822,151.650 74.576 C 153.053 75.834,153.095 75.832,149.153 74.718 C 148.073 74.413,146.628 74.097,145.941 74.017 L 144.692 73.870 146.120 74.428 C 146.905 74.735,147.931 75.062,148.400 75.154 C 151.440 75.753,154.303 77.287,155.506 78.963 C 156.892 80.891,156.854 81.273,155.356 80.468 C 154.365 79.935,152.571 79.198,151.829 79.019 C 151.632 78.972,149.805 78.435,147.768 77.825 C 143.191 76.456,143.264 76.454,144.241 77.944 C 144.957 79.037,145.379 79.253,148.080 79.920 C 155.764 81.815,157.878 82.652,158.552 84.064 C 158.894 84.782,159.109 85.434,159.030 85.513 C 158.828 85.716,152.995 83.855,152.453 83.415 C 152.208 83.216,152.007 83.144,152.007 83.256 C 152.007 83.367,151.164 83.171,150.134 82.820 C 147.448 81.904,146.298 81.656,146.298 81.995 C 146.298 82.993,147.665 83.623,153.078 85.115 C 159.421 86.865,159.724 87.023,160.071 88.758 L 160.301 89.907 157.670 89.009 C 155.168 88.155,148.612 86.351,148.009 86.351 C 147.853 86.351,147.725 86.753,147.725 87.244 C 147.725 87.734,147.779 88.136,147.844 88.136 C 148.372 88.136,159.502 90.720,160.125 90.987 C 160.833 91.291,161.405 93.845,160.765 93.845 C 160.676 93.845,158.388 93.294,155.681 92.620 C 148.023 90.716,147.725 90.693,147.725 92.016 C 147.725 93.342,149.057 93.726,159.590 95.443 C 160.829 95.645,160.928 95.750,160.928 96.869 C 160.928 98.066,160.917 98.074,159.768 97.725 C 158.256 97.267,158.000 97.212,152.553 96.163 C 147.644 95.218,146.629 95.110,146.697 95.540 C 146.720 95.687,146.707 95.888,146.668 95.986 C 145.829 98.076,145.992 98.174,151.472 98.880 C 154.896 99.322,155.648 99.383,158.899 99.487 L 160.973 99.554 160.861 100.714 C 160.773 101.628,160.599 101.858,160.036 101.801 C 159.643 101.762,158.278 101.635,157.003 101.520 C 155.727 101.405,152.761 101.077,150.412 100.790 C 144.840 100.109,145.055 100.087,144.206 101.427 L 143.471 102.587 144.438 102.879 C 144.971 103.040,148.738 103.200,152.810 103.236 L 160.214 103.301 160.214 104.115 C 160.214 105.421,159.127 105.436,144.606 104.335 C 141.645 104.111,137.528 106.381,139.544 107.127 C 140.602 107.518,153.721 107.481,156.467 107.079 C 157.645 106.907,158.752 106.900,158.927 107.064 C 159.408 107.516,158.145 109.904,157.432 109.891 C 156.877 109.880,156.880 109.837,157.469 109.390 C 158.024 108.969,156.997 108.876,150.155 108.725 C 145.777 108.628,140.949 108.438,139.427 108.303 C 137.051 108.091,136.446 108.159,135.145 108.783 C 134.312 109.183,132.837 109.719,131.866 109.974 L 130.102 110.437 132.758 110.867 L 135.415 111.296 131.490 111.128 C 129.331 111.036,126.601 110.904,125.424 110.836 L 123.283 110.711 125.424 111.178 C 126.601 111.435,128.836 111.891,130.391 112.191 C 135.006 113.080,134.703 113.594,129.706 113.351 C 125.641 113.153,125.496 113.170,126.842 113.672 C 128.395 114.252,129.513 115.118,128.278 114.785 C 127.132 114.475,122.907 114.084,123.119 114.307 C 123.302 114.500,126.738 115.492,128.278 115.796 C 133.909 116.910,143.681 117.003,149.866 116.001 C 152.111 115.637,152.390 115.738,151.527 116.601 C 150.985 117.143,149.874 117.232,142.270 117.341 C 133.998 117.461,129.693 117.210,122.034 116.162 C 121.097 116.034,121.302 116.176,122.859 116.730 C 125.496 117.670,125.333 117.834,122.387 117.203 C 119.769 116.642,118.613 116.571,119.786 117.043 C 125.173 119.212,141.000 120.214,148.309 118.849 C 150.246 118.487,150.290 118.493,149.923 119.088 C 148.931 120.693,130.264 120.613,120.466 118.961 C 116.307 118.260,115.637 118.821,119.422 119.836 C 127.610 122.033,140.291 122.566,146.823 120.988 C 148.667 120.543,148.746 120.693,147.263 121.824 C 144.869 123.650,130.042 123.858,122.391 122.172 C 120.730 121.806,121.952 122.437,123.879 122.940 C 128.532 124.155,136.671 124.590,141.213 123.866 C 143.545 123.495,143.624 123.841,141.392 124.641 C 139.391 125.358,132.215 125.470,126.264 124.877 C 121.832 124.435,118.106 122.856,113.886 119.631 C 111.592 117.877,110.633 116.867,107.643 113.054 C 106.323 111.371,104.179 106.669,103.667 104.334 C 103.585 103.962,103.344 103.095,103.131 102.409 C 98.982 89.028,108.794 72.138,123.461 67.413 C 127.894 65.985,128.330 66.021,128.161 67.801 M245.517 84.119 C 246.552 85.050,247.925 86.634,248.568 87.639 C 249.766 89.512,253.262 92.372,256.101 93.804 C 259.289 95.410,261.082 98.022,262.745 103.479 C 263.354 105.478,264.151 107.152,265.084 108.389 C 271.856 117.370,270.874 130.792,262.511 143.533 C 260.279 146.933,260.126 146.944,260.121 143.711 C 260.114 139.669,258.489 135.157,255.439 130.712 C 254.079 128.730,254.051 128.786,256.981 127.600 C 261.171 125.903,262.625 124.170,262.615 120.884 C 262.595 114.449,259.511 112.131,251.482 112.515 C 245.561 112.798,245.404 112.731,243.839 109.277 C 239.321 99.305,238.651 98.760,232.709 100.231 C 225.402 102.040,224.279 101.984,222.808 99.739 C 220.085 95.582,216.538 95.810,208.715 100.643 C 204.720 103.110,202.863 103.836,200.543 103.836 C 193.536 103.836,191.872 91.427,198.125 85.806 C 200.322 83.830,200.535 83.826,200.535 85.763 C 200.535 91.519,206.707 93.152,213.684 89.243 C 221.551 84.835,223.511 84.654,227.972 87.929 C 231.074 90.206,231.650 90.070,236.931 85.808 C 241.886 81.810,242.758 81.639,245.517 84.119 M218.766 99.036 C 219.353 99.339,220.702 100.375,221.765 101.337 C 224.209 103.550,225.557 103.922,230.076 103.631 C 235.543 103.278,238.209 104.823,241.486 110.242 C 243.570 113.689,243.946 113.882,249.185 114.194 C 251.634 114.340,253.812 114.567,254.026 114.698 C 254.239 114.830,254.723 114.998,255.102 115.070 C 258.092 115.646,259.972 120.170,258.506 123.261 C 257.786 124.778,256.176 125.933,253.726 126.690 C 251.097 127.503,251.116 127.694,254.234 131.842 C 255.708 133.803,256.913 135.538,256.913 135.698 C 256.913 135.858,257.225 136.672,257.605 137.507 C 258.756 140.033,259.198 143.467,258.708 146.065 C 258.080 149.393,257.758 149.543,257.472 146.641 C 256.834 140.163,253.205 131.706,250.921 131.376 C 249.854 131.221,249.867 131.262,252.062 135.183 C 253.122 137.077,254.105 139.028,254.247 139.518 C 254.388 140.009,254.629 140.571,254.782 140.767 C 255.851 142.132,257.312 149.858,256.713 150.977 L 256.258 151.828 256.054 150.936 C 255.942 150.446,255.783 149.643,255.700 149.153 C 254.824 143.974,250.916 136.581,249.333 137.109 C 248.566 137.365,248.692 137.975,249.802 139.368 C 251.267 141.206,252.806 144.559,254.243 149.043 C 255.473 152.882,255.472 153.078,254.222 153.078 C 252.781 153.078,252.546 153.867,253.414 155.793 C 256.668 163.010,249.559 169.957,241.392 167.542 C 240.872 167.388,240.193 167.774,238.894 168.962 C 234.736 172.763,226.419 177.354,221.133 178.768 C 219.123 179.305,218.799 179.658,219.815 180.202 C 220.638 180.643,224.883 180.612,226.125 180.156 C 227.540 179.637,227.374 180.501,225.718 182.271 C 220.960 187.358,209.749 189.251,202.573 186.180 C 200.172 185.153,199.633 184.111,201.709 184.513 C 203.715 184.901,207.372 184.901,207.986 184.512 C 208.330 184.294,208.007 184.123,206.916 183.945 C 200.917 182.965,191.141 176.232,187.483 170.562 C 186.913 169.679,186.332 168.871,186.192 168.766 C 185.060 167.925,181.358 158.942,180.756 155.575 C 179.874 150.643,179.770 149.163,179.934 143.800 C 180.210 134.718,184.431 121.513,188.031 118.466 C 188.146 118.368,188.546 117.810,188.918 117.226 C 189.290 116.642,189.724 116.000,189.883 115.799 C 195.098 109.161,199.052 105.625,201.209 105.669 C 203.752 105.721,205.767 105.010,208.714 103.019 C 215.331 98.548,216.742 97.989,218.766 99.036 M195.015 102.816 L 196.682 105.008 193.626 108.063 C 191.946 109.744,190.464 111.011,190.333 110.880 C 189.046 109.593,190.340 102.378,192.075 101.163 C 193.170 100.396,193.176 100.399,195.015 102.816 M202.158 108.755 L 198.964 109.670 201.964 110.678 C 206.417 112.174,207.315 111.897,207.315 109.025 C 207.315 107.521,206.592 107.484,202.158 108.755 M170.711 108.845 C 171.601 109.715,169.110 113.077,164.844 116.765 C 162.408 118.871,161.484 120.995,160.720 126.246 C 160.104 130.475,159.181 132.823,157.774 133.738 C 157.262 134.072,155.313 135.675,153.444 137.302 C 144.097 145.435,136.231 145.228,122.962 136.499 C 121.608 135.608,120.427 134.880,120.336 134.880 C 119.877 134.880,114.801 130.930,112.887 129.083 C 110.240 126.530,109.236 124.602,109.851 123.253 L 110.268 122.338 111.601 123.383 C 120.659 130.484,133.626 132.586,143.897 128.619 C 145.887 127.851,145.993 127.941,145.269 129.795 C 144.589 131.537,144.814 133.095,145.746 133.095 C 146.203 133.095,147.725 130.179,147.725 129.304 C 147.725 128.995,147.947 128.237,148.218 127.619 C 148.489 127.000,149.066 125.611,149.501 124.532 C 152.911 116.069,158.418 110.841,166.056 108.816 C 168.510 108.166,170.025 108.175,170.711 108.845 M156.877 111.117 C 155.424 112.306,145.315 113.022,143.800 112.043 C 143.382 111.772,143.475 111.696,144.227 111.691 C 145.990 111.681,154.301 110.910,155.751 110.621 C 157.913 110.191,157.975 110.219,156.877 111.117 M153.065 114.674 C 152.480 115.224,149.153 115.761,149.153 115.305 C 149.153 115.144,150.076 114.850,151.204 114.650 C 152.333 114.451,153.331 114.264,153.422 114.236 C 153.513 114.207,153.352 114.405,153.065 114.674 M232.248 116.478 C 230.245 117.844,230.298 118.169,232.943 120.668 C 234.257 121.910,235.847 123.557,236.475 124.329 C 238.986 127.412,238.022 120.892,235.389 116.985 C 234.370 115.472,233.848 115.388,232.248 116.478 M197.371 118.951 C 194.891 121.590,194.600 127.029,196.939 127.029 C 199.124 127.029,201.756 121.104,200.562 118.873 C 200.003 117.828,198.388 117.868,197.371 118.951 M211.108 125.870 C 207.798 128.945,207.631 129.075,203.382 131.904 C 199.314 134.613,199.408 134.377,200.559 138.924 C 201.404 142.258,201.644 142.587,203.475 142.921 C 205.257 143.246,205.453 142.648,204.496 139.813 C 203.330 136.363,203.324 136.378,207.525 132.302 C 210.791 129.132,214.808 124.380,214.808 123.685 C 214.808 122.923,213.358 123.780,211.108 125.870 M226.765 128.518 C 224.593 130.227,223.583 135.307,225.191 136.434 C 227.665 138.167,230.844 133.065,229.772 129.084 C 229.341 127.485,228.322 127.293,226.765 128.518 M160.050 139.968 C 166.838 160.716,174.331 171.941,184.378 176.413 L 185.883 177.083 184.317 178.825 C 180.218 183.384,179.792 188.900,182.748 199.124 L 183.837 202.887 182.557 205.298 C 180.470 209.233,176.856 224.773,173.565 243.965 C 172.740 248.779,173.025 248.594,169.083 246.868 L 165.687 245.380 163.971 237.142 C 160.762 221.734,159.850 213.691,160.505 206.590 C 160.868 202.665,160.597 199.644,159.686 197.465 C 158.239 194.002,156.535 198.712,156.495 206.283 C 156.471 210.875,156.439 211.088,155.904 210.208 C 142.699 188.487,135.857 164.118,138.551 148.400 L 138.833 146.756 141.406 146.558 C 146.200 146.191,150.279 144.110,154.862 139.693 C 158.777 135.920,158.724 135.917,160.050 139.968 M186.262 142.594 C 183.268 144.688,183.201 145.067,184.834 150.580 L 185.309 152.186 185.676 151.204 C 186.234 149.713,186.989 149.998,189.516 152.656 C 197.555 161.112,203.728 162.547,216.592 158.949 C 216.887 158.867,217.812 158.603,218.648 158.362 C 220.934 157.703,221.850 158.668,221.062 160.902 C 220.385 162.821,220.384 163.069,221.053 163.069 C 221.347 163.069,221.588 162.901,221.588 162.695 C 221.588 162.490,222.310 161.069,223.194 159.538 C 225.368 155.768,225.330 155.483,222.047 151.069 C 218.893 146.828,218.733 146.736,218.733 149.140 C 218.733 151.722,218.602 151.757,209.674 151.573 C 200.991 151.393,200.206 151.209,193.651 147.812 C 188.675 145.234,187.938 144.564,188.248 142.910 C 188.532 141.394,188.081 141.322,186.262 142.594 M247.279 142.901 C 247.279 143.192,247.856 144.332,248.562 145.435 C 249.267 146.538,250.085 148.146,250.379 149.009 C 251.430 152.093,252.246 150.920,251.376 147.578 C 250.544 144.384,247.279 140.657,247.279 142.901 M191.710 148.130 C 200.090 152.336,203.266 153.078,212.888 153.078 C 219.230 153.078,220.517 153.489,220.517 155.515 C 220.517 157.644,207.384 159.300,201.856 157.867 C 195.011 156.093,184.922 148.471,186.857 146.536 C 187.326 146.066,188.113 146.325,191.710 148.130 M245.595 148.314 C 246.349 150.780,247.206 152.542,247.653 152.542 C 248.536 152.542,248.475 150.515,247.551 149.144 C 246.624 147.768,245.250 147.185,245.595 148.314 M193.967 162.087 C 196.158 165.008,201.249 166.204,201.249 163.797 C 201.249 162.682,200.900 162.522,197.324 161.998 C 196.244 161.840,194.894 161.591,194.323 161.445 L 193.286 161.179 193.967 162.087 M192.468 180.617 C 196.697 192.117,217.859 194.348,227.805 184.341 C 229.880 182.253,230.397 181.561,231.481 179.417 L 231.965 178.459 233.794 179.003 C 238.848 180.503,238.793 180.350,235.719 184.419 C 234.286 186.316,231.845 189.714,230.294 191.969 C 225.914 198.342,220.883 203.052,217.954 203.521 C 214.355 204.099,212.619 205.789,211.193 210.104 C 210.630 211.808,210.019 213.524,209.835 213.916 C 209.506 214.619,209.028 216.073,208.897 216.771 C 208.861 216.967,208.500 218.332,208.097 219.804 C 206.121 227.013,205.964 228.542,205.896 241.276 C 205.822 255.196,204.861 253.986,217.128 255.415 C 219.841 255.731,229.622 255.687,237.377 255.325 C 244.068 255.012,243.701 254.853,242.838 257.696 C 241.742 261.310,240.512 269.874,240.492 274.041 C 240.468 279.014,239.859 279.790,235.342 280.609 C 234.849 280.698,234.322 280.846,234.172 280.938 C 232.909 281.709,219.475 283.997,212.489 284.632 C 202.018 285.584,189.826 284.149,175.468 280.276 C 175.125 280.183,174.563 280.043,174.219 279.964 C 171.925 279.438,168.628 278.539,166.726 277.920 C 164.186 277.093,164.344 277.829,165.436 271.917 C 166.763 264.737,167.096 257.034,166.309 251.740 C 165.848 248.641,165.843 248.350,166.251 248.350 C 166.695 248.350,169.392 249.610,170.893 250.520 C 173.930 252.359,174.940 251.084,176.147 243.889 C 176.246 243.301,176.645 241.213,177.034 239.251 C 177.423 237.288,177.826 235.201,177.930 234.612 C 178.143 233.399,180.143 223.571,180.399 222.480 C 180.491 222.087,180.656 221.204,180.765 220.517 C 180.875 219.831,181.119 218.626,181.308 217.841 C 181.497 217.056,181.741 215.939,181.849 215.358 C 182.566 211.524,184.971 205.216,185.944 204.615 C 186.460 204.296,186.311 202.363,185.564 199.666 C 183.689 192.904,183.371 188.315,184.512 184.505 C 185.278 181.951,187.805 179.543,190.542 178.762 C 191.628 178.453,191.696 178.518,192.468 180.617 M252.849 190.029 C 273.097 203.983,291.234 233.614,296.302 261.017 C 296.593 262.587,296.933 264.208,297.060 264.619 C 297.281 265.342,297.144 265.374,292.891 265.591 C 287.678 265.857,281.386 267.095,277.450 268.631 C 274.143 269.921,274.486 270.053,273.831 267.242 C 270.988 255.057,259.415 241.568,247.795 236.896 C 242.961 234.953,240.643 235.443,244.424 237.609 C 245.589 238.276,247.038 239.240,247.643 239.750 L 248.745 240.678 246.449 246.314 C 245.187 249.414,244.084 252.021,243.999 252.106 C 243.913 252.191,240.482 252.422,236.373 252.619 C 232.264 252.816,227.939 253.072,226.762 253.187 C 224.236 253.435,209.496 252.039,208.834 251.489 C 208.264 251.016,208.204 233.931,208.757 229.429 C 209.487 223.480,213.583 209.223,215.017 207.638 C 215.305 207.319,216.585 206.776,217.861 206.431 C 223.037 205.030,226.639 201.696,233.715 191.760 C 236.352 188.057,239.050 184.429,239.709 183.699 L 240.909 182.370 244.616 184.640 C 246.654 185.888,250.359 188.313,252.849 190.029 M258.633 249.862 C 264.345 256.401,267.856 261.899,269.555 266.967 C 271.060 271.459,271.092 271.381,266.555 274.345 C 262.133 277.234,260.125 278.878,260.125 279.609 C 260.125 280.003,259.351 280.107,256.406 280.107 C 252.959 280.107,252.609 280.172,251.626 280.999 C 246.906 284.971,243.727 278.672,245.147 268.159 C 245.780 263.476,250.650 245.518,251.804 243.611 C 252.093 243.135,255.400 246.162,258.633 249.862 M300.038 269.088 C 307.027 271.413,311.484 281.126,309.700 290.139 C 309.490 291.196,309.246 292.462,309.156 292.953 C 308.285 297.724,305.442 303.651,302.672 306.472 C 300.294 308.892,300.120 308.705,301.677 305.405 C 303.834 300.834,304.151 295.807,302.281 295.807 C 301.381 295.807,301.061 296.296,300.297 298.840 C 299.943 300.018,299.350 301.655,298.979 302.478 C 298.609 303.302,298.305 304.104,298.305 304.262 C 298.305 306.566,292.376 312.533,289.158 313.469 C 286.510 314.239,286.235 313.819,287.982 311.673 C 288.775 310.699,289.629 309.650,289.881 309.342 C 292.876 305.671,294.985 297.770,292.970 297.770 C 292.320 297.770,291.944 298.091,291.508 299.019 C 291.185 299.706,290.318 301.552,289.583 303.122 C 284.845 313.233,278.474 317.353,272.308 314.293 C 270.166 313.229,270.215 312.934,272.826 311.191 C 279.724 306.584,283.909 298.633,282.648 292.528 C 281.007 284.582,276.047 280.097,268.243 279.502 C 264.768 279.237,264.768 279.235,268.961 276.417 C 275.247 272.192,281.718 269.712,288.671 268.862 C 289.750 268.730,290.681 268.576,290.739 268.519 C 291.286 267.992,297.973 268.401,300.038 269.088 M137.021 280.642 L 137.021 282.248 120.607 282.248 L 104.193 282.248 104.193 280.642 L 104.193 279.037 120.607 279.037 L 137.021 279.037 137.021 280.642 M169.492 282.216 C 199.340 288.680,215.532 288.699,237.077 282.293 C 240.794 281.188,241.555 281.349,239.761 282.859 C 237.737 284.562,236.941 288.562,238.161 290.901 L 238.673 291.882 236.994 291.882 C 233.465 291.882,231.239 294.266,231.228 298.055 C 231.219 301.156,233.203 304.014,235.364 304.014 L 236.239 304.014 235.448 305.084 C 233.694 307.457,234.187 311.661,236.452 313.650 L 237.670 314.719 246.152 314.719 L 254.633 314.719 256.460 319.625 C 261.318 332.676,267.043 359.712,267.367 371.130 L 267.440 373.705 265.729 374.567 C 261.740 376.576,257.772 377.237,249.372 377.291 C 239.988 377.352,241.179 378.137,237.103 369.209 C 228.043 349.362,221.115 336.421,209.653 317.930 C 201.682 305.072,198.320 300.100,197.591 300.094 C 196.814 300.088,196.701 299.595,198.560 304.339 C 200.339 308.878,200.370 308.637,197.708 311.022 C 189.454 318.416,181.334 329.482,179.152 336.307 C 176.831 343.571,174.861 358.545,174.847 369.033 L 174.844 371.786 170.830 373.058 C 161.469 376.024,151.691 376.868,147.288 375.089 L 145.244 374.264 144.320 371.342 C 140.218 358.385,139.858 328.747,143.662 317.217 C 145.166 312.656,150.247 302.865,156.794 291.911 C 160.245 286.137,163.069 281.277,163.069 281.110 C 163.069 280.943,163.430 280.889,163.872 280.990 C 164.313 281.091,166.842 281.643,169.492 282.216 M256.115 282.326 C 256.365 282.533,256.795 283.203,257.070 283.814 C 258.848 287.760,257.450 290.620,253.858 290.387 C 251.828 290.254,250.867 289.225,250.648 286.945 C 250.443 284.814,252.059 281.495,253.016 282.086 C 253.170 282.182,253.405 282.083,253.538 281.868 C 253.805 281.436,255.381 281.716,256.115 282.326 M266.878 283.305 C 268.947 284.360,270.473 286.044,270.473 287.271 L 270.473 288.314 264.902 288.314 L 259.332 288.314 259.566 287.064 C 259.732 286.182,259.592 285.343,259.091 284.210 L 258.381 282.605 261.943 282.605 C 264.778 282.605,265.786 282.748,266.878 283.305 M316.731 283.917 C 317.102 284.804,317.204 285.727,317.048 286.771 L 316.816 288.314 314.786 288.314 L 312.756 288.313 312.756 285.459 L 312.756 282.605 314.470 282.605 C 316.106 282.605,316.207 282.664,316.731 283.917 M244.501 284.662 C 245.034 285.161,245.386 285.705,245.283 285.871 C 245.180 286.037,245.241 286.173,245.417 286.173 C 246.144 286.173,245.874 289.603,245.054 290.805 C 243.939 292.436,240.778 292.570,239.631 291.033 C 238.878 290.025,238.506 286.702,239.104 286.332 C 239.289 286.217,239.348 285.974,239.235 285.792 C 239.123 285.609,239.200 285.459,239.408 285.459 C 239.616 285.459,239.786 285.211,239.786 284.907 C 239.786 283.318,242.893 283.157,244.501 284.662 M249.599 286.084 C 249.599 287.212,249.730 288.497,249.890 288.938 C 250.158 289.676,250.078 289.741,248.909 289.741 L 247.636 289.741 247.635 288.046 C 247.634 286.987,247.368 285.917,246.926 285.192 L 246.219 284.032 247.909 284.032 L 249.599 284.032 249.599 286.084 M121.235 300.535 L 121.329 314.005 119.897 314.005 L 118.466 314.005 118.466 300.684 C 118.466 286.450,118.425 286.799,120.059 286.959 L 121.142 287.065 121.235 300.535 M250.490 293.542 C 253.552 297.030,249.489 303.316,246.029 300.445 C 244.811 299.434,243.932 295.440,244.808 294.899 C 244.996 294.782,245.058 294.538,244.945 294.355 C 244.832 294.173,244.909 294.023,245.117 294.023 C 245.325 294.023,245.495 293.809,245.495 293.548 C 245.495 293.099,246.459 292.467,247.636 292.145 C 248.573 291.889,249.389 292.288,250.490 293.542 M261.554 294.112 C 264.139 298.363,259.983 304.082,256.559 300.984 C 255.211 299.763,254.637 295.167,255.741 294.425 C 255.924 294.302,256.175 293.927,256.298 293.592 C 256.907 291.939,260.446 292.289,261.554 294.112 M254.358 294.250 C 253.831 295.440,253.688 296.290,253.847 297.283 C 254.011 298.309,253.945 298.662,253.588 298.662 C 253.224 298.662,253.148 298.182,253.273 296.672 C 253.410 295.027,253.304 294.500,252.667 293.638 L 251.897 292.596 253.493 292.596 L 255.089 292.596 254.358 294.250 M274.718 294.214 C 275.667 295.296,275.825 295.753,275.825 297.425 L 275.825 299.376 269.954 299.376 L 264.084 299.376 264.132 297.324 C 264.164 295.996,263.966 294.863,263.571 294.112 L 262.961 292.953 268.286 292.953 L 273.610 292.953 274.718 294.214 M322.165 294.816 C 322.592 296.190,322.609 296.766,322.257 297.938 L 321.827 299.376 316.132 299.376 C 312.137 299.376,310.437 299.255,310.437 298.972 C 310.437 298.751,310.785 297.301,311.209 295.751 L 311.982 292.933 316.812 293.032 L 321.643 293.131 322.165 294.816 M238.439 294.988 C 238.778 295.295,238.976 295.674,238.880 295.830 C 238.783 295.987,238.835 296.196,238.995 296.295 C 239.470 296.588,239.500 299.414,239.040 300.524 C 238.173 302.616,235.192 303.086,233.502 301.396 C 232.980 300.874,232.674 300.446,232.823 300.446 C 232.972 300.446,232.943 300.245,232.760 300.000 C 230.248 296.647,235.323 292.168,238.439 294.988 M243.092 295.927 C 242.977 296.950,243.113 297.850,243.493 298.585 C 244.329 300.202,244.223 300.446,242.682 300.446 L 241.296 300.446 241.150 298.147 C 241.049 296.562,240.797 295.620,240.339 295.114 C 239.678 294.383,239.681 294.380,241.471 294.380 L 243.266 294.380 243.092 295.927 M329.904 297.393 C 332.489 299.087,331.646 306.491,327.997 314.129 C 325.988 318.335,324.734 319.620,319.939 322.391 C 308.381 329.068,306.047 331.912,306.030 339.340 C 306.007 349.447,309.768 355.042,320.570 360.970 C 327.095 364.550,330.999 370.462,330.178 375.520 C 329.931 377.040,329.735 377.086,328.376 375.942 C 319.984 368.880,294.798 367.299,272.346 372.424 C 271.573 372.601,271.543 372.515,271.543 370.147 C 271.543 360.904,265.950 331.352,261.747 318.392 L 260.556 314.719 263.912 314.719 C 267.060 314.719,267.357 314.784,268.718 315.769 C 271.812 318.011,276.633 318.781,279.950 317.564 C 281.598 316.959,282.943 316.774,285.995 316.734 C 289.495 316.687,290.136 316.575,291.918 315.700 C 293.708 314.821,294.302 314.719,297.627 314.718 C 300.706 314.717,301.537 314.595,302.506 314.004 C 303.510 313.392,304.306 313.292,308.162 313.292 C 313.526 313.292,314.722 312.882,315.864 310.656 C 316.782 308.865,316.873 305.722,316.055 304.081 L 315.487 302.944 318.897 302.944 L 322.306 302.944 323.472 301.708 C 324.176 300.962,324.818 299.766,325.094 298.689 C 325.355 297.674,325.793 296.834,326.112 296.739 C 327.032 296.466,329.009 296.807,329.904 297.393 M253.524 304.014 C 254.088 304.603,254.399 305.087,254.215 305.090 C 254.031 305.093,254.066 305.214,254.292 305.358 C 254.698 305.617,254.931 307.011,254.826 308.551 C 254.603 311.835,248.556 312.606,247.947 309.428 C 247.706 308.173,247.764 305.869,248.051 305.334 C 249.479 302.665,251.715 302.126,253.524 304.014 M275.047 304.664 C 275.389 308.228,272.552 309.367,263.324 309.367 L 256.152 309.367 256.406 308.565 C 256.828 307.235,256.643 305.826,255.875 304.524 L 255.147 303.289 265.040 303.384 L 274.933 303.479 275.047 304.664 M313.268 303.970 C 313.798 304.960,314.124 307.419,313.863 308.458 L 313.635 309.367 308.794 309.367 L 303.954 309.367 305.448 307.672 C 306.270 306.740,307.250 305.375,307.626 304.639 C 308.450 303.028,312.506 302.547,313.268 303.970 M240.853 305.083 C 242.196 305.802,243.315 310.335,242.303 310.961 C 242.090 311.092,241.999 311.335,242.100 311.500 C 243.030 313.003,238.381 314.052,236.856 312.683 C 233.476 309.651,236.971 303.005,240.853 305.083 M246.331 306.785 C 246.196 307.924,246.313 308.925,246.686 309.818 L 247.243 311.151 245.875 311.151 L 244.508 311.151 244.361 308.852 C 244.260 307.267,244.009 306.324,243.551 305.819 C 242.889 305.087,242.893 305.085,244.709 305.085 L 246.532 305.085 246.331 306.785 M114.897 313.243 C 114.897 317.106,115.520 317.701,119.750 317.878 C 125.152 318.104,126.115 317.365,125.990 313.088 L 125.910 310.365 131.019 310.585 C 133.829 310.705,136.703 310.797,137.406 310.788 C 138.109 310.779,139.072 310.927,139.547 311.117 C 140.181 311.371,139.227 311.478,135.950 311.521 C 131.970 311.572,128.329 312.028,130.419 312.213 C 139.976 313.057,140.603 313.189,140.198 314.273 C 139.909 315.048,139.739 315.076,135.367 315.076 C 130.511 315.076,129.724 315.283,133.464 315.578 C 139.908 316.085,139.686 316.016,139.180 317.346 C 138.836 318.251,138.715 318.287,136.078 318.287 C 131.946 318.287,133.107 318.663,138.169 318.964 C 138.564 318.988,138.708 319.193,138.575 319.542 C 138.402 319.993,137.882 320.043,135.464 319.842 C 131.679 319.527,109.790 319.528,106.334 319.843 C 101.381 320.295,100.097 320.419,98.305 320.623 C 93.720 321.143,93.510 321.142,93.716 320.605 C 93.825 320.322,94.420 320.008,95.039 319.907 C 96.419 319.682,101.317 319.085,102.052 319.053 C 103.882 318.973,107.212 318.598,107.354 318.456 C 107.510 318.301,98.987 318.147,96.521 318.261 L 95.450 318.310 96.456 317.403 C 97.026 316.889,97.877 316.503,98.419 316.512 C 99.675 316.534,102.221 316.253,103.022 316.004 C 103.372 315.896,104.934 315.717,106.495 315.607 C 108.055 315.498,109.407 315.333,109.498 315.242 C 109.665 315.075,101.021 314.907,99.019 315.038 L 97.948 315.108 99.169 314.011 C 100.075 313.196,100.718 312.920,101.667 312.941 C 102.369 312.956,103.747 312.880,104.728 312.771 C 105.709 312.662,107.547 312.490,108.811 312.388 C 113.559 312.004,111.818 311.770,104.550 311.814 C 101.253 311.833,100.883 311.776,101.470 311.334 C 101.874 311.029,102.974 310.836,104.266 310.842 C 105.437 310.847,106.475 310.771,106.574 310.672 C 106.673 310.574,108.586 310.486,110.826 310.478 L 114.897 310.463 114.897 313.243 M223.018 351.293 C 227.601 360.604,227.542 360.366,224.914 358.826 C 216.332 353.796,202.948 351.175,187.686 351.535 L 181.335 351.685 181.515 350.419 C 183.473 336.613,185.868 331.991,197.238 320.071 L 202.855 314.184 211.179 329.170 C 215.758 337.413,221.085 347.368,223.018 351.293 M136.200 322.790 C 137.574 322.997,137.686 323.093,137.552 323.952 C 137.471 324.467,137.311 325.636,137.196 326.549 L 136.987 328.209 133.614 328.029 L 130.241 327.850 130.241 328.980 C 130.241 329.601,130.081 330.408,129.885 330.774 C 129.244 331.971,129.813 332.560,131.617 332.566 C 133.989 332.574,134.282 332.857,134.050 334.925 C 133.749 337.609,133.508 340.806,133.495 342.293 C 133.488 343.035,133.362 343.835,133.216 344.072 C 133.069 344.310,132.993 345.012,133.047 345.632 C 133.100 346.253,132.950 346.881,132.714 347.027 C 132.082 347.417,134.083 348.149,135.296 347.971 L 136.291 347.825 136.404 341.531 C 136.466 338.069,136.488 339.572,136.453 344.871 C 136.410 351.500,136.223 355.506,135.855 357.716 C 135.560 359.483,135.208 362.012,135.071 363.336 C 134.805 365.920,134.602 366.091,132.471 365.520 C 131.682 365.309,131.668 365.202,131.632 359.548 C 131.590 353.033,131.259 353.437,130.544 360.873 L 130.103 365.457 128.669 365.228 C 126.748 364.921,126.871 365.298,126.724 359.274 C 126.653 356.335,126.524 353.999,126.439 354.084 C 126.183 354.340,124.888 362.174,124.888 363.469 C 124.888 364.566,124.794 364.674,123.834 364.674 C 122.634 364.674,122.705 364.909,122.000 358.608 C 121.547 354.553,121.048 352.586,120.960 354.505 C 120.932 355.094,120.722 357.583,120.491 360.036 L 120.071 364.496 119.001 364.496 L 117.930 364.496 117.151 359.322 C 116.723 356.476,116.361 354.001,116.348 353.821 C 116.249 352.452,115.944 354.670,115.589 359.331 C 115.341 362.596,115.004 364.960,114.766 365.115 C 114.048 365.581,113.266 365.404,113.216 364.764 C 113.137 363.757,111.341 354.219,111.204 354.082 C 111.136 354.014,110.968 356.088,110.831 358.692 C 110.513 364.737,110.438 365.031,109.207 365.031 C 108.236 365.031,108.229 365.012,107.402 360.303 C 106.268 353.850,106.165 353.725,106.091 358.719 C 105.966 367.146,104.912 368.043,103.166 361.208 C 101.356 354.119,97.997 342.136,95.206 332.811 C 92.332 323.208,92.276 323.749,96.164 323.490 C 97.734 323.386,100.223 323.201,101.695 323.079 C 109.840 322.404,113.958 322.280,123.818 322.416 C 129.804 322.498,135.376 322.667,136.200 322.790 M108.457 327.993 C 107.976 328.133,105.628 328.438,103.240 328.670 C 98.988 329.084,97.488 329.762,98.898 330.633 C 99.089 330.752,99.202 331.356,99.148 331.977 C 99.005 333.637,99.351 333.996,100.716 333.604 C 102.763 333.017,103.947 333.167,103.733 333.987 C 103.630 334.379,103.702 334.797,103.893 334.915 C 104.083 335.032,104.206 335.554,104.165 336.075 C 104.124 336.595,104.179 337.261,104.288 337.556 C 104.626 338.468,105.667 346.112,105.492 346.395 C 105.401 346.542,105.513 346.916,105.741 347.226 C 106.229 347.889,108.044 348.312,108.341 347.831 C 108.454 347.648,108.748 347.575,108.993 347.670 C 109.306 347.790,109.387 347.557,109.262 346.891 C 109.095 346.000,108.950 344.406,108.606 339.697 C 108.527 338.617,108.303 336.701,108.108 335.438 C 107.688 332.723,107.813 332.574,110.505 332.566 C 112.283 332.560,113.169 332.144,112.405 331.672 C 112.206 331.548,112.043 330.671,112.043 329.722 L 112.043 327.996 110.688 327.867 C 109.942 327.796,108.939 327.853,108.457 327.993 M114.484 330.865 C 114.453 332.681,114.465 334.407,114.509 334.701 C 114.608 335.353,115.005 343.533,115.046 345.763 L 115.076 347.368 116.860 347.368 L 118.644 347.368 118.534 343.800 C 118.474 341.838,118.475 339.269,118.538 338.091 L 118.652 335.950 119.610 337.888 C 120.137 338.954,120.487 339.958,120.388 340.118 C 120.289 340.279,120.358 340.410,120.542 340.410 C 120.909 340.410,121.796 342.332,121.796 343.126 C 121.796 343.398,121.917 343.622,122.064 343.622 C 122.326 343.622,123.688 346.837,123.576 347.190 C 123.545 347.288,124.289 347.314,125.229 347.248 L 126.937 347.127 127.185 345.285 C 127.321 344.272,127.421 341.356,127.407 338.805 C 127.394 336.253,127.510 333.604,127.666 332.917 C 127.821 332.230,127.888 330.745,127.813 329.616 L 127.677 327.565 125.967 327.565 L 124.257 327.565 123.985 329.616 C 123.836 330.745,123.750 333.153,123.795 334.969 C 123.840 336.784,123.786 338.269,123.676 338.269 C 123.397 338.269,122.129 335.731,121.979 334.872 C 121.911 334.484,121.755 334.086,121.632 333.988 C 121.508 333.889,120.726 332.404,119.892 330.687 L 118.377 327.565 116.459 327.565 L 114.541 327.565 114.484 330.865 M136.919 333.541 C 136.838 334.081,136.771 333.640,136.771 332.560 C 136.771 331.481,136.838 331.039,136.919 331.579 C 137.001 332.119,137.001 333.002,136.919 333.541 M99.144 357.181 C 99.740 359.242,100.311 361.329,100.413 361.820 C 100.794 363.671,101.971 367.823,102.235 368.250 C 102.437 368.578,103.228 368.633,105.225 368.461 C 116.410 367.492,123.914 367.462,134.750 368.345 L 139.438 368.727 139.815 369.956 L 140.192 371.185 138.160 370.968 C 135.506 370.684,125.849 370.036,122.212 369.898 C 118.960 369.774,106.333 370.533,102.587 371.077 C 101.213 371.277,99.987 371.443,99.862 371.447 C 99.560 371.456,99.307 369.573,98.668 362.533 C 98.374 359.295,98.034 355.843,97.911 354.862 C 97.595 352.318,97.904 352.900,99.144 357.181 M137.951 364.050 C 138.191 366.091,138.188 366.102,137.250 366.102 C 136.162 366.102,136.099 365.443,136.555 358.787 L 136.800 355.219 137.254 358.608 C 137.505 360.473,137.818 362.921,137.951 364.050 M289.810 374.502 C 282.478 376.999,279.247 379.899,279.903 383.395 C 280.675 387.513,283.688 388.159,299.288 387.553 C 317.641 386.840,319.396 386.827,317.746 387.413 C 308.871 390.566,285.412 390.336,274.176 386.985 L 272.349 386.440 272.187 383.643 C 272.061 381.471,271.810 380.461,271.065 379.128 C 270.537 378.184,270.151 377.366,270.208 377.309 C 271.270 376.248,284.772 373.795,290.277 373.664 L 292.417 373.613 289.810 374.502 M174.487 376.251 C 174.487 378.475,173.516 379.439,170.205 380.501 L 167.529 381.359 166.308 380.386 L 165.087 379.412 161.134 381.287 C 150.662 386.253,145.189 387.642,135.982 387.671 C 129.432 387.692,129.025 387.529,131.004 385.681 C 133.182 383.646,142.798 378.179,143.800 378.406 C 150.553 379.933,168.523 377.869,173.412 375.004 C 174.345 374.457,174.487 374.622,174.487 376.251 M318.377 376.088 C 320.475 376.509,323.868 378.631,324.436 379.879 C 325.427 382.053,321.860 382.821,308.831 383.238 C 283.766 384.041,281.233 383.785,285.517 380.884 C 291.359 376.926,309.412 374.292,318.377 376.088 M268.046 380.222 C 271.145 385.917,268.531 390.805,261.665 392.156 C 255.825 393.305,245.059 388.175,244.053 383.764 C 243.364 380.742,243.082 380.914,248.796 380.875 C 255.829 380.826,262.869 379.561,265.477 377.877 C 266.325 377.330,266.617 377.596,268.046 380.222 M327.797 386.337 C 324.772 392.187,315.592 395.081,300.204 395.036 C 288.512 395.002,273.779 393.552,271.319 392.194 C 270.624 391.810,271.429 390.244,272.170 390.540 C 273.248 390.970,280.500 392.425,284.032 392.920 C 289.424 393.675,308.601 393.574,312.935 392.768 C 320.214 391.413,325.310 389.105,327.242 386.286 C 328.235 384.836,328.557 384.866,327.797 386.337 "
           fill-rule="evenodd">
    </path>
</svg>