<?xml version="1.0" standalone="no"?>
<svg version="1.0" xmlns="http://www.w3.org/2000/svg"
 width="170.000000pt" height="170.000000pt" viewBox="0 0 170.000000 170.000000"
 preserveAspectRatio="xMidYMid meet">

    <g transform="translate(0.000000,170.000000) scale(0.100000,-0.100000)">
        <path d="M1130 1600 c-8 -5 -32 -10 -53 -10 -21 0 -47 -5 -58 -11 -16 -8 -25
        -7 -39 6 -20 18 -48 14 -54 -7 -2 -7 -9 -29 -16 -48 -7 -19 -14 -46 -15 -60
        -1 -14 -12 -41 -24 -61 -36 -60 -38 -143 -7 -219 5 -12 -4 -15 -53 -15 -56 0
        -63 -3 -99 -38 -43 -42 -62 -91 -62 -159 0 -47 -19 -76 -41 -63 -6 4 -29 2
        -50 -5 -30 -10 -42 -11 -51 -2 -7 7 -20 12 -30 12 -10 0 -18 7 -18 15 0 8 6
        15 13 15 34 0 48 40 50 148 1 42 -8 50 -76 64 -51 11 -60 10 -100 -10 -38 -19
        -46 -29 -57 -68 -7 -26 -23 -56 -34 -68 -27 -27 -63 -163 -48 -178 7 -7 6 -25
        -5 -60 -18 -62 -13 -68 75 -92 74 -20 83 -16 101 46 7 24 22 49 32 56 10 7 19
        19 19 25 1 29 16 37 48 26 18 -6 32 -16 32 -23 0 -7 12 -24 28 -39 26 -25 31
        -26 122 -23 52 1 100 1 107 -1 18 -7 4 -72 -25 -117 -14 -22 -38 -67 -54 -100
        -28 -59 -29 -64 -26 -197 l3 -136 -29 -25 c-21 -17 -27 -30 -23 -43 6 -15 15
        -17 59 -11 28 4 67 14 86 22 19 8 44 14 56 14 35 0 46 20 46 85 0 84 21 155
        59 204 18 22 37 41 41 41 11 0 97 -152 138 -243 17 -37 35 -67 41 -67 5 0 11
        -10 13 -22 4 -31 65 -63 101 -54 51 12 58 38 41 151 -20 134 -38 202 -79 297
        -27 64 -31 78 -17 74 9 -3 28 -8 43 -11 16 -4 29 -17 36 -36 11 -29 30 -36 88
        -31 11 1 47 3 80 4 57 3 60 4 60 28 0 16 -8 28 -20 34 -17 7 -26 31 -43 110
        -28 123 -66 208 -132 291 -47 59 -131 125 -159 125 -23 0 -5 25 20 28 33 5 59
        30 59 58 0 12 11 36 25 52 30 35 55 92 55 123 0 40 -51 133 -94 171 -43 39
        -61 44 -86 28z m62 -39 c9 -10 23 -23 31 -27 21 -13 57 -97 57 -134 0 -18 -7
        -48 -17 -67 l-16 -35 -13 39 c-11 32 -11 39 1 46 39 22 0 86 -44 72 -14 -4
        -22 2 -31 25 -13 31 -18 34 -59 30 -13 -1 -34 4 -47 11 -19 10 -27 9 -48 -5
        -40 -26 -66 -21 -66 12 0 38 8 44 36 25 22 -14 26 -14 50 2 17 11 37 15 58 11
        17 -3 38 -1 46 4 23 15 44 12 62 -9z m-92 -71 c16 0 35 -10 48 -25 13 -14 33
        -25 47 -25 35 0 43 -26 16 -52 -12 -11 -20 -26 -17 -34 3 -8 1 -14 -5 -14 -6
        0 -5 -8 2 -21 6 -12 7 -19 1 -15 -5 3 -13 -1 -16 -10 -9 -24 -6 -42 4 -19 6
        13 9 15 9 5 1 -13 3 -13 10 -1 6 9 9 1 9 -25 0 -44 -12 -64 -40 -64 -26 0
        -129 -60 -103 -60 20 -1 20 -1 1 -15 -11 -8 -38 -15 -60 -15 -30 0 -37 3 -26
        10 13 8 13 10 -1 10 -40 0 -109 89 -109 140 l0 21 23 -22 c36 -35 79 -49 120
        -39 31 7 37 5 37 -9 1 -14 3 -13 15 3 18 24 18 26 -1 51 -12 16 -17 17 -23 7
        -11 -19 -94 -6 -126 20 -14 11 -29 16 -35 13 -6 -4 -10 5 -10 21 0 32 49 126
        62 118 6 -4 5 -11 -1 -17 -13 -13 -15 -47 -3 -47 4 0 15 9 24 20 16 18 16 20
        -1 42 l-19 22 52 26 c44 23 54 25 71 13 11 -7 31 -13 45 -13z m-85 -240 c30 0
        36 -3 25 -10 -34 -22 -108 -4 -140 34 -10 13 -4 12 31 -4 24 -11 62 -20 84
        -20z m-171 -96 c8 -3 12 -12 10 -19 -3 -7 4 -20 16 -28 l21 -15 -19 -64 c-11
        -35 -26 -98 -33 -141 -7 -42 -15 -77 -18 -77 -25 1 -51 84 -51 163 0 37 -1 40
        -16 26 -14 -15 -14 -22 0 -76 23 -87 21 -106 -6 -98 -13 4 -34 20 -48 36 -14
        16 -32 29 -40 29 -12 0 -11 3 2 17 15 14 21 15 44 4 15 -6 29 -9 32 -7 9 9
        -20 36 -38 36 -10 0 -21 8 -24 17 -10 25 13 119 36 149 32 40 93 63 132 48z
        m-398 -15 c24 -6 44 -15 44 -19 0 -15 -29 -19 -67 -8 -50 14 -58 19 -42 29 17
        11 12 11 65 -2z m480 -26 c19 -25 29 -28 77 -28 44 0 60 5 79 23 14 12 30 22
        37 22 23 0 -6 -27 -54 -50 -38 -19 -44 -26 -58 -78 -9 -31 -19 -93 -23 -138
        -6 -79 -6 -81 17 -87 13 -4 54 -7 91 -7 l66 0 -7 -27 c-5 -16 -12 -28 -17 -27
        -21 2 -280 78 -287 84 -9 8 25 184 48 250 15 43 15 45 -6 61 -17 13 -19 18 -8
        22 22 9 22 9 45 -20z m346 -93 c58 -65 126 -196 134 -261 6 -42 4 -47 -17 -52
        -49 -14 -77 -8 -83 16 -9 36 -63 105 -99 127 -38 24 -54 26 -37 5 10 -12 10
        -21 2 -40 -11 -24 -16 -25 -93 -25 l-82 0 6 83 c11 133 23 162 87 206 l55 38
        39 -21 c21 -12 61 -46 88 -76z m-878 78 c22 -6 44 -14 49 -18 4 -3 1 -28 -7
        -54 -11 -35 -12 -53 -4 -65 14 -23 -27 -161 -47 -161 -8 0 -15 -5 -15 -12 0
        -6 -2 -9 -5 -6 -3 3 8 54 25 114 16 60 30 114 30 120 0 6 -25 17 -55 24 -30 7
        -55 16 -55 19 1 25 15 51 28 51 8 0 33 -5 56 -12z m102 -40 c-6 -29 -25 -53
        -34 -43 -2 2 1 20 8 39 15 45 35 48 26 4z m-127 -37 c13 -8 11 -25 -14 -113
        -35 -130 -33 -127 -71 -116 -49 13 -60 51 -40 136 12 45 24 72 37 81 18 11 20
        10 16 -6 -30 -103 -48 -176 -44 -179 2 -2 17 43 33 101 24 89 31 105 49 105
        11 0 26 -4 34 -9z m131 -26 c0 -2 -10 -10 -22 -16 -21 -11 -22 -11 -9 4 13 16
        31 23 31 12z m-5 -107 c36 -16 31 -32 -7 -24 -37 7 -42 11 -33 25 8 14 8 14
        40 -1z m87 -10 c-16 -21 -24 -58 -13 -58 6 0 11 8 11 18 0 20 36 59 46 49 3
        -3 1 -14 -5 -25 -6 -12 -11 -27 -11 -34 1 -7 8 -1 16 15 9 17 23 27 37 27 20
        -1 21 -1 4 -11 -15 -9 -18 -18 -12 -46 l6 -36 -35 6 c-19 3 -36 1 -38 -4 -5
        -15 -44 23 -51 49 -4 16 1 30 14 43 21 21 48 27 31 7z m319 -107 c113 -34 237
        -72 275 -87 61 -23 84 -29 132 -33 13 -1 17 -31 5 -31 -5 0 -150 42 -323 94
        -236 70 -316 97 -318 109 -2 11 2 15 10 12 7 -2 106 -31 219 -64z m357 -11
        c26 -44 30 -57 20 -67 -11 -10 -22 -10 -58 1 -41 12 -45 17 -43 42 3 40 24 85
        37 81 6 -2 26 -28 44 -57z m-906 2 c6 8 6 -1 2 -22 -3 -19 -8 -37 -10 -39 -6
        -6 -114 21 -120 30 -2 5 -2 19 1 32 l6 24 57 -19 c44 -14 58 -16 64 -6z m606
        -58 c72 -21 132 -42 132 -46 0 -3 -34 -9 -74 -13 -55 -5 -95 -3 -151 10 -71
        15 -76 19 -71 38 3 12 6 30 6 40 0 11 5 17 13 14 6 -2 72 -22 145 -43z m472
        -52 c0 -42 -5 -52 -40 -71 -17 -10 -25 -10 -28 -2 -3 8 -9 8 -23 0 -19 -10
        -39 -5 -39 10 0 5 9 11 20 14 12 3 20 14 20 27 0 13 -8 24 -20 27 -33 9 -23
        23 18 24 20 0 46 4 57 8 28 12 35 5 35 -37z m-519 -23 c63 -10 89 -9 154 4 62
        13 81 14 87 4 30 -49 91 -231 105 -316 20 -118 19 -121 -59 -121 l-48 0 -46
        93 c-50 101 -140 253 -154 262 -4 3 -6 -4 -3 -15 4 -14 -8 -35 -40 -70 -46
        -51 -59 -85 -72 -197 -7 -55 -9 -56 -75 -68 -62 -11 -74 7 -78 124 -5 116 7
        164 64 262 33 55 39 60 63 55 14 -3 60 -11 102 -17z m568 -38 c8 -5 9 -11 3
        -15 -13 -8 -42 3 -42 15 0 11 21 11 39 0z m-657 -403 c-9 -9 -15 -9 -24 0 -9
        9 -7 12 12 12 19 0 21 -3 12 -12z m-77 -19 c-22 -10 -56 -19 -75 -19 l-35 0
        30 20 c19 13 46 20 75 19 l45 -1 -40 -19z m530 -10 c0 -20 -6 -25 -33 -27 -32
        -3 -72 19 -72 39 0 7 71 17 95 14 6 -1 10 -13 10 -26z"/>
        <path d="M1036 1454 c-9 -8 -16 -20 -16 -26 0 -6 1 -9 3 -7 1 2 11 14 21 27
        22 25 16 30 -8 6z"/>
        <path d="M981 1376 c-33 -34 -38 -65 -12 -74 10 -3 12 0 7 13 -4 11 3 30 20
        52 35 46 26 51 -15 9z"/>
        <path d="M1070 1390 c-13 -7 -18 -38 -11 -69 3 -12 31 25 31 41 0 15 5 18 16
        14 14 -5 15 -4 4 9 -14 17 -19 18 -40 5z"/>
        <path d="M930 1205 c7 -8 17 -12 22 -9 6 4 5 10 -3 15 -22 14 -33 10 -19 -6z"/>
    </g>
</svg>
