<?xml version="1.0" standalone="no"?>
<svg version="1.0" xmlns="http://www.w3.org/2000/svg"
 width="150" height="150" viewBox="0 0 190.000000 190.000000"
 preserveAspectRatio="xMidYMid meet">

    <g transform="translate(0.000000,190.000000) scale(0.100000,-0.100000)">
        <path d="M520 1785 c-14 -17 -5 -121 12 -142 16 -19 66 -16 76 5 18 32 25 121
        12 137 -16 20 -84 19 -100 0z m78 -17 c12 -15 0 -94 -16 -110 -21 -21 -39 0
        -46 51 -4 29 -4 56 -1 61 9 14 51 12 63 -2z"/>
        <path d="M727 1770 c-39 -12 -57 -29 -57 -54 0 -36 20 -46 87 -46 59 0 64 2
        75 26 10 21 9 31 -3 52 -16 30 -53 37 -102 22z m78 -45 c0 -30 -1 -30 -55 -30
        -47 0 -55 3 -55 19 0 12 12 23 35 31 55 20 75 15 75 -20z"/>
        <path d="M777 1653 c-28 -3 -41 -10 -49 -28 -9 -20 -14 -22 -29 -12 -13 8 -24
        8 -43 -1 -20 -9 -26 -19 -26 -45 0 -42 -6 -48 -37 -36 -13 5 -63 13 -110 19
        -67 7 -104 18 -160 46 -76 37 -103 39 -103 5 0 -17 -5 -18 -41 -14 -40 6 -41
        5 -37 -23 2 -24 10 -32 45 -44 29 -9 43 -21 45 -35 3 -18 11 -20 75 -21 52 -1
        91 -9 136 -27 35 -14 80 -28 100 -32 30 -6 37 -12 37 -30 0 -12 9 -33 19 -47
        11 -13 21 -37 23 -53 3 -28 6 -30 51 -33 l47 -3 0 -43 c0 -25 6 -48 14 -55 8
        -7 17 -34 21 -62 6 -42 12 -53 43 -74 20 -14 42 -25 50 -25 7 0 31 -12 54 -27
        35 -23 52 -28 104 -27 l62 1 17 -61 c27 -94 15 -172 -40 -266 -63 -108 -71
        -145 -58 -276 10 -95 9 -110 -4 -119 -50 -32 -58 -44 -47 -62 14 -21 78 -20
        133 3 18 8 44 14 56 14 35 0 47 24 56 115 5 47 15 100 22 117 15 36 64 98 77
        98 10 0 89 -135 130 -222 17 -37 38 -72 46 -79 8 -6 14 -20 14 -30 0 -22 34
        -46 77 -55 26 -5 37 -1 58 20 20 20 25 33 21 49 -4 12 -9 46 -11 75 -9 96 -35
        196 -80 307 -25 62 -45 126 -44 145 1 46 21 112 36 117 17 6 71 -72 79 -113 4
        -22 1 -40 -10 -56 -32 -46 -7 -121 44 -131 31 -7 89 13 109 36 20 24 8 200
        -18 279 -41 123 -150 260 -239 300 -47 21 -51 41 -9 46 30 4 67 45 67 75 0 12
        12 38 26 59 40 57 43 115 9 183 -44 87 -145 155 -170 115 -3 -5 -25 -10 -47
        -10 -25 0 -49 -7 -60 -17 -17 -15 -19 -15 -39 3 -26 23 -53 9 -57 -32 -2 -16
        -8 -34 -14 -41 -5 -7 -8 -22 -7 -35 2 -13 -5 -41 -16 -63 -28 -56 -27 -168 1
        -216 l20 -34 -30 -1 c-17 0 -65 -14 -107 -30 -63 -23 -82 -27 -105 -19 -28 10
        -29 14 -29 70 l0 60 45 0 45 0 3 55 c1 30 4 68 5 84 2 26 -2 31 -33 39 -19 5
        -38 15 -43 22 -4 7 -39 21 -77 31 -58 15 -70 22 -70 39 0 12 -4 25 -10 31 -7
        7 2 9 25 6 43 -5 65 11 65 48 0 29 -28 61 -51 58 -8 -1 -31 -3 -52 -5z m80
        -43 c6 -31 -11 -40 -60 -34 -35 5 -47 11 -47 24 0 26 11 31 60 28 30 -2 46 -8
        47 -18z m-389 -83 c51 -4 98 -14 125 -27 23 -11 33 -17 22 -13 -28 9 -166 15
        -184 7 -11 -4 -1 -10 29 -19 25 -7 76 -24 115 -39 85 -32 91 -32 110 -2 19 29
        11 54 -21 62 -20 5 -22 10 -17 37 8 41 13 47 13 16 0 -16 10 -30 30 -41 31
        -17 31 -17 24 -85 -5 -47 -13 -74 -26 -86 -10 -10 -16 -22 -13 -28 10 -15 -5
        -49 -21 -49 -9 0 -14 11 -14 35 0 22 -6 38 -14 41 -8 3 -17 23 -21 44 -6 37
        -9 39 -56 49 -27 6 -77 22 -111 36 -49 20 -72 24 -105 19 -24 -3 -51 -3 -60 1
        -16 6 -15 8 6 19 22 12 20 14 -48 31 -77 19 -107 37 -38 24 23 -4 55 -8 71 -9
        l29 0 -27 25 c-43 40 -30 39 47 -2 62 -34 85 -41 155 -46z m1021 48 c13 -14
        27 -25 32 -25 5 0 23 -29 40 -65 31 -65 31 -75 7 -138 l-10 -27 -17 32 c-16
        31 -16 34 2 55 27 31 8 63 -38 63 -28 0 -37 5 -50 30 -14 28 -19 30 -49 24
        -19 -3 -43 -1 -53 5 -15 7 -27 5 -52 -10 -55 -33 -78 -22 -66 32 6 28 8 29 24
        15 22 -20 41 -20 69 0 15 10 32 14 48 10 15 -4 33 -1 47 9 29 20 38 19 66 -10z
        m-719 -72 c0 -1 -20 5 -45 15 -40 14 -45 20 -45 46 l0 30 45 -44 c25 -24 45
        -45 45 -47z m585 7 c3 -5 21 -10 39 -10 20 0 40 -8 50 -19 10 -11 32 -21 49
        -23 35 -3 50 -35 24 -50 -9 -4 -14 -19 -12 -33 1 -14 -2 -25 -8 -25 -5 0 -3
        -8 4 -17 12 -14 12 -15 0 -9 -10 7 -12 3 -6 -14 5 -15 4 -20 -4 -16 -6 4 -11
        2 -11 -3 0 -17 18 -13 30 7 8 13 10 6 8 -33 -3 -45 -6 -50 -27 -53 -14 -2 -39
        -14 -56 -27 -17 -13 -42 -28 -55 -34 -18 -7 -20 -10 -7 -10 24 -1 21 -18 -5
        -26 -13 -4 -31 -9 -42 -12 -11 -3 -16 -1 -12 5 3 5 -5 12 -17 16 -68 17 -117
        94 -117 182 0 63 31 144 56 144 16 0 19 -16 4 -25 -13 -8 -13 -35 1 -35 33 0
        41 43 13 66 -12 10 -7 16 28 37 47 29 64 32 73 17z m-133 -32 c-7 -7 -12 -8
        -12 -2 0 14 12 26 19 19 2 -3 -1 -11 -7 -17z m-554 -24 c-1 -9 -9 -19 -16 -22
        -11 -3 -12 0 -4 14 5 11 7 26 4 34 -3 11 -2 12 8 4 6 -7 10 -20 8 -30z m-63
        14 c27 -12 33 -28 11 -28 -25 0 -46 12 -46 26 0 17 2 17 35 2z m244 -11 c71
        -21 74 -23 77 -55 2 -18 11 -46 19 -62 17 -34 17 -34 -22 -19 -15 6 -64 14
        -108 17 -90 8 -93 12 -80 99 7 50 9 51 114 20z m121 -51 c0 -3 -4 -8 -10 -11
        -5 -3 -10 -1 -10 4 0 6 5 11 10 11 6 0 10 -2 10 -4z m40 -16 c0 -5 -7 -10 -15
        -10 -8 0 -15 5 -15 10 0 6 7 10 15 10 8 0 15 -4 15 -10z m-20 -45 c0 -8 -4
        -15 -10 -15 -5 0 -7 7 -4 15 4 8 8 15 10 15 2 0 4 -7 4 -15z m-28 -45 c28 0
        38 -4 38 -16 0 -12 -7 -14 -30 -9 -20 4 -39 2 -53 -8 -13 -8 -35 -12 -55 -9
        -20 2 -32 0 -32 -7 0 -7 -9 -5 -25 5 -20 13 -26 14 -29 3 -11 -34 -13 -86 -4
        -103 8 -14 7 -17 -4 -14 -7 3 -15 26 -18 56 -4 41 -2 54 12 66 11 10 15 22 11
        32 -6 16 1 17 72 11 43 -4 95 -7 117 -7z m-216 -21 c3 -5 -8 -9 -25 -9 -22 0
        -29 4 -25 14 5 14 40 11 50 -5z m93 -93 c9 -10 8 -16 -3 -26 -19 -15 -36 -5
        -36 21 0 22 22 25 39 5z m61 -31 c0 -19 -20 -29 -32 -17 -8 8 -7 16 2 26 14
        17 30 12 30 -9z m285 -41 l25 -25 -19 -62 c-10 -34 -24 -95 -31 -134 -8 -44
        -18 -73 -25 -73 -14 0 -45 112 -45 160 0 35 -16 32 -30 -6 -8 -21 -16 -24 -57
        -24 -30 0 -60 7 -80 20 -36 22 -40 32 -19 49 8 7 18 26 21 42 6 27 10 29 55
        29 29 0 68 9 101 24 68 31 73 31 104 0z m55 6 c23 -43 118 -44 164 -1 14 13
        26 17 35 11 10 -6 0 -16 -41 -39 -52 -29 -57 -35 -71 -89 -9 -31 -19 -92 -23
        -134 l-7 -77 27 -11 c15 -5 55 -10 88 -10 l60 0 -7 -47 c-4 -27 -10 -51 -13
        -55 -12 -12 -170 -29 -209 -23 -21 3 -60 11 -86 17 -43 9 -48 13 -43 32 3 11
        6 40 6 64 0 35 3 42 17 40 15 -3 21 14 39 97 11 55 28 123 37 150 21 61 21 62
        -3 70 -11 4 -18 11 -15 16 10 15 34 10 45 -11z m-400 -10 c0 -14 -39 -32 -56
        -26 -8 3 -14 12 -14 21 0 11 10 15 35 15 19 0 35 -4 35 -10z m676 -18 c86 -63
        154 -160 195 -281 27 -76 25 -98 -11 -116 -38 -20 -59 -19 -66 3 -18 54 -31
        79 -58 109 -37 43 -120 89 -86 48 10 -12 10 -21 2 -40 -11 -24 -16 -25 -93
        -25 l-82 0 6 83 c3 46 11 104 17 130 11 40 18 49 55 67 24 12 49 28 55 36 17
        19 21 18 66 -14z m-606 -8 c0 -49 -40 -91 -74 -78 -22 9 -20 21 5 27 16 4 20
        11 16 26 -3 13 -1 19 5 15 6 -4 8 1 3 15 -5 18 -2 21 19 21 21 0 26 -5 26 -26z
        m-72 -26 c-7 -20 -58 -23 -58 -4 0 11 10 16 31 16 20 0 29 -4 27 -12z m898
        -415 c7 -40 -5 -88 -23 -88 -6 0 -15 -3 -19 -7 -11 -12 -36 -10 -29 2 9 14 -8
        13 -23 -2 -18 -18 -24 -4 -12 26 9 25 8 27 -10 21 -23 -7 -24 -5 -8 29 9 22
        62 48 110 55 4 1 10 -15 14 -36z m-535 -9 c87 -15 161 -11 245 12 19 5 26 -6
        64 -98 40 -96 80 -250 80 -309 0 -30 -19 -39 -82 -39 l-37 0 -50 103 c-52 105
        -167 290 -156 249 5 -18 -4 -36 -39 -78 -48 -59 -60 -91 -71 -191 -7 -68 -13
        -73 -91 -73 l-41 0 -7 61 c-9 93 -7 194 5 226 13 35 78 153 84 153 3 0 46 -7
        96 -16z m-61 -444 c-8 -5 -18 -6 -24 -3 -5 4 -1 10 10 13 24 9 34 2 14 -10z
        m-40 -4 c0 -9 -101 -37 -122 -34 -22 3 -22 4 7 20 26 15 115 25 115 14z m498
        -23 c4 -29 -41 -42 -77 -22 -39 22 -37 37 6 42 59 6 68 3 71 -20z"/>
        <path d="M360 1510 c0 -5 10 -10 23 -10 18 0 19 2 7 10 -19 13 -30 13 -30 0z"/>
        <path d="M1340 1449 c-17 -30 -6 -34 14 -4 9 14 12 25 7 25 -6 0 -15 -9 -21
        -21z"/>
        <path d="M1292 1379 c-24 -22 -31 -35 -27 -49 9 -27 25 -25 25 2 0 12 10 32
        22 45 32 34 18 36 -20 2z"/>
        <path d="M1377 1393 c-11 -3 -16 -10 -13 -20 3 -8 6 -21 6 -30 0 -23 24 -9 31
        18 3 13 11 23 18 21 7 -1 10 2 6 8 -6 10 -17 11 -48 3z"/>
        <path d="M1197 1313 c-16 -15 -4 -40 30 -65 20 -16 30 -28 23 -28 -11 0 -11
        -3 -2 -12 9 -9 15 -10 20 -2 11 17 102 27 103 11 0 -6 5 -2 11 10 8 16 7 27
        -6 44 -9 13 -16 18 -16 11 0 -29 -129 -3 -151 30 -3 4 -8 5 -12 1z m123 -53
        c22 0 40 -4 40 -10 0 -5 -22 -10 -49 -10 -39 0 -56 5 -78 25 l-28 25 37 -15
        c21 -8 56 -15 78 -15z"/>
    </g>
</svg>
