<svg xmlns="http://www.w3.org/2000/svg" width="400" height="400" viewBox="0, 0, 400,400">
    <path d="M61.333 18.801 C 61.333 18.875,62.346 19.245,63.583 19.624 C 66.450 20.501,69.527 22.328,72.124 24.696 L 74.167 26.558 77.333 26.967 C 84.611 27.907,100.834 30.492,110.084 32.185 C 115.539 33.183,120.489 34.009,121.084 34.019 C 121.680 34.030,123.217 34.332,124.500 34.691 C 125.783 35.050,130.133 36.103,134.167 37.031 C 146.761 39.929,167.147 45.267,168.271 45.961 C 169.280 46.585,169.712 49.940,168.935 51.125 L 168.208 52.234 166.187 51.605 C 156.148 48.481,136.450 43.105,136.148 43.408 C 136.051 43.505,136.221 44.107,136.525 44.745 C 137.074 45.896,137.123 45.917,142.123 47.125 C 144.897 47.796,151.674 49.563,157.183 51.054 L 167.198 53.763 166.610 55.465 C 166.286 56.401,166.017 57.879,166.011 58.750 C 165.998 60.675,166.671 60.701,159.306 58.490 C 153.620 56.783,138.923 52.667,138.513 52.667 C 138.414 52.667,138.330 53.154,138.325 53.750 C 138.321 54.346,138.187 55.394,138.028 56.080 C 137.742 57.313,137.752 57.330,138.952 57.643 C 139.620 57.817,143.242 58.735,147.000 59.683 C 161.185 63.260,166.998 65.021,167.003 65.743 C 167.005 65.976,167.388 66.987,167.855 67.989 C 168.753 69.919,168.727 70.665,167.715 71.962 L 167.095 72.758 159.298 70.386 C 150.326 67.657,136.082 63.668,135.308 63.667 C 134.788 63.667,133.089 65.221,133.360 65.449 C 133.437 65.514,136.950 66.435,141.167 67.496 C 148.767 69.409,165.942 74.164,166.207 74.429 C 166.329 74.551,163.760 81.298,163.465 81.631 C 163.401 81.704,159.257 80.544,154.257 79.054 C 149.258 77.564,140.967 75.188,135.833 73.773 L 126.500 71.200 122.081 71.274 C 115.922 71.375,112.261 70.414,108.738 67.770 C 107.430 66.788,96.254 64.420,80.071 61.695 C 68.054 59.672,68.903 59.699,66.095 61.243 C 64.851 61.927,62.410 62.964,60.669 63.546 C 57.066 64.754,56.961 64.678,63.167 65.349 C 91.066 68.369,127.334 75.519,154.092 83.275 C 163.417 85.978,162.434 85.354,161.837 88.190 C 160.357 95.215,160.358 104.402,161.841 111.219 C 161.995 111.930,161.976 111.933,160.249 111.471 C 148.003 108.198,131.538 107.676,119.581 110.183 C 115.149 111.112,114.757 111.275,114.003 112.495 C 113.498 113.312,112.986 113.692,112.230 113.811 C 111.645 113.902,109.592 114.225,107.667 114.528 C 99.303 115.844,88.989 118.882,74.167 124.393 C 64.833 127.864,64.056 128.276,61.422 131.151 L 59.438 133.316 53.469 134.496 C 36.733 137.804,29.484 144.743,31.296 155.720 C 31.842 159.022,33.962 163.000,35.177 163.000 C 35.416 163.000,35.647 163.814,35.766 165.083 C 36.104 168.686,38.086 171.870,40.481 172.660 C 41.499 172.996,41.616 173.185,41.991 175.087 C 43.364 182.069,48.787 183.135,54.830 177.611 C 56.595 175.999,56.666 175.969,57.902 176.312 C 64.208 178.063,68.787 174.071,69.701 166.024 C 70.087 162.633,69.570 162.997,76.333 161.357 C 86.509 158.891,94.826 157.667,101.408 157.667 L 104.987 157.667 105.744 159.250 L 106.500 160.833 109.000 161.071 C 120.718 162.187,135.997 165.447,140.616 167.818 C 143.405 169.249,143.396 169.235,142.831 171.333 C 138.061 189.041,137.721 215.683,141.987 237.377 L 142.974 242.398 142.071 243.146 C 119.296 261.987,105.615 275.201,96.845 286.826 C 92.339 292.798,91.354 297.482,93.835 301.138 L 94.653 302.343 93.843 306.088 C 93.398 308.148,91.894 316.133,90.502 323.833 C 86.289 347.131,83.763 357.000,82.012 357.000 C 77.998 357.000,65.210 358.751,62.002 359.741 C 53.298 362.424,48.532 370.408,53.416 374.123 C 58.364 377.886,73.813 378.501,88.167 375.507 C 92.825 374.535,95.694 374.457,99.264 375.205 C 104.747 376.355,111.545 375.299,117.088 372.437 C 121.616 370.098,123.542 367.179,124.052 361.884 C 124.606 356.125,126.389 351.089,133.137 336.224 C 136.843 328.060,139.238 321.984,139.795 319.333 C 139.961 318.540,140.066 318.505,141.977 318.613 C 147.387 318.916,152.065 315.409,164.275 301.898 C 173.676 291.495,176.740 288.775,178.738 289.059 C 179.848 289.216,181.816 292.809,193.490 316.000 C 203.945 336.770,206.270 341.037,209.038 344.536 C 212.813 349.308,218.256 352.000,224.127 352.000 C 226.614 352.000,227.165 352.184,256.541 362.844 C 285.812 373.465,289.866 374.880,299.000 377.666 C 313.643 382.132,317.343 382.352,323.901 379.151 C 333.272 374.577,332.657 365.618,322.302 355.850 C 316.490 350.368,312.603 349.333,297.812 349.333 L 295.478 349.333 292.784 345.250 C 284.747 333.071,274.020 323.813,264.442 320.788 C 261.003 319.702,260.591 319.285,261.039 317.333 C 261.844 313.828,260.136 307.416,256.558 300.516 C 251.649 291.049,243.582 278.270,239.090 272.844 L 237.149 270.500 237.391 268.667 C 238.823 257.804,238.227 246.699,235.974 242.283 C 232.907 236.271,240.928 206.083,245.304 207.169 C 248.247 207.899,255.808 211.387,271.034 219.036 C 284.358 225.730,284.122 225.648,287.655 224.815 C 301.460 221.562,328.736 195.756,340.172 175.129 C 341.037 173.569,341.281 173.375,343.045 172.847 C 354.316 169.471,367.441 156.244,367.535 148.167 C 367.559 146.148,367.753 144.752,368.130 143.898 C 369.258 141.346,369.437 136.517,368.462 134.939 C 368.368 134.787,368.619 134.202,369.019 133.640 C 371.527 130.117,371.085 124.033,367.983 119.388 C 359.874 107.243,342.667 107.906,342.667 120.362 L 342.667 123.000 339.583 123.004 C 337.887 123.006,335.975 123.085,335.333 123.180 C 334.225 123.344,334.102 123.258,332.886 121.486 C 327.015 112.932,315.193 113.905,313.491 123.083 C 313.202 124.641,314.006 124.904,306.738 120.875 C 294.311 113.987,278.851 105.977,268.333 100.979 C 264.758 99.280,261.710 97.784,261.558 97.653 C 261.407 97.523,261.835 96.320,262.510 94.980 C 264.052 91.918,266.539 85.569,266.844 83.913 C 267.178 82.103,267.078 82.087,273.388 84.956 C 293.132 93.933,320.451 107.732,335.281 116.218 C 338.498 118.059,340.987 119.062,338.612 117.561 C 328.739 111.318,303.362 97.549,283.380 87.591 L 267.927 79.890 268.126 78.528 C 268.764 74.161,269.030 70.174,268.838 67.833 C 268.275 60.967,262.482 49.374,257.975 46.093 C 257.164 45.503,256.063 44.683,255.528 44.272 C 254.891 43.782,253.882 42.099,252.604 39.396 C 249.116 32.014,248.812 31.756,241.167 29.657 L 237.167 28.559 234.206 25.617 C 227.610 19.062,223.678 18.955,217.054 25.152 C 213.226 28.733,212.869 28.850,206.138 28.732 C 198.595 28.599,197.567 29.004,192.016 34.300 C 187.922 38.207,185.081 39.138,182.086 37.557 C 179.576 36.231,179.533 34.914,181.871 31.035 C 183.527 28.290,183.024 27.974,179.367 29.460 C 174.149 31.581,170.451 35.319,169.166 39.774 C 168.715 41.337,168.498 41.672,168.053 41.498 C 163.602 39.756,132.300 31.570,118.500 28.539 C 98.212 24.083,61.333 17.801,61.333 18.801 M45.460 19.804 C 33.561 22.692,26.696 35.239,30.475 47.193 C 35.882 64.297,59.848 66.908,68.978 51.388 C 78.512 35.180,63.757 15.364,45.460 19.804 M54.513 23.507 C 64.194 25.979,70.169 35.907,67.463 45.023 C 62.381 62.139,38.952 62.139,33.871 45.023 C 30.245 32.811,42.190 20.361,54.513 23.507 M227.817 24.422 C 228.542 24.785,230.378 26.273,231.897 27.728 C 234.748 30.458,237.596 32.082,242.000 33.489 C 246.378 34.888,248.730 37.207,251.968 43.315 C 253.565 46.329,254.383 47.516,255.220 48.033 C 259.223 50.507,264.201 61.317,264.569 68.333 C 264.727 71.358,264.264 77.302,263.814 78.032 C 263.735 78.160,261.457 77.254,258.752 76.018 C 256.047 74.782,253.111 73.451,252.228 73.061 L 250.623 72.351 251.885 71.259 C 256.249 67.483,256.951 64.569,254.648 59.788 C 252.384 55.089,247.501 53.701,240.529 55.775 C 234.180 57.663,234.132 57.648,230.903 52.833 C 224.351 43.064,223.529 42.723,215.275 46.349 C 208.038 49.528,208.604 49.489,205.005 47.057 C 201.508 44.695,200.420 44.400,197.895 45.134 C 196.341 45.586,192.390 48.099,191.844 48.983 C 191.753 49.129,187.214 47.787,181.756 46.000 L 171.833 42.750 171.921 41.625 C 172.052 39.955,173.776 36.682,175.315 35.182 L 176.667 33.865 176.667 35.110 C 176.667 40.594,184.152 43.451,189.393 39.967 C 190.055 39.527,192.193 37.872,194.143 36.291 C 200.495 31.138,203.133 30.332,207.500 32.209 C 213.250 34.682,213.066 34.733,217.869 29.324 C 223.258 23.255,224.384 22.700,227.817 24.422 M77.000 31.145 C 77.000 31.216,77.314 32.095,77.698 33.097 L 78.396 34.921 80.448 35.143 C 84.220 35.550,101.053 38.247,105.700 39.189 C 106.682 39.388,109.797 37.142,108.947 36.848 C 107.971 36.511,94.382 33.949,86.833 32.678 C 82.433 31.937,78.421 31.260,77.917 31.174 C 77.412 31.087,77.000 31.075,77.000 31.145 M79.000 41.614 C 79.000 42.508,78.907 43.916,78.794 44.743 L 78.588 46.245 81.377 46.640 C 82.911 46.858,87.817 47.627,92.278 48.351 C 101.550 49.855,101.333 49.836,101.333 49.156 C 101.333 48.875,101.641 47.733,102.017 46.617 C 102.392 45.502,102.645 44.534,102.577 44.466 C 102.364 44.253,96.143 43.036,88.184 41.650 C 83.958 40.915,80.162 40.240,79.750 40.150 C 79.052 39.999,79.000 40.101,79.000 41.614 M181.167 49.659 C 184.833 50.806,187.960 51.820,188.115 51.911 C 188.669 52.240,185.539 54.966,183.619 55.828 L 181.659 56.708 178.246 55.627 C 173.810 54.222,172.635 52.839,171.845 48.091 L 171.611 46.682 173.055 47.127 C 173.850 47.372,177.500 48.511,181.167 49.659 M202.767 48.692 C 207.516 51.714,209.477 52.014,214.378 50.466 C 220.453 48.547,224.977 50.296,229.413 56.281 C 231.466 59.050,232.998 59.439,238.167 58.505 C 244.975 57.275,248.265 58.047,250.250 61.340 C 252.137 64.470,251.536 67.732,248.645 70.060 L 247.456 71.017 245.520 70.161 C 243.235 69.151,243.062 69.232,243.752 70.990 C 244.039 71.721,244.198 72.613,244.104 72.971 C 243.974 73.469,244.954 74.630,248.257 77.895 C 254.129 83.698,256.319 88.108,256.331 94.150 C 256.334 95.890,256.013 95.436,254.692 91.833 C 252.056 84.645,245.960 76.397,243.876 77.196 C 242.938 77.556,243.272 78.374,245.283 80.638 C 249.175 85.019,252.219 89.693,253.675 93.521 C 254.343 95.280,252.480 93.720,251.017 91.296 C 249.017 87.981,245.041 83.902,243.960 84.054 C 242.384 84.277,242.784 85.454,245.230 87.784 C 246.478 88.975,247.767 90.404,248.094 90.961 L 248.688 91.973 246.761 91.112 C 233.078 85.002,226.333 82.278,226.333 82.862 C 226.333 85.000,226.906 85.399,234.256 88.398 C 242.139 91.614,244.401 93.260,247.369 97.938 C 249.544 101.366,250.328 99.703,248.332 95.896 C 247.331 93.986,247.326 93.953,248.072 94.183 C 250.125 94.816,250.686 95.385,252.168 98.336 C 253.952 101.888,253.914 101.583,252.611 101.921 C 251.025 102.332,250.688 103.107,251.604 104.238 C 254.202 107.447,254.803 111.354,253.227 114.795 C 252.178 117.087,252.777 117.133,246.635 114.292 C 241.823 112.067,227.357 105.667,227.139 105.667 C 226.468 105.667,228.233 108.683,229.076 108.977 C 229.643 109.174,234.750 111.319,240.424 113.743 L 250.741 118.150 249.648 119.063 C 248.076 120.375,245.928 121.000,242.993 121.000 L 240.438 121.000 238.194 123.659 C 233.380 129.363,227.267 134.389,221.083 137.727 C 219.387 138.642,218.000 139.587,218.000 139.826 C 218.000 140.918,221.957 140.647,225.464 139.314 C 227.557 138.519,227.603 138.582,226.459 140.682 C 223.349 146.397,213.715 151.000,204.865 151.000 C 200.002 151.000,195.733 149.246,200.156 149.065 C 202.938 148.951,207.064 148.012,207.032 147.500 C 207.021 147.317,205.546 147.072,203.756 146.956 C 179.424 145.380,160.975 117.703,165.624 89.750 C 166.159 86.536,165.727 86.662,170.966 88.197 C 175.832 89.623,175.664 89.698,173.686 86.990 C 172.153 84.893,172.003 84.785,169.544 84.014 C 167.267 83.300,167.016 83.140,167.206 82.524 C 167.872 80.365,169.424 76.339,169.767 75.880 C 170.127 75.397,170.583 75.476,174.417 76.687 L 178.667 78.030 178.667 79.799 C 178.667 85.179,182.590 86.112,184.382 81.158 C 184.616 80.511,184.963 80.039,185.153 80.109 C 185.344 80.178,187.450 80.876,189.833 81.659 C 192.217 82.442,194.300 83.205,194.463 83.354 C 194.627 83.504,192.873 85.464,190.546 87.730 C 185.568 92.580,185.644 92.305,187.990 96.980 C 190.159 101.303,191.937 102.404,194.021 100.717 L 194.782 100.101 193.224 97.220 C 191.148 93.380,191.152 93.351,194.569 88.565 C 196.165 86.329,197.512 84.441,197.562 84.369 C 197.661 84.224,201.577 85.573,211.136 89.048 C 214.603 90.307,217.493 91.285,217.557 91.220 C 217.677 91.101,207.644 87.125,201.449 84.838 L 198.064 83.588 199.079 81.877 C 202.261 76.520,202.034 72.964,198.815 77.730 C 198.281 78.520,197.289 79.935,196.610 80.874 L 195.376 82.580 190.188 80.741 L 185.000 78.902 185.000 77.251 C 185.000 73.113,181.848 71.478,180.068 74.692 C 178.825 76.935,179.154 76.883,174.971 75.504 C 172.879 74.815,171.039 74.134,170.883 73.992 C 170.568 73.704,173.993 67.334,174.462 67.334 C 174.625 67.334,177.532 68.239,180.923 69.345 C 188.076 71.679,187.896 71.699,185.780 68.792 L 184.149 66.550 180.491 65.330 C 176.289 63.929,176.348 64.036,178.352 61.454 C 180.286 58.964,182.528 58.274,185.566 59.231 C 187.902 59.968,187.903 59.967,183.667 61.818 C 178.744 63.970,178.773 64.038,184.909 64.677 C 189.435 65.148,190.359 64.594,189.928 61.662 C 189.848 61.115,189.893 60.667,190.029 60.667 C 190.495 60.667,210.932 67.677,218.198 70.330 C 222.194 71.788,225.509 72.936,225.564 72.880 C 225.830 72.614,201.899 63.628,189.879 59.481 L 185.259 57.886 186.379 57.302 C 186.996 56.981,188.320 55.882,189.322 54.859 C 191.530 52.606,190.640 52.589,198.154 55.022 C 201.589 56.135,204.448 56.997,204.507 56.937 C 204.566 56.878,203.955 55.911,203.150 54.788 L 201.685 52.746 197.968 51.474 L 194.252 50.202 195.209 49.406 C 198.176 46.939,199.777 46.788,202.767 48.692 M75.570 52.886 C 75.058 53.728,74.683 54.450,74.737 54.490 C 74.790 54.530,77.308 54.901,80.333 55.315 C 83.358 55.729,89.327 56.652,93.597 57.367 C 97.868 58.082,101.484 58.667,101.635 58.667 C 102.132 58.667,101.240 55.682,100.695 55.521 C 98.961 55.011,78.224 51.328,77.175 51.344 C 76.736 51.351,76.175 51.889,75.570 52.886 M173.351 56.189 C 173.983 56.842,174.981 57.676,175.569 58.040 L 176.638 58.703 175.121 60.768 C 174.286 61.904,173.552 62.886,173.490 62.951 C 173.427 63.016,172.376 62.736,171.154 62.329 L 168.933 61.590 169.165 59.733 C 169.733 55.188,171.191 53.953,173.351 56.189 M219.531 64.703 C 217.712 66.726,217.654 67.138,219.083 67.873 C 220.828 68.770,223.822 70.877,225.208 72.184 C 229.836 76.548,229.157 71.104,224.323 65.083 C 222.197 62.436,221.611 62.389,219.531 64.703 M256.000 77.047 C 259.942 78.727,263.215 80.140,263.274 80.186 C 263.488 80.354,261.008 87.343,259.785 90.017 C 258.385 93.080,258.421 93.097,257.522 88.976 C 256.565 84.591,254.359 80.910,249.886 76.234 C 247.110 73.333,247.367 73.367,256.000 77.047 M216.183 79.083 C 213.272 81.995,213.442 88.912,216.433 89.271 C 217.787 89.433,218.539 88.826,219.558 86.752 C 222.110 81.555,219.543 75.723,216.183 79.083 M254.810 97.190 C 255.407 97.788,255.402 97.767,255.131 98.473 C 254.819 99.286,254.434 99.103,254.033 97.950 C 253.508 96.445,253.789 96.170,254.810 97.190 M241.556 97.222 C 241.113 97.665,241.353 98.397,242.349 99.636 C 242.907 100.331,243.480 101.335,243.623 101.866 C 243.962 103.134,245.438 103.270,245.611 102.049 C 245.939 99.735,242.790 95.987,241.556 97.222 M266.890 102.707 C 276.981 107.348,294.153 115.745,304.130 120.917 L 313.093 125.563 313.810 128.031 C 314.205 129.389,315.221 131.775,316.067 133.333 C 318.058 136.996,318.763 139.380,320.194 147.293 C 320.840 150.864,321.441 153.905,321.531 154.050 C 322.125 155.011,320.585 156.278,316.936 157.829 C 306.397 162.309,298.612 167.015,293.930 171.738 L 291.004 174.689 290.440 173.261 C 281.656 151.020,261.047 134.765,239.167 132.820 C 237.883 132.705,236.639 132.551,236.401 132.477 C 236.153 132.400,237.033 131.414,238.460 130.169 C 239.830 128.974,241.622 127.229,242.442 126.292 L 243.933 124.588 246.231 124.517 C 248.958 124.432,251.541 123.380,253.607 121.514 L 254.967 120.285 262.067 123.550 C 275.529 129.741,304.158 144.274,314.122 149.974 C 315.155 150.565,315.999 150.925,315.998 150.774 C 315.997 150.624,315.509 150.218,314.915 149.873 C 296.985 139.481,283.039 131.921,267.479 124.159 L 256.458 118.661 257.646 116.268 C 259.264 113.008,259.392 108.490,257.939 105.915 L 257.045 104.331 258.606 102.011 C 259.464 100.735,260.192 99.686,260.223 99.679 C 260.254 99.672,263.254 101.035,266.890 102.707 M172.398 104.584 C 169.460 107.341,169.448 107.461,171.673 112.213 C 173.349 115.793,173.837 116.193,174.058 114.167 C 174.228 112.608,175.352 112.666,177.245 114.332 C 187.379 123.253,195.886 123.870,210.752 116.763 C 215.840 114.332,216.408 114.474,216.261 118.146 C 216.117 121.741,216.802 121.253,218.539 116.524 C 220.591 110.939,220.732 111.452,215.814 106.616 C 213.512 104.352,211.390 102.447,211.099 102.383 C 210.544 102.260,210.540 102.120,211.205 105.801 C 211.495 107.407,210.721 107.803,205.333 108.796 C 193.239 111.027,189.462 110.884,180.059 107.840 C 175.471 106.354,174.934 105.910,175.218 103.839 C 175.490 101.850,175.240 101.917,172.398 104.584 M178.692 109.185 C 188.607 112.599,195.092 112.988,205.907 110.817 C 212.279 109.539,214.333 109.830,214.333 112.010 C 214.333 113.262,213.955 113.451,206.782 115.780 C 195.453 119.457,190.648 119.217,181.396 114.509 C 174.393 110.946,174.333 110.904,174.333 109.505 C 174.333 108.017,175.129 107.959,178.692 109.185 M149.303 113.975 C 151.761 114.347,155.972 115.188,158.661 115.843 L 163.549 117.034 164.648 119.767 C 167.376 126.551,172.196 133.297,177.299 137.472 C 179.461 139.240,179.559 139.386,179.926 141.361 C 180.845 146.301,185.290 152.557,189.591 154.964 C 190.048 155.220,189.979 155.474,189.078 156.879 C 185.066 163.132,180.815 178.231,181.066 185.333 C 181.220 189.680,181.708 189.203,184.668 181.811 C 190.238 167.903,196.874 158.866,200.996 159.575 C 213.770 161.771,227.623 153.040,234.241 138.624 C 235.338 136.231,235.463 136.189,239.575 136.804 C 256.152 139.282,273.531 152.745,283.628 170.931 C 289.258 181.070,277.499 203.675,263.890 208.875 L 261.559 209.766 254.863 206.466 C 251.180 204.652,248.109 203.134,248.038 203.093 C 247.967 203.053,248.792 201.952,249.871 200.648 C 255.452 193.902,255.471 193.857,254.279 190.327 C 253.658 188.488,253.507 188.277,253.195 188.812 C 252.996 189.154,250.799 191.924,248.313 194.967 C 239.139 206.199,237.291 209.061,234.425 216.481 C 233.166 219.740,231.000 227.929,231.000 229.428 C 231.000 231.291,228.201 234.518,223.583 237.977 L 221.667 239.413 221.667 246.382 L 221.667 253.350 222.716 252.808 L 223.765 252.265 223.568 258.049 C 223.385 263.429,222.473 270.378,221.676 272.475 C 221.449 273.072,221.499 273.389,221.868 273.696 C 222.775 274.448,230.181 284.422,233.233 289.000 C 245.026 306.692,254.381 330.403,251.759 335.956 C 247.577 344.814,234.502 349.597,219.774 347.656 C 214.720 346.991,213.221 344.579,191.085 301.500 C 182.015 283.848,181.543 283.077,178.957 281.715 C 176.801 280.579,170.085 276.623,168.054 275.293 L 166.941 274.564 168.276 277.199 C 169.186 278.995,170.265 280.470,171.663 281.833 C 174.781 284.872,174.804 284.426,171.297 289.089 C 152.721 313.791,139.798 319.034,117.773 310.805 C 113.670 309.272,101.438 303.047,99.353 301.431 C 97.914 300.316,100.821 292.908,105.473 285.833 C 116.931 268.410,125.575 259.399,140.412 249.410 L 144.658 246.551 147.246 249.192 L 149.833 251.833 149.923 244.542 L 150.013 237.250 148.477 235.385 C 145.854 232.198,145.447 231.232,144.873 226.833 C 142.402 207.895,143.149 189.329,147.027 173.279 C 147.974 169.359,148.010 168.987,147.540 168.078 C 145.524 164.178,136.872 160.803,122.861 158.451 C 119.912 157.956,117.447 157.511,117.383 157.464 C 117.318 157.416,117.868 155.830,118.603 153.938 C 122.685 143.447,125.631 121.120,123.794 114.606 C 123.340 112.994,140.084 112.580,149.303 113.975 M357.761 115.332 C 362.337 117.051,364.991 120.880,365.268 126.162 C 365.439 129.411,365.307 129.520,363.484 127.644 C 360.031 124.089,355.610 122.172,350.947 122.208 L 348.060 122.231 347.845 120.798 C 346.995 115.125,351.134 112.843,357.761 115.332 M325.264 119.528 C 327.095 120.440,329.334 122.715,330.343 124.689 C 331.280 126.521,331.663 126.688,336.575 127.405 C 341.935 128.188,341.729 128.075,341.297 129.998 C 341.111 130.822,341.053 132.174,341.167 133.001 C 341.338 134.249,341.200 134.876,340.356 136.680 C 337.003 143.846,340.159 149.066,347.888 149.138 C 351.536 149.172,351.515 149.187,350.748 147.128 L 350.142 145.500 347.942 145.615 C 343.755 145.834,342.212 143.186,344.214 139.215 C 347.375 132.945,357.150 133.975,360.570 140.939 C 363.535 146.978,361.041 153.497,352.771 161.324 C 344.726 168.938,338.627 171.083,331.823 168.691 C 327.249 167.084,323.549 160.783,325.627 158.141 C 326.356 157.215,326.438 157.736,324.729 152.500 C 324.370 151.400,323.592 147.725,322.999 144.333 C 321.784 137.374,321.096 134.887,319.431 131.424 C 317.842 128.119,317.991 128.062,322.167 130.367 C 329.015 134.148,330.167 134.756,329.833 134.413 C 329.650 134.224,327.025 132.638,324.000 130.888 C 317.323 127.026,317.666 127.323,317.669 125.404 C 317.675 119.930,320.965 117.385,325.264 119.528 M113.451 125.333 C 113.376 134.772,111.948 143.167,109.361 149.383 C 107.605 153.601,108.087 153.333,102.231 153.333 C 94.196 153.332,85.205 154.643,73.253 157.557 C 66.080 159.306,66.454 159.358,64.106 156.288 C 60.300 151.312,58.903 146.470,60.153 142.581 C 61.377 138.770,65.272 133.606,68.037 132.128 C 72.752 129.607,84.141 125.297,92.000 123.060 C 98.581 121.186,101.927 120.483,110.333 119.203 C 110.792 119.133,111.692 119.096,112.333 119.121 L 113.500 119.167 113.451 125.333 M184.794 124.064 C 184.550 124.459,184.682 124.586,186.927 126.104 C 189.351 127.746,192.755 128.125,194.250 126.921 C 194.875 126.417,194.764 124.741,194.083 124.389 C 193.235 123.950,185.041 123.664,184.794 124.064 M354.189 125.698 C 360.122 126.793,364.000 131.215,364.000 136.888 L 364.000 139.085 361.581 136.792 C 357.544 132.967,353.276 131.162,348.796 131.389 C 346.061 131.527,346.054 131.520,346.680 129.264 C 347.283 127.095,348.820 125.975,352.022 125.369 C 352.126 125.349,353.101 125.498,354.189 125.698 M57.040 137.587 C 53.583 144.364,54.532 150.845,60.049 158.128 C 61.768 160.399,65.264 163.333,66.249 163.333 C 68.652 163.333,64.192 171.854,61.426 172.548 C 56.423 173.804,54.142 170.339,57.514 166.607 C 59.165 164.780,58.900 163.346,57.041 164.044 C 54.902 164.847,52.819 167.680,52.008 170.888 C 51.317 173.617,47.889 177.255,46.700 176.520 C 45.342 175.681,44.304 169.279,44.997 166.014 C 45.423 164.009,45.182 163.000,44.277 163.000 C 43.490 163.000,42.374 164.699,42.010 166.451 C 41.509 168.867,41.324 168.823,40.011 165.973 C 38.535 162.771,38.259 159.041,39.297 156.333 C 40.866 152.240,39.216 151.556,36.412 155.138 C 35.399 156.432,35.265 156.178,35.251 152.937 C 35.214 144.984,39.585 140.870,51.311 137.822 C 58.191 136.033,57.826 136.048,57.040 137.587 M321.257 163.359 C 322.397 169.118,325.508 172.176,332.592 174.504 L 335.351 175.411 334.447 176.955 C 327.827 188.268,316.798 201.314,307.500 208.829 C 299.172 215.559,291.906 219.071,285.333 219.541 C 281.969 219.782,280.088 219.238,275.833 216.794 C 271.588 214.356,271.599 214.380,273.897 212.660 C 283.612 205.385,290.042 194.399,292.159 181.462 C 292.840 177.297,296.223 173.006,300.830 170.464 C 301.199 170.260,302.589 169.470,303.919 168.706 C 307.897 166.425,319.839 160.973,320.500 161.136 C 320.683 161.181,321.024 162.182,321.257 163.359 M154.410 248.216 L 154.500 255.139 156.342 256.174 C 162.684 259.739,170.002 261.718,178.652 262.206 L 182.667 262.433 182.667 256.761 L 182.667 251.089 179.417 250.916 C 171.923 250.516,164.489 248.027,158.087 243.773 C 156.481 242.707,154.976 241.712,154.743 241.563 C 154.405 241.347,154.338 242.681,154.410 248.216 M215.667 243.001 C 210.431 245.870,201.346 248.811,193.583 250.148 L 192.333 250.364 192.333 256.021 L 192.333 261.679 193.083 261.520 C 193.496 261.432,195.483 261.116,197.500 260.818 C 201.919 260.165,210.077 258.121,214.083 256.664 L 217.000 255.604 217.000 248.968 C 217.000 245.319,216.963 242.340,216.917 242.347 C 216.871 242.355,216.308 242.649,215.667 243.001 M233.050 248.416 C 233.632 250.681,233.637 264.576,233.056 268.960 C 232.584 272.527,232.349 271.932,235.788 275.876 C 242.609 283.699,252.972 303.503,255.538 313.618 C 256.354 316.833,256.643 325.878,256.015 328.500 C 255.734 329.672,255.877 330.082,254.504 324.167 C 250.875 308.525,243.241 293.146,231.166 277.147 L 227.125 271.794 227.912 268.147 C 229.821 259.305,230.077 255.553,229.042 251.586 L 228.456 249.339 230.311 247.871 C 232.485 246.152,232.467 246.148,233.050 248.416 M99.509 305.458 C 100.042 305.830,106.398 309.587,113.000 313.433 C 120.899 318.034,124.794 319.333,130.692 319.333 L 133.675 319.333 133.478 320.750 C 133.370 321.529,133.167 322.467,133.027 322.833 C 132.887 323.200,132.268 325.075,131.651 327.000 C 130.562 330.399,128.580 335.574,126.674 340.000 C 121.998 350.853,120.333 355.419,119.656 359.244 C 119.122 362.259,119.844 362.055,109.557 362.089 C 101.131 362.116,97.779 361.831,94.000 360.766 C 89.947 359.623,86.825 357.035,87.516 355.391 C 87.909 354.456,88.501 351.551,89.634 345.000 C 90.934 337.481,91.349 335.144,91.675 333.500 C 91.856 332.583,92.462 329.508,93.021 326.667 C 93.983 321.778,95.655 314.356,96.287 312.167 C 96.446 311.617,96.765 310.492,96.996 309.667 C 98.384 304.699,98.395 304.682,99.509 305.458 M265.117 325.883 C 274.734 331.237,278.663 334.468,285.533 342.674 C 293.481 352.167,296.405 359.384,294.142 363.924 C 292.519 367.181,287.706 369.618,285.412 368.346 C 285.094 368.169,281.908 367.049,278.333 365.856 C 274.758 364.664,270.033 363.065,267.833 362.304 C 259.673 359.479,238.461 352.275,237.333 351.945 C 233.569 350.842,233.878 349.189,237.921 348.803 C 251.682 347.490,258.884 340.693,260.847 327.167 C 261.086 325.517,261.293 324.129,261.308 324.083 C 261.378 323.855,261.999 324.148,265.117 325.883 M308.304 354.356 C 313.867 354.802,313.940 354.832,316.987 357.934 C 323.993 365.066,324.409 372.184,318.038 375.929 C 315.284 377.548,313.351 377.235,298.833 372.816 C 297.367 372.369,295.304 371.753,294.250 371.447 C 291.871 370.756,291.874 370.676,294.326 369.504 C 299.509 367.026,301.029 361.955,298.798 354.583 C 298.581 353.865,301.354 353.798,308.304 354.356 M85.513 362.508 C 93.607 365.395,104.178 366.355,115.750 365.254 C 118.833 364.961,119.002 365.231,117.014 367.279 C 114.045 370.339,112.721 370.611,99.000 370.987 C 92.858 371.155,85.733 371.471,83.167 371.690 C 75.337 372.357,67.644 371.754,60.889 369.945 C 57.848 369.130,57.658 368.862,58.815 367.029 C 60.698 364.047,62.972 363.137,71.333 362.024 C 74.175 361.645,77.400 361.204,78.500 361.042 C 79.600 360.881,80.725 360.823,81.000 360.913 C 81.275 361.003,83.306 361.720,85.513 362.508 "
          fill-rule="evenodd">
    </path>
</svg>